<?xml version="1.0" encoding="utf-8" standalone="no"?>
<!DOCTYPE svg PUBLIC "-//W3C//DTD SVG 1.1//EN"
  "http://www.w3.org/Graphics/SVG/1.1/DTD/svg11.dtd">
<svg xmlns:xlink="http://www.w3.org/1999/xlink" width="770.510937pt" height="519.56425pt" viewBox="0 0 770.510937 519.56425" xmlns="http://www.w3.org/2000/svg" version="1.1">
 <metadata>
  <rdf:RDF xmlns:dc="http://purl.org/dc/elements/1.1/" xmlns:cc="http://creativecommons.org/ns#" xmlns:rdf="http://www.w3.org/1999/02/22-rdf-syntax-ns#">
   <cc:Work>
    <dc:type rdf:resource="http://purl.org/dc/dcmitype/StillImage"/>
    <dc:date>2026-06-08T16:33:31.443861</dc:date>
    <dc:format>image/svg+xml</dc:format>
    <dc:creator>
     <cc:Agent>
      <dc:title>Matplotlib v3.10.9, https://matplotlib.org/</dc:title>
     </cc:Agent>
    </dc:creator>
   </cc:Work>
  </rdf:RDF>
 </metadata>
 <defs>
  <style type="text/css">*{stroke-linejoin: round; stroke-linecap: butt}</style>
 </defs>
 <g id="figure_1">
  <g id="patch_1">
   <path d="M 0 519.56425 
L 770.510937 519.56425 
L 770.510937 0 
L 0 0 
z
" style="fill: #ffffff"/>
  </g>
  <g id="axes_1">
   <g id="patch_2">
    <path d="M 52.160938 265.422 
L 763.310938 265.422 
L 763.310938 80.336 
L 52.160938 80.336 
z
" style="fill: #ffffff"/>
   </g>
   <g id="matplotlib.axis_1">
    <g id="xtick_1">
     <g id="line2d_1">
      <path d="M 52.160938 265.422 
L 52.160938 80.336 
" clip-path="url(#p0ec46ea562)" style="fill: none; stroke: #b0b0b0; stroke-opacity: 0.22; stroke-width: 0.8; stroke-linecap: square"/>
     </g>
     <g id="line2d_2">
      <defs>
       <path id="m4394dcbd17" d="M 0 0 
L 0 3.5 
" style="stroke: #000000; stroke-width: 0.8"/>
      </defs>
      <g>
       <use xlink:href="#m4394dcbd17" x="52.160938" y="265.422" style="stroke: #000000; stroke-width: 0.8"/>
      </g>
     </g>
    </g>
    <g id="xtick_2">
     <g id="line2d_3">
      <path d="M 188.920553 265.422 
L 188.920553 80.336 
" clip-path="url(#p0ec46ea562)" style="fill: none; stroke: #b0b0b0; stroke-opacity: 0.22; stroke-width: 0.8; stroke-linecap: square"/>
     </g>
     <g id="line2d_4">
      <g>
       <use xlink:href="#m4394dcbd17" x="188.920553" y="265.422" style="stroke: #000000; stroke-width: 0.8"/>
      </g>
     </g>
    </g>
    <g id="xtick_3">
     <g id="line2d_5">
      <path d="M 325.680168 265.422 
L 325.680168 80.336 
" clip-path="url(#p0ec46ea562)" style="fill: none; stroke: #b0b0b0; stroke-opacity: 0.22; stroke-width: 0.8; stroke-linecap: square"/>
     </g>
     <g id="line2d_6">
      <g>
       <use xlink:href="#m4394dcbd17" x="325.680168" y="265.422" style="stroke: #000000; stroke-width: 0.8"/>
      </g>
     </g>
    </g>
    <g id="xtick_4">
     <g id="line2d_7">
      <path d="M 462.439784 265.422 
L 462.439784 80.336 
" clip-path="url(#p0ec46ea562)" style="fill: none; stroke: #b0b0b0; stroke-opacity: 0.22; stroke-width: 0.8; stroke-linecap: square"/>
     </g>
     <g id="line2d_8">
      <g>
       <use xlink:href="#m4394dcbd17" x="462.439784" y="265.422" style="stroke: #000000; stroke-width: 0.8"/>
      </g>
     </g>
    </g>
    <g id="xtick_5">
     <g id="line2d_9">
      <path d="M 599.199399 265.422 
L 599.199399 80.336 
" clip-path="url(#p0ec46ea562)" style="fill: none; stroke: #b0b0b0; stroke-opacity: 0.22; stroke-width: 0.8; stroke-linecap: square"/>
     </g>
     <g id="line2d_10">
      <g>
       <use xlink:href="#m4394dcbd17" x="599.199399" y="265.422" style="stroke: #000000; stroke-width: 0.8"/>
      </g>
     </g>
    </g>
    <g id="xtick_6">
     <g id="line2d_11">
      <path d="M 735.959014 265.422 
L 735.959014 80.336 
" clip-path="url(#p0ec46ea562)" style="fill: none; stroke: #b0b0b0; stroke-opacity: 0.22; stroke-width: 0.8; stroke-linecap: square"/>
     </g>
     <g id="line2d_12">
      <g>
       <use xlink:href="#m4394dcbd17" x="735.959014" y="265.422" style="stroke: #000000; stroke-width: 0.8"/>
      </g>
     </g>
    </g>
   </g>
   <g id="matplotlib.axis_2">
    <g id="ytick_1">
     <g id="line2d_13">
      <path d="M 52.160938 258.811786 
L 763.310938 258.811786 
" clip-path="url(#p0ec46ea562)" style="fill: none; stroke: #b0b0b0; stroke-opacity: 0.22; stroke-width: 0.8; stroke-linecap: square"/>
     </g>
     <g id="line2d_14">
      <defs>
       <path id="m10af29163b" d="M 0 0 
L -3.5 0 
" style="stroke: #000000; stroke-width: 0.8"/>
      </defs>
      <g>
       <use xlink:href="#m10af29163b" x="52.160938" y="258.811786" style="stroke: #000000; stroke-width: 0.8"/>
      </g>
     </g>
     <g id="text_1">
      <!-- −0.5 -->
      <g transform="translate(20.878125 262.611004) scale(0.1 -0.1)">
       <defs>
        <path id="DejaVuSans-2212" d="M 678 2272 
L 4684 2272 
L 4684 1741 
L 678 1741 
L 678 2272 
z
" transform="scale(0.015625)"/>
        <path id="DejaVuSans-30" d="M 2034 4250 
Q 1547 4250 1301 3770 
Q 1056 3291 1056 2328 
Q 1056 1369 1301 889 
Q 1547 409 2034 409 
Q 2525 409 2770 889 
Q 3016 1369 3016 2328 
Q 3016 3291 2770 3770 
Q 2525 4250 2034 4250 
z
M 2034 4750 
Q 2819 4750 3233 4129 
Q 3647 3509 3647 2328 
Q 3647 1150 3233 529 
Q 2819 -91 2034 -91 
Q 1250 -91 836 529 
Q 422 1150 422 2328 
Q 422 3509 836 4129 
Q 1250 4750 2034 4750 
z
" transform="scale(0.015625)"/>
        <path id="DejaVuSans-2e" d="M 684 794 
L 1344 794 
L 1344 0 
L 684 0 
L 684 794 
z
" transform="scale(0.015625)"/>
        <path id="DejaVuSans-35" d="M 691 4666 
L 3169 4666 
L 3169 4134 
L 1269 4134 
L 1269 2991 
Q 1406 3038 1543 3061 
Q 1681 3084 1819 3084 
Q 2600 3084 3056 2656 
Q 3513 2228 3513 1497 
Q 3513 744 3044 326 
Q 2575 -91 1722 -91 
Q 1428 -91 1123 -41 
Q 819 9 494 109 
L 494 744 
Q 775 591 1075 516 
Q 1375 441 1709 441 
Q 2250 441 2565 725 
Q 2881 1009 2881 1497 
Q 2881 1984 2565 2268 
Q 2250 2553 1709 2553 
Q 1456 2553 1204 2497 
Q 953 2441 691 2322 
L 691 4666 
z
" transform="scale(0.015625)"/>
       </defs>
       <use xlink:href="#DejaVuSans-2212"/>
       <use xlink:href="#DejaVuSans-30" transform="translate(83.789062 0)"/>
       <use xlink:href="#DejaVuSans-2e" transform="translate(147.412109 0)"/>
       <use xlink:href="#DejaVuSans-35" transform="translate(179.199219 0)"/>
      </g>
     </g>
    </g>
    <g id="ytick_2">
     <g id="line2d_15">
      <path d="M 52.160938 225.760714 
L 763.310938 225.760714 
" clip-path="url(#p0ec46ea562)" style="fill: none; stroke: #b0b0b0; stroke-opacity: 0.22; stroke-width: 0.8; stroke-linecap: square"/>
     </g>
     <g id="line2d_16">
      <g>
       <use xlink:href="#m10af29163b" x="52.160938" y="225.760714" style="stroke: #000000; stroke-width: 0.8"/>
      </g>
     </g>
     <g id="text_2">
      <!-- 0.0 -->
      <g transform="translate(29.257813 229.559933) scale(0.1 -0.1)">
       <use xlink:href="#DejaVuSans-30"/>
       <use xlink:href="#DejaVuSans-2e" transform="translate(63.623047 0)"/>
       <use xlink:href="#DejaVuSans-30" transform="translate(95.410156 0)"/>
      </g>
     </g>
    </g>
    <g id="ytick_3">
     <g id="line2d_17">
      <path d="M 52.160938 192.709643 
L 763.310938 192.709643 
" clip-path="url(#p0ec46ea562)" style="fill: none; stroke: #b0b0b0; stroke-opacity: 0.22; stroke-width: 0.8; stroke-linecap: square"/>
     </g>
     <g id="line2d_18">
      <g>
       <use xlink:href="#m10af29163b" x="52.160938" y="192.709643" style="stroke: #000000; stroke-width: 0.8"/>
      </g>
     </g>
     <g id="text_3">
      <!-- 0.5 -->
      <g transform="translate(29.257813 196.508862) scale(0.1 -0.1)">
       <use xlink:href="#DejaVuSans-30"/>
       <use xlink:href="#DejaVuSans-2e" transform="translate(63.623047 0)"/>
       <use xlink:href="#DejaVuSans-35" transform="translate(95.410156 0)"/>
      </g>
     </g>
    </g>
    <g id="ytick_4">
     <g id="line2d_19">
      <path d="M 52.160938 159.658571 
L 763.310938 159.658571 
" clip-path="url(#p0ec46ea562)" style="fill: none; stroke: #b0b0b0; stroke-opacity: 0.22; stroke-width: 0.8; stroke-linecap: square"/>
     </g>
     <g id="line2d_20">
      <g>
       <use xlink:href="#m10af29163b" x="52.160938" y="159.658571" style="stroke: #000000; stroke-width: 0.8"/>
      </g>
     </g>
     <g id="text_4">
      <!-- 1.0 -->
      <g transform="translate(29.257813 163.45779) scale(0.1 -0.1)">
       <defs>
        <path id="DejaVuSans-31" d="M 794 531 
L 1825 531 
L 1825 4091 
L 703 3866 
L 703 4441 
L 1819 4666 
L 2450 4666 
L 2450 531 
L 3481 531 
L 3481 0 
L 794 0 
L 794 531 
z
" transform="scale(0.015625)"/>
       </defs>
       <use xlink:href="#DejaVuSans-31"/>
       <use xlink:href="#DejaVuSans-2e" transform="translate(63.623047 0)"/>
       <use xlink:href="#DejaVuSans-30" transform="translate(95.410156 0)"/>
      </g>
     </g>
    </g>
    <g id="ytick_5">
     <g id="line2d_21">
      <path d="M 52.160938 126.6075 
L 763.310938 126.6075 
" clip-path="url(#p0ec46ea562)" style="fill: none; stroke: #b0b0b0; stroke-opacity: 0.22; stroke-width: 0.8; stroke-linecap: square"/>
     </g>
     <g id="line2d_22">
      <g>
       <use xlink:href="#m10af29163b" x="52.160938" y="126.6075" style="stroke: #000000; stroke-width: 0.8"/>
      </g>
     </g>
     <g id="text_5">
      <!-- 1.5 -->
      <g transform="translate(29.257813 130.406719) scale(0.1 -0.1)">
       <use xlink:href="#DejaVuSans-31"/>
       <use xlink:href="#DejaVuSans-2e" transform="translate(63.623047 0)"/>
       <use xlink:href="#DejaVuSans-35" transform="translate(95.410156 0)"/>
      </g>
     </g>
    </g>
    <g id="ytick_6">
     <g id="line2d_23">
      <path d="M 52.160938 93.556429 
L 763.310938 93.556429 
" clip-path="url(#p0ec46ea562)" style="fill: none; stroke: #b0b0b0; stroke-opacity: 0.22; stroke-width: 0.8; stroke-linecap: square"/>
     </g>
     <g id="line2d_24">
      <g>
       <use xlink:href="#m10af29163b" x="52.160938" y="93.556429" style="stroke: #000000; stroke-width: 0.8"/>
      </g>
     </g>
     <g id="text_6">
      <!-- 2.0 -->
      <g transform="translate(29.257813 97.355647) scale(0.1 -0.1)">
       <defs>
        <path id="DejaVuSans-32" d="M 1228 531 
L 3431 531 
L 3431 0 
L 469 0 
L 469 531 
Q 828 903 1448 1529 
Q 2069 2156 2228 2338 
Q 2531 2678 2651 2914 
Q 2772 3150 2772 3378 
Q 2772 3750 2511 3984 
Q 2250 4219 1831 4219 
Q 1534 4219 1204 4116 
Q 875 4013 500 3803 
L 500 4441 
Q 881 4594 1212 4672 
Q 1544 4750 1819 4750 
Q 2544 4750 2975 4387 
Q 3406 4025 3406 3419 
Q 3406 3131 3298 2873 
Q 3191 2616 2906 2266 
Q 2828 2175 2409 1742 
Q 1991 1309 1228 531 
z
" transform="scale(0.015625)"/>
       </defs>
       <use xlink:href="#DejaVuSans-32"/>
       <use xlink:href="#DejaVuSans-2e" transform="translate(63.623047 0)"/>
       <use xlink:href="#DejaVuSans-30" transform="translate(95.410156 0)"/>
      </g>
     </g>
    </g>
    <g id="text_7">
     <!-- Coverage Gain (pp) -->
     <g transform="translate(14.798438 221.76025) rotate(-90) scale(0.1 -0.1)">
      <defs>
       <path id="DejaVuSans-43" d="M 4122 4306 
L 4122 3641 
Q 3803 3938 3442 4084 
Q 3081 4231 2675 4231 
Q 1875 4231 1450 3742 
Q 1025 3253 1025 2328 
Q 1025 1406 1450 917 
Q 1875 428 2675 428 
Q 3081 428 3442 575 
Q 3803 722 4122 1019 
L 4122 359 
Q 3791 134 3420 21 
Q 3050 -91 2638 -91 
Q 1578 -91 968 557 
Q 359 1206 359 2328 
Q 359 3453 968 4101 
Q 1578 4750 2638 4750 
Q 3056 4750 3426 4639 
Q 3797 4528 4122 4306 
z
" transform="scale(0.015625)"/>
       <path id="DejaVuSans-6f" d="M 1959 3097 
Q 1497 3097 1228 2736 
Q 959 2375 959 1747 
Q 959 1119 1226 758 
Q 1494 397 1959 397 
Q 2419 397 2687 759 
Q 2956 1122 2956 1747 
Q 2956 2369 2687 2733 
Q 2419 3097 1959 3097 
z
M 1959 3584 
Q 2709 3584 3137 3096 
Q 3566 2609 3566 1747 
Q 3566 888 3137 398 
Q 2709 -91 1959 -91 
Q 1206 -91 779 398 
Q 353 888 353 1747 
Q 353 2609 779 3096 
Q 1206 3584 1959 3584 
z
" transform="scale(0.015625)"/>
       <path id="DejaVuSans-76" d="M 191 3500 
L 800 3500 
L 1894 563 
L 2988 3500 
L 3597 3500 
L 2284 0 
L 1503 0 
L 191 3500 
z
" transform="scale(0.015625)"/>
       <path id="DejaVuSans-65" d="M 3597 1894 
L 3597 1613 
L 953 1613 
Q 991 1019 1311 708 
Q 1631 397 2203 397 
Q 2534 397 2845 478 
Q 3156 559 3463 722 
L 3463 178 
Q 3153 47 2828 -22 
Q 2503 -91 2169 -91 
Q 1331 -91 842 396 
Q 353 884 353 1716 
Q 353 2575 817 3079 
Q 1281 3584 2069 3584 
Q 2775 3584 3186 3129 
Q 3597 2675 3597 1894 
z
M 3022 2063 
Q 3016 2534 2758 2815 
Q 2500 3097 2075 3097 
Q 1594 3097 1305 2825 
Q 1016 2553 972 2059 
L 3022 2063 
z
" transform="scale(0.015625)"/>
       <path id="DejaVuSans-72" d="M 2631 2963 
Q 2534 3019 2420 3045 
Q 2306 3072 2169 3072 
Q 1681 3072 1420 2755 
Q 1159 2438 1159 1844 
L 1159 0 
L 581 0 
L 581 3500 
L 1159 3500 
L 1159 2956 
Q 1341 3275 1631 3429 
Q 1922 3584 2338 3584 
Q 2397 3584 2469 3576 
Q 2541 3569 2628 3553 
L 2631 2963 
z
" transform="scale(0.015625)"/>
       <path id="DejaVuSans-61" d="M 2194 1759 
Q 1497 1759 1228 1600 
Q 959 1441 959 1056 
Q 959 750 1161 570 
Q 1363 391 1709 391 
Q 2188 391 2477 730 
Q 2766 1069 2766 1631 
L 2766 1759 
L 2194 1759 
z
M 3341 1997 
L 3341 0 
L 2766 0 
L 2766 531 
Q 2569 213 2275 61 
Q 1981 -91 1556 -91 
Q 1019 -91 701 211 
Q 384 513 384 1019 
Q 384 1609 779 1909 
Q 1175 2209 1959 2209 
L 2766 2209 
L 2766 2266 
Q 2766 2663 2505 2880 
Q 2244 3097 1772 3097 
Q 1472 3097 1187 3025 
Q 903 2953 641 2809 
L 641 3341 
Q 956 3463 1253 3523 
Q 1550 3584 1831 3584 
Q 2591 3584 2966 3190 
Q 3341 2797 3341 1997 
z
" transform="scale(0.015625)"/>
       <path id="DejaVuSans-67" d="M 2906 1791 
Q 2906 2416 2648 2759 
Q 2391 3103 1925 3103 
Q 1463 3103 1205 2759 
Q 947 2416 947 1791 
Q 947 1169 1205 825 
Q 1463 481 1925 481 
Q 2391 481 2648 825 
Q 2906 1169 2906 1791 
z
M 3481 434 
Q 3481 -459 3084 -895 
Q 2688 -1331 1869 -1331 
Q 1566 -1331 1297 -1286 
Q 1028 -1241 775 -1147 
L 775 -588 
Q 1028 -725 1275 -790 
Q 1522 -856 1778 -856 
Q 2344 -856 2625 -561 
Q 2906 -266 2906 331 
L 2906 616 
Q 2728 306 2450 153 
Q 2172 0 1784 0 
Q 1141 0 747 490 
Q 353 981 353 1791 
Q 353 2603 747 3093 
Q 1141 3584 1784 3584 
Q 2172 3584 2450 3431 
Q 2728 3278 2906 2969 
L 2906 3500 
L 3481 3500 
L 3481 434 
z
" transform="scale(0.015625)"/>
       <path id="DejaVuSans-20" transform="scale(0.015625)"/>
       <path id="DejaVuSans-47" d="M 3809 666 
L 3809 1919 
L 2778 1919 
L 2778 2438 
L 4434 2438 
L 4434 434 
Q 4069 175 3628 42 
Q 3188 -91 2688 -91 
Q 1594 -91 976 548 
Q 359 1188 359 2328 
Q 359 3472 976 4111 
Q 1594 4750 2688 4750 
Q 3144 4750 3555 4637 
Q 3966 4525 4313 4306 
L 4313 3634 
Q 3963 3931 3569 4081 
Q 3175 4231 2741 4231 
Q 1884 4231 1454 3753 
Q 1025 3275 1025 2328 
Q 1025 1384 1454 906 
Q 1884 428 2741 428 
Q 3075 428 3337 486 
Q 3600 544 3809 666 
z
" transform="scale(0.015625)"/>
       <path id="DejaVuSans-69" d="M 603 3500 
L 1178 3500 
L 1178 0 
L 603 0 
L 603 3500 
z
M 603 4863 
L 1178 4863 
L 1178 4134 
L 603 4134 
L 603 4863 
z
" transform="scale(0.015625)"/>
       <path id="DejaVuSans-6e" d="M 3513 2113 
L 3513 0 
L 2938 0 
L 2938 2094 
Q 2938 2591 2744 2837 
Q 2550 3084 2163 3084 
Q 1697 3084 1428 2787 
Q 1159 2491 1159 1978 
L 1159 0 
L 581 0 
L 581 3500 
L 1159 3500 
L 1159 2956 
Q 1366 3272 1645 3428 
Q 1925 3584 2291 3584 
Q 2894 3584 3203 3211 
Q 3513 2838 3513 2113 
z
" transform="scale(0.015625)"/>
       <path id="DejaVuSans-28" d="M 1984 4856 
Q 1566 4138 1362 3434 
Q 1159 2731 1159 2009 
Q 1159 1288 1364 580 
Q 1569 -128 1984 -844 
L 1484 -844 
Q 1016 -109 783 600 
Q 550 1309 550 2009 
Q 550 2706 781 3412 
Q 1013 4119 1484 4856 
L 1984 4856 
z
" transform="scale(0.015625)"/>
       <path id="DejaVuSans-70" d="M 1159 525 
L 1159 -1331 
L 581 -1331 
L 581 3500 
L 1159 3500 
L 1159 2969 
Q 1341 3281 1617 3432 
Q 1894 3584 2278 3584 
Q 2916 3584 3314 3078 
Q 3713 2572 3713 1747 
Q 3713 922 3314 415 
Q 2916 -91 2278 -91 
Q 1894 -91 1617 61 
Q 1341 213 1159 525 
z
M 3116 1747 
Q 3116 2381 2855 2742 
Q 2594 3103 2138 3103 
Q 1681 3103 1420 2742 
Q 1159 2381 1159 1747 
Q 1159 1113 1420 752 
Q 1681 391 2138 391 
Q 2594 391 2855 752 
Q 3116 1113 3116 1747 
z
" transform="scale(0.015625)"/>
       <path id="DejaVuSans-29" d="M 513 4856 
L 1013 4856 
Q 1481 4119 1714 3412 
Q 1947 2706 1947 2009 
Q 1947 1309 1714 600 
Q 1481 -109 1013 -844 
L 513 -844 
Q 928 -128 1133 580 
Q 1338 1288 1338 2009 
Q 1338 2731 1133 3434 
Q 928 4138 513 4856 
z
" transform="scale(0.015625)"/>
      </defs>
      <use xlink:href="#DejaVuSans-43"/>
      <use xlink:href="#DejaVuSans-6f" transform="translate(69.824219 0)"/>
      <use xlink:href="#DejaVuSans-76" transform="translate(131.005859 0)"/>
      <use xlink:href="#DejaVuSans-65" transform="translate(190.185547 0)"/>
      <use xlink:href="#DejaVuSans-72" transform="translate(251.708984 0)"/>
      <use xlink:href="#DejaVuSans-61" transform="translate(292.822266 0)"/>
      <use xlink:href="#DejaVuSans-67" transform="translate(354.101562 0)"/>
      <use xlink:href="#DejaVuSans-65" transform="translate(417.578125 0)"/>
      <use xlink:href="#DejaVuSans-20" transform="translate(479.101562 0)"/>
      <use xlink:href="#DejaVuSans-47" transform="translate(510.888672 0)"/>
      <use xlink:href="#DejaVuSans-61" transform="translate(588.378906 0)"/>
      <use xlink:href="#DejaVuSans-69" transform="translate(649.658203 0)"/>
      <use xlink:href="#DejaVuSans-6e" transform="translate(677.441406 0)"/>
      <use xlink:href="#DejaVuSans-20" transform="translate(740.820312 0)"/>
      <use xlink:href="#DejaVuSans-28" transform="translate(772.607422 0)"/>
      <use xlink:href="#DejaVuSans-70" transform="translate(811.621094 0)"/>
      <use xlink:href="#DejaVuSans-70" transform="translate(875.097656 0)"/>
      <use xlink:href="#DejaVuSans-29" transform="translate(938.574219 0)"/>
     </g>
    </g>
   </g>
   <g id="line2d_25">
    <path d="M 52.160938 225.760714 
L 63.101707 225.760714 
L 65.836899 226.630479 
L 71.307284 226.630479 
L 76.777668 228.370009 
L 84.983245 228.370009 
L 87.718438 229.239774 
L 101.394399 242.28625 
L 120.540745 254.462961 
L 123.275937 255.332726 
L 126.01113 257.072256 
L 131.481514 262.290846 
L 136.951899 264.030376 
L 139.687091 261.421081 
L 142.422284 259.681551 
L 145.157476 254.462961 
L 147.892668 255.332726 
L 150.627861 252.72343 
L 153.363053 256.202491 
L 158.833438 264.900141 
L 161.56863 268.379201 
L 167.039014 270.118731 
L 169.774207 270.118731 
L 172.509399 274.467556 
L 175.244591 272.728026 
L 177.979784 271.858261 
L 180.714976 270.118731 
L 183.450168 267.509436 
L 186.185361 271.858261 
L 188.920553 269.248966 
L 191.655745 269.248966 
L 194.390938 268.379201 
L 197.12613 265.769906 
L 199.861322 262.290846 
L 202.596514 257.942021 
L 208.066899 252.72343 
L 210.802091 247.50484 
L 213.537284 244.895545 
L 216.272476 241.416485 
L 219.007668 243.156015 
L 221.742861 244.02578 
L 224.478053 242.28625 
L 227.213245 250.114135 
L 229.948438 250.114135 
L 232.68363 245.76531 
L 235.418822 242.28625 
L 238.154014 241.416485 
L 240.889207 242.28625 
L 243.624399 237.937425 
L 246.359591 238.80719 
L 251.829976 224.890949 
L 254.565168 218.802594 
L 257.300361 205.756118 
L 260.035553 202.277058 
L 262.770745 193.579408 
L 265.505938 193.579408 
L 268.24113 197.058468 
L 270.976322 204.886353 
L 273.711514 207.495648 
L 276.446707 208.365414 
L 279.181899 210.104944 
L 281.917091 209.235179 
L 284.652284 205.756118 
L 290.122668 212.714239 
L 292.857861 217.063064 
L 295.593053 213.584004 
L 298.328245 210.974709 
L 303.79863 209.235179 
L 306.533822 199.667763 
L 309.269014 197.058468 
L 312.004207 190.970113 
L 314.739399 182.272462 
L 317.474591 181.402697 
L 320.209784 179.663167 
L 322.944976 183.142227 
L 328.415361 184.881758 
L 331.150553 183.142227 
L 333.885745 186.621288 
L 336.620937 190.970113 
L 339.35613 191.839878 
L 342.091322 184.881758 
L 344.826514 179.663167 
L 347.561707 178.793402 
L 353.032091 180.532932 
L 355.767284 184.011992 
L 358.502476 189.230583 
L 361.237668 185.751523 
L 363.972861 187.491053 
L 366.708053 194.449173 
L 369.443245 194.449173 
L 372.178437 196.188703 
L 374.91363 188.360818 
L 380.384014 170.965517 
L 383.119207 161.398102 
L 385.854399 153.570216 
L 388.589591 153.570216 
L 391.324784 147.481861 
L 394.059976 146.612096 
L 396.795168 144.002801 
L 399.530361 134.435385 
L 402.265553 134.435385 
L 405.000745 127.477265 
L 407.735937 125.737735 
L 410.47113 129.216795 
L 413.206322 129.216795 
L 415.941514 134.435385 
L 418.676707 131.82609 
L 421.411899 131.82609 
L 424.147091 135.30515 
L 426.882284 137.914445 
L 429.617476 142.263271 
L 435.087861 152.700451 
L 437.823053 152.700451 
L 440.558245 154.439981 
L 446.02863 163.137632 
L 448.763822 165.746927 
L 451.499014 169.225987 
L 454.234207 167.486457 
L 456.969399 163.137632 
L 459.704591 164.877162 
L 462.439784 163.137632 
L 465.174976 163.137632 
L 467.910168 164.877162 
L 470.645361 164.877162 
L 473.380553 162.267867 
L 476.115745 161.398102 
L 478.850937 157.919041 
L 481.58613 155.309746 
L 487.056514 158.788806 
L 492.526899 164.007397 
L 495.262091 164.007397 
L 497.997284 165.746927 
L 500.732476 168.356222 
L 503.467668 173.574812 
L 506.202861 175.314342 
L 508.938053 179.663167 
L 511.673245 183.142227 
L 514.408437 182.272462 
L 519.878822 189.230583 
L 522.614014 190.970113 
L 528.084399 197.928233 
L 530.819591 199.667763 
L 533.554784 200.537528 
L 536.289976 199.667763 
L 539.025168 199.667763 
L 541.760361 200.537528 
L 547.230745 198.797998 
L 552.70113 202.277058 
L 555.436322 203.146823 
L 558.171514 204.886353 
L 560.906707 204.886353 
L 563.641899 204.016588 
L 566.377091 204.016588 
L 569.112284 204.886353 
L 571.847476 206.625883 
L 574.582668 206.625883 
L 577.317861 208.365414 
L 580.053053 209.235179 
L 582.788245 208.365414 
L 593.729014 208.365414 
L 596.464207 209.235179 
L 599.199399 209.235179 
L 601.934591 208.365414 
L 607.404976 208.365414 
L 610.140168 210.104944 
L 612.875361 208.365414 
L 615.610553 207.495648 
L 621.080938 207.495648 
L 623.81613 208.365414 
L 626.551322 210.104944 
L 629.286514 210.104944 
L 634.756899 211.844474 
L 637.492091 214.453769 
L 640.227284 217.932829 
L 642.962476 219.672359 
L 656.638438 224.021184 
L 662.108822 224.021184 
L 673.049591 227.500244 
L 681.255168 232.718835 
L 686.725553 232.718835 
L 689.460745 233.5886 
L 692.195938 233.5886 
L 694.93113 235.32813 
L 700.401514 237.06766 
L 703.136707 237.06766 
L 708.607091 235.32813 
L 714.077476 235.32813 
L 716.812668 234.458365 
L 719.547861 234.458365 
L 725.018245 236.197895 
L 727.753438 235.32813 
L 730.48863 233.5886 
L 733.223822 232.718835 
L 744.164591 236.197895 
L 746.899784 234.458365 
L 755.105361 234.458365 
L 760.575745 232.718835 
L 766.04613 234.458365 
L 771.510937 234.458365 
L 771.510937 234.458365 
" clip-path="url(#p0ec46ea562)" style="fill: none; stroke: #f58518; stroke-width: 2.5; stroke-linecap: square"/>
   </g>
   <g id="line2d_26">
    <path d="M 52.160938 225.760714 
L 763.310938 225.760714 
" clip-path="url(#p0ec46ea562)" style="fill: none; stroke: #333333; stroke-width: 0.9; stroke-linecap: square"/>
   </g>
   <g id="patch_3">
    <path d="M 52.160938 265.422 
L 52.160938 80.336 
" style="fill: none; stroke: #000000; stroke-width: 0.8; stroke-linejoin: miter; stroke-linecap: square"/>
   </g>
   <g id="patch_4">
    <path d="M 52.160938 265.422 
L 763.310938 265.422 
" style="fill: none; stroke: #000000; stroke-width: 0.8; stroke-linejoin: miter; stroke-linecap: square"/>
   </g>
   <g id="text_8">
    <!-- GAT-CIR Coverage Gain over GAT-ON -->
    <g transform="translate(286.158125 72.336) scale(0.12 -0.12)">
     <defs>
      <path id="DejaVuSans-Bold-47" d="M 4781 347 
Q 4331 128 3847 18 
Q 3363 -91 2847 -91 
Q 1681 -91 1000 561 
Q 319 1213 319 2328 
Q 319 3456 1012 4103 
Q 1706 4750 2913 4750 
Q 3378 4750 3804 4662 
Q 4231 4575 4609 4403 
L 4609 3438 
Q 4219 3659 3833 3768 
Q 3447 3878 3059 3878 
Q 2341 3878 1952 3476 
Q 1563 3075 1563 2328 
Q 1563 1588 1938 1184 
Q 2313 781 3003 781 
Q 3191 781 3352 804 
Q 3513 828 3641 878 
L 3641 1784 
L 2906 1784 
L 2906 2591 
L 4781 2591 
L 4781 347 
z
" transform="scale(0.015625)"/>
      <path id="DejaVuSans-Bold-41" d="M 3419 850 
L 1538 850 
L 1241 0 
L 31 0 
L 1759 4666 
L 3194 4666 
L 4922 0 
L 3713 0 
L 3419 850 
z
M 1838 1716 
L 3116 1716 
L 2478 3572 
L 1838 1716 
z
" transform="scale(0.015625)"/>
      <path id="DejaVuSans-Bold-54" d="M 31 4666 
L 4331 4666 
L 4331 3756 
L 2784 3756 
L 2784 0 
L 1581 0 
L 1581 3756 
L 31 3756 
L 31 4666 
z
" transform="scale(0.015625)"/>
      <path id="DejaVuSans-Bold-2d" d="M 347 2297 
L 2309 2297 
L 2309 1388 
L 347 1388 
L 347 2297 
z
" transform="scale(0.015625)"/>
      <path id="DejaVuSans-Bold-43" d="M 4288 256 
Q 3956 84 3597 -3 
Q 3238 -91 2847 -91 
Q 1681 -91 1000 561 
Q 319 1213 319 2328 
Q 319 3447 1000 4098 
Q 1681 4750 2847 4750 
Q 3238 4750 3597 4662 
Q 3956 4575 4288 4403 
L 4288 3438 
Q 3953 3666 3628 3772 
Q 3303 3878 2944 3878 
Q 2300 3878 1931 3465 
Q 1563 3053 1563 2328 
Q 1563 1606 1931 1193 
Q 2300 781 2944 781 
Q 3303 781 3628 887 
Q 3953 994 4288 1222 
L 4288 256 
z
" transform="scale(0.015625)"/>
      <path id="DejaVuSans-Bold-49" d="M 588 4666 
L 1791 4666 
L 1791 0 
L 588 0 
L 588 4666 
z
" transform="scale(0.015625)"/>
      <path id="DejaVuSans-Bold-52" d="M 2297 2597 
Q 2675 2597 2839 2737 
Q 3003 2878 3003 3200 
Q 3003 3519 2839 3656 
Q 2675 3794 2297 3794 
L 1791 3794 
L 1791 2597 
L 2297 2597 
z
M 1791 1766 
L 1791 0 
L 588 0 
L 588 4666 
L 2425 4666 
Q 3347 4666 3776 4356 
Q 4206 4047 4206 3378 
Q 4206 2916 3982 2619 
Q 3759 2322 3309 2181 
Q 3556 2125 3751 1926 
Q 3947 1728 4147 1325 
L 4800 0 
L 3519 0 
L 2950 1159 
Q 2778 1509 2601 1637 
Q 2425 1766 2131 1766 
L 1791 1766 
z
" transform="scale(0.015625)"/>
      <path id="DejaVuSans-Bold-20" transform="scale(0.015625)"/>
      <path id="DejaVuSans-Bold-6f" d="M 2203 2784 
Q 1831 2784 1636 2517 
Q 1441 2250 1441 1747 
Q 1441 1244 1636 976 
Q 1831 709 2203 709 
Q 2569 709 2762 976 
Q 2956 1244 2956 1747 
Q 2956 2250 2762 2517 
Q 2569 2784 2203 2784 
z
M 2203 3584 
Q 3106 3584 3614 3096 
Q 4122 2609 4122 1747 
Q 4122 884 3614 396 
Q 3106 -91 2203 -91 
Q 1297 -91 786 396 
Q 275 884 275 1747 
Q 275 2609 786 3096 
Q 1297 3584 2203 3584 
z
" transform="scale(0.015625)"/>
      <path id="DejaVuSans-Bold-76" d="M 97 3500 
L 1216 3500 
L 2088 1081 
L 2956 3500 
L 4078 3500 
L 2700 0 
L 1472 0 
L 97 3500 
z
" transform="scale(0.015625)"/>
      <path id="DejaVuSans-Bold-65" d="M 4031 1759 
L 4031 1441 
L 1416 1441 
Q 1456 1047 1700 850 
Q 1944 653 2381 653 
Q 2734 653 3104 758 
Q 3475 863 3866 1075 
L 3866 213 
Q 3469 63 3072 -14 
Q 2675 -91 2278 -91 
Q 1328 -91 801 392 
Q 275 875 275 1747 
Q 275 2603 792 3093 
Q 1309 3584 2216 3584 
Q 3041 3584 3536 3087 
Q 4031 2591 4031 1759 
z
M 2881 2131 
Q 2881 2450 2695 2645 
Q 2509 2841 2209 2841 
Q 1884 2841 1681 2658 
Q 1478 2475 1428 2131 
L 2881 2131 
z
" transform="scale(0.015625)"/>
      <path id="DejaVuSans-Bold-72" d="M 3138 2547 
Q 2991 2616 2845 2648 
Q 2700 2681 2553 2681 
Q 2122 2681 1889 2404 
Q 1656 2128 1656 1613 
L 1656 0 
L 538 0 
L 538 3500 
L 1656 3500 
L 1656 2925 
Q 1872 3269 2151 3426 
Q 2431 3584 2822 3584 
Q 2878 3584 2943 3579 
Q 3009 3575 3134 3559 
L 3138 2547 
z
" transform="scale(0.015625)"/>
      <path id="DejaVuSans-Bold-61" d="M 2106 1575 
Q 1756 1575 1579 1456 
Q 1403 1338 1403 1106 
Q 1403 894 1545 773 
Q 1688 653 1941 653 
Q 2256 653 2472 879 
Q 2688 1106 2688 1447 
L 2688 1575 
L 2106 1575 
z
M 3816 1997 
L 3816 0 
L 2688 0 
L 2688 519 
Q 2463 200 2181 54 
Q 1900 -91 1497 -91 
Q 953 -91 614 226 
Q 275 544 275 1050 
Q 275 1666 698 1953 
Q 1122 2241 2028 2241 
L 2688 2241 
L 2688 2328 
Q 2688 2594 2478 2717 
Q 2269 2841 1825 2841 
Q 1466 2841 1156 2769 
Q 847 2697 581 2553 
L 581 3406 
Q 941 3494 1303 3539 
Q 1666 3584 2028 3584 
Q 2975 3584 3395 3211 
Q 3816 2838 3816 1997 
z
" transform="scale(0.015625)"/>
      <path id="DejaVuSans-Bold-67" d="M 2919 594 
Q 2688 288 2409 144 
Q 2131 0 1766 0 
Q 1125 0 706 504 
Q 288 1009 288 1791 
Q 288 2575 706 3076 
Q 1125 3578 1766 3578 
Q 2131 3578 2409 3434 
Q 2688 3291 2919 2981 
L 2919 3500 
L 4044 3500 
L 4044 353 
Q 4044 -491 3511 -936 
Q 2978 -1381 1966 -1381 
Q 1638 -1381 1331 -1331 
Q 1025 -1281 716 -1178 
L 716 -306 
Q 1009 -475 1290 -558 
Q 1572 -641 1856 -641 
Q 2406 -641 2662 -400 
Q 2919 -159 2919 353 
L 2919 594 
z
M 2181 2772 
Q 1834 2772 1640 2515 
Q 1447 2259 1447 1791 
Q 1447 1309 1634 1061 
Q 1822 813 2181 813 
Q 2531 813 2725 1069 
Q 2919 1325 2919 1791 
Q 2919 2259 2725 2515 
Q 2531 2772 2181 2772 
z
" transform="scale(0.015625)"/>
      <path id="DejaVuSans-Bold-69" d="M 538 3500 
L 1656 3500 
L 1656 0 
L 538 0 
L 538 3500 
z
M 538 4863 
L 1656 4863 
L 1656 3950 
L 538 3950 
L 538 4863 
z
" transform="scale(0.015625)"/>
      <path id="DejaVuSans-Bold-6e" d="M 4056 2131 
L 4056 0 
L 2931 0 
L 2931 347 
L 2931 1631 
Q 2931 2084 2911 2256 
Q 2891 2428 2841 2509 
Q 2775 2619 2662 2680 
Q 2550 2741 2406 2741 
Q 2056 2741 1856 2470 
Q 1656 2200 1656 1722 
L 1656 0 
L 538 0 
L 538 3500 
L 1656 3500 
L 1656 2988 
Q 1909 3294 2193 3439 
Q 2478 3584 2822 3584 
Q 3428 3584 3742 3212 
Q 4056 2841 4056 2131 
z
" transform="scale(0.015625)"/>
      <path id="DejaVuSans-Bold-4f" d="M 2719 3878 
Q 2169 3878 1866 3472 
Q 1563 3066 1563 2328 
Q 1563 1594 1866 1187 
Q 2169 781 2719 781 
Q 3272 781 3575 1187 
Q 3878 1594 3878 2328 
Q 3878 3066 3575 3472 
Q 3272 3878 2719 3878 
z
M 2719 4750 
Q 3844 4750 4481 4106 
Q 5119 3463 5119 2328 
Q 5119 1197 4481 553 
Q 3844 -91 2719 -91 
Q 1597 -91 958 553 
Q 319 1197 319 2328 
Q 319 3463 958 4106 
Q 1597 4750 2719 4750 
z
" transform="scale(0.015625)"/>
      <path id="DejaVuSans-Bold-4e" d="M 588 4666 
L 1931 4666 
L 3628 1466 
L 3628 4666 
L 4769 4666 
L 4769 0 
L 3425 0 
L 1728 3200 
L 1728 0 
L 588 0 
L 588 4666 
z
" transform="scale(0.015625)"/>
     </defs>
     <use xlink:href="#DejaVuSans-Bold-47"/>
     <use xlink:href="#DejaVuSans-Bold-41" transform="translate(82.080078 0)"/>
     <use xlink:href="#DejaVuSans-Bold-54" transform="translate(151.722656 0)"/>
     <use xlink:href="#DejaVuSans-Bold-2d" transform="translate(205.185547 0)"/>
     <use xlink:href="#DejaVuSans-Bold-43" transform="translate(246.689453 0)"/>
     <use xlink:href="#DejaVuSans-Bold-49" transform="translate(320.078125 0)"/>
     <use xlink:href="#DejaVuSans-Bold-52" transform="translate(357.285156 0)"/>
     <use xlink:href="#DejaVuSans-Bold-20" transform="translate(434.287109 0)"/>
     <use xlink:href="#DejaVuSans-Bold-43" transform="translate(469.101562 0)"/>
     <use xlink:href="#DejaVuSans-Bold-6f" transform="translate(542.490234 0)"/>
     <use xlink:href="#DejaVuSans-Bold-76" transform="translate(611.191406 0)"/>
     <use xlink:href="#DejaVuSans-Bold-65" transform="translate(676.376953 0)"/>
     <use xlink:href="#DejaVuSans-Bold-72" transform="translate(744.199219 0)"/>
     <use xlink:href="#DejaVuSans-Bold-61" transform="translate(793.515625 0)"/>
     <use xlink:href="#DejaVuSans-Bold-67" transform="translate(860.996094 0)"/>
     <use xlink:href="#DejaVuSans-Bold-65" transform="translate(932.578125 0)"/>
     <use xlink:href="#DejaVuSans-Bold-20" transform="translate(1000.400391 0)"/>
     <use xlink:href="#DejaVuSans-Bold-47" transform="translate(1035.214844 0)"/>
     <use xlink:href="#DejaVuSans-Bold-61" transform="translate(1117.294922 0)"/>
     <use xlink:href="#DejaVuSans-Bold-69" transform="translate(1184.775391 0)"/>
     <use xlink:href="#DejaVuSans-Bold-6e" transform="translate(1219.052734 0)"/>
     <use xlink:href="#DejaVuSans-Bold-20" transform="translate(1290.244141 0)"/>
     <use xlink:href="#DejaVuSans-Bold-6f" transform="translate(1325.058594 0)"/>
     <use xlink:href="#DejaVuSans-Bold-76" transform="translate(1393.759766 0)"/>
     <use xlink:href="#DejaVuSans-Bold-65" transform="translate(1458.945312 0)"/>
     <use xlink:href="#DejaVuSans-Bold-72" transform="translate(1526.767578 0)"/>
     <use xlink:href="#DejaVuSans-Bold-20" transform="translate(1576.083984 0)"/>
     <use xlink:href="#DejaVuSans-Bold-47" transform="translate(1610.898438 0)"/>
     <use xlink:href="#DejaVuSans-Bold-41" transform="translate(1692.978516 0)"/>
     <use xlink:href="#DejaVuSans-Bold-54" transform="translate(1762.621094 0)"/>
     <use xlink:href="#DejaVuSans-Bold-2d" transform="translate(1816.083984 0)"/>
     <use xlink:href="#DejaVuSans-Bold-4f" transform="translate(1857.587891 0)"/>
     <use xlink:href="#DejaVuSans-Bold-4e" transform="translate(1942.597656 0)"/>
    </g>
   </g>
  </g>
  <g id="axes_2">
   <g id="patch_5">
    <path d="M 52.160938 482.008 
L 763.310938 482.008 
L 763.310938 296.922 
L 52.160938 296.922 
z
" style="fill: #ffffff"/>
   </g>
   <g id="matplotlib.axis_3">
    <g id="xtick_7">
     <g id="line2d_27">
      <path d="M 52.160938 482.008 
L 52.160938 296.922 
" clip-path="url(#p6756ac0c04)" style="fill: none; stroke: #b0b0b0; stroke-opacity: 0.22; stroke-width: 0.8; stroke-linecap: square"/>
     </g>
     <g id="line2d_28">
      <g>
       <use xlink:href="#m4394dcbd17" x="52.160938" y="482.008" style="stroke: #000000; stroke-width: 0.8"/>
      </g>
     </g>
     <g id="text_9">
      <!-- 0 -->
      <g transform="translate(48.979688 496.606438) scale(0.1 -0.1)">
       <use xlink:href="#DejaVuSans-30"/>
      </g>
     </g>
    </g>
    <g id="xtick_8">
     <g id="line2d_29">
      <path d="M 188.920553 482.008 
L 188.920553 296.922 
" clip-path="url(#p6756ac0c04)" style="fill: none; stroke: #b0b0b0; stroke-opacity: 0.22; stroke-width: 0.8; stroke-linecap: square"/>
     </g>
     <g id="line2d_30">
      <g>
       <use xlink:href="#m4394dcbd17" x="188.920553" y="482.008" style="stroke: #000000; stroke-width: 0.8"/>
      </g>
     </g>
     <g id="text_10">
      <!-- 50 -->
      <g transform="translate(182.558053 496.606438) scale(0.1 -0.1)">
       <use xlink:href="#DejaVuSans-35"/>
       <use xlink:href="#DejaVuSans-30" transform="translate(63.623047 0)"/>
      </g>
     </g>
    </g>
    <g id="xtick_9">
     <g id="line2d_31">
      <path d="M 325.680168 482.008 
L 325.680168 296.922 
" clip-path="url(#p6756ac0c04)" style="fill: none; stroke: #b0b0b0; stroke-opacity: 0.22; stroke-width: 0.8; stroke-linecap: square"/>
     </g>
     <g id="line2d_32">
      <g>
       <use xlink:href="#m4394dcbd17" x="325.680168" y="482.008" style="stroke: #000000; stroke-width: 0.8"/>
      </g>
     </g>
     <g id="text_11">
      <!-- 100 -->
      <g transform="translate(316.136418 496.606438) scale(0.1 -0.1)">
       <use xlink:href="#DejaVuSans-31"/>
       <use xlink:href="#DejaVuSans-30" transform="translate(63.623047 0)"/>
       <use xlink:href="#DejaVuSans-30" transform="translate(127.246094 0)"/>
      </g>
     </g>
    </g>
    <g id="xtick_10">
     <g id="line2d_33">
      <path d="M 462.439784 482.008 
L 462.439784 296.922 
" clip-path="url(#p6756ac0c04)" style="fill: none; stroke: #b0b0b0; stroke-opacity: 0.22; stroke-width: 0.8; stroke-linecap: square"/>
     </g>
     <g id="line2d_34">
      <g>
       <use xlink:href="#m4394dcbd17" x="462.439784" y="482.008" style="stroke: #000000; stroke-width: 0.8"/>
      </g>
     </g>
     <g id="text_12">
      <!-- 150 -->
      <g transform="translate(452.896034 496.606438) scale(0.1 -0.1)">
       <use xlink:href="#DejaVuSans-31"/>
       <use xlink:href="#DejaVuSans-35" transform="translate(63.623047 0)"/>
       <use xlink:href="#DejaVuSans-30" transform="translate(127.246094 0)"/>
      </g>
     </g>
    </g>
    <g id="xtick_11">
     <g id="line2d_35">
      <path d="M 599.199399 482.008 
L 599.199399 296.922 
" clip-path="url(#p6756ac0c04)" style="fill: none; stroke: #b0b0b0; stroke-opacity: 0.22; stroke-width: 0.8; stroke-linecap: square"/>
     </g>
     <g id="line2d_36">
      <g>
       <use xlink:href="#m4394dcbd17" x="599.199399" y="482.008" style="stroke: #000000; stroke-width: 0.8"/>
      </g>
     </g>
     <g id="text_13">
      <!-- 200 -->
      <g transform="translate(589.655649 496.606438) scale(0.1 -0.1)">
       <use xlink:href="#DejaVuSans-32"/>
       <use xlink:href="#DejaVuSans-30" transform="translate(63.623047 0)"/>
       <use xlink:href="#DejaVuSans-30" transform="translate(127.246094 0)"/>
      </g>
     </g>
    </g>
    <g id="xtick_12">
     <g id="line2d_37">
      <path d="M 735.959014 482.008 
L 735.959014 296.922 
" clip-path="url(#p6756ac0c04)" style="fill: none; stroke: #b0b0b0; stroke-opacity: 0.22; stroke-width: 0.8; stroke-linecap: square"/>
     </g>
     <g id="line2d_38">
      <g>
       <use xlink:href="#m4394dcbd17" x="735.959014" y="482.008" style="stroke: #000000; stroke-width: 0.8"/>
      </g>
     </g>
     <g id="text_14">
      <!-- 250 -->
      <g transform="translate(726.415264 496.606438) scale(0.1 -0.1)">
       <use xlink:href="#DejaVuSans-32"/>
       <use xlink:href="#DejaVuSans-35" transform="translate(63.623047 0)"/>
       <use xlink:href="#DejaVuSans-30" transform="translate(127.246094 0)"/>
      </g>
     </g>
    </g>
    <g id="text_15">
     <!-- Environment Steps -->
     <g transform="translate(360.233594 510.284562) scale(0.1 -0.1)">
      <defs>
       <path id="DejaVuSans-45" d="M 628 4666 
L 3578 4666 
L 3578 4134 
L 1259 4134 
L 1259 2753 
L 3481 2753 
L 3481 2222 
L 1259 2222 
L 1259 531 
L 3634 531 
L 3634 0 
L 628 0 
L 628 4666 
z
" transform="scale(0.015625)"/>
       <path id="DejaVuSans-6d" d="M 3328 2828 
Q 3544 3216 3844 3400 
Q 4144 3584 4550 3584 
Q 5097 3584 5394 3201 
Q 5691 2819 5691 2113 
L 5691 0 
L 5113 0 
L 5113 2094 
Q 5113 2597 4934 2840 
Q 4756 3084 4391 3084 
Q 3944 3084 3684 2787 
Q 3425 2491 3425 1978 
L 3425 0 
L 2847 0 
L 2847 2094 
Q 2847 2600 2669 2842 
Q 2491 3084 2119 3084 
Q 1678 3084 1418 2786 
Q 1159 2488 1159 1978 
L 1159 0 
L 581 0 
L 581 3500 
L 1159 3500 
L 1159 2956 
Q 1356 3278 1631 3431 
Q 1906 3584 2284 3584 
Q 2666 3584 2933 3390 
Q 3200 3197 3328 2828 
z
" transform="scale(0.015625)"/>
       <path id="DejaVuSans-74" d="M 1172 4494 
L 1172 3500 
L 2356 3500 
L 2356 3053 
L 1172 3053 
L 1172 1153 
Q 1172 725 1289 603 
Q 1406 481 1766 481 
L 2356 481 
L 2356 0 
L 1766 0 
Q 1100 0 847 248 
Q 594 497 594 1153 
L 594 3053 
L 172 3053 
L 172 3500 
L 594 3500 
L 594 4494 
L 1172 4494 
z
" transform="scale(0.015625)"/>
       <path id="DejaVuSans-53" d="M 3425 4513 
L 3425 3897 
Q 3066 4069 2747 4153 
Q 2428 4238 2131 4238 
Q 1616 4238 1336 4038 
Q 1056 3838 1056 3469 
Q 1056 3159 1242 3001 
Q 1428 2844 1947 2747 
L 2328 2669 
Q 3034 2534 3370 2195 
Q 3706 1856 3706 1288 
Q 3706 609 3251 259 
Q 2797 -91 1919 -91 
Q 1588 -91 1214 -16 
Q 841 59 441 206 
L 441 856 
Q 825 641 1194 531 
Q 1563 422 1919 422 
Q 2459 422 2753 634 
Q 3047 847 3047 1241 
Q 3047 1584 2836 1778 
Q 2625 1972 2144 2069 
L 1759 2144 
Q 1053 2284 737 2584 
Q 422 2884 422 3419 
Q 422 4038 858 4394 
Q 1294 4750 2059 4750 
Q 2388 4750 2728 4690 
Q 3069 4631 3425 4513 
z
" transform="scale(0.015625)"/>
       <path id="DejaVuSans-73" d="M 2834 3397 
L 2834 2853 
Q 2591 2978 2328 3040 
Q 2066 3103 1784 3103 
Q 1356 3103 1142 2972 
Q 928 2841 928 2578 
Q 928 2378 1081 2264 
Q 1234 2150 1697 2047 
L 1894 2003 
Q 2506 1872 2764 1633 
Q 3022 1394 3022 966 
Q 3022 478 2636 193 
Q 2250 -91 1575 -91 
Q 1294 -91 989 -36 
Q 684 19 347 128 
L 347 722 
Q 666 556 975 473 
Q 1284 391 1588 391 
Q 1994 391 2212 530 
Q 2431 669 2431 922 
Q 2431 1156 2273 1281 
Q 2116 1406 1581 1522 
L 1381 1569 
Q 847 1681 609 1914 
Q 372 2147 372 2553 
Q 372 3047 722 3315 
Q 1072 3584 1716 3584 
Q 2034 3584 2315 3537 
Q 2597 3491 2834 3397 
z
" transform="scale(0.015625)"/>
      </defs>
      <use xlink:href="#DejaVuSans-45"/>
      <use xlink:href="#DejaVuSans-6e" transform="translate(63.183594 0)"/>
      <use xlink:href="#DejaVuSans-76" transform="translate(126.5625 0)"/>
      <use xlink:href="#DejaVuSans-69" transform="translate(185.742188 0)"/>
      <use xlink:href="#DejaVuSans-72" transform="translate(213.525391 0)"/>
      <use xlink:href="#DejaVuSans-6f" transform="translate(252.388672 0)"/>
      <use xlink:href="#DejaVuSans-6e" transform="translate(313.570312 0)"/>
      <use xlink:href="#DejaVuSans-6d" transform="translate(376.949219 0)"/>
      <use xlink:href="#DejaVuSans-65" transform="translate(474.361328 0)"/>
      <use xlink:href="#DejaVuSans-6e" transform="translate(535.884766 0)"/>
      <use xlink:href="#DejaVuSans-74" transform="translate(599.263672 0)"/>
      <use xlink:href="#DejaVuSans-20" transform="translate(638.472656 0)"/>
      <use xlink:href="#DejaVuSans-53" transform="translate(670.259766 0)"/>
      <use xlink:href="#DejaVuSans-74" transform="translate(733.736328 0)"/>
      <use xlink:href="#DejaVuSans-65" transform="translate(772.945312 0)"/>
      <use xlink:href="#DejaVuSans-70" transform="translate(834.46875 0)"/>
      <use xlink:href="#DejaVuSans-73" transform="translate(897.945312 0)"/>
     </g>
    </g>
   </g>
   <g id="matplotlib.axis_4">
    <g id="ytick_7">
     <g id="line2d_39">
      <path d="M 52.160938 482.008 
L 763.310938 482.008 
" clip-path="url(#p6756ac0c04)" style="fill: none; stroke: #b0b0b0; stroke-opacity: 0.22; stroke-width: 0.8; stroke-linecap: square"/>
     </g>
     <g id="line2d_40">
      <g>
       <use xlink:href="#m10af29163b" x="52.160938" y="482.008" style="stroke: #000000; stroke-width: 0.8"/>
      </g>
     </g>
     <g id="text_16">
      <!-- −1 -->
      <g transform="translate(30.41875 485.807219) scale(0.1 -0.1)">
       <use xlink:href="#DejaVuSans-2212"/>
       <use xlink:href="#DejaVuSans-31" transform="translate(83.789062 0)"/>
      </g>
     </g>
    </g>
    <g id="ytick_8">
     <g id="line2d_41">
      <path d="M 52.160938 458.87225 
L 763.310938 458.87225 
" clip-path="url(#p6756ac0c04)" style="fill: none; stroke: #b0b0b0; stroke-opacity: 0.22; stroke-width: 0.8; stroke-linecap: square"/>
     </g>
     <g id="line2d_42">
      <g>
       <use xlink:href="#m10af29163b" x="52.160938" y="458.87225" style="stroke: #000000; stroke-width: 0.8"/>
      </g>
     </g>
     <g id="text_17">
      <!-- 0 -->
      <g transform="translate(38.798438 462.671469) scale(0.1 -0.1)">
       <use xlink:href="#DejaVuSans-30"/>
      </g>
     </g>
    </g>
    <g id="ytick_9">
     <g id="line2d_43">
      <path d="M 52.160938 435.7365 
L 763.310938 435.7365 
" clip-path="url(#p6756ac0c04)" style="fill: none; stroke: #b0b0b0; stroke-opacity: 0.22; stroke-width: 0.8; stroke-linecap: square"/>
     </g>
     <g id="line2d_44">
      <g>
       <use xlink:href="#m10af29163b" x="52.160938" y="435.7365" style="stroke: #000000; stroke-width: 0.8"/>
      </g>
     </g>
     <g id="text_18">
      <!-- 1 -->
      <g transform="translate(38.798438 439.535719) scale(0.1 -0.1)">
       <use xlink:href="#DejaVuSans-31"/>
      </g>
     </g>
    </g>
    <g id="ytick_10">
     <g id="line2d_45">
      <path d="M 52.160938 412.60075 
L 763.310938 412.60075 
" clip-path="url(#p6756ac0c04)" style="fill: none; stroke: #b0b0b0; stroke-opacity: 0.22; stroke-width: 0.8; stroke-linecap: square"/>
     </g>
     <g id="line2d_46">
      <g>
       <use xlink:href="#m10af29163b" x="52.160938" y="412.60075" style="stroke: #000000; stroke-width: 0.8"/>
      </g>
     </g>
     <g id="text_19">
      <!-- 2 -->
      <g transform="translate(38.798438 416.399969) scale(0.1 -0.1)">
       <use xlink:href="#DejaVuSans-32"/>
      </g>
     </g>
    </g>
    <g id="ytick_11">
     <g id="line2d_47">
      <path d="M 52.160938 389.465 
L 763.310938 389.465 
" clip-path="url(#p6756ac0c04)" style="fill: none; stroke: #b0b0b0; stroke-opacity: 0.22; stroke-width: 0.8; stroke-linecap: square"/>
     </g>
     <g id="line2d_48">
      <g>
       <use xlink:href="#m10af29163b" x="52.160938" y="389.465" style="stroke: #000000; stroke-width: 0.8"/>
      </g>
     </g>
     <g id="text_20">
      <!-- 3 -->
      <g transform="translate(38.798438 393.264219) scale(0.1 -0.1)">
       <defs>
        <path id="DejaVuSans-33" d="M 2597 2516 
Q 3050 2419 3304 2112 
Q 3559 1806 3559 1356 
Q 3559 666 3084 287 
Q 2609 -91 1734 -91 
Q 1441 -91 1130 -33 
Q 819 25 488 141 
L 488 750 
Q 750 597 1062 519 
Q 1375 441 1716 441 
Q 2309 441 2620 675 
Q 2931 909 2931 1356 
Q 2931 1769 2642 2001 
Q 2353 2234 1838 2234 
L 1294 2234 
L 1294 2753 
L 1863 2753 
Q 2328 2753 2575 2939 
Q 2822 3125 2822 3475 
Q 2822 3834 2567 4026 
Q 2313 4219 1838 4219 
Q 1578 4219 1281 4162 
Q 984 4106 628 3988 
L 628 4550 
Q 988 4650 1302 4700 
Q 1616 4750 1894 4750 
Q 2613 4750 3031 4423 
Q 3450 4097 3450 3541 
Q 3450 3153 3228 2886 
Q 3006 2619 2597 2516 
z
" transform="scale(0.015625)"/>
       </defs>
       <use xlink:href="#DejaVuSans-33"/>
      </g>
     </g>
    </g>
    <g id="ytick_12">
     <g id="line2d_49">
      <path d="M 52.160938 366.32925 
L 763.310938 366.32925 
" clip-path="url(#p6756ac0c04)" style="fill: none; stroke: #b0b0b0; stroke-opacity: 0.22; stroke-width: 0.8; stroke-linecap: square"/>
     </g>
     <g id="line2d_50">
      <g>
       <use xlink:href="#m10af29163b" x="52.160938" y="366.32925" style="stroke: #000000; stroke-width: 0.8"/>
      </g>
     </g>
     <g id="text_21">
      <!-- 4 -->
      <g transform="translate(38.798438 370.128469) scale(0.1 -0.1)">
       <defs>
        <path id="DejaVuSans-34" d="M 2419 4116 
L 825 1625 
L 2419 1625 
L 2419 4116 
z
M 2253 4666 
L 3047 4666 
L 3047 1625 
L 3713 1625 
L 3713 1100 
L 3047 1100 
L 3047 0 
L 2419 0 
L 2419 1100 
L 313 1100 
L 313 1709 
L 2253 4666 
z
" transform="scale(0.015625)"/>
       </defs>
       <use xlink:href="#DejaVuSans-34"/>
      </g>
     </g>
    </g>
    <g id="ytick_13">
     <g id="line2d_51">
      <path d="M 52.160938 343.1935 
L 763.310938 343.1935 
" clip-path="url(#p6756ac0c04)" style="fill: none; stroke: #b0b0b0; stroke-opacity: 0.22; stroke-width: 0.8; stroke-linecap: square"/>
     </g>
     <g id="line2d_52">
      <g>
       <use xlink:href="#m10af29163b" x="52.160938" y="343.1935" style="stroke: #000000; stroke-width: 0.8"/>
      </g>
     </g>
     <g id="text_22">
      <!-- 5 -->
      <g transform="translate(38.798438 346.992719) scale(0.1 -0.1)">
       <use xlink:href="#DejaVuSans-35"/>
      </g>
     </g>
    </g>
    <g id="ytick_14">
     <g id="line2d_53">
      <path d="M 52.160938 320.05775 
L 763.310938 320.05775 
" clip-path="url(#p6756ac0c04)" style="fill: none; stroke: #b0b0b0; stroke-opacity: 0.22; stroke-width: 0.8; stroke-linecap: square"/>
     </g>
     <g id="line2d_54">
      <g>
       <use xlink:href="#m10af29163b" x="52.160938" y="320.05775" style="stroke: #000000; stroke-width: 0.8"/>
      </g>
     </g>
     <g id="text_23">
      <!-- 6 -->
      <g transform="translate(38.798438 323.856969) scale(0.1 -0.1)">
       <defs>
        <path id="DejaVuSans-36" d="M 2113 2584 
Q 1688 2584 1439 2293 
Q 1191 2003 1191 1497 
Q 1191 994 1439 701 
Q 1688 409 2113 409 
Q 2538 409 2786 701 
Q 3034 994 3034 1497 
Q 3034 2003 2786 2293 
Q 2538 2584 2113 2584 
z
M 3366 4563 
L 3366 3988 
Q 3128 4100 2886 4159 
Q 2644 4219 2406 4219 
Q 1781 4219 1451 3797 
Q 1122 3375 1075 2522 
Q 1259 2794 1537 2939 
Q 1816 3084 2150 3084 
Q 2853 3084 3261 2657 
Q 3669 2231 3669 1497 
Q 3669 778 3244 343 
Q 2819 -91 2113 -91 
Q 1303 -91 875 529 
Q 447 1150 447 2328 
Q 447 3434 972 4092 
Q 1497 4750 2381 4750 
Q 2619 4750 2861 4703 
Q 3103 4656 3366 4563 
z
" transform="scale(0.015625)"/>
       </defs>
       <use xlink:href="#DejaVuSans-36"/>
      </g>
     </g>
    </g>
    <g id="ytick_15">
     <g id="line2d_55">
      <path d="M 52.160938 296.922 
L 763.310938 296.922 
" clip-path="url(#p6756ac0c04)" style="fill: none; stroke: #b0b0b0; stroke-opacity: 0.22; stroke-width: 0.8; stroke-linecap: square"/>
     </g>
     <g id="line2d_56">
      <g>
       <use xlink:href="#m10af29163b" x="52.160938" y="296.922" style="stroke: #000000; stroke-width: 0.8"/>
      </g>
     </g>
     <g id="text_24">
      <!-- 7 -->
      <g transform="translate(38.798438 300.721219) scale(0.1 -0.1)">
       <defs>
        <path id="DejaVuSans-37" d="M 525 4666 
L 3525 4666 
L 3525 4397 
L 1831 0 
L 1172 0 
L 2766 4134 
L 525 4134 
L 525 4666 
z
" transform="scale(0.015625)"/>
       </defs>
       <use xlink:href="#DejaVuSans-37"/>
      </g>
     </g>
    </g>
    <g id="text_25">
     <!-- Repeat Reduction (pp) -->
     <g transform="translate(24.339063 445.489219) rotate(-90) scale(0.1 -0.1)">
      <defs>
       <path id="DejaVuSans-52" d="M 2841 2188 
Q 3044 2119 3236 1894 
Q 3428 1669 3622 1275 
L 4263 0 
L 3584 0 
L 2988 1197 
Q 2756 1666 2539 1819 
Q 2322 1972 1947 1972 
L 1259 1972 
L 1259 0 
L 628 0 
L 628 4666 
L 2053 4666 
Q 2853 4666 3247 4331 
Q 3641 3997 3641 3322 
Q 3641 2881 3436 2590 
Q 3231 2300 2841 2188 
z
M 1259 4147 
L 1259 2491 
L 2053 2491 
Q 2509 2491 2742 2702 
Q 2975 2913 2975 3322 
Q 2975 3731 2742 3939 
Q 2509 4147 2053 4147 
L 1259 4147 
z
" transform="scale(0.015625)"/>
       <path id="DejaVuSans-64" d="M 2906 2969 
L 2906 4863 
L 3481 4863 
L 3481 0 
L 2906 0 
L 2906 525 
Q 2725 213 2448 61 
Q 2172 -91 1784 -91 
Q 1150 -91 751 415 
Q 353 922 353 1747 
Q 353 2572 751 3078 
Q 1150 3584 1784 3584 
Q 2172 3584 2448 3432 
Q 2725 3281 2906 2969 
z
M 947 1747 
Q 947 1113 1208 752 
Q 1469 391 1925 391 
Q 2381 391 2643 752 
Q 2906 1113 2906 1747 
Q 2906 2381 2643 2742 
Q 2381 3103 1925 3103 
Q 1469 3103 1208 2742 
Q 947 2381 947 1747 
z
" transform="scale(0.015625)"/>
       <path id="DejaVuSans-75" d="M 544 1381 
L 544 3500 
L 1119 3500 
L 1119 1403 
Q 1119 906 1312 657 
Q 1506 409 1894 409 
Q 2359 409 2629 706 
Q 2900 1003 2900 1516 
L 2900 3500 
L 3475 3500 
L 3475 0 
L 2900 0 
L 2900 538 
Q 2691 219 2414 64 
Q 2138 -91 1772 -91 
Q 1169 -91 856 284 
Q 544 659 544 1381 
z
M 1991 3584 
L 1991 3584 
z
" transform="scale(0.015625)"/>
       <path id="DejaVuSans-63" d="M 3122 3366 
L 3122 2828 
Q 2878 2963 2633 3030 
Q 2388 3097 2138 3097 
Q 1578 3097 1268 2742 
Q 959 2388 959 1747 
Q 959 1106 1268 751 
Q 1578 397 2138 397 
Q 2388 397 2633 464 
Q 2878 531 3122 666 
L 3122 134 
Q 2881 22 2623 -34 
Q 2366 -91 2075 -91 
Q 1284 -91 818 406 
Q 353 903 353 1747 
Q 353 2603 823 3093 
Q 1294 3584 2113 3584 
Q 2378 3584 2631 3529 
Q 2884 3475 3122 3366 
z
" transform="scale(0.015625)"/>
      </defs>
      <use xlink:href="#DejaVuSans-52"/>
      <use xlink:href="#DejaVuSans-65" transform="translate(64.982422 0)"/>
      <use xlink:href="#DejaVuSans-70" transform="translate(126.505859 0)"/>
      <use xlink:href="#DejaVuSans-65" transform="translate(189.982422 0)"/>
      <use xlink:href="#DejaVuSans-61" transform="translate(251.505859 0)"/>
      <use xlink:href="#DejaVuSans-74" transform="translate(312.785156 0)"/>
      <use xlink:href="#DejaVuSans-20" transform="translate(351.994141 0)"/>
      <use xlink:href="#DejaVuSans-52" transform="translate(383.78125 0)"/>
      <use xlink:href="#DejaVuSans-65" transform="translate(448.763672 0)"/>
      <use xlink:href="#DejaVuSans-64" transform="translate(510.287109 0)"/>
      <use xlink:href="#DejaVuSans-75" transform="translate(573.763672 0)"/>
      <use xlink:href="#DejaVuSans-63" transform="translate(637.142578 0)"/>
      <use xlink:href="#DejaVuSans-74" transform="translate(692.123047 0)"/>
      <use xlink:href="#DejaVuSans-69" transform="translate(731.332031 0)"/>
      <use xlink:href="#DejaVuSans-6f" transform="translate(759.115234 0)"/>
      <use xlink:href="#DejaVuSans-6e" transform="translate(820.296875 0)"/>
      <use xlink:href="#DejaVuSans-20" transform="translate(883.675781 0)"/>
      <use xlink:href="#DejaVuSans-28" transform="translate(915.462891 0)"/>
      <use xlink:href="#DejaVuSans-70" transform="translate(954.476562 0)"/>
      <use xlink:href="#DejaVuSans-70" transform="translate(1017.953125 0)"/>
      <use xlink:href="#DejaVuSans-29" transform="translate(1081.429688 0)"/>
     </g>
    </g>
   </g>
   <g id="line2d_57">
    <path d="M 52.160938 458.87225 
L 63.101707 458.87225 
L 65.836899 463.692198 
L 68.572091 463.003634 
L 71.307284 462.487211 
L 74.042476 465.298847 
L 76.777668 467.548156 
L 79.512861 466.759438 
L 84.983245 465.546024 
L 87.718438 467.135018 
L 90.45363 472.368104 
L 93.188822 476.947055 
L 95.924014 480.987305 
L 98.659207 484.578639 
L 101.394399 487.791937 
L 104.129591 489.237922 
L 109.599976 491.735531 
L 115.070361 493.816872 
L 120.540745 495.578007 
L 123.275937 495.289634 
L 126.01113 496.054705 
L 131.481514 499.359813 
L 136.951899 498.63682 
L 139.687091 494.802771 
L 142.422284 492.044833 
L 145.157476 486.139384 
L 147.892668 486.185288 
L 150.627861 483.102258 
L 153.363053 485.508804 
L 158.833438 491.406898 
L 161.56863 493.434803 
L 167.039014 493.172344 
L 169.774207 492.392797 
L 172.509399 494.861194 
L 175.244591 492.821448 
L 177.979784 491.483813 
L 180.714976 489.599418 
L 183.450168 487.20174 
L 186.185361 489.527119 
L 188.920553 487.224885 
L 191.655745 486.679642 
L 194.390938 485.60932 
L 197.12613 483.507539 
L 199.861322 480.956375 
L 202.596514 477.979901 
L 208.066899 474.329324 
L 210.802091 471.126355 
L 213.537284 469.476135 
L 216.272476 467.405928 
L 219.007668 468.201181 
L 221.742861 468.512146 
L 224.478053 467.457782 
L 227.213245 471.329962 
L 229.948438 471.141208 
L 232.68363 468.799904 
L 235.418822 466.952751 
L 238.154014 466.416516 
L 240.889207 466.721879 
L 243.624399 464.574724 
L 246.359591 464.897185 
L 251.829976 458.481443 
L 254.565168 455.787483 
L 257.300361 450.120239 
L 260.035553 448.73158 
L 262.770745 445.153937 
L 265.505938 445.327586 
L 268.24113 446.942879 
L 270.976322 450.303454 
L 273.711514 451.465989 
L 276.446707 451.903651 
L 279.181899 452.675174 
L 281.917091 452.407849 
L 284.652284 451.137915 
L 290.122668 453.942758 
L 292.857861 455.622847 
L 295.593053 454.373632 
L 298.328245 453.469671 
L 303.79863 452.963927 
L 306.533822 449.642563 
L 309.269014 448.826464 
L 312.004207 446.82238 
L 314.739399 443.965195 
L 317.474591 443.822209 
L 320.209784 443.389993 
L 322.944976 444.701603 
L 328.415361 445.546512 
L 331.150553 445.11434 
L 333.885745 446.358924 
L 336.620937 447.855226 
L 339.35613 448.231988 
L 342.091322 446.16921 
L 344.826514 444.680181 
L 347.561707 444.545065 
L 353.032091 445.324288 
L 355.767284 446.478098 
L 358.502476 448.12334 
L 361.237668 447.202902 
L 363.972861 447.807326 
L 366.708053 449.897175 
L 369.443245 449.973885 
L 372.178437 450.539459 
L 374.91363 448.422279 
L 383.119207 441.3308 
L 385.854399 439.357339 
L 388.589591 439.514717 
L 391.324784 438.050075 
L 394.059976 437.985809 
L 396.795168 437.467127 
L 399.530361 435.149069 
L 402.265553 435.332969 
L 405.000745 433.734368 
L 407.735937 433.484738 
L 410.47113 434.553422 
L 413.206322 434.73627 
L 415.941514 435.594676 
L 418.676707 434.512386 
L 421.411899 434.083946 
L 424.147091 434.506132 
L 426.882284 434.131366 
L 429.617476 434.178103 
L 435.087861 433.558364 
L 437.823053 432.033082 
L 443.293437 429.918213 
L 446.02863 429.443143 
L 448.763822 429.097528 
L 451.499014 428.441303 
L 454.234207 426.116403 
L 456.969399 422.74209 
L 459.704591 420.762353 
L 465.174976 415.260657 
L 467.910168 412.892963 
L 473.380553 405.549975 
L 476.115745 401.361524 
L 478.850937 397.571217 
L 484.321322 390.531939 
L 487.056514 387.095452 
L 489.791707 383.88128 
L 492.526899 381.128133 
L 495.262091 377.460329 
L 497.997284 374.189934 
L 500.732476 371.13445 
L 506.202861 366.272439 
L 508.938053 364.451043 
L 511.673245 362.480079 
L 514.408437 360.064233 
L 522.614014 355.526745 
L 528.084399 353.29532 
L 530.819591 351.869992 
L 533.554784 350.297382 
L 536.289976 348.417502 
L 539.025168 346.720188 
L 541.760361 345.202398 
L 544.495553 343.381824 
L 547.230745 341.914858 
L 549.965937 340.608063 
L 552.70113 339.64184 
L 555.436322 338.852581 
L 558.171514 338.546659 
L 560.906707 337.934708 
L 563.641899 337.175438 
L 566.377091 336.577218 
L 569.112284 336.137503 
L 571.847476 335.853805 
L 574.582668 335.271815 
L 577.317861 334.995543 
L 580.053053 334.866554 
L 582.788245 334.442276 
L 593.729014 333.369107 
L 596.464207 333.25212 
L 599.199399 332.992418 
L 601.934591 332.592121 
L 607.404976 332.086827 
L 610.140168 332.12002 
L 612.875361 331.591344 
L 615.610553 331.207484 
L 621.080938 330.727528 
L 623.81613 330.628691 
L 626.551322 330.667851 
L 629.286514 330.433815 
L 634.756899 330.24258 
L 637.492091 330.417318 
L 640.227284 330.724325 
L 642.962476 330.761962 
L 651.168053 330.478459 
L 656.638438 330.743734 
L 662.108822 330.74606 
L 673.049591 331.257953 
L 681.255168 332.005819 
L 686.725553 331.997222 
L 689.460745 332.116567 
L 692.195938 332.111834 
L 694.93113 332.352223 
L 700.401514 332.583918 
L 703.136707 332.577309 
L 708.607091 332.324257 
L 714.077476 332.313393 
L 716.812668 332.189505 
L 719.547861 332.184667 
L 725.018245 332.409277 
L 727.753438 332.287 
L 730.48863 332.049561 
L 733.223822 331.929701 
L 744.164591 332.370556 
L 746.899784 332.138377 
L 755.105361 332.12519 
L 760.575745 331.894108 
L 766.04613 332.108076 
L 771.510937 332.099723 
L 771.510937 332.099723 
" clip-path="url(#p6756ac0c04)" style="fill: none; stroke: #f58518; stroke-width: 2.5; stroke-linecap: square"/>
   </g>
   <g id="line2d_58">
    <path d="M 52.160938 458.87225 
L 763.310938 458.87225 
" clip-path="url(#p6756ac0c04)" style="fill: none; stroke: #333333; stroke-width: 0.9; stroke-linecap: square"/>
   </g>
   <g id="patch_6">
    <path d="M 52.160938 482.008 
L 52.160938 296.922 
" style="fill: none; stroke: #000000; stroke-width: 0.8; stroke-linejoin: miter; stroke-linecap: square"/>
   </g>
   <g id="patch_7">
    <path d="M 52.160938 482.008 
L 763.310938 482.008 
" style="fill: none; stroke: #000000; stroke-width: 0.8; stroke-linejoin: miter; stroke-linecap: square"/>
   </g>
   <g id="text_26">
    <!-- GAT-CIR Repeat Reduction over GAT-ON -->
    <g transform="translate(275.237188 288.922) scale(0.12 -0.12)">
     <defs>
      <path id="DejaVuSans-Bold-70" d="M 1656 506 
L 1656 -1331 
L 538 -1331 
L 538 3500 
L 1656 3500 
L 1656 2988 
Q 1888 3294 2169 3439 
Q 2450 3584 2816 3584 
Q 3463 3584 3878 3070 
Q 4294 2556 4294 1747 
Q 4294 938 3878 423 
Q 3463 -91 2816 -91 
Q 2450 -91 2169 54 
Q 1888 200 1656 506 
z
M 2400 2772 
Q 2041 2772 1848 2508 
Q 1656 2244 1656 1747 
Q 1656 1250 1848 986 
Q 2041 722 2400 722 
Q 2759 722 2948 984 
Q 3138 1247 3138 1747 
Q 3138 2247 2948 2509 
Q 2759 2772 2400 2772 
z
" transform="scale(0.015625)"/>
      <path id="DejaVuSans-Bold-74" d="M 1759 4494 
L 1759 3500 
L 2913 3500 
L 2913 2700 
L 1759 2700 
L 1759 1216 
Q 1759 972 1856 886 
Q 1953 800 2241 800 
L 2816 800 
L 2816 0 
L 1856 0 
Q 1194 0 917 276 
Q 641 553 641 1216 
L 641 2700 
L 84 2700 
L 84 3500 
L 641 3500 
L 641 4494 
L 1759 4494 
z
" transform="scale(0.015625)"/>
      <path id="DejaVuSans-Bold-64" d="M 2919 2988 
L 2919 4863 
L 4044 4863 
L 4044 0 
L 2919 0 
L 2919 506 
Q 2688 197 2409 53 
Q 2131 -91 1766 -91 
Q 1119 -91 703 423 
Q 288 938 288 1747 
Q 288 2556 703 3070 
Q 1119 3584 1766 3584 
Q 2128 3584 2408 3439 
Q 2688 3294 2919 2988 
z
M 2181 722 
Q 2541 722 2730 984 
Q 2919 1247 2919 1747 
Q 2919 2247 2730 2509 
Q 2541 2772 2181 2772 
Q 1825 2772 1636 2509 
Q 1447 2247 1447 1747 
Q 1447 1247 1636 984 
Q 1825 722 2181 722 
z
" transform="scale(0.015625)"/>
      <path id="DejaVuSans-Bold-75" d="M 500 1363 
L 500 3500 
L 1625 3500 
L 1625 3150 
Q 1625 2866 1622 2436 
Q 1619 2006 1619 1863 
Q 1619 1441 1641 1255 
Q 1663 1069 1716 984 
Q 1784 875 1895 815 
Q 2006 756 2150 756 
Q 2500 756 2700 1025 
Q 2900 1294 2900 1772 
L 2900 3500 
L 4019 3500 
L 4019 0 
L 2900 0 
L 2900 506 
Q 2647 200 2364 54 
Q 2081 -91 1741 -91 
Q 1134 -91 817 281 
Q 500 653 500 1363 
z
" transform="scale(0.015625)"/>
      <path id="DejaVuSans-Bold-63" d="M 3366 3391 
L 3366 2478 
Q 3138 2634 2908 2709 
Q 2678 2784 2431 2784 
Q 1963 2784 1702 2511 
Q 1441 2238 1441 1747 
Q 1441 1256 1702 982 
Q 1963 709 2431 709 
Q 2694 709 2930 787 
Q 3166 866 3366 1019 
L 3366 103 
Q 3103 6 2833 -42 
Q 2563 -91 2291 -91 
Q 1344 -91 809 395 
Q 275 881 275 1747 
Q 275 2613 809 3098 
Q 1344 3584 2291 3584 
Q 2566 3584 2833 3536 
Q 3100 3488 3366 3391 
z
" transform="scale(0.015625)"/>
     </defs>
     <use xlink:href="#DejaVuSans-Bold-47"/>
     <use xlink:href="#DejaVuSans-Bold-41" transform="translate(82.080078 0)"/>
     <use xlink:href="#DejaVuSans-Bold-54" transform="translate(151.722656 0)"/>
     <use xlink:href="#DejaVuSans-Bold-2d" transform="translate(205.185547 0)"/>
     <use xlink:href="#DejaVuSans-Bold-43" transform="translate(246.689453 0)"/>
     <use xlink:href="#DejaVuSans-Bold-49" transform="translate(320.078125 0)"/>
     <use xlink:href="#DejaVuSans-Bold-52" transform="translate(357.285156 0)"/>
     <use xlink:href="#DejaVuSans-Bold-20" transform="translate(434.287109 0)"/>
     <use xlink:href="#DejaVuSans-Bold-52" transform="translate(469.101562 0)"/>
     <use xlink:href="#DejaVuSans-Bold-65" transform="translate(546.103516 0)"/>
     <use xlink:href="#DejaVuSans-Bold-70" transform="translate(613.925781 0)"/>
     <use xlink:href="#DejaVuSans-Bold-65" transform="translate(685.507812 0)"/>
     <use xlink:href="#DejaVuSans-Bold-61" transform="translate(753.330078 0)"/>
     <use xlink:href="#DejaVuSans-Bold-74" transform="translate(820.810547 0)"/>
     <use xlink:href="#DejaVuSans-Bold-20" transform="translate(868.613281 0)"/>
     <use xlink:href="#DejaVuSans-Bold-52" transform="translate(903.427734 0)"/>
     <use xlink:href="#DejaVuSans-Bold-65" transform="translate(980.429688 0)"/>
     <use xlink:href="#DejaVuSans-Bold-64" transform="translate(1048.251953 0)"/>
     <use xlink:href="#DejaVuSans-Bold-75" transform="translate(1119.833984 0)"/>
     <use xlink:href="#DejaVuSans-Bold-63" transform="translate(1191.025391 0)"/>
     <use xlink:href="#DejaVuSans-Bold-74" transform="translate(1250.302734 0)"/>
     <use xlink:href="#DejaVuSans-Bold-69" transform="translate(1298.105469 0)"/>
     <use xlink:href="#DejaVuSans-Bold-6f" transform="translate(1332.382812 0)"/>
     <use xlink:href="#DejaVuSans-Bold-6e" transform="translate(1401.083984 0)"/>
     <use xlink:href="#DejaVuSans-Bold-20" transform="translate(1472.275391 0)"/>
     <use xlink:href="#DejaVuSans-Bold-6f" transform="translate(1507.089844 0)"/>
     <use xlink:href="#DejaVuSans-Bold-76" transform="translate(1575.791016 0)"/>
     <use xlink:href="#DejaVuSans-Bold-65" transform="translate(1640.976562 0)"/>
     <use xlink:href="#DejaVuSans-Bold-72" transform="translate(1708.798828 0)"/>
     <use xlink:href="#DejaVuSans-Bold-20" transform="translate(1758.115234 0)"/>
     <use xlink:href="#DejaVuSans-Bold-47" transform="translate(1792.929688 0)"/>
     <use xlink:href="#DejaVuSans-Bold-41" transform="translate(1875.009766 0)"/>
     <use xlink:href="#DejaVuSans-Bold-54" transform="translate(1944.652344 0)"/>
     <use xlink:href="#DejaVuSans-Bold-2d" transform="translate(1998.115234 0)"/>
     <use xlink:href="#DejaVuSans-Bold-4f" transform="translate(2039.619141 0)"/>
     <use xlink:href="#DejaVuSans-Bold-4e" transform="translate(2124.628906 0)"/>
    </g>
   </g>
  </g>
  <g id="text_27">
   <!-- CIR Module Difference Curves (Zoomed) -->
   <g transform="translate(227.190781 17.837813) scale(0.14 -0.14)">
    <defs>
     <path id="DejaVuSans-Bold-4d" d="M 588 4666 
L 2119 4666 
L 3181 2169 
L 4250 4666 
L 5778 4666 
L 5778 0 
L 4641 0 
L 4641 3413 
L 3566 897 
L 2803 897 
L 1728 3413 
L 1728 0 
L 588 0 
L 588 4666 
z
" transform="scale(0.015625)"/>
     <path id="DejaVuSans-Bold-6c" d="M 538 4863 
L 1656 4863 
L 1656 0 
L 538 0 
L 538 4863 
z
" transform="scale(0.015625)"/>
     <path id="DejaVuSans-Bold-44" d="M 1791 3756 
L 1791 909 
L 2222 909 
Q 2959 909 3348 1275 
Q 3738 1641 3738 2338 
Q 3738 3031 3350 3393 
Q 2963 3756 2222 3756 
L 1791 3756 
z
M 588 4666 
L 1856 4666 
Q 2919 4666 3439 4514 
Q 3959 4363 4331 4000 
Q 4659 3684 4818 3271 
Q 4978 2859 4978 2338 
Q 4978 1809 4818 1395 
Q 4659 981 4331 666 
Q 3956 303 3431 151 
Q 2906 0 1856 0 
L 588 0 
L 588 4666 
z
" transform="scale(0.015625)"/>
     <path id="DejaVuSans-Bold-66" d="M 2841 4863 
L 2841 4128 
L 2222 4128 
Q 1984 4128 1890 4042 
Q 1797 3956 1797 3744 
L 1797 3500 
L 2753 3500 
L 2753 2700 
L 1797 2700 
L 1797 0 
L 678 0 
L 678 2700 
L 122 2700 
L 122 3500 
L 678 3500 
L 678 3744 
Q 678 4316 997 4589 
Q 1316 4863 1984 4863 
L 2841 4863 
z
" transform="scale(0.015625)"/>
     <path id="DejaVuSans-Bold-73" d="M 3272 3391 
L 3272 2541 
Q 2913 2691 2578 2766 
Q 2244 2841 1947 2841 
Q 1628 2841 1473 2761 
Q 1319 2681 1319 2516 
Q 1319 2381 1436 2309 
Q 1553 2238 1856 2203 
L 2053 2175 
Q 2913 2066 3209 1816 
Q 3506 1566 3506 1031 
Q 3506 472 3093 190 
Q 2681 -91 1863 -91 
Q 1516 -91 1145 -36 
Q 775 19 384 128 
L 384 978 
Q 719 816 1070 734 
Q 1422 653 1784 653 
Q 2113 653 2278 743 
Q 2444 834 2444 1013 
Q 2444 1163 2330 1236 
Q 2216 1309 1875 1350 
L 1678 1375 
Q 931 1469 631 1722 
Q 331 1975 331 2491 
Q 331 3047 712 3315 
Q 1094 3584 1881 3584 
Q 2191 3584 2531 3537 
Q 2872 3491 3272 3391 
z
" transform="scale(0.015625)"/>
     <path id="DejaVuSans-Bold-28" d="M 2413 -844 
L 1484 -844 
Q 1006 -72 778 623 
Q 550 1319 550 2003 
Q 550 2688 779 3389 
Q 1009 4091 1484 4856 
L 2413 4856 
Q 2013 4116 1813 3408 
Q 1613 2700 1613 2009 
Q 1613 1319 1811 609 
Q 2009 -100 2413 -844 
z
" transform="scale(0.015625)"/>
     <path id="DejaVuSans-Bold-5a" d="M 359 4666 
L 4281 4666 
L 4281 3938 
L 1778 909 
L 4353 909 
L 4353 0 
L 288 0 
L 288 728 
L 2791 3756 
L 359 3756 
L 359 4666 
z
" transform="scale(0.015625)"/>
     <path id="DejaVuSans-Bold-6d" d="M 3781 2919 
Q 3994 3244 4286 3414 
Q 4578 3584 4928 3584 
Q 5531 3584 5847 3212 
Q 6163 2841 6163 2131 
L 6163 0 
L 5038 0 
L 5038 1825 
Q 5041 1866 5042 1909 
Q 5044 1953 5044 2034 
Q 5044 2406 4934 2573 
Q 4825 2741 4581 2741 
Q 4263 2741 4089 2478 
Q 3916 2216 3909 1719 
L 3909 0 
L 2784 0 
L 2784 1825 
Q 2784 2406 2684 2573 
Q 2584 2741 2328 2741 
Q 2006 2741 1831 2477 
Q 1656 2213 1656 1722 
L 1656 0 
L 531 0 
L 531 3500 
L 1656 3500 
L 1656 2988 
Q 1863 3284 2130 3434 
Q 2397 3584 2719 3584 
Q 3081 3584 3359 3409 
Q 3638 3234 3781 2919 
z
" transform="scale(0.015625)"/>
     <path id="DejaVuSans-Bold-29" d="M 513 -844 
Q 913 -100 1113 609 
Q 1313 1319 1313 2009 
Q 1313 2700 1113 3408 
Q 913 4116 513 4856 
L 1441 4856 
Q 1916 4091 2145 3389 
Q 2375 2688 2375 2003 
Q 2375 1319 2147 623 
Q 1919 -72 1441 -844 
L 513 -844 
z
" transform="scale(0.015625)"/>
    </defs>
    <use xlink:href="#DejaVuSans-Bold-43"/>
    <use xlink:href="#DejaVuSans-Bold-49" transform="translate(73.388672 0)"/>
    <use xlink:href="#DejaVuSans-Bold-52" transform="translate(110.595703 0)"/>
    <use xlink:href="#DejaVuSans-Bold-20" transform="translate(187.597656 0)"/>
    <use xlink:href="#DejaVuSans-Bold-4d" transform="translate(222.412109 0)"/>
    <use xlink:href="#DejaVuSans-Bold-6f" transform="translate(321.923828 0)"/>
    <use xlink:href="#DejaVuSans-Bold-64" transform="translate(390.625 0)"/>
    <use xlink:href="#DejaVuSans-Bold-75" transform="translate(462.207031 0)"/>
    <use xlink:href="#DejaVuSans-Bold-6c" transform="translate(533.398438 0)"/>
    <use xlink:href="#DejaVuSans-Bold-65" transform="translate(567.675781 0)"/>
    <use xlink:href="#DejaVuSans-Bold-20" transform="translate(635.498047 0)"/>
    <use xlink:href="#DejaVuSans-Bold-44" transform="translate(670.3125 0)"/>
    <use xlink:href="#DejaVuSans-Bold-69" transform="translate(753.320312 0)"/>
    <use xlink:href="#DejaVuSans-Bold-66" transform="translate(787.597656 0)"/>
    <use xlink:href="#DejaVuSans-Bold-66" transform="translate(831.103516 0)"/>
    <use xlink:href="#DejaVuSans-Bold-65" transform="translate(874.609375 0)"/>
    <use xlink:href="#DejaVuSans-Bold-72" transform="translate(942.431641 0)"/>
    <use xlink:href="#DejaVuSans-Bold-65" transform="translate(991.748047 0)"/>
    <use xlink:href="#DejaVuSans-Bold-6e" transform="translate(1059.570312 0)"/>
    <use xlink:href="#DejaVuSans-Bold-63" transform="translate(1130.761719 0)"/>
    <use xlink:href="#DejaVuSans-Bold-65" transform="translate(1190.039062 0)"/>
    <use xlink:href="#DejaVuSans-Bold-20" transform="translate(1257.861328 0)"/>
    <use xlink:href="#DejaVuSans-Bold-43" transform="translate(1292.675781 0)"/>
    <use xlink:href="#DejaVuSans-Bold-75" transform="translate(1366.064453 0)"/>
    <use xlink:href="#DejaVuSans-Bold-72" transform="translate(1437.255859 0)"/>
    <use xlink:href="#DejaVuSans-Bold-76" transform="translate(1486.572266 0)"/>
    <use xlink:href="#DejaVuSans-Bold-65" transform="translate(1551.757812 0)"/>
    <use xlink:href="#DejaVuSans-Bold-73" transform="translate(1619.580078 0)"/>
    <use xlink:href="#DejaVuSans-Bold-20" transform="translate(1679.101562 0)"/>
    <use xlink:href="#DejaVuSans-Bold-28" transform="translate(1713.916016 0)"/>
    <use xlink:href="#DejaVuSans-Bold-5a" transform="translate(1759.619141 0)"/>
    <use xlink:href="#DejaVuSans-Bold-6f" transform="translate(1832.128906 0)"/>
    <use xlink:href="#DejaVuSans-Bold-6f" transform="translate(1900.830078 0)"/>
    <use xlink:href="#DejaVuSans-Bold-6d" transform="translate(1969.53125 0)"/>
    <use xlink:href="#DejaVuSans-Bold-65" transform="translate(2073.730469 0)"/>
    <use xlink:href="#DejaVuSans-Bold-64" transform="translate(2141.552734 0)"/>
    <use xlink:href="#DejaVuSans-Bold-29" transform="translate(2213.134766 0)"/>
   </g>
  </g>
 </g>
 <defs>
  <clipPath id="p0ec46ea562">
   <rect x="52.160938" y="80.336" width="711.15" height="185.086"/>
  </clipPath>
  <clipPath id="p6756ac0c04">
   <rect x="52.160938" y="296.922" width="711.15" height="185.086"/>
  </clipPath>
 </defs>
</svg>
