<?xml version="1.0" encoding="utf-8" standalone="no"?>
<!DOCTYPE svg PUBLIC "-//W3C//DTD SVG 1.1//EN"
  "http://www.w3.org/Graphics/SVG/1.1/DTD/svg11.dtd">
<svg xmlns:xlink="http://www.w3.org/1999/xlink" width="784.70625pt" height="517.494125pt" viewBox="0 0 784.70625 517.494125" xmlns="http://www.w3.org/2000/svg" version="1.1">
 <metadata>
  <rdf:RDF xmlns:dc="http://purl.org/dc/elements/1.1/" xmlns:cc="http://creativecommons.org/ns#" xmlns:rdf="http://www.w3.org/1999/02/22-rdf-syntax-ns#">
   <cc:Work>
    <dc:type rdf:resource="http://purl.org/dc/dcmitype/StillImage"/>
    <dc:date>2026-06-08T15:49:13.417656</dc:date>
    <dc:format>image/svg+xml</dc:format>
    <dc:creator>
     <cc:Agent>
      <dc:title>Matplotlib v3.10.9, https://matplotlib.org/</dc:title>
     </cc:Agent>
    </dc:creator>
   </cc:Work>
  </rdf:RDF>
 </metadata>
 <defs>
  <style type="text/css">*{stroke-linejoin: round; stroke-linecap: butt}</style>
 </defs>
 <g id="figure_1">
  <g id="patch_1">
   <path d="M 0 517.494125 
L 784.70625 517.494125 
L 784.70625 0 
L 0 0 
z
" style="fill: #ffffff"/>
  </g>
  <g id="axes_1">
   <g id="patch_2">
    <path d="M 33.2875 262.109 
L 386.90625 262.109 
L 386.90625 75.952 
L 33.2875 75.952 
z
" style="fill: #ffffff"/>
   </g>
   <g id="matplotlib.axis_1">
    <g id="xtick_1">
     <g id="line2d_1">
      <path d="M 107.061109 262.109 
L 107.061109 75.952 
" clip-path="url(#p80c1f4da75)" style="fill: none; stroke: #b0b0b0; stroke-opacity: 0.22; stroke-width: 0.8; stroke-linecap: square"/>
     </g>
     <g id="line2d_2">
      <defs>
       <path id="m363e51a073" d="M 0 0 
L 0 3.5 
" style="stroke: #000000; stroke-width: 0.8"/>
      </defs>
      <g>
       <use xlink:href="#m363e51a073" x="107.061109" y="262.109" style="stroke: #000000; stroke-width: 0.8"/>
      </g>
     </g>
     <g id="text_1">
      <!-- GAT-ON -->
      <g transform="translate(87.938452 276.707437) scale(0.1 -0.1)">
       <defs>
        <path id="DejaVuSans-47" d="M 3809 666 
L 3809 1919 
L 2778 1919 
L 2778 2438 
L 4434 2438 
L 4434 434 
Q 4069 175 3628 42 
Q 3188 -91 2688 -91 
Q 1594 -91 976 548 
Q 359 1188 359 2328 
Q 359 3472 976 4111 
Q 1594 4750 2688 4750 
Q 3144 4750 3555 4637 
Q 3966 4525 4313 4306 
L 4313 3634 
Q 3963 3931 3569 4081 
Q 3175 4231 2741 4231 
Q 1884 4231 1454 3753 
Q 1025 3275 1025 2328 
Q 1025 1384 1454 906 
Q 1884 428 2741 428 
Q 3075 428 3337 486 
Q 3600 544 3809 666 
z
" transform="scale(0.015625)"/>
        <path id="DejaVuSans-41" d="M 2188 4044 
L 1331 1722 
L 3047 1722 
L 2188 4044 
z
M 1831 4666 
L 2547 4666 
L 4325 0 
L 3669 0 
L 3244 1197 
L 1141 1197 
L 716 0 
L 50 0 
L 1831 4666 
z
" transform="scale(0.015625)"/>
        <path id="DejaVuSans-54" d="M -19 4666 
L 3928 4666 
L 3928 4134 
L 2272 4134 
L 2272 0 
L 1638 0 
L 1638 4134 
L -19 4134 
L -19 4666 
z
" transform="scale(0.015625)"/>
        <path id="DejaVuSans-2d" d="M 313 2009 
L 1997 2009 
L 1997 1497 
L 313 1497 
L 313 2009 
z
" transform="scale(0.015625)"/>
        <path id="DejaVuSans-4f" d="M 2522 4238 
Q 1834 4238 1429 3725 
Q 1025 3213 1025 2328 
Q 1025 1447 1429 934 
Q 1834 422 2522 422 
Q 3209 422 3611 934 
Q 4013 1447 4013 2328 
Q 4013 3213 3611 3725 
Q 3209 4238 2522 4238 
z
M 2522 4750 
Q 3503 4750 4090 4092 
Q 4678 3434 4678 2328 
Q 4678 1225 4090 567 
Q 3503 -91 2522 -91 
Q 1538 -91 948 565 
Q 359 1222 359 2328 
Q 359 3434 948 4092 
Q 1538 4750 2522 4750 
z
" transform="scale(0.015625)"/>
        <path id="DejaVuSans-4e" d="M 628 4666 
L 1478 4666 
L 3547 763 
L 3547 4666 
L 4159 4666 
L 4159 0 
L 3309 0 
L 1241 3903 
L 1241 0 
L 628 0 
L 628 4666 
z
" transform="scale(0.015625)"/>
       </defs>
       <use xlink:href="#DejaVuSans-47"/>
       <use xlink:href="#DejaVuSans-41" transform="translate(77.490234 0)"/>
       <use xlink:href="#DejaVuSans-54" transform="translate(138.148438 0)"/>
       <use xlink:href="#DejaVuSans-2d" transform="translate(190.107422 0)"/>
       <use xlink:href="#DejaVuSans-4f" transform="translate(228.941406 0)"/>
       <use xlink:href="#DejaVuSans-4e" transform="translate(307.652344 0)"/>
      </g>
     </g>
    </g>
    <g id="xtick_2">
     <g id="line2d_3">
      <path d="M 313.132641 262.109 
L 313.132641 75.952 
" clip-path="url(#p80c1f4da75)" style="fill: none; stroke: #b0b0b0; stroke-opacity: 0.22; stroke-width: 0.8; stroke-linecap: square"/>
     </g>
     <g id="line2d_4">
      <g>
       <use xlink:href="#m363e51a073" x="313.132641" y="262.109" style="stroke: #000000; stroke-width: 0.8"/>
      </g>
     </g>
     <g id="text_2">
      <!-- GAT-CIR -->
      <g transform="translate(293.383423 276.707437) scale(0.1 -0.1)">
       <defs>
        <path id="DejaVuSans-43" d="M 4122 4306 
L 4122 3641 
Q 3803 3938 3442 4084 
Q 3081 4231 2675 4231 
Q 1875 4231 1450 3742 
Q 1025 3253 1025 2328 
Q 1025 1406 1450 917 
Q 1875 428 2675 428 
Q 3081 428 3442 575 
Q 3803 722 4122 1019 
L 4122 359 
Q 3791 134 3420 21 
Q 3050 -91 2638 -91 
Q 1578 -91 968 557 
Q 359 1206 359 2328 
Q 359 3453 968 4101 
Q 1578 4750 2638 4750 
Q 3056 4750 3426 4639 
Q 3797 4528 4122 4306 
z
" transform="scale(0.015625)"/>
        <path id="DejaVuSans-49" d="M 628 4666 
L 1259 4666 
L 1259 0 
L 628 0 
L 628 4666 
z
" transform="scale(0.015625)"/>
        <path id="DejaVuSans-52" d="M 2841 2188 
Q 3044 2119 3236 1894 
Q 3428 1669 3622 1275 
L 4263 0 
L 3584 0 
L 2988 1197 
Q 2756 1666 2539 1819 
Q 2322 1972 1947 1972 
L 1259 1972 
L 1259 0 
L 628 0 
L 628 4666 
L 2053 4666 
Q 2853 4666 3247 4331 
Q 3641 3997 3641 3322 
Q 3641 2881 3436 2590 
Q 3231 2300 2841 2188 
z
M 1259 4147 
L 1259 2491 
L 2053 2491 
Q 2509 2491 2742 2702 
Q 2975 2913 2975 3322 
Q 2975 3731 2742 3939 
Q 2509 4147 2053 4147 
L 1259 4147 
z
" transform="scale(0.015625)"/>
       </defs>
       <use xlink:href="#DejaVuSans-47"/>
       <use xlink:href="#DejaVuSans-41" transform="translate(77.490234 0)"/>
       <use xlink:href="#DejaVuSans-54" transform="translate(138.148438 0)"/>
       <use xlink:href="#DejaVuSans-2d" transform="translate(190.107422 0)"/>
       <use xlink:href="#DejaVuSans-43" transform="translate(226.191406 0)"/>
       <use xlink:href="#DejaVuSans-49" transform="translate(296.015625 0)"/>
       <use xlink:href="#DejaVuSans-52" transform="translate(325.507812 0)"/>
      </g>
     </g>
    </g>
   </g>
   <g id="matplotlib.axis_2">
    <g id="ytick_1">
     <g id="line2d_5">
      <path d="M 33.2875 262.109 
L 386.90625 262.109 
" clip-path="url(#p80c1f4da75)" style="fill: none; stroke: #b0b0b0; stroke-opacity: 0.22; stroke-width: 0.8; stroke-linecap: square"/>
     </g>
     <g id="line2d_6">
      <defs>
       <path id="m8a6995e0c2" d="M 0 0 
L -3.5 0 
" style="stroke: #000000; stroke-width: 0.8"/>
      </defs>
      <g>
       <use xlink:href="#m8a6995e0c2" x="33.2875" y="262.109" style="stroke: #000000; stroke-width: 0.8"/>
      </g>
     </g>
     <g id="text_3">
      <!-- 0 -->
      <g transform="translate(19.925 265.908219) scale(0.1 -0.1)">
       <defs>
        <path id="DejaVuSans-30" d="M 2034 4250 
Q 1547 4250 1301 3770 
Q 1056 3291 1056 2328 
Q 1056 1369 1301 889 
Q 1547 409 2034 409 
Q 2525 409 2770 889 
Q 3016 1369 3016 2328 
Q 3016 3291 2770 3770 
Q 2525 4250 2034 4250 
z
M 2034 4750 
Q 2819 4750 3233 4129 
Q 3647 3509 3647 2328 
Q 3647 1150 3233 529 
Q 2819 -91 2034 -91 
Q 1250 -91 836 529 
Q 422 1150 422 2328 
Q 422 3509 836 4129 
Q 1250 4750 2034 4750 
z
" transform="scale(0.015625)"/>
       </defs>
       <use xlink:href="#DejaVuSans-30"/>
      </g>
     </g>
    </g>
    <g id="ytick_2">
     <g id="line2d_7">
      <path d="M 33.2875 226.650524 
L 386.90625 226.650524 
" clip-path="url(#p80c1f4da75)" style="fill: none; stroke: #b0b0b0; stroke-opacity: 0.22; stroke-width: 0.8; stroke-linecap: square"/>
     </g>
     <g id="line2d_8">
      <g>
       <use xlink:href="#m8a6995e0c2" x="33.2875" y="226.650524" style="stroke: #000000; stroke-width: 0.8"/>
      </g>
     </g>
     <g id="text_4">
      <!-- 20 -->
      <g transform="translate(13.5625 230.449743) scale(0.1 -0.1)">
       <defs>
        <path id="DejaVuSans-32" d="M 1228 531 
L 3431 531 
L 3431 0 
L 469 0 
L 469 531 
Q 828 903 1448 1529 
Q 2069 2156 2228 2338 
Q 2531 2678 2651 2914 
Q 2772 3150 2772 3378 
Q 2772 3750 2511 3984 
Q 2250 4219 1831 4219 
Q 1534 4219 1204 4116 
Q 875 4013 500 3803 
L 500 4441 
Q 881 4594 1212 4672 
Q 1544 4750 1819 4750 
Q 2544 4750 2975 4387 
Q 3406 4025 3406 3419 
Q 3406 3131 3298 2873 
Q 3191 2616 2906 2266 
Q 2828 2175 2409 1742 
Q 1991 1309 1228 531 
z
" transform="scale(0.015625)"/>
       </defs>
       <use xlink:href="#DejaVuSans-32"/>
       <use xlink:href="#DejaVuSans-30" transform="translate(63.623047 0)"/>
      </g>
     </g>
    </g>
    <g id="ytick_3">
     <g id="line2d_9">
      <path d="M 33.2875 191.192048 
L 386.90625 191.192048 
" clip-path="url(#p80c1f4da75)" style="fill: none; stroke: #b0b0b0; stroke-opacity: 0.22; stroke-width: 0.8; stroke-linecap: square"/>
     </g>
     <g id="line2d_10">
      <g>
       <use xlink:href="#m8a6995e0c2" x="33.2875" y="191.192048" style="stroke: #000000; stroke-width: 0.8"/>
      </g>
     </g>
     <g id="text_5">
      <!-- 40 -->
      <g transform="translate(13.5625 194.991266) scale(0.1 -0.1)">
       <defs>
        <path id="DejaVuSans-34" d="M 2419 4116 
L 825 1625 
L 2419 1625 
L 2419 4116 
z
M 2253 4666 
L 3047 4666 
L 3047 1625 
L 3713 1625 
L 3713 1100 
L 3047 1100 
L 3047 0 
L 2419 0 
L 2419 1100 
L 313 1100 
L 313 1709 
L 2253 4666 
z
" transform="scale(0.015625)"/>
       </defs>
       <use xlink:href="#DejaVuSans-34"/>
       <use xlink:href="#DejaVuSans-30" transform="translate(63.623047 0)"/>
      </g>
     </g>
    </g>
    <g id="ytick_4">
     <g id="line2d_11">
      <path d="M 33.2875 155.733571 
L 386.90625 155.733571 
" clip-path="url(#p80c1f4da75)" style="fill: none; stroke: #b0b0b0; stroke-opacity: 0.22; stroke-width: 0.8; stroke-linecap: square"/>
     </g>
     <g id="line2d_12">
      <g>
       <use xlink:href="#m8a6995e0c2" x="33.2875" y="155.733571" style="stroke: #000000; stroke-width: 0.8"/>
      </g>
     </g>
     <g id="text_6">
      <!-- 60 -->
      <g transform="translate(13.5625 159.53279) scale(0.1 -0.1)">
       <defs>
        <path id="DejaVuSans-36" d="M 2113 2584 
Q 1688 2584 1439 2293 
Q 1191 2003 1191 1497 
Q 1191 994 1439 701 
Q 1688 409 2113 409 
Q 2538 409 2786 701 
Q 3034 994 3034 1497 
Q 3034 2003 2786 2293 
Q 2538 2584 2113 2584 
z
M 3366 4563 
L 3366 3988 
Q 3128 4100 2886 4159 
Q 2644 4219 2406 4219 
Q 1781 4219 1451 3797 
Q 1122 3375 1075 2522 
Q 1259 2794 1537 2939 
Q 1816 3084 2150 3084 
Q 2853 3084 3261 2657 
Q 3669 2231 3669 1497 
Q 3669 778 3244 343 
Q 2819 -91 2113 -91 
Q 1303 -91 875 529 
Q 447 1150 447 2328 
Q 447 3434 972 4092 
Q 1497 4750 2381 4750 
Q 2619 4750 2861 4703 
Q 3103 4656 3366 4563 
z
" transform="scale(0.015625)"/>
       </defs>
       <use xlink:href="#DejaVuSans-36"/>
       <use xlink:href="#DejaVuSans-30" transform="translate(63.623047 0)"/>
      </g>
     </g>
    </g>
    <g id="ytick_5">
     <g id="line2d_13">
      <path d="M 33.2875 120.275095 
L 386.90625 120.275095 
" clip-path="url(#p80c1f4da75)" style="fill: none; stroke: #b0b0b0; stroke-opacity: 0.22; stroke-width: 0.8; stroke-linecap: square"/>
     </g>
     <g id="line2d_14">
      <g>
       <use xlink:href="#m8a6995e0c2" x="33.2875" y="120.275095" style="stroke: #000000; stroke-width: 0.8"/>
      </g>
     </g>
     <g id="text_7">
      <!-- 80 -->
      <g transform="translate(13.5625 124.074314) scale(0.1 -0.1)">
       <defs>
        <path id="DejaVuSans-38" d="M 2034 2216 
Q 1584 2216 1326 1975 
Q 1069 1734 1069 1313 
Q 1069 891 1326 650 
Q 1584 409 2034 409 
Q 2484 409 2743 651 
Q 3003 894 3003 1313 
Q 3003 1734 2745 1975 
Q 2488 2216 2034 2216 
z
M 1403 2484 
Q 997 2584 770 2862 
Q 544 3141 544 3541 
Q 544 4100 942 4425 
Q 1341 4750 2034 4750 
Q 2731 4750 3128 4425 
Q 3525 4100 3525 3541 
Q 3525 3141 3298 2862 
Q 3072 2584 2669 2484 
Q 3125 2378 3379 2068 
Q 3634 1759 3634 1313 
Q 3634 634 3220 271 
Q 2806 -91 2034 -91 
Q 1263 -91 848 271 
Q 434 634 434 1313 
Q 434 1759 690 2068 
Q 947 2378 1403 2484 
z
M 1172 3481 
Q 1172 3119 1398 2916 
Q 1625 2713 2034 2713 
Q 2441 2713 2670 2916 
Q 2900 3119 2900 3481 
Q 2900 3844 2670 4047 
Q 2441 4250 2034 4250 
Q 1625 4250 1398 4047 
Q 1172 3844 1172 3481 
z
" transform="scale(0.015625)"/>
       </defs>
       <use xlink:href="#DejaVuSans-38"/>
       <use xlink:href="#DejaVuSans-30" transform="translate(63.623047 0)"/>
      </g>
     </g>
    </g>
    <g id="ytick_6">
     <g id="line2d_15">
      <path d="M 33.2875 84.816619 
L 386.90625 84.816619 
" clip-path="url(#p80c1f4da75)" style="fill: none; stroke: #b0b0b0; stroke-opacity: 0.22; stroke-width: 0.8; stroke-linecap: square"/>
     </g>
     <g id="line2d_16">
      <g>
       <use xlink:href="#m8a6995e0c2" x="33.2875" y="84.816619" style="stroke: #000000; stroke-width: 0.8"/>
      </g>
     </g>
     <g id="text_8">
      <!-- 100 -->
      <g transform="translate(7.2 88.615838) scale(0.1 -0.1)">
       <defs>
        <path id="DejaVuSans-31" d="M 794 531 
L 1825 531 
L 1825 4091 
L 703 3866 
L 703 4441 
L 1819 4666 
L 2450 4666 
L 2450 531 
L 3481 531 
L 3481 0 
L 794 0 
L 794 531 
z
" transform="scale(0.015625)"/>
       </defs>
       <use xlink:href="#DejaVuSans-31"/>
       <use xlink:href="#DejaVuSans-30" transform="translate(63.623047 0)"/>
       <use xlink:href="#DejaVuSans-30" transform="translate(127.246094 0)"/>
      </g>
     </g>
    </g>
   </g>
   <g id="patch_3">
    <path d="M 49.36108 262.109 
L 164.761138 262.109 
L 164.761138 93.681238 
L 49.36108 93.681238 
z
" clip-path="url(#p80c1f4da75)" style="fill: #4c78a8"/>
   </g>
   <g id="patch_4">
    <path d="M 255.432612 262.109 
L 370.83267 262.109 
L 370.83267 84.816619 
L 255.432612 84.816619 
z
" clip-path="url(#p80c1f4da75)" style="fill: #f58518"/>
   </g>
   <g id="patch_5">
    <path d="M 33.2875 262.109 
L 33.2875 75.952 
" style="fill: none; stroke: #000000; stroke-width: 0.8; stroke-linejoin: miter; stroke-linecap: square"/>
   </g>
   <g id="patch_6">
    <path d="M 33.2875 262.109 
L 386.90625 262.109 
" style="fill: none; stroke: #000000; stroke-width: 0.8; stroke-linejoin: miter; stroke-linecap: square"/>
   </g>
   <g id="text_9">
    <!-- 95.00% -->
    <g transform="translate(89.902749 87.155594) scale(0.09 -0.09)">
     <defs>
      <path id="DejaVuSans-39" d="M 703 97 
L 703 672 
Q 941 559 1184 500 
Q 1428 441 1663 441 
Q 2288 441 2617 861 
Q 2947 1281 2994 2138 
Q 2813 1869 2534 1725 
Q 2256 1581 1919 1581 
Q 1219 1581 811 2004 
Q 403 2428 403 3163 
Q 403 3881 828 4315 
Q 1253 4750 1959 4750 
Q 2769 4750 3195 4129 
Q 3622 3509 3622 2328 
Q 3622 1225 3098 567 
Q 2575 -91 1691 -91 
Q 1453 -91 1209 -44 
Q 966 3 703 97 
z
M 1959 2075 
Q 2384 2075 2632 2365 
Q 2881 2656 2881 3163 
Q 2881 3666 2632 3958 
Q 2384 4250 1959 4250 
Q 1534 4250 1286 3958 
Q 1038 3666 1038 3163 
Q 1038 2656 1286 2365 
Q 1534 2075 1959 2075 
z
" transform="scale(0.015625)"/>
      <path id="DejaVuSans-35" d="M 691 4666 
L 3169 4666 
L 3169 4134 
L 1269 4134 
L 1269 2991 
Q 1406 3038 1543 3061 
Q 1681 3084 1819 3084 
Q 2600 3084 3056 2656 
Q 3513 2228 3513 1497 
Q 3513 744 3044 326 
Q 2575 -91 1722 -91 
Q 1428 -91 1123 -41 
Q 819 9 494 109 
L 494 744 
Q 775 591 1075 516 
Q 1375 441 1709 441 
Q 2250 441 2565 725 
Q 2881 1009 2881 1497 
Q 2881 1984 2565 2268 
Q 2250 2553 1709 2553 
Q 1456 2553 1204 2497 
Q 953 2441 691 2322 
L 691 4666 
z
" transform="scale(0.015625)"/>
      <path id="DejaVuSans-2e" d="M 684 794 
L 1344 794 
L 1344 0 
L 684 0 
L 684 794 
z
" transform="scale(0.015625)"/>
      <path id="DejaVuSans-25" d="M 4653 2053 
Q 4381 2053 4226 1822 
Q 4072 1591 4072 1178 
Q 4072 772 4226 539 
Q 4381 306 4653 306 
Q 4919 306 5073 539 
Q 5228 772 5228 1178 
Q 5228 1588 5073 1820 
Q 4919 2053 4653 2053 
z
M 4653 2450 
Q 5147 2450 5437 2106 
Q 5728 1763 5728 1178 
Q 5728 594 5436 251 
Q 5144 -91 4653 -91 
Q 4153 -91 3862 251 
Q 3572 594 3572 1178 
Q 3572 1766 3864 2108 
Q 4156 2450 4653 2450 
z
M 1428 4353 
Q 1159 4353 1004 4120 
Q 850 3888 850 3481 
Q 850 3069 1003 2837 
Q 1156 2606 1428 2606 
Q 1700 2606 1854 2837 
Q 2009 3069 2009 3481 
Q 2009 3884 1853 4118 
Q 1697 4353 1428 4353 
z
M 4250 4750 
L 4750 4750 
L 1831 -91 
L 1331 -91 
L 4250 4750 
z
M 1428 4750 
Q 1922 4750 2215 4408 
Q 2509 4066 2509 3481 
Q 2509 2891 2217 2550 
Q 1925 2209 1428 2209 
Q 931 2209 642 2551 
Q 353 2894 353 3481 
Q 353 4063 643 4406 
Q 934 4750 1428 4750 
z
" transform="scale(0.015625)"/>
     </defs>
     <use xlink:href="#DejaVuSans-39"/>
     <use xlink:href="#DejaVuSans-35" transform="translate(63.623047 0)"/>
     <use xlink:href="#DejaVuSans-2e" transform="translate(127.246094 0)"/>
     <use xlink:href="#DejaVuSans-30" transform="translate(159.033203 0)"/>
     <use xlink:href="#DejaVuSans-30" transform="translate(222.65625 0)"/>
     <use xlink:href="#DejaVuSans-25" transform="translate(286.279297 0)"/>
    </g>
   </g>
   <g id="text_10">
    <!-- 100.00% -->
    <g transform="translate(293.111157 78.290975) scale(0.09 -0.09)">
     <use xlink:href="#DejaVuSans-31"/>
     <use xlink:href="#DejaVuSans-30" transform="translate(63.623047 0)"/>
     <use xlink:href="#DejaVuSans-30" transform="translate(127.246094 0)"/>
     <use xlink:href="#DejaVuSans-2e" transform="translate(190.869141 0)"/>
     <use xlink:href="#DejaVuSans-30" transform="translate(222.65625 0)"/>
     <use xlink:href="#DejaVuSans-30" transform="translate(286.279297 0)"/>
     <use xlink:href="#DejaVuSans-25" transform="translate(349.902344 0)"/>
    </g>
   </g>
   <g id="text_11">
    <g id="patch_7">
     <path d="M 177.078828 104.895996 
L 243.114922 104.895996 
Q 245.364922 104.895996 245.364922 102.645996 
L 245.364922 93.935684 
Q 245.364922 91.685684 243.114922 91.685684 
L 177.078828 91.685684 
Q 174.828828 91.685684 174.828828 93.935684 
L 174.828828 102.645996 
Q 174.828828 104.895996 177.078828 104.895996 
z
" style="fill: #ffffff; opacity: 0.9; stroke: #cccccc; stroke-linejoin: miter"/>
    </g>
    <!-- Delta: +5.00% -->
    <g transform="translate(177.078828 100.774277) scale(0.09 -0.09)">
     <defs>
      <path id="DejaVuSans-44" d="M 1259 4147 
L 1259 519 
L 2022 519 
Q 2988 519 3436 956 
Q 3884 1394 3884 2338 
Q 3884 3275 3436 3711 
Q 2988 4147 2022 4147 
L 1259 4147 
z
M 628 4666 
L 1925 4666 
Q 3281 4666 3915 4102 
Q 4550 3538 4550 2338 
Q 4550 1131 3912 565 
Q 3275 0 1925 0 
L 628 0 
L 628 4666 
z
" transform="scale(0.015625)"/>
      <path id="DejaVuSans-65" d="M 3597 1894 
L 3597 1613 
L 953 1613 
Q 991 1019 1311 708 
Q 1631 397 2203 397 
Q 2534 397 2845 478 
Q 3156 559 3463 722 
L 3463 178 
Q 3153 47 2828 -22 
Q 2503 -91 2169 -91 
Q 1331 -91 842 396 
Q 353 884 353 1716 
Q 353 2575 817 3079 
Q 1281 3584 2069 3584 
Q 2775 3584 3186 3129 
Q 3597 2675 3597 1894 
z
M 3022 2063 
Q 3016 2534 2758 2815 
Q 2500 3097 2075 3097 
Q 1594 3097 1305 2825 
Q 1016 2553 972 2059 
L 3022 2063 
z
" transform="scale(0.015625)"/>
      <path id="DejaVuSans-6c" d="M 603 4863 
L 1178 4863 
L 1178 0 
L 603 0 
L 603 4863 
z
" transform="scale(0.015625)"/>
      <path id="DejaVuSans-74" d="M 1172 4494 
L 1172 3500 
L 2356 3500 
L 2356 3053 
L 1172 3053 
L 1172 1153 
Q 1172 725 1289 603 
Q 1406 481 1766 481 
L 2356 481 
L 2356 0 
L 1766 0 
Q 1100 0 847 248 
Q 594 497 594 1153 
L 594 3053 
L 172 3053 
L 172 3500 
L 594 3500 
L 594 4494 
L 1172 4494 
z
" transform="scale(0.015625)"/>
      <path id="DejaVuSans-61" d="M 2194 1759 
Q 1497 1759 1228 1600 
Q 959 1441 959 1056 
Q 959 750 1161 570 
Q 1363 391 1709 391 
Q 2188 391 2477 730 
Q 2766 1069 2766 1631 
L 2766 1759 
L 2194 1759 
z
M 3341 1997 
L 3341 0 
L 2766 0 
L 2766 531 
Q 2569 213 2275 61 
Q 1981 -91 1556 -91 
Q 1019 -91 701 211 
Q 384 513 384 1019 
Q 384 1609 779 1909 
Q 1175 2209 1959 2209 
L 2766 2209 
L 2766 2266 
Q 2766 2663 2505 2880 
Q 2244 3097 1772 3097 
Q 1472 3097 1187 3025 
Q 903 2953 641 2809 
L 641 3341 
Q 956 3463 1253 3523 
Q 1550 3584 1831 3584 
Q 2591 3584 2966 3190 
Q 3341 2797 3341 1997 
z
" transform="scale(0.015625)"/>
      <path id="DejaVuSans-3a" d="M 750 794 
L 1409 794 
L 1409 0 
L 750 0 
L 750 794 
z
M 750 3309 
L 1409 3309 
L 1409 2516 
L 750 2516 
L 750 3309 
z
" transform="scale(0.015625)"/>
      <path id="DejaVuSans-20" transform="scale(0.015625)"/>
      <path id="DejaVuSans-2b" d="M 2944 4013 
L 2944 2272 
L 4684 2272 
L 4684 1741 
L 2944 1741 
L 2944 0 
L 2419 0 
L 2419 1741 
L 678 1741 
L 678 2272 
L 2419 2272 
L 2419 4013 
L 2944 4013 
z
" transform="scale(0.015625)"/>
     </defs>
     <use xlink:href="#DejaVuSans-44"/>
     <use xlink:href="#DejaVuSans-65" transform="translate(77.001953 0)"/>
     <use xlink:href="#DejaVuSans-6c" transform="translate(138.525391 0)"/>
     <use xlink:href="#DejaVuSans-74" transform="translate(166.308594 0)"/>
     <use xlink:href="#DejaVuSans-61" transform="translate(205.517578 0)"/>
     <use xlink:href="#DejaVuSans-3a" transform="translate(266.796875 0)"/>
     <use xlink:href="#DejaVuSans-20" transform="translate(300.488281 0)"/>
     <use xlink:href="#DejaVuSans-2b" transform="translate(332.275391 0)"/>
     <use xlink:href="#DejaVuSans-35" transform="translate(416.064453 0)"/>
     <use xlink:href="#DejaVuSans-2e" transform="translate(479.6875 0)"/>
     <use xlink:href="#DejaVuSans-30" transform="translate(511.474609 0)"/>
     <use xlink:href="#DejaVuSans-30" transform="translate(575.097656 0)"/>
     <use xlink:href="#DejaVuSans-25" transform="translate(638.720703 0)"/>
    </g>
   </g>
   <g id="text_12">
    <!-- Completion Rate (%) (higher is better) -->
    <g transform="translate(104.574219 65.952) scale(0.11 -0.11)">
     <defs>
      <path id="DejaVuSans-6f" d="M 1959 3097 
Q 1497 3097 1228 2736 
Q 959 2375 959 1747 
Q 959 1119 1226 758 
Q 1494 397 1959 397 
Q 2419 397 2687 759 
Q 2956 1122 2956 1747 
Q 2956 2369 2687 2733 
Q 2419 3097 1959 3097 
z
M 1959 3584 
Q 2709 3584 3137 3096 
Q 3566 2609 3566 1747 
Q 3566 888 3137 398 
Q 2709 -91 1959 -91 
Q 1206 -91 779 398 
Q 353 888 353 1747 
Q 353 2609 779 3096 
Q 1206 3584 1959 3584 
z
" transform="scale(0.015625)"/>
      <path id="DejaVuSans-6d" d="M 3328 2828 
Q 3544 3216 3844 3400 
Q 4144 3584 4550 3584 
Q 5097 3584 5394 3201 
Q 5691 2819 5691 2113 
L 5691 0 
L 5113 0 
L 5113 2094 
Q 5113 2597 4934 2840 
Q 4756 3084 4391 3084 
Q 3944 3084 3684 2787 
Q 3425 2491 3425 1978 
L 3425 0 
L 2847 0 
L 2847 2094 
Q 2847 2600 2669 2842 
Q 2491 3084 2119 3084 
Q 1678 3084 1418 2786 
Q 1159 2488 1159 1978 
L 1159 0 
L 581 0 
L 581 3500 
L 1159 3500 
L 1159 2956 
Q 1356 3278 1631 3431 
Q 1906 3584 2284 3584 
Q 2666 3584 2933 3390 
Q 3200 3197 3328 2828 
z
" transform="scale(0.015625)"/>
      <path id="DejaVuSans-70" d="M 1159 525 
L 1159 -1331 
L 581 -1331 
L 581 3500 
L 1159 3500 
L 1159 2969 
Q 1341 3281 1617 3432 
Q 1894 3584 2278 3584 
Q 2916 3584 3314 3078 
Q 3713 2572 3713 1747 
Q 3713 922 3314 415 
Q 2916 -91 2278 -91 
Q 1894 -91 1617 61 
Q 1341 213 1159 525 
z
M 3116 1747 
Q 3116 2381 2855 2742 
Q 2594 3103 2138 3103 
Q 1681 3103 1420 2742 
Q 1159 2381 1159 1747 
Q 1159 1113 1420 752 
Q 1681 391 2138 391 
Q 2594 391 2855 752 
Q 3116 1113 3116 1747 
z
" transform="scale(0.015625)"/>
      <path id="DejaVuSans-69" d="M 603 3500 
L 1178 3500 
L 1178 0 
L 603 0 
L 603 3500 
z
M 603 4863 
L 1178 4863 
L 1178 4134 
L 603 4134 
L 603 4863 
z
" transform="scale(0.015625)"/>
      <path id="DejaVuSans-6e" d="M 3513 2113 
L 3513 0 
L 2938 0 
L 2938 2094 
Q 2938 2591 2744 2837 
Q 2550 3084 2163 3084 
Q 1697 3084 1428 2787 
Q 1159 2491 1159 1978 
L 1159 0 
L 581 0 
L 581 3500 
L 1159 3500 
L 1159 2956 
Q 1366 3272 1645 3428 
Q 1925 3584 2291 3584 
Q 2894 3584 3203 3211 
Q 3513 2838 3513 2113 
z
" transform="scale(0.015625)"/>
      <path id="DejaVuSans-28" d="M 1984 4856 
Q 1566 4138 1362 3434 
Q 1159 2731 1159 2009 
Q 1159 1288 1364 580 
Q 1569 -128 1984 -844 
L 1484 -844 
Q 1016 -109 783 600 
Q 550 1309 550 2009 
Q 550 2706 781 3412 
Q 1013 4119 1484 4856 
L 1984 4856 
z
" transform="scale(0.015625)"/>
      <path id="DejaVuSans-29" d="M 513 4856 
L 1013 4856 
Q 1481 4119 1714 3412 
Q 1947 2706 1947 2009 
Q 1947 1309 1714 600 
Q 1481 -109 1013 -844 
L 513 -844 
Q 928 -128 1133 580 
Q 1338 1288 1338 2009 
Q 1338 2731 1133 3434 
Q 928 4138 513 4856 
z
" transform="scale(0.015625)"/>
      <path id="DejaVuSans-68" d="M 3513 2113 
L 3513 0 
L 2938 0 
L 2938 2094 
Q 2938 2591 2744 2837 
Q 2550 3084 2163 3084 
Q 1697 3084 1428 2787 
Q 1159 2491 1159 1978 
L 1159 0 
L 581 0 
L 581 4863 
L 1159 4863 
L 1159 2956 
Q 1366 3272 1645 3428 
Q 1925 3584 2291 3584 
Q 2894 3584 3203 3211 
Q 3513 2838 3513 2113 
z
" transform="scale(0.015625)"/>
      <path id="DejaVuSans-67" d="M 2906 1791 
Q 2906 2416 2648 2759 
Q 2391 3103 1925 3103 
Q 1463 3103 1205 2759 
Q 947 2416 947 1791 
Q 947 1169 1205 825 
Q 1463 481 1925 481 
Q 2391 481 2648 825 
Q 2906 1169 2906 1791 
z
M 3481 434 
Q 3481 -459 3084 -895 
Q 2688 -1331 1869 -1331 
Q 1566 -1331 1297 -1286 
Q 1028 -1241 775 -1147 
L 775 -588 
Q 1028 -725 1275 -790 
Q 1522 -856 1778 -856 
Q 2344 -856 2625 -561 
Q 2906 -266 2906 331 
L 2906 616 
Q 2728 306 2450 153 
Q 2172 0 1784 0 
Q 1141 0 747 490 
Q 353 981 353 1791 
Q 353 2603 747 3093 
Q 1141 3584 1784 3584 
Q 2172 3584 2450 3431 
Q 2728 3278 2906 2969 
L 2906 3500 
L 3481 3500 
L 3481 434 
z
" transform="scale(0.015625)"/>
      <path id="DejaVuSans-72" d="M 2631 2963 
Q 2534 3019 2420 3045 
Q 2306 3072 2169 3072 
Q 1681 3072 1420 2755 
Q 1159 2438 1159 1844 
L 1159 0 
L 581 0 
L 581 3500 
L 1159 3500 
L 1159 2956 
Q 1341 3275 1631 3429 
Q 1922 3584 2338 3584 
Q 2397 3584 2469 3576 
Q 2541 3569 2628 3553 
L 2631 2963 
z
" transform="scale(0.015625)"/>
      <path id="DejaVuSans-73" d="M 2834 3397 
L 2834 2853 
Q 2591 2978 2328 3040 
Q 2066 3103 1784 3103 
Q 1356 3103 1142 2972 
Q 928 2841 928 2578 
Q 928 2378 1081 2264 
Q 1234 2150 1697 2047 
L 1894 2003 
Q 2506 1872 2764 1633 
Q 3022 1394 3022 966 
Q 3022 478 2636 193 
Q 2250 -91 1575 -91 
Q 1294 -91 989 -36 
Q 684 19 347 128 
L 347 722 
Q 666 556 975 473 
Q 1284 391 1588 391 
Q 1994 391 2212 530 
Q 2431 669 2431 922 
Q 2431 1156 2273 1281 
Q 2116 1406 1581 1522 
L 1381 1569 
Q 847 1681 609 1914 
Q 372 2147 372 2553 
Q 372 3047 722 3315 
Q 1072 3584 1716 3584 
Q 2034 3584 2315 3537 
Q 2597 3491 2834 3397 
z
" transform="scale(0.015625)"/>
      <path id="DejaVuSans-62" d="M 3116 1747 
Q 3116 2381 2855 2742 
Q 2594 3103 2138 3103 
Q 1681 3103 1420 2742 
Q 1159 2381 1159 1747 
Q 1159 1113 1420 752 
Q 1681 391 2138 391 
Q 2594 391 2855 752 
Q 3116 1113 3116 1747 
z
M 1159 2969 
Q 1341 3281 1617 3432 
Q 1894 3584 2278 3584 
Q 2916 3584 3314 3078 
Q 3713 2572 3713 1747 
Q 3713 922 3314 415 
Q 2916 -91 2278 -91 
Q 1894 -91 1617 61 
Q 1341 213 1159 525 
L 1159 0 
L 581 0 
L 581 4863 
L 1159 4863 
L 1159 2969 
z
" transform="scale(0.015625)"/>
     </defs>
     <use xlink:href="#DejaVuSans-43"/>
     <use xlink:href="#DejaVuSans-6f" transform="translate(69.824219 0)"/>
     <use xlink:href="#DejaVuSans-6d" transform="translate(131.005859 0)"/>
     <use xlink:href="#DejaVuSans-70" transform="translate(228.417969 0)"/>
     <use xlink:href="#DejaVuSans-6c" transform="translate(291.894531 0)"/>
     <use xlink:href="#DejaVuSans-65" transform="translate(319.677734 0)"/>
     <use xlink:href="#DejaVuSans-74" transform="translate(381.201172 0)"/>
     <use xlink:href="#DejaVuSans-69" transform="translate(420.410156 0)"/>
     <use xlink:href="#DejaVuSans-6f" transform="translate(448.193359 0)"/>
     <use xlink:href="#DejaVuSans-6e" transform="translate(509.375 0)"/>
     <use xlink:href="#DejaVuSans-20" transform="translate(572.753906 0)"/>
     <use xlink:href="#DejaVuSans-52" transform="translate(604.541016 0)"/>
     <use xlink:href="#DejaVuSans-61" transform="translate(671.773438 0)"/>
     <use xlink:href="#DejaVuSans-74" transform="translate(733.052734 0)"/>
     <use xlink:href="#DejaVuSans-65" transform="translate(772.261719 0)"/>
     <use xlink:href="#DejaVuSans-20" transform="translate(833.785156 0)"/>
     <use xlink:href="#DejaVuSans-28" transform="translate(865.572266 0)"/>
     <use xlink:href="#DejaVuSans-25" transform="translate(904.585938 0)"/>
     <use xlink:href="#DejaVuSans-29" transform="translate(999.605469 0)"/>
     <use xlink:href="#DejaVuSans-20" transform="translate(1038.619141 0)"/>
     <use xlink:href="#DejaVuSans-28" transform="translate(1070.40625 0)"/>
     <use xlink:href="#DejaVuSans-68" transform="translate(1109.419922 0)"/>
     <use xlink:href="#DejaVuSans-69" transform="translate(1172.798828 0)"/>
     <use xlink:href="#DejaVuSans-67" transform="translate(1200.582031 0)"/>
     <use xlink:href="#DejaVuSans-68" transform="translate(1264.058594 0)"/>
     <use xlink:href="#DejaVuSans-65" transform="translate(1327.4375 0)"/>
     <use xlink:href="#DejaVuSans-72" transform="translate(1388.960938 0)"/>
     <use xlink:href="#DejaVuSans-20" transform="translate(1430.074219 0)"/>
     <use xlink:href="#DejaVuSans-69" transform="translate(1461.861328 0)"/>
     <use xlink:href="#DejaVuSans-73" transform="translate(1489.644531 0)"/>
     <use xlink:href="#DejaVuSans-20" transform="translate(1541.744141 0)"/>
     <use xlink:href="#DejaVuSans-62" transform="translate(1573.53125 0)"/>
     <use xlink:href="#DejaVuSans-65" transform="translate(1637.007812 0)"/>
     <use xlink:href="#DejaVuSans-74" transform="translate(1698.53125 0)"/>
     <use xlink:href="#DejaVuSans-74" transform="translate(1737.740234 0)"/>
     <use xlink:href="#DejaVuSans-65" transform="translate(1776.949219 0)"/>
     <use xlink:href="#DejaVuSans-72" transform="translate(1838.472656 0)"/>
     <use xlink:href="#DejaVuSans-29" transform="translate(1879.585938 0)"/>
    </g>
   </g>
  </g>
  <g id="axes_2">
   <g id="patch_8">
    <path d="M 423.8875 262.109 
L 777.50625 262.109 
L 777.50625 75.952 
L 423.8875 75.952 
z
" style="fill: #ffffff"/>
   </g>
   <g id="matplotlib.axis_3">
    <g id="xtick_3">
     <g id="line2d_17">
      <path d="M 497.661109 262.109 
L 497.661109 75.952 
" clip-path="url(#p9dbc137554)" style="fill: none; stroke: #b0b0b0; stroke-opacity: 0.22; stroke-width: 0.8; stroke-linecap: square"/>
     </g>
     <g id="line2d_18">
      <g>
       <use xlink:href="#m363e51a073" x="497.661109" y="262.109" style="stroke: #000000; stroke-width: 0.8"/>
      </g>
     </g>
     <g id="text_13">
      <!-- GAT-ON -->
      <g transform="translate(478.538452 276.707437) scale(0.1 -0.1)">
       <use xlink:href="#DejaVuSans-47"/>
       <use xlink:href="#DejaVuSans-41" transform="translate(77.490234 0)"/>
       <use xlink:href="#DejaVuSans-54" transform="translate(138.148438 0)"/>
       <use xlink:href="#DejaVuSans-2d" transform="translate(190.107422 0)"/>
       <use xlink:href="#DejaVuSans-4f" transform="translate(228.941406 0)"/>
       <use xlink:href="#DejaVuSans-4e" transform="translate(307.652344 0)"/>
      </g>
     </g>
    </g>
    <g id="xtick_4">
     <g id="line2d_19">
      <path d="M 703.732641 262.109 
L 703.732641 75.952 
" clip-path="url(#p9dbc137554)" style="fill: none; stroke: #b0b0b0; stroke-opacity: 0.22; stroke-width: 0.8; stroke-linecap: square"/>
     </g>
     <g id="line2d_20">
      <g>
       <use xlink:href="#m363e51a073" x="703.732641" y="262.109" style="stroke: #000000; stroke-width: 0.8"/>
      </g>
     </g>
     <g id="text_14">
      <!-- GAT-CIR -->
      <g transform="translate(683.983423 276.707437) scale(0.1 -0.1)">
       <use xlink:href="#DejaVuSans-47"/>
       <use xlink:href="#DejaVuSans-41" transform="translate(77.490234 0)"/>
       <use xlink:href="#DejaVuSans-54" transform="translate(138.148438 0)"/>
       <use xlink:href="#DejaVuSans-2d" transform="translate(190.107422 0)"/>
       <use xlink:href="#DejaVuSans-43" transform="translate(226.191406 0)"/>
       <use xlink:href="#DejaVuSans-49" transform="translate(296.015625 0)"/>
       <use xlink:href="#DejaVuSans-52" transform="translate(325.507812 0)"/>
      </g>
     </g>
    </g>
   </g>
   <g id="matplotlib.axis_4">
    <g id="ytick_7">
     <g id="line2d_21">
      <path d="M 423.8875 262.109 
L 777.50625 262.109 
" clip-path="url(#p9dbc137554)" style="fill: none; stroke: #b0b0b0; stroke-opacity: 0.22; stroke-width: 0.8; stroke-linecap: square"/>
     </g>
     <g id="line2d_22">
      <g>
       <use xlink:href="#m8a6995e0c2" x="423.8875" y="262.109" style="stroke: #000000; stroke-width: 0.8"/>
      </g>
     </g>
     <g id="text_15">
      <!-- 0 -->
      <g transform="translate(410.525 265.908219) scale(0.1 -0.1)">
       <use xlink:href="#DejaVuSans-30"/>
      </g>
     </g>
    </g>
    <g id="ytick_8">
     <g id="line2d_23">
      <path d="M 423.8875 229.5393 
L 777.50625 229.5393 
" clip-path="url(#p9dbc137554)" style="fill: none; stroke: #b0b0b0; stroke-opacity: 0.22; stroke-width: 0.8; stroke-linecap: square"/>
     </g>
     <g id="line2d_24">
      <g>
       <use xlink:href="#m8a6995e0c2" x="423.8875" y="229.5393" style="stroke: #000000; stroke-width: 0.8"/>
      </g>
     </g>
     <g id="text_16">
      <!-- 10 -->
      <g transform="translate(404.1625 233.338518) scale(0.1 -0.1)">
       <use xlink:href="#DejaVuSans-31"/>
       <use xlink:href="#DejaVuSans-30" transform="translate(63.623047 0)"/>
      </g>
     </g>
    </g>
    <g id="ytick_9">
     <g id="line2d_25">
      <path d="M 423.8875 196.969599 
L 777.50625 196.969599 
" clip-path="url(#p9dbc137554)" style="fill: none; stroke: #b0b0b0; stroke-opacity: 0.22; stroke-width: 0.8; stroke-linecap: square"/>
     </g>
     <g id="line2d_26">
      <g>
       <use xlink:href="#m8a6995e0c2" x="423.8875" y="196.969599" style="stroke: #000000; stroke-width: 0.8"/>
      </g>
     </g>
     <g id="text_17">
      <!-- 20 -->
      <g transform="translate(404.1625 200.768818) scale(0.1 -0.1)">
       <use xlink:href="#DejaVuSans-32"/>
       <use xlink:href="#DejaVuSans-30" transform="translate(63.623047 0)"/>
      </g>
     </g>
    </g>
    <g id="ytick_10">
     <g id="line2d_27">
      <path d="M 423.8875 164.399899 
L 777.50625 164.399899 
" clip-path="url(#p9dbc137554)" style="fill: none; stroke: #b0b0b0; stroke-opacity: 0.22; stroke-width: 0.8; stroke-linecap: square"/>
     </g>
     <g id="line2d_28">
      <g>
       <use xlink:href="#m8a6995e0c2" x="423.8875" y="164.399899" style="stroke: #000000; stroke-width: 0.8"/>
      </g>
     </g>
     <g id="text_18">
      <!-- 30 -->
      <g transform="translate(404.1625 168.199118) scale(0.1 -0.1)">
       <defs>
        <path id="DejaVuSans-33" d="M 2597 2516 
Q 3050 2419 3304 2112 
Q 3559 1806 3559 1356 
Q 3559 666 3084 287 
Q 2609 -91 1734 -91 
Q 1441 -91 1130 -33 
Q 819 25 488 141 
L 488 750 
Q 750 597 1062 519 
Q 1375 441 1716 441 
Q 2309 441 2620 675 
Q 2931 909 2931 1356 
Q 2931 1769 2642 2001 
Q 2353 2234 1838 2234 
L 1294 2234 
L 1294 2753 
L 1863 2753 
Q 2328 2753 2575 2939 
Q 2822 3125 2822 3475 
Q 2822 3834 2567 4026 
Q 2313 4219 1838 4219 
Q 1578 4219 1281 4162 
Q 984 4106 628 3988 
L 628 4550 
Q 988 4650 1302 4700 
Q 1616 4750 1894 4750 
Q 2613 4750 3031 4423 
Q 3450 4097 3450 3541 
Q 3450 3153 3228 2886 
Q 3006 2619 2597 2516 
z
" transform="scale(0.015625)"/>
       </defs>
       <use xlink:href="#DejaVuSans-33"/>
       <use xlink:href="#DejaVuSans-30" transform="translate(63.623047 0)"/>
      </g>
     </g>
    </g>
    <g id="ytick_11">
     <g id="line2d_29">
      <path d="M 423.8875 131.830199 
L 777.50625 131.830199 
" clip-path="url(#p9dbc137554)" style="fill: none; stroke: #b0b0b0; stroke-opacity: 0.22; stroke-width: 0.8; stroke-linecap: square"/>
     </g>
     <g id="line2d_30">
      <g>
       <use xlink:href="#m8a6995e0c2" x="423.8875" y="131.830199" style="stroke: #000000; stroke-width: 0.8"/>
      </g>
     </g>
     <g id="text_19">
      <!-- 40 -->
      <g transform="translate(404.1625 135.629417) scale(0.1 -0.1)">
       <use xlink:href="#DejaVuSans-34"/>
       <use xlink:href="#DejaVuSans-30" transform="translate(63.623047 0)"/>
      </g>
     </g>
    </g>
    <g id="ytick_12">
     <g id="line2d_31">
      <path d="M 423.8875 99.260498 
L 777.50625 99.260498 
" clip-path="url(#p9dbc137554)" style="fill: none; stroke: #b0b0b0; stroke-opacity: 0.22; stroke-width: 0.8; stroke-linecap: square"/>
     </g>
     <g id="line2d_32">
      <g>
       <use xlink:href="#m8a6995e0c2" x="423.8875" y="99.260498" style="stroke: #000000; stroke-width: 0.8"/>
      </g>
     </g>
     <g id="text_20">
      <!-- 50 -->
      <g transform="translate(404.1625 103.059717) scale(0.1 -0.1)">
       <use xlink:href="#DejaVuSans-35"/>
       <use xlink:href="#DejaVuSans-30" transform="translate(63.623047 0)"/>
      </g>
     </g>
    </g>
   </g>
   <g id="patch_9">
    <path d="M 439.96108 262.109 
L 555.361138 262.109 
L 555.361138 109.521295 
L 439.96108 109.521295 
z
" clip-path="url(#p9dbc137554)" style="fill: #4c78a8"/>
   </g>
   <g id="patch_10">
    <path d="M 646.032612 262.109 
L 761.43267 262.109 
L 761.43267 127.912861 
L 646.032612 127.912861 
z
" clip-path="url(#p9dbc137554)" style="fill: #f58518"/>
   </g>
   <g id="patch_11">
    <path d="M 423.8875 262.109 
L 423.8875 75.952 
" style="fill: none; stroke: #000000; stroke-width: 0.8; stroke-linejoin: miter; stroke-linecap: square"/>
   </g>
   <g id="patch_12">
    <path d="M 423.8875 262.109 
L 777.50625 262.109 
" style="fill: none; stroke: #000000; stroke-width: 0.8; stroke-linejoin: miter; stroke-linecap: square"/>
   </g>
   <g id="text_21">
    <!-- 46.85% -->
    <g transform="translate(480.502749 102.995651) scale(0.09 -0.09)">
     <use xlink:href="#DejaVuSans-34"/>
     <use xlink:href="#DejaVuSans-36" transform="translate(63.623047 0)"/>
     <use xlink:href="#DejaVuSans-2e" transform="translate(127.246094 0)"/>
     <use xlink:href="#DejaVuSans-38" transform="translate(159.033203 0)"/>
     <use xlink:href="#DejaVuSans-35" transform="translate(222.65625 0)"/>
     <use xlink:href="#DejaVuSans-25" transform="translate(286.279297 0)"/>
    </g>
   </g>
   <g id="text_22">
    <!-- 41.20% -->
    <g transform="translate(686.574282 121.387218) scale(0.09 -0.09)">
     <use xlink:href="#DejaVuSans-34"/>
     <use xlink:href="#DejaVuSans-31" transform="translate(63.623047 0)"/>
     <use xlink:href="#DejaVuSans-2e" transform="translate(127.246094 0)"/>
     <use xlink:href="#DejaVuSans-32" transform="translate(159.033203 0)"/>
     <use xlink:href="#DejaVuSans-30" transform="translate(222.65625 0)"/>
     <use xlink:href="#DejaVuSans-25" transform="translate(286.279297 0)"/>
    </g>
   </g>
   <g id="text_23">
    <g id="patch_13">
     <path d="M 569.826172 104.895996 
L 631.567578 104.895996 
Q 633.817578 104.895996 633.817578 102.645996 
L 633.817578 93.935684 
Q 633.817578 91.685684 631.567578 91.685684 
L 569.826172 91.685684 
Q 567.576172 91.685684 567.576172 93.935684 
L 567.576172 102.645996 
Q 567.576172 104.895996 569.826172 104.895996 
z
" style="fill: #ffffff; opacity: 0.9; stroke: #cccccc; stroke-linejoin: miter"/>
    </g>
    <!-- Delta: -5.65% -->
    <g transform="translate(569.826172 100.774277) scale(0.09 -0.09)">
     <use xlink:href="#DejaVuSans-44"/>
     <use xlink:href="#DejaVuSans-65" transform="translate(77.001953 0)"/>
     <use xlink:href="#DejaVuSans-6c" transform="translate(138.525391 0)"/>
     <use xlink:href="#DejaVuSans-74" transform="translate(166.308594 0)"/>
     <use xlink:href="#DejaVuSans-61" transform="translate(205.517578 0)"/>
     <use xlink:href="#DejaVuSans-3a" transform="translate(266.796875 0)"/>
     <use xlink:href="#DejaVuSans-20" transform="translate(300.488281 0)"/>
     <use xlink:href="#DejaVuSans-2d" transform="translate(332.275391 0)"/>
     <use xlink:href="#DejaVuSans-35" transform="translate(368.359375 0)"/>
     <use xlink:href="#DejaVuSans-2e" transform="translate(431.982422 0)"/>
     <use xlink:href="#DejaVuSans-36" transform="translate(463.769531 0)"/>
     <use xlink:href="#DejaVuSans-35" transform="translate(527.392578 0)"/>
     <use xlink:href="#DejaVuSans-25" transform="translate(591.015625 0)"/>
    </g>
   </g>
   <g id="text_24">
    <!-- Repeat Ratio (%) (lower is better) -->
    <g transform="translate(508.406016 65.952) scale(0.11 -0.11)">
     <defs>
      <path id="DejaVuSans-77" d="M 269 3500 
L 844 3500 
L 1563 769 
L 2278 3500 
L 2956 3500 
L 3675 769 
L 4391 3500 
L 4966 3500 
L 4050 0 
L 3372 0 
L 2619 2869 
L 1863 0 
L 1184 0 
L 269 3500 
z
" transform="scale(0.015625)"/>
     </defs>
     <use xlink:href="#DejaVuSans-52"/>
     <use xlink:href="#DejaVuSans-65" transform="translate(64.982422 0)"/>
     <use xlink:href="#DejaVuSans-70" transform="translate(126.505859 0)"/>
     <use xlink:href="#DejaVuSans-65" transform="translate(189.982422 0)"/>
     <use xlink:href="#DejaVuSans-61" transform="translate(251.505859 0)"/>
     <use xlink:href="#DejaVuSans-74" transform="translate(312.785156 0)"/>
     <use xlink:href="#DejaVuSans-20" transform="translate(351.994141 0)"/>
     <use xlink:href="#DejaVuSans-52" transform="translate(383.78125 0)"/>
     <use xlink:href="#DejaVuSans-61" transform="translate(451.013672 0)"/>
     <use xlink:href="#DejaVuSans-74" transform="translate(512.292969 0)"/>
     <use xlink:href="#DejaVuSans-69" transform="translate(551.501953 0)"/>
     <use xlink:href="#DejaVuSans-6f" transform="translate(579.285156 0)"/>
     <use xlink:href="#DejaVuSans-20" transform="translate(640.466797 0)"/>
     <use xlink:href="#DejaVuSans-28" transform="translate(672.253906 0)"/>
     <use xlink:href="#DejaVuSans-25" transform="translate(711.267578 0)"/>
     <use xlink:href="#DejaVuSans-29" transform="translate(806.287109 0)"/>
     <use xlink:href="#DejaVuSans-20" transform="translate(845.300781 0)"/>
     <use xlink:href="#DejaVuSans-28" transform="translate(877.087891 0)"/>
     <use xlink:href="#DejaVuSans-6c" transform="translate(916.101562 0)"/>
     <use xlink:href="#DejaVuSans-6f" transform="translate(943.884766 0)"/>
     <use xlink:href="#DejaVuSans-77" transform="translate(1005.066406 0)"/>
     <use xlink:href="#DejaVuSans-65" transform="translate(1086.853516 0)"/>
     <use xlink:href="#DejaVuSans-72" transform="translate(1148.376953 0)"/>
     <use xlink:href="#DejaVuSans-20" transform="translate(1189.490234 0)"/>
     <use xlink:href="#DejaVuSans-69" transform="translate(1221.277344 0)"/>
     <use xlink:href="#DejaVuSans-73" transform="translate(1249.060547 0)"/>
     <use xlink:href="#DejaVuSans-20" transform="translate(1301.160156 0)"/>
     <use xlink:href="#DejaVuSans-62" transform="translate(1332.947266 0)"/>
     <use xlink:href="#DejaVuSans-65" transform="translate(1396.423828 0)"/>
     <use xlink:href="#DejaVuSans-74" transform="translate(1457.947266 0)"/>
     <use xlink:href="#DejaVuSans-74" transform="translate(1497.15625 0)"/>
     <use xlink:href="#DejaVuSans-65" transform="translate(1536.365234 0)"/>
     <use xlink:href="#DejaVuSans-72" transform="translate(1597.888672 0)"/>
     <use xlink:href="#DejaVuSans-29" transform="translate(1639.001953 0)"/>
    </g>
   </g>
  </g>
  <g id="axes_3">
   <g id="patch_14">
    <path d="M 33.2875 493.616 
L 386.90625 493.616 
L 386.90625 307.459 
L 33.2875 307.459 
z
" style="fill: #ffffff"/>
   </g>
   <g id="matplotlib.axis_5">
    <g id="xtick_5">
     <g id="line2d_33">
      <path d="M 107.061109 493.616 
L 107.061109 307.459 
" clip-path="url(#p67df13762b)" style="fill: none; stroke: #b0b0b0; stroke-opacity: 0.22; stroke-width: 0.8; stroke-linecap: square"/>
     </g>
     <g id="line2d_34">
      <g>
       <use xlink:href="#m363e51a073" x="107.061109" y="493.616" style="stroke: #000000; stroke-width: 0.8"/>
      </g>
     </g>
     <g id="text_25">
      <!-- GAT-ON -->
      <g transform="translate(87.938452 508.214437) scale(0.1 -0.1)">
       <use xlink:href="#DejaVuSans-47"/>
       <use xlink:href="#DejaVuSans-41" transform="translate(77.490234 0)"/>
       <use xlink:href="#DejaVuSans-54" transform="translate(138.148438 0)"/>
       <use xlink:href="#DejaVuSans-2d" transform="translate(190.107422 0)"/>
       <use xlink:href="#DejaVuSans-4f" transform="translate(228.941406 0)"/>
       <use xlink:href="#DejaVuSans-4e" transform="translate(307.652344 0)"/>
      </g>
     </g>
    </g>
    <g id="xtick_6">
     <g id="line2d_35">
      <path d="M 313.132641 493.616 
L 313.132641 307.459 
" clip-path="url(#p67df13762b)" style="fill: none; stroke: #b0b0b0; stroke-opacity: 0.22; stroke-width: 0.8; stroke-linecap: square"/>
     </g>
     <g id="line2d_36">
      <g>
       <use xlink:href="#m363e51a073" x="313.132641" y="493.616" style="stroke: #000000; stroke-width: 0.8"/>
      </g>
     </g>
     <g id="text_26">
      <!-- GAT-CIR -->
      <g transform="translate(293.383423 508.214437) scale(0.1 -0.1)">
       <use xlink:href="#DejaVuSans-47"/>
       <use xlink:href="#DejaVuSans-41" transform="translate(77.490234 0)"/>
       <use xlink:href="#DejaVuSans-54" transform="translate(138.148438 0)"/>
       <use xlink:href="#DejaVuSans-2d" transform="translate(190.107422 0)"/>
       <use xlink:href="#DejaVuSans-43" transform="translate(226.191406 0)"/>
       <use xlink:href="#DejaVuSans-49" transform="translate(296.015625 0)"/>
       <use xlink:href="#DejaVuSans-52" transform="translate(325.507812 0)"/>
      </g>
     </g>
    </g>
   </g>
   <g id="matplotlib.axis_6">
    <g id="ytick_13">
     <g id="line2d_37">
      <path d="M 33.2875 493.616 
L 386.90625 493.616 
" clip-path="url(#p67df13762b)" style="fill: none; stroke: #b0b0b0; stroke-opacity: 0.22; stroke-width: 0.8; stroke-linecap: square"/>
     </g>
     <g id="line2d_38">
      <g>
       <use xlink:href="#m8a6995e0c2" x="33.2875" y="493.616" style="stroke: #000000; stroke-width: 0.8"/>
      </g>
     </g>
     <g id="text_27">
      <!-- 0 -->
      <g transform="translate(19.925 497.415219) scale(0.1 -0.1)">
       <use xlink:href="#DejaVuSans-30"/>
      </g>
     </g>
    </g>
    <g id="ytick_14">
     <g id="line2d_39">
      <path d="M 33.2875 456.69798 
L 386.90625 456.69798 
" clip-path="url(#p67df13762b)" style="fill: none; stroke: #b0b0b0; stroke-opacity: 0.22; stroke-width: 0.8; stroke-linecap: square"/>
     </g>
     <g id="line2d_40">
      <g>
       <use xlink:href="#m8a6995e0c2" x="33.2875" y="456.69798" style="stroke: #000000; stroke-width: 0.8"/>
      </g>
     </g>
     <g id="text_28">
      <!-- 20 -->
      <g transform="translate(13.5625 460.497199) scale(0.1 -0.1)">
       <use xlink:href="#DejaVuSans-32"/>
       <use xlink:href="#DejaVuSans-30" transform="translate(63.623047 0)"/>
      </g>
     </g>
    </g>
    <g id="ytick_15">
     <g id="line2d_41">
      <path d="M 33.2875 419.779961 
L 386.90625 419.779961 
" clip-path="url(#p67df13762b)" style="fill: none; stroke: #b0b0b0; stroke-opacity: 0.22; stroke-width: 0.8; stroke-linecap: square"/>
     </g>
     <g id="line2d_42">
      <g>
       <use xlink:href="#m8a6995e0c2" x="33.2875" y="419.779961" style="stroke: #000000; stroke-width: 0.8"/>
      </g>
     </g>
     <g id="text_29">
      <!-- 40 -->
      <g transform="translate(13.5625 423.57918) scale(0.1 -0.1)">
       <use xlink:href="#DejaVuSans-34"/>
       <use xlink:href="#DejaVuSans-30" transform="translate(63.623047 0)"/>
      </g>
     </g>
    </g>
    <g id="ytick_16">
     <g id="line2d_43">
      <path d="M 33.2875 382.861941 
L 386.90625 382.861941 
" clip-path="url(#p67df13762b)" style="fill: none; stroke: #b0b0b0; stroke-opacity: 0.22; stroke-width: 0.8; stroke-linecap: square"/>
     </g>
     <g id="line2d_44">
      <g>
       <use xlink:href="#m8a6995e0c2" x="33.2875" y="382.861941" style="stroke: #000000; stroke-width: 0.8"/>
      </g>
     </g>
     <g id="text_30">
      <!-- 60 -->
      <g transform="translate(13.5625 386.66116) scale(0.1 -0.1)">
       <use xlink:href="#DejaVuSans-36"/>
       <use xlink:href="#DejaVuSans-30" transform="translate(63.623047 0)"/>
      </g>
     </g>
    </g>
    <g id="ytick_17">
     <g id="line2d_45">
      <path d="M 33.2875 345.943922 
L 386.90625 345.943922 
" clip-path="url(#p67df13762b)" style="fill: none; stroke: #b0b0b0; stroke-opacity: 0.22; stroke-width: 0.8; stroke-linecap: square"/>
     </g>
     <g id="line2d_46">
      <g>
       <use xlink:href="#m8a6995e0c2" x="33.2875" y="345.943922" style="stroke: #000000; stroke-width: 0.8"/>
      </g>
     </g>
     <g id="text_31">
      <!-- 80 -->
      <g transform="translate(13.5625 349.74314) scale(0.1 -0.1)">
       <use xlink:href="#DejaVuSans-38"/>
       <use xlink:href="#DejaVuSans-30" transform="translate(63.623047 0)"/>
      </g>
     </g>
    </g>
    <g id="ytick_18">
     <g id="line2d_47">
      <path d="M 33.2875 309.025902 
L 386.90625 309.025902 
" clip-path="url(#p67df13762b)" style="fill: none; stroke: #b0b0b0; stroke-opacity: 0.22; stroke-width: 0.8; stroke-linecap: square"/>
     </g>
     <g id="line2d_48">
      <g>
       <use xlink:href="#m8a6995e0c2" x="33.2875" y="309.025902" style="stroke: #000000; stroke-width: 0.8"/>
      </g>
     </g>
     <g id="text_32">
      <!-- 100 -->
      <g transform="translate(7.2 312.825121) scale(0.1 -0.1)">
       <use xlink:href="#DejaVuSans-31"/>
       <use xlink:href="#DejaVuSans-30" transform="translate(63.623047 0)"/>
       <use xlink:href="#DejaVuSans-30" transform="translate(127.246094 0)"/>
      </g>
     </g>
    </g>
   </g>
   <g id="patch_15">
    <path d="M 49.36108 493.616 
L 164.761138 493.616 
L 164.761138 341.028295 
L 49.36108 341.028295 
z
" clip-path="url(#p67df13762b)" style="fill: #4c78a8"/>
   </g>
   <g id="patch_16">
    <path d="M 255.432612 493.616 
L 370.83267 493.616 
L 370.83267 351.693837 
L 255.432612 351.693837 
z
" clip-path="url(#p67df13762b)" style="fill: #f58518"/>
   </g>
   <g id="patch_17">
    <path d="M 33.2875 493.616 
L 33.2875 307.459 
" style="fill: none; stroke: #000000; stroke-width: 0.8; stroke-linejoin: miter; stroke-linecap: square"/>
   </g>
   <g id="patch_18">
    <path d="M 33.2875 493.616 
L 386.90625 493.616 
" style="fill: none; stroke: #000000; stroke-width: 0.8; stroke-linejoin: miter; stroke-linecap: square"/>
   </g>
   <g id="text_33">
    <!-- 82.66% -->
    <g transform="translate(89.902749 334.502651) scale(0.09 -0.09)">
     <use xlink:href="#DejaVuSans-38"/>
     <use xlink:href="#DejaVuSans-32" transform="translate(63.623047 0)"/>
     <use xlink:href="#DejaVuSans-2e" transform="translate(127.246094 0)"/>
     <use xlink:href="#DejaVuSans-36" transform="translate(159.033203 0)"/>
     <use xlink:href="#DejaVuSans-36" transform="translate(222.65625 0)"/>
     <use xlink:href="#DejaVuSans-25" transform="translate(286.279297 0)"/>
    </g>
   </g>
   <g id="text_34">
    <!-- 76.89% -->
    <g transform="translate(295.974282 345.168193) scale(0.09 -0.09)">
     <defs>
      <path id="DejaVuSans-37" d="M 525 4666 
L 3525 4666 
L 3525 4397 
L 1831 0 
L 1172 0 
L 2766 4134 
L 525 4134 
L 525 4666 
z
" transform="scale(0.015625)"/>
     </defs>
     <use xlink:href="#DejaVuSans-37"/>
     <use xlink:href="#DejaVuSans-36" transform="translate(63.623047 0)"/>
     <use xlink:href="#DejaVuSans-2e" transform="translate(127.246094 0)"/>
     <use xlink:href="#DejaVuSans-38" transform="translate(159.033203 0)"/>
     <use xlink:href="#DejaVuSans-39" transform="translate(222.65625 0)"/>
     <use xlink:href="#DejaVuSans-25" transform="translate(286.279297 0)"/>
    </g>
   </g>
   <g id="text_35">
    <g id="patch_19">
     <path d="M 179.226172 336.402996 
L 240.967578 336.402996 
Q 243.217578 336.402996 243.217578 334.152996 
L 243.217578 325.442684 
Q 243.217578 323.192684 240.967578 323.192684 
L 179.226172 323.192684 
Q 176.976172 323.192684 176.976172 325.442684 
L 176.976172 334.152996 
Q 176.976172 336.402996 179.226172 336.402996 
z
" style="fill: #ffffff; opacity: 0.9; stroke: #cccccc; stroke-linejoin: miter"/>
    </g>
    <!-- Delta: -5.78% -->
    <g transform="translate(179.226172 332.281277) scale(0.09 -0.09)">
     <use xlink:href="#DejaVuSans-44"/>
     <use xlink:href="#DejaVuSans-65" transform="translate(77.001953 0)"/>
     <use xlink:href="#DejaVuSans-6c" transform="translate(138.525391 0)"/>
     <use xlink:href="#DejaVuSans-74" transform="translate(166.308594 0)"/>
     <use xlink:href="#DejaVuSans-61" transform="translate(205.517578 0)"/>
     <use xlink:href="#DejaVuSans-3a" transform="translate(266.796875 0)"/>
     <use xlink:href="#DejaVuSans-20" transform="translate(300.488281 0)"/>
     <use xlink:href="#DejaVuSans-2d" transform="translate(332.275391 0)"/>
     <use xlink:href="#DejaVuSans-35" transform="translate(368.359375 0)"/>
     <use xlink:href="#DejaVuSans-2e" transform="translate(431.982422 0)"/>
     <use xlink:href="#DejaVuSans-37" transform="translate(463.769531 0)"/>
     <use xlink:href="#DejaVuSans-38" transform="translate(527.392578 0)"/>
     <use xlink:href="#DejaVuSans-25" transform="translate(591.015625 0)"/>
    </g>
   </g>
   <g id="text_36">
    <!-- Repeat@90 (%) (lower is better) -->
    <g transform="translate(121.173047 297.459) scale(0.11 -0.11)">
     <defs>
      <path id="DejaVuSans-40" d="M 2381 1678 
Q 2381 1231 2603 976 
Q 2825 722 3213 722 
Q 3597 722 3817 978 
Q 4038 1234 4038 1678 
Q 4038 2116 3813 2373 
Q 3588 2631 3206 2631 
Q 2828 2631 2604 2375 
Q 2381 2119 2381 1678 
z
M 4084 744 
Q 3897 503 3655 389 
Q 3413 275 3091 275 
Q 2553 275 2217 664 
Q 1881 1053 1881 1678 
Q 1881 2303 2218 2693 
Q 2556 3084 3091 3084 
Q 3413 3084 3656 2967 
Q 3900 2850 4084 2613 
L 4084 3022 
L 4531 3022 
L 4531 722 
Q 4988 791 5245 1139 
Q 5503 1488 5503 2041 
Q 5503 2375 5404 2669 
Q 5306 2963 5106 3213 
Q 4781 3622 4314 3839 
Q 3847 4056 3297 4056 
Q 2913 4056 2559 3954 
Q 2206 3853 1906 3653 
Q 1416 3334 1139 2817 
Q 863 2300 863 1697 
Q 863 1200 1042 765 
Q 1222 331 1563 0 
Q 1891 -325 2322 -495 
Q 2753 -666 3244 -666 
Q 3647 -666 4036 -530 
Q 4425 -394 4750 -141 
L 5031 -488 
Q 4641 -791 4180 -952 
Q 3719 -1113 3244 -1113 
Q 2666 -1113 2153 -908 
Q 1641 -703 1241 -313 
Q 841 78 631 592 
Q 422 1106 422 1697 
Q 422 2266 634 2781 
Q 847 3297 1241 3688 
Q 1644 4084 2172 4295 
Q 2700 4506 3291 4506 
Q 3953 4506 4520 4234 
Q 5088 3963 5472 3463 
Q 5706 3156 5829 2797 
Q 5953 2438 5953 2053 
Q 5953 1231 5456 756 
Q 4959 281 4084 263 
L 4084 744 
z
" transform="scale(0.015625)"/>
     </defs>
     <use xlink:href="#DejaVuSans-52"/>
     <use xlink:href="#DejaVuSans-65" transform="translate(64.982422 0)"/>
     <use xlink:href="#DejaVuSans-70" transform="translate(126.505859 0)"/>
     <use xlink:href="#DejaVuSans-65" transform="translate(189.982422 0)"/>
     <use xlink:href="#DejaVuSans-61" transform="translate(251.505859 0)"/>
     <use xlink:href="#DejaVuSans-74" transform="translate(312.785156 0)"/>
     <use xlink:href="#DejaVuSans-40" transform="translate(351.994141 0)"/>
     <use xlink:href="#DejaVuSans-39" transform="translate(451.994141 0)"/>
     <use xlink:href="#DejaVuSans-30" transform="translate(515.617188 0)"/>
     <use xlink:href="#DejaVuSans-20" transform="translate(579.240234 0)"/>
     <use xlink:href="#DejaVuSans-28" transform="translate(611.027344 0)"/>
     <use xlink:href="#DejaVuSans-25" transform="translate(650.041016 0)"/>
     <use xlink:href="#DejaVuSans-29" transform="translate(745.060547 0)"/>
     <use xlink:href="#DejaVuSans-20" transform="translate(784.074219 0)"/>
     <use xlink:href="#DejaVuSans-28" transform="translate(815.861328 0)"/>
     <use xlink:href="#DejaVuSans-6c" transform="translate(854.875 0)"/>
     <use xlink:href="#DejaVuSans-6f" transform="translate(882.658203 0)"/>
     <use xlink:href="#DejaVuSans-77" transform="translate(943.839844 0)"/>
     <use xlink:href="#DejaVuSans-65" transform="translate(1025.626953 0)"/>
     <use xlink:href="#DejaVuSans-72" transform="translate(1087.150391 0)"/>
     <use xlink:href="#DejaVuSans-20" transform="translate(1128.263672 0)"/>
     <use xlink:href="#DejaVuSans-69" transform="translate(1160.050781 0)"/>
     <use xlink:href="#DejaVuSans-73" transform="translate(1187.833984 0)"/>
     <use xlink:href="#DejaVuSans-20" transform="translate(1239.933594 0)"/>
     <use xlink:href="#DejaVuSans-62" transform="translate(1271.720703 0)"/>
     <use xlink:href="#DejaVuSans-65" transform="translate(1335.197266 0)"/>
     <use xlink:href="#DejaVuSans-74" transform="translate(1396.720703 0)"/>
     <use xlink:href="#DejaVuSans-74" transform="translate(1435.929688 0)"/>
     <use xlink:href="#DejaVuSans-65" transform="translate(1475.138672 0)"/>
     <use xlink:href="#DejaVuSans-72" transform="translate(1536.662109 0)"/>
     <use xlink:href="#DejaVuSans-29" transform="translate(1577.775391 0)"/>
    </g>
   </g>
  </g>
  <g id="axes_4">
   <g id="patch_20">
    <path d="M 423.8875 493.616 
L 777.50625 493.616 
L 777.50625 307.459 
L 423.8875 307.459 
z
" style="fill: #ffffff"/>
   </g>
   <g id="matplotlib.axis_7">
    <g id="xtick_7">
     <g id="line2d_49">
      <path d="M 497.661109 493.616 
L 497.661109 307.459 
" clip-path="url(#p3fa3f06ce3)" style="fill: none; stroke: #b0b0b0; stroke-opacity: 0.22; stroke-width: 0.8; stroke-linecap: square"/>
     </g>
     <g id="line2d_50">
      <g>
       <use xlink:href="#m363e51a073" x="497.661109" y="493.616" style="stroke: #000000; stroke-width: 0.8"/>
      </g>
     </g>
     <g id="text_37">
      <!-- GAT-ON -->
      <g transform="translate(478.538452 508.214437) scale(0.1 -0.1)">
       <use xlink:href="#DejaVuSans-47"/>
       <use xlink:href="#DejaVuSans-41" transform="translate(77.490234 0)"/>
       <use xlink:href="#DejaVuSans-54" transform="translate(138.148438 0)"/>
       <use xlink:href="#DejaVuSans-2d" transform="translate(190.107422 0)"/>
       <use xlink:href="#DejaVuSans-4f" transform="translate(228.941406 0)"/>
       <use xlink:href="#DejaVuSans-4e" transform="translate(307.652344 0)"/>
      </g>
     </g>
    </g>
    <g id="xtick_8">
     <g id="line2d_51">
      <path d="M 703.732641 493.616 
L 703.732641 307.459 
" clip-path="url(#p3fa3f06ce3)" style="fill: none; stroke: #b0b0b0; stroke-opacity: 0.22; stroke-width: 0.8; stroke-linecap: square"/>
     </g>
     <g id="line2d_52">
      <g>
       <use xlink:href="#m363e51a073" x="703.732641" y="493.616" style="stroke: #000000; stroke-width: 0.8"/>
      </g>
     </g>
     <g id="text_38">
      <!-- GAT-CIR -->
      <g transform="translate(683.983423 508.214437) scale(0.1 -0.1)">
       <use xlink:href="#DejaVuSans-47"/>
       <use xlink:href="#DejaVuSans-41" transform="translate(77.490234 0)"/>
       <use xlink:href="#DejaVuSans-54" transform="translate(138.148438 0)"/>
       <use xlink:href="#DejaVuSans-2d" transform="translate(190.107422 0)"/>
       <use xlink:href="#DejaVuSans-43" transform="translate(226.191406 0)"/>
       <use xlink:href="#DejaVuSans-49" transform="translate(296.015625 0)"/>
       <use xlink:href="#DejaVuSans-52" transform="translate(325.507812 0)"/>
      </g>
     </g>
    </g>
   </g>
   <g id="matplotlib.axis_8">
    <g id="ytick_19">
     <g id="line2d_53">
      <path d="M 423.8875 493.616 
L 777.50625 493.616 
" clip-path="url(#p3fa3f06ce3)" style="fill: none; stroke: #b0b0b0; stroke-opacity: 0.22; stroke-width: 0.8; stroke-linecap: square"/>
     </g>
     <g id="line2d_54">
      <g>
       <use xlink:href="#m8a6995e0c2" x="423.8875" y="493.616" style="stroke: #000000; stroke-width: 0.8"/>
      </g>
     </g>
     <g id="text_39">
      <!-- 0 -->
      <g transform="translate(410.525 497.415219) scale(0.1 -0.1)">
       <use xlink:href="#DejaVuSans-30"/>
      </g>
     </g>
    </g>
    <g id="ytick_20">
     <g id="line2d_55">
      <path d="M 423.8875 453.817433 
L 777.50625 453.817433 
" clip-path="url(#p3fa3f06ce3)" style="fill: none; stroke: #b0b0b0; stroke-opacity: 0.22; stroke-width: 0.8; stroke-linecap: square"/>
     </g>
     <g id="line2d_56">
      <g>
       <use xlink:href="#m8a6995e0c2" x="423.8875" y="453.817433" style="stroke: #000000; stroke-width: 0.8"/>
      </g>
     </g>
     <g id="text_40">
      <!-- 50 -->
      <g transform="translate(404.1625 457.616652) scale(0.1 -0.1)">
       <use xlink:href="#DejaVuSans-35"/>
       <use xlink:href="#DejaVuSans-30" transform="translate(63.623047 0)"/>
      </g>
     </g>
    </g>
    <g id="ytick_21">
     <g id="line2d_57">
      <path d="M 423.8875 414.018867 
L 777.50625 414.018867 
" clip-path="url(#p3fa3f06ce3)" style="fill: none; stroke: #b0b0b0; stroke-opacity: 0.22; stroke-width: 0.8; stroke-linecap: square"/>
     </g>
     <g id="line2d_58">
      <g>
       <use xlink:href="#m8a6995e0c2" x="423.8875" y="414.018867" style="stroke: #000000; stroke-width: 0.8"/>
      </g>
     </g>
     <g id="text_41">
      <!-- 100 -->
      <g transform="translate(397.8 417.818085) scale(0.1 -0.1)">
       <use xlink:href="#DejaVuSans-31"/>
       <use xlink:href="#DejaVuSans-30" transform="translate(63.623047 0)"/>
       <use xlink:href="#DejaVuSans-30" transform="translate(127.246094 0)"/>
      </g>
     </g>
    </g>
    <g id="ytick_22">
     <g id="line2d_59">
      <path d="M 423.8875 374.2203 
L 777.50625 374.2203 
" clip-path="url(#p3fa3f06ce3)" style="fill: none; stroke: #b0b0b0; stroke-opacity: 0.22; stroke-width: 0.8; stroke-linecap: square"/>
     </g>
     <g id="line2d_60">
      <g>
       <use xlink:href="#m8a6995e0c2" x="423.8875" y="374.2203" style="stroke: #000000; stroke-width: 0.8"/>
      </g>
     </g>
     <g id="text_42">
      <!-- 150 -->
      <g transform="translate(397.8 378.019519) scale(0.1 -0.1)">
       <use xlink:href="#DejaVuSans-31"/>
       <use xlink:href="#DejaVuSans-35" transform="translate(63.623047 0)"/>
       <use xlink:href="#DejaVuSans-30" transform="translate(127.246094 0)"/>
      </g>
     </g>
    </g>
    <g id="ytick_23">
     <g id="line2d_61">
      <path d="M 423.8875 334.421733 
L 777.50625 334.421733 
" clip-path="url(#p3fa3f06ce3)" style="fill: none; stroke: #b0b0b0; stroke-opacity: 0.22; stroke-width: 0.8; stroke-linecap: square"/>
     </g>
     <g id="line2d_62">
      <g>
       <use xlink:href="#m8a6995e0c2" x="423.8875" y="334.421733" style="stroke: #000000; stroke-width: 0.8"/>
      </g>
     </g>
     <g id="text_43">
      <!-- 200 -->
      <g transform="translate(397.8 338.220952) scale(0.1 -0.1)">
       <use xlink:href="#DejaVuSans-32"/>
       <use xlink:href="#DejaVuSans-30" transform="translate(63.623047 0)"/>
       <use xlink:href="#DejaVuSans-30" transform="translate(127.246094 0)"/>
      </g>
     </g>
    </g>
   </g>
   <g id="patch_21">
    <path d="M 439.96108 493.616 
L 555.361138 493.616 
L 555.361138 341.028295 
L 439.96108 341.028295 
z
" clip-path="url(#p3fa3f06ce3)" style="fill: #4c78a8"/>
   </g>
   <g id="patch_22">
    <path d="M 646.032612 493.616 
L 761.43267 493.616 
L 761.43267 354.520009 
L 646.032612 354.520009 
z
" clip-path="url(#p3fa3f06ce3)" style="fill: #f58518"/>
   </g>
   <g id="patch_23">
    <path d="M 423.8875 493.616 
L 423.8875 307.459 
" style="fill: none; stroke: #000000; stroke-width: 0.8; stroke-linejoin: miter; stroke-linecap: square"/>
   </g>
   <g id="patch_24">
    <path d="M 423.8875 493.616 
L 777.50625 493.616 
" style="fill: none; stroke: #000000; stroke-width: 0.8; stroke-linejoin: miter; stroke-linecap: square"/>
   </g>
   <g id="text_44">
    <!-- 191.70 -->
    <g transform="translate(481.915327 334.502651) scale(0.09 -0.09)">
     <use xlink:href="#DejaVuSans-31"/>
     <use xlink:href="#DejaVuSans-39" transform="translate(63.623047 0)"/>
     <use xlink:href="#DejaVuSans-31" transform="translate(127.246094 0)"/>
     <use xlink:href="#DejaVuSans-2e" transform="translate(190.869141 0)"/>
     <use xlink:href="#DejaVuSans-37" transform="translate(222.65625 0)"/>
     <use xlink:href="#DejaVuSans-30" transform="translate(286.279297 0)"/>
    </g>
   </g>
   <g id="text_45">
    <!-- 174.75 -->
    <g transform="translate(687.98686 347.994365) scale(0.09 -0.09)">
     <use xlink:href="#DejaVuSans-31"/>
     <use xlink:href="#DejaVuSans-37" transform="translate(63.623047 0)"/>
     <use xlink:href="#DejaVuSans-34" transform="translate(127.246094 0)"/>
     <use xlink:href="#DejaVuSans-2e" transform="translate(190.869141 0)"/>
     <use xlink:href="#DejaVuSans-37" transform="translate(222.65625 0)"/>
     <use xlink:href="#DejaVuSans-35" transform="translate(286.279297 0)"/>
    </g>
   </g>
   <g id="text_46">
    <g id="patch_25">
     <path d="M 571.23875 336.402996 
L 630.155 336.402996 
Q 632.405 336.402996 632.405 334.152996 
L 632.405 325.442684 
Q 632.405 323.192684 630.155 323.192684 
L 571.23875 323.192684 
Q 568.98875 323.192684 568.98875 325.442684 
L 568.98875 334.152996 
Q 568.98875 336.402996 571.23875 336.402996 
z
" style="fill: #ffffff; opacity: 0.9; stroke: #cccccc; stroke-linejoin: miter"/>
    </g>
    <!-- Delta: -16.95 -->
    <g transform="translate(571.23875 332.281277) scale(0.09 -0.09)">
     <use xlink:href="#DejaVuSans-44"/>
     <use xlink:href="#DejaVuSans-65" transform="translate(77.001953 0)"/>
     <use xlink:href="#DejaVuSans-6c" transform="translate(138.525391 0)"/>
     <use xlink:href="#DejaVuSans-74" transform="translate(166.308594 0)"/>
     <use xlink:href="#DejaVuSans-61" transform="translate(205.517578 0)"/>
     <use xlink:href="#DejaVuSans-3a" transform="translate(266.796875 0)"/>
     <use xlink:href="#DejaVuSans-20" transform="translate(300.488281 0)"/>
     <use xlink:href="#DejaVuSans-2d" transform="translate(332.275391 0)"/>
     <use xlink:href="#DejaVuSans-31" transform="translate(368.359375 0)"/>
     <use xlink:href="#DejaVuSans-36" transform="translate(431.982422 0)"/>
     <use xlink:href="#DejaVuSans-2e" transform="translate(495.605469 0)"/>
     <use xlink:href="#DejaVuSans-39" transform="translate(527.392578 0)"/>
     <use xlink:href="#DejaVuSans-35" transform="translate(591.015625 0)"/>
    </g>
   </g>
   <g id="text_47">
    <!-- Avg Environment Steps (lower is better) -->
    <g transform="translate(490.711484 297.459) scale(0.11 -0.11)">
     <defs>
      <path id="DejaVuSans-76" d="M 191 3500 
L 800 3500 
L 1894 563 
L 2988 3500 
L 3597 3500 
L 2284 0 
L 1503 0 
L 191 3500 
z
" transform="scale(0.015625)"/>
      <path id="DejaVuSans-45" d="M 628 4666 
L 3578 4666 
L 3578 4134 
L 1259 4134 
L 1259 2753 
L 3481 2753 
L 3481 2222 
L 1259 2222 
L 1259 531 
L 3634 531 
L 3634 0 
L 628 0 
L 628 4666 
z
" transform="scale(0.015625)"/>
      <path id="DejaVuSans-53" d="M 3425 4513 
L 3425 3897 
Q 3066 4069 2747 4153 
Q 2428 4238 2131 4238 
Q 1616 4238 1336 4038 
Q 1056 3838 1056 3469 
Q 1056 3159 1242 3001 
Q 1428 2844 1947 2747 
L 2328 2669 
Q 3034 2534 3370 2195 
Q 3706 1856 3706 1288 
Q 3706 609 3251 259 
Q 2797 -91 1919 -91 
Q 1588 -91 1214 -16 
Q 841 59 441 206 
L 441 856 
Q 825 641 1194 531 
Q 1563 422 1919 422 
Q 2459 422 2753 634 
Q 3047 847 3047 1241 
Q 3047 1584 2836 1778 
Q 2625 1972 2144 2069 
L 1759 2144 
Q 1053 2284 737 2584 
Q 422 2884 422 3419 
Q 422 4038 858 4394 
Q 1294 4750 2059 4750 
Q 2388 4750 2728 4690 
Q 3069 4631 3425 4513 
z
" transform="scale(0.015625)"/>
     </defs>
     <use xlink:href="#DejaVuSans-41"/>
     <use xlink:href="#DejaVuSans-76" transform="translate(62.533203 0)"/>
     <use xlink:href="#DejaVuSans-67" transform="translate(121.712891 0)"/>
     <use xlink:href="#DejaVuSans-20" transform="translate(185.189453 0)"/>
     <use xlink:href="#DejaVuSans-45" transform="translate(216.976562 0)"/>
     <use xlink:href="#DejaVuSans-6e" transform="translate(280.160156 0)"/>
     <use xlink:href="#DejaVuSans-76" transform="translate(343.539062 0)"/>
     <use xlink:href="#DejaVuSans-69" transform="translate(402.71875 0)"/>
     <use xlink:href="#DejaVuSans-72" transform="translate(430.501953 0)"/>
     <use xlink:href="#DejaVuSans-6f" transform="translate(469.365234 0)"/>
     <use xlink:href="#DejaVuSans-6e" transform="translate(530.546875 0)"/>
     <use xlink:href="#DejaVuSans-6d" transform="translate(593.925781 0)"/>
     <use xlink:href="#DejaVuSans-65" transform="translate(691.337891 0)"/>
     <use xlink:href="#DejaVuSans-6e" transform="translate(752.861328 0)"/>
     <use xlink:href="#DejaVuSans-74" transform="translate(816.240234 0)"/>
     <use xlink:href="#DejaVuSans-20" transform="translate(855.449219 0)"/>
     <use xlink:href="#DejaVuSans-53" transform="translate(887.236328 0)"/>
     <use xlink:href="#DejaVuSans-74" transform="translate(950.712891 0)"/>
     <use xlink:href="#DejaVuSans-65" transform="translate(989.921875 0)"/>
     <use xlink:href="#DejaVuSans-70" transform="translate(1051.445312 0)"/>
     <use xlink:href="#DejaVuSans-73" transform="translate(1114.921875 0)"/>
     <use xlink:href="#DejaVuSans-20" transform="translate(1167.021484 0)"/>
     <use xlink:href="#DejaVuSans-28" transform="translate(1198.808594 0)"/>
     <use xlink:href="#DejaVuSans-6c" transform="translate(1237.822266 0)"/>
     <use xlink:href="#DejaVuSans-6f" transform="translate(1265.605469 0)"/>
     <use xlink:href="#DejaVuSans-77" transform="translate(1326.787109 0)"/>
     <use xlink:href="#DejaVuSans-65" transform="translate(1408.574219 0)"/>
     <use xlink:href="#DejaVuSans-72" transform="translate(1470.097656 0)"/>
     <use xlink:href="#DejaVuSans-20" transform="translate(1511.210938 0)"/>
     <use xlink:href="#DejaVuSans-69" transform="translate(1542.998047 0)"/>
     <use xlink:href="#DejaVuSans-73" transform="translate(1570.78125 0)"/>
     <use xlink:href="#DejaVuSans-20" transform="translate(1622.880859 0)"/>
     <use xlink:href="#DejaVuSans-62" transform="translate(1654.667969 0)"/>
     <use xlink:href="#DejaVuSans-65" transform="translate(1718.144531 0)"/>
     <use xlink:href="#DejaVuSans-74" transform="translate(1779.667969 0)"/>
     <use xlink:href="#DejaVuSans-74" transform="translate(1818.876953 0)"/>
     <use xlink:href="#DejaVuSans-65" transform="translate(1858.085938 0)"/>
     <use xlink:href="#DejaVuSans-72" transform="translate(1919.609375 0)"/>
     <use xlink:href="#DejaVuSans-29" transform="translate(1960.722656 0)"/>
    </g>
   </g>
  </g>
  <g id="text_48">
   <!-- Full-Curriculum Main Comparison on Same Random Maps -->
   <g transform="translate(166.796875 17.837812) scale(0.14 -0.14)">
    <defs>
     <path id="DejaVuSans-Bold-46" d="M 588 4666 
L 3834 4666 
L 3834 3756 
L 1791 3756 
L 1791 2888 
L 3713 2888 
L 3713 1978 
L 1791 1978 
L 1791 0 
L 588 0 
L 588 4666 
z
" transform="scale(0.015625)"/>
     <path id="DejaVuSans-Bold-75" d="M 500 1363 
L 500 3500 
L 1625 3500 
L 1625 3150 
Q 1625 2866 1622 2436 
Q 1619 2006 1619 1863 
Q 1619 1441 1641 1255 
Q 1663 1069 1716 984 
Q 1784 875 1895 815 
Q 2006 756 2150 756 
Q 2500 756 2700 1025 
Q 2900 1294 2900 1772 
L 2900 3500 
L 4019 3500 
L 4019 0 
L 2900 0 
L 2900 506 
Q 2647 200 2364 54 
Q 2081 -91 1741 -91 
Q 1134 -91 817 281 
Q 500 653 500 1363 
z
" transform="scale(0.015625)"/>
     <path id="DejaVuSans-Bold-6c" d="M 538 4863 
L 1656 4863 
L 1656 0 
L 538 0 
L 538 4863 
z
" transform="scale(0.015625)"/>
     <path id="DejaVuSans-Bold-2d" d="M 347 2297 
L 2309 2297 
L 2309 1388 
L 347 1388 
L 347 2297 
z
" transform="scale(0.015625)"/>
     <path id="DejaVuSans-Bold-43" d="M 4288 256 
Q 3956 84 3597 -3 
Q 3238 -91 2847 -91 
Q 1681 -91 1000 561 
Q 319 1213 319 2328 
Q 319 3447 1000 4098 
Q 1681 4750 2847 4750 
Q 3238 4750 3597 4662 
Q 3956 4575 4288 4403 
L 4288 3438 
Q 3953 3666 3628 3772 
Q 3303 3878 2944 3878 
Q 2300 3878 1931 3465 
Q 1563 3053 1563 2328 
Q 1563 1606 1931 1193 
Q 2300 781 2944 781 
Q 3303 781 3628 887 
Q 3953 994 4288 1222 
L 4288 256 
z
" transform="scale(0.015625)"/>
     <path id="DejaVuSans-Bold-72" d="M 3138 2547 
Q 2991 2616 2845 2648 
Q 2700 2681 2553 2681 
Q 2122 2681 1889 2404 
Q 1656 2128 1656 1613 
L 1656 0 
L 538 0 
L 538 3500 
L 1656 3500 
L 1656 2925 
Q 1872 3269 2151 3426 
Q 2431 3584 2822 3584 
Q 2878 3584 2943 3579 
Q 3009 3575 3134 3559 
L 3138 2547 
z
" transform="scale(0.015625)"/>
     <path id="DejaVuSans-Bold-69" d="M 538 3500 
L 1656 3500 
L 1656 0 
L 538 0 
L 538 3500 
z
M 538 4863 
L 1656 4863 
L 1656 3950 
L 538 3950 
L 538 4863 
z
" transform="scale(0.015625)"/>
     <path id="DejaVuSans-Bold-63" d="M 3366 3391 
L 3366 2478 
Q 3138 2634 2908 2709 
Q 2678 2784 2431 2784 
Q 1963 2784 1702 2511 
Q 1441 2238 1441 1747 
Q 1441 1256 1702 982 
Q 1963 709 2431 709 
Q 2694 709 2930 787 
Q 3166 866 3366 1019 
L 3366 103 
Q 3103 6 2833 -42 
Q 2563 -91 2291 -91 
Q 1344 -91 809 395 
Q 275 881 275 1747 
Q 275 2613 809 3098 
Q 1344 3584 2291 3584 
Q 2566 3584 2833 3536 
Q 3100 3488 3366 3391 
z
" transform="scale(0.015625)"/>
     <path id="DejaVuSans-Bold-6d" d="M 3781 2919 
Q 3994 3244 4286 3414 
Q 4578 3584 4928 3584 
Q 5531 3584 5847 3212 
Q 6163 2841 6163 2131 
L 6163 0 
L 5038 0 
L 5038 1825 
Q 5041 1866 5042 1909 
Q 5044 1953 5044 2034 
Q 5044 2406 4934 2573 
Q 4825 2741 4581 2741 
Q 4263 2741 4089 2478 
Q 3916 2216 3909 1719 
L 3909 0 
L 2784 0 
L 2784 1825 
Q 2784 2406 2684 2573 
Q 2584 2741 2328 2741 
Q 2006 2741 1831 2477 
Q 1656 2213 1656 1722 
L 1656 0 
L 531 0 
L 531 3500 
L 1656 3500 
L 1656 2988 
Q 1863 3284 2130 3434 
Q 2397 3584 2719 3584 
Q 3081 3584 3359 3409 
Q 3638 3234 3781 2919 
z
" transform="scale(0.015625)"/>
     <path id="DejaVuSans-Bold-20" transform="scale(0.015625)"/>
     <path id="DejaVuSans-Bold-4d" d="M 588 4666 
L 2119 4666 
L 3181 2169 
L 4250 4666 
L 5778 4666 
L 5778 0 
L 4641 0 
L 4641 3413 
L 3566 897 
L 2803 897 
L 1728 3413 
L 1728 0 
L 588 0 
L 588 4666 
z
" transform="scale(0.015625)"/>
     <path id="DejaVuSans-Bold-61" d="M 2106 1575 
Q 1756 1575 1579 1456 
Q 1403 1338 1403 1106 
Q 1403 894 1545 773 
Q 1688 653 1941 653 
Q 2256 653 2472 879 
Q 2688 1106 2688 1447 
L 2688 1575 
L 2106 1575 
z
M 3816 1997 
L 3816 0 
L 2688 0 
L 2688 519 
Q 2463 200 2181 54 
Q 1900 -91 1497 -91 
Q 953 -91 614 226 
Q 275 544 275 1050 
Q 275 1666 698 1953 
Q 1122 2241 2028 2241 
L 2688 2241 
L 2688 2328 
Q 2688 2594 2478 2717 
Q 2269 2841 1825 2841 
Q 1466 2841 1156 2769 
Q 847 2697 581 2553 
L 581 3406 
Q 941 3494 1303 3539 
Q 1666 3584 2028 3584 
Q 2975 3584 3395 3211 
Q 3816 2838 3816 1997 
z
" transform="scale(0.015625)"/>
     <path id="DejaVuSans-Bold-6e" d="M 4056 2131 
L 4056 0 
L 2931 0 
L 2931 347 
L 2931 1631 
Q 2931 2084 2911 2256 
Q 2891 2428 2841 2509 
Q 2775 2619 2662 2680 
Q 2550 2741 2406 2741 
Q 2056 2741 1856 2470 
Q 1656 2200 1656 1722 
L 1656 0 
L 538 0 
L 538 3500 
L 1656 3500 
L 1656 2988 
Q 1909 3294 2193 3439 
Q 2478 3584 2822 3584 
Q 3428 3584 3742 3212 
Q 4056 2841 4056 2131 
z
" transform="scale(0.015625)"/>
     <path id="DejaVuSans-Bold-6f" d="M 2203 2784 
Q 1831 2784 1636 2517 
Q 1441 2250 1441 1747 
Q 1441 1244 1636 976 
Q 1831 709 2203 709 
Q 2569 709 2762 976 
Q 2956 1244 2956 1747 
Q 2956 2250 2762 2517 
Q 2569 2784 2203 2784 
z
M 2203 3584 
Q 3106 3584 3614 3096 
Q 4122 2609 4122 1747 
Q 4122 884 3614 396 
Q 3106 -91 2203 -91 
Q 1297 -91 786 396 
Q 275 884 275 1747 
Q 275 2609 786 3096 
Q 1297 3584 2203 3584 
z
" transform="scale(0.015625)"/>
     <path id="DejaVuSans-Bold-70" d="M 1656 506 
L 1656 -1331 
L 538 -1331 
L 538 3500 
L 1656 3500 
L 1656 2988 
Q 1888 3294 2169 3439 
Q 2450 3584 2816 3584 
Q 3463 3584 3878 3070 
Q 4294 2556 4294 1747 
Q 4294 938 3878 423 
Q 3463 -91 2816 -91 
Q 2450 -91 2169 54 
Q 1888 200 1656 506 
z
M 2400 2772 
Q 2041 2772 1848 2508 
Q 1656 2244 1656 1747 
Q 1656 1250 1848 986 
Q 2041 722 2400 722 
Q 2759 722 2948 984 
Q 3138 1247 3138 1747 
Q 3138 2247 2948 2509 
Q 2759 2772 2400 2772 
z
" transform="scale(0.015625)"/>
     <path id="DejaVuSans-Bold-73" d="M 3272 3391 
L 3272 2541 
Q 2913 2691 2578 2766 
Q 2244 2841 1947 2841 
Q 1628 2841 1473 2761 
Q 1319 2681 1319 2516 
Q 1319 2381 1436 2309 
Q 1553 2238 1856 2203 
L 2053 2175 
Q 2913 2066 3209 1816 
Q 3506 1566 3506 1031 
Q 3506 472 3093 190 
Q 2681 -91 1863 -91 
Q 1516 -91 1145 -36 
Q 775 19 384 128 
L 384 978 
Q 719 816 1070 734 
Q 1422 653 1784 653 
Q 2113 653 2278 743 
Q 2444 834 2444 1013 
Q 2444 1163 2330 1236 
Q 2216 1309 1875 1350 
L 1678 1375 
Q 931 1469 631 1722 
Q 331 1975 331 2491 
Q 331 3047 712 3315 
Q 1094 3584 1881 3584 
Q 2191 3584 2531 3537 
Q 2872 3491 3272 3391 
z
" transform="scale(0.015625)"/>
     <path id="DejaVuSans-Bold-53" d="M 3834 4519 
L 3834 3531 
Q 3450 3703 3084 3790 
Q 2719 3878 2394 3878 
Q 1963 3878 1756 3759 
Q 1550 3641 1550 3391 
Q 1550 3203 1689 3098 
Q 1828 2994 2194 2919 
L 2706 2816 
Q 3484 2659 3812 2340 
Q 4141 2022 4141 1434 
Q 4141 663 3683 286 
Q 3225 -91 2284 -91 
Q 1841 -91 1394 -6 
Q 947 78 500 244 
L 500 1259 
Q 947 1022 1364 901 
Q 1781 781 2169 781 
Q 2563 781 2772 912 
Q 2981 1044 2981 1288 
Q 2981 1506 2839 1625 
Q 2697 1744 2272 1838 
L 1806 1941 
Q 1106 2091 782 2419 
Q 459 2747 459 3303 
Q 459 4000 909 4375 
Q 1359 4750 2203 4750 
Q 2588 4750 2994 4692 
Q 3400 4634 3834 4519 
z
" transform="scale(0.015625)"/>
     <path id="DejaVuSans-Bold-65" d="M 4031 1759 
L 4031 1441 
L 1416 1441 
Q 1456 1047 1700 850 
Q 1944 653 2381 653 
Q 2734 653 3104 758 
Q 3475 863 3866 1075 
L 3866 213 
Q 3469 63 3072 -14 
Q 2675 -91 2278 -91 
Q 1328 -91 801 392 
Q 275 875 275 1747 
Q 275 2603 792 3093 
Q 1309 3584 2216 3584 
Q 3041 3584 3536 3087 
Q 4031 2591 4031 1759 
z
M 2881 2131 
Q 2881 2450 2695 2645 
Q 2509 2841 2209 2841 
Q 1884 2841 1681 2658 
Q 1478 2475 1428 2131 
L 2881 2131 
z
" transform="scale(0.015625)"/>
     <path id="DejaVuSans-Bold-52" d="M 2297 2597 
Q 2675 2597 2839 2737 
Q 3003 2878 3003 3200 
Q 3003 3519 2839 3656 
Q 2675 3794 2297 3794 
L 1791 3794 
L 1791 2597 
L 2297 2597 
z
M 1791 1766 
L 1791 0 
L 588 0 
L 588 4666 
L 2425 4666 
Q 3347 4666 3776 4356 
Q 4206 4047 4206 3378 
Q 4206 2916 3982 2619 
Q 3759 2322 3309 2181 
Q 3556 2125 3751 1926 
Q 3947 1728 4147 1325 
L 4800 0 
L 3519 0 
L 2950 1159 
Q 2778 1509 2601 1637 
Q 2425 1766 2131 1766 
L 1791 1766 
z
" transform="scale(0.015625)"/>
     <path id="DejaVuSans-Bold-64" d="M 2919 2988 
L 2919 4863 
L 4044 4863 
L 4044 0 
L 2919 0 
L 2919 506 
Q 2688 197 2409 53 
Q 2131 -91 1766 -91 
Q 1119 -91 703 423 
Q 288 938 288 1747 
Q 288 2556 703 3070 
Q 1119 3584 1766 3584 
Q 2128 3584 2408 3439 
Q 2688 3294 2919 2988 
z
M 2181 722 
Q 2541 722 2730 984 
Q 2919 1247 2919 1747 
Q 2919 2247 2730 2509 
Q 2541 2772 2181 2772 
Q 1825 2772 1636 2509 
Q 1447 2247 1447 1747 
Q 1447 1247 1636 984 
Q 1825 722 2181 722 
z
" transform="scale(0.015625)"/>
    </defs>
    <use xlink:href="#DejaVuSans-Bold-46"/>
    <use xlink:href="#DejaVuSans-Bold-75" transform="translate(63.310547 0)"/>
    <use xlink:href="#DejaVuSans-Bold-6c" transform="translate(134.501953 0)"/>
    <use xlink:href="#DejaVuSans-Bold-6c" transform="translate(168.779297 0)"/>
    <use xlink:href="#DejaVuSans-Bold-2d" transform="translate(203.056641 0)"/>
    <use xlink:href="#DejaVuSans-Bold-43" transform="translate(244.560547 0)"/>
    <use xlink:href="#DejaVuSans-Bold-75" transform="translate(317.949219 0)"/>
    <use xlink:href="#DejaVuSans-Bold-72" transform="translate(389.140625 0)"/>
    <use xlink:href="#DejaVuSans-Bold-72" transform="translate(438.457031 0)"/>
    <use xlink:href="#DejaVuSans-Bold-69" transform="translate(487.773438 0)"/>
    <use xlink:href="#DejaVuSans-Bold-63" transform="translate(522.050781 0)"/>
    <use xlink:href="#DejaVuSans-Bold-75" transform="translate(581.328125 0)"/>
    <use xlink:href="#DejaVuSans-Bold-6c" transform="translate(652.519531 0)"/>
    <use xlink:href="#DejaVuSans-Bold-75" transform="translate(686.796875 0)"/>
    <use xlink:href="#DejaVuSans-Bold-6d" transform="translate(757.988281 0)"/>
    <use xlink:href="#DejaVuSans-Bold-20" transform="translate(862.1875 0)"/>
    <use xlink:href="#DejaVuSans-Bold-4d" transform="translate(897.001953 0)"/>
    <use xlink:href="#DejaVuSans-Bold-61" transform="translate(996.513672 0)"/>
    <use xlink:href="#DejaVuSans-Bold-69" transform="translate(1063.994141 0)"/>
    <use xlink:href="#DejaVuSans-Bold-6e" transform="translate(1098.271484 0)"/>
    <use xlink:href="#DejaVuSans-Bold-20" transform="translate(1169.462891 0)"/>
    <use xlink:href="#DejaVuSans-Bold-43" transform="translate(1204.277344 0)"/>
    <use xlink:href="#DejaVuSans-Bold-6f" transform="translate(1277.666016 0)"/>
    <use xlink:href="#DejaVuSans-Bold-6d" transform="translate(1346.367188 0)"/>
    <use xlink:href="#DejaVuSans-Bold-70" transform="translate(1450.566406 0)"/>
    <use xlink:href="#DejaVuSans-Bold-61" transform="translate(1522.148438 0)"/>
    <use xlink:href="#DejaVuSans-Bold-72" transform="translate(1589.628906 0)"/>
    <use xlink:href="#DejaVuSans-Bold-69" transform="translate(1638.945312 0)"/>
    <use xlink:href="#DejaVuSans-Bold-73" transform="translate(1673.222656 0)"/>
    <use xlink:href="#DejaVuSans-Bold-6f" transform="translate(1732.744141 0)"/>
    <use xlink:href="#DejaVuSans-Bold-6e" transform="translate(1801.445312 0)"/>
    <use xlink:href="#DejaVuSans-Bold-20" transform="translate(1872.636719 0)"/>
    <use xlink:href="#DejaVuSans-Bold-6f" transform="translate(1907.451172 0)"/>
    <use xlink:href="#DejaVuSans-Bold-6e" transform="translate(1976.152344 0)"/>
    <use xlink:href="#DejaVuSans-Bold-20" transform="translate(2047.34375 0)"/>
    <use xlink:href="#DejaVuSans-Bold-53" transform="translate(2082.158203 0)"/>
    <use xlink:href="#DejaVuSans-Bold-61" transform="translate(2154.179688 0)"/>
    <use xlink:href="#DejaVuSans-Bold-6d" transform="translate(2221.660156 0)"/>
    <use xlink:href="#DejaVuSans-Bold-65" transform="translate(2325.859375 0)"/>
    <use xlink:href="#DejaVuSans-Bold-20" transform="translate(2393.681641 0)"/>
    <use xlink:href="#DejaVuSans-Bold-52" transform="translate(2428.496094 0)"/>
    <use xlink:href="#DejaVuSans-Bold-61" transform="translate(2505.498047 0)"/>
    <use xlink:href="#DejaVuSans-Bold-6e" transform="translate(2572.978516 0)"/>
    <use xlink:href="#DejaVuSans-Bold-64" transform="translate(2644.169922 0)"/>
    <use xlink:href="#DejaVuSans-Bold-6f" transform="translate(2715.751953 0)"/>
    <use xlink:href="#DejaVuSans-Bold-6d" transform="translate(2784.453125 0)"/>
    <use xlink:href="#DejaVuSans-Bold-20" transform="translate(2888.652344 0)"/>
    <use xlink:href="#DejaVuSans-Bold-4d" transform="translate(2923.466797 0)"/>
    <use xlink:href="#DejaVuSans-Bold-61" transform="translate(3022.978516 0)"/>
    <use xlink:href="#DejaVuSans-Bold-70" transform="translate(3090.458984 0)"/>
    <use xlink:href="#DejaVuSans-Bold-73" transform="translate(3162.041016 0)"/>
   </g>
  </g>
 </g>
 <defs>
  <clipPath id="p80c1f4da75">
   <rect x="33.2875" y="75.952" width="353.61875" height="186.157"/>
  </clipPath>
  <clipPath id="p9dbc137554">
   <rect x="423.8875" y="75.952" width="353.61875" height="186.157"/>
  </clipPath>
  <clipPath id="p67df13762b">
   <rect x="33.2875" y="307.459" width="353.61875" height="186.157"/>
  </clipPath>
  <clipPath id="p3fa3f06ce3">
   <rect x="423.8875" y="307.459" width="353.61875" height="186.157"/>
  </clipPath>
 </defs>
</svg>
