<?xml version="1.0" encoding="utf-8" standalone="no"?>
<!DOCTYPE svg PUBLIC "-//W3C//DTD SVG 1.1//EN"
  "http://www.w3.org/Graphics/SVG/1.1/DTD/svg11.dtd">
<svg xmlns:xlink="http://www.w3.org/1999/xlink" width="842.859074pt" height="604.402838pt" viewBox="0 0 842.859074 604.402838" xmlns="http://www.w3.org/2000/svg" version="1.1">
 <metadata>
  <rdf:RDF xmlns:dc="http://purl.org/dc/elements/1.1/" xmlns:cc="http://creativecommons.org/ns#" xmlns:rdf="http://www.w3.org/1999/02/22-rdf-syntax-ns#">
   <cc:Work>
    <dc:type rdf:resource="http://purl.org/dc/dcmitype/StillImage"/>
    <dc:date>2026-06-08T16:29:54.587733</dc:date>
    <dc:format>image/svg+xml</dc:format>
    <dc:creator>
     <cc:Agent>
      <dc:title>Matplotlib v3.10.9, https://matplotlib.org/</dc:title>
     </cc:Agent>
    </dc:creator>
   </cc:Work>
  </rdf:RDF>
 </metadata>
 <defs>
  <style type="text/css">*{stroke-linejoin: round; stroke-linecap: butt}</style>
 </defs>
 <g id="figure_1">
  <g id="patch_1">
   <path d="M 0 604.402838 
L 842.859074 604.402838 
L 842.859074 0 
L 0 0 
z
" style="fill: #ffffff"/>
  </g>
  <g id="axes_1">
   <g id="patch_2">
    <path d="M 46.965625 313.477271 
L 806.70987 313.477271 
L 806.70987 94.366776 
L 46.965625 94.366776 
z
" style="fill: #ffffff"/>
   </g>
   <g id="matplotlib.axis_1">
    <g id="xtick_1">
     <g id="line2d_1">
      <path d="M 46.965625 313.477271 
L 46.965625 94.366776 
" clip-path="url(#pc4a3d653ad)" style="fill: none; stroke: #b0b0b0; stroke-opacity: 0.22; stroke-width: 0.8; stroke-linecap: square"/>
     </g>
     <g id="line2d_2">
      <defs>
       <path id="ma846275262" d="M 0 0 
L 0 3.5 
" style="stroke: #000000; stroke-width: 0.8"/>
      </defs>
      <g>
       <use xlink:href="#ma846275262" x="46.965625" y="313.477271" style="stroke: #000000; stroke-width: 0.8"/>
      </g>
     </g>
    </g>
    <g id="xtick_2">
     <g id="line2d_3">
      <path d="M 198.914474 313.477271 
L 198.914474 94.366776 
" clip-path="url(#pc4a3d653ad)" style="fill: none; stroke: #b0b0b0; stroke-opacity: 0.22; stroke-width: 0.8; stroke-linecap: square"/>
     </g>
     <g id="line2d_4">
      <g>
       <use xlink:href="#ma846275262" x="198.914474" y="313.477271" style="stroke: #000000; stroke-width: 0.8"/>
      </g>
     </g>
    </g>
    <g id="xtick_3">
     <g id="line2d_5">
      <path d="M 350.863323 313.477271 
L 350.863323 94.366776 
" clip-path="url(#pc4a3d653ad)" style="fill: none; stroke: #b0b0b0; stroke-opacity: 0.22; stroke-width: 0.8; stroke-linecap: square"/>
     </g>
     <g id="line2d_6">
      <g>
       <use xlink:href="#ma846275262" x="350.863323" y="313.477271" style="stroke: #000000; stroke-width: 0.8"/>
      </g>
     </g>
    </g>
    <g id="xtick_4">
     <g id="line2d_7">
      <path d="M 502.812172 313.477271 
L 502.812172 94.366776 
" clip-path="url(#pc4a3d653ad)" style="fill: none; stroke: #b0b0b0; stroke-opacity: 0.22; stroke-width: 0.8; stroke-linecap: square"/>
     </g>
     <g id="line2d_8">
      <g>
       <use xlink:href="#ma846275262" x="502.812172" y="313.477271" style="stroke: #000000; stroke-width: 0.8"/>
      </g>
     </g>
    </g>
    <g id="xtick_5">
     <g id="line2d_9">
      <path d="M 654.761021 313.477271 
L 654.761021 94.366776 
" clip-path="url(#pc4a3d653ad)" style="fill: none; stroke: #b0b0b0; stroke-opacity: 0.22; stroke-width: 0.8; stroke-linecap: square"/>
     </g>
     <g id="line2d_10">
      <g>
       <use xlink:href="#ma846275262" x="654.761021" y="313.477271" style="stroke: #000000; stroke-width: 0.8"/>
      </g>
     </g>
    </g>
    <g id="xtick_6">
     <g id="line2d_11">
      <path d="M 806.70987 313.477271 
L 806.70987 94.366776 
" clip-path="url(#pc4a3d653ad)" style="fill: none; stroke: #b0b0b0; stroke-opacity: 0.22; stroke-width: 0.8; stroke-linecap: square"/>
     </g>
     <g id="line2d_12">
      <g>
       <use xlink:href="#ma846275262" x="806.70987" y="313.477271" style="stroke: #000000; stroke-width: 0.8"/>
      </g>
     </g>
    </g>
   </g>
   <g id="matplotlib.axis_2">
    <g id="ytick_1">
     <g id="line2d_13">
      <path d="M 46.965625 313.477271 
L 806.70987 313.477271 
" clip-path="url(#pc4a3d653ad)" style="fill: none; stroke: #b0b0b0; stroke-opacity: 0.22; stroke-width: 0.8; stroke-linecap: square"/>
     </g>
     <g id="line2d_14">
      <defs>
       <path id="md1301402a8" d="M 0 0 
L -3.5 0 
" style="stroke: #000000; stroke-width: 0.8"/>
      </defs>
      <g>
       <use xlink:href="#md1301402a8" x="46.965625" y="313.477271" style="stroke: #000000; stroke-width: 0.8"/>
      </g>
     </g>
     <g id="text_1">
      <!-- 0 -->
      <g transform="translate(33.603125 317.276489) scale(0.1 -0.1)">
       <defs>
        <path id="DejaVuSans-30" d="M 2034 4250 
Q 1547 4250 1301 3770 
Q 1056 3291 1056 2328 
Q 1056 1369 1301 889 
Q 1547 409 2034 409 
Q 2525 409 2770 889 
Q 3016 1369 3016 2328 
Q 3016 3291 2770 3770 
Q 2525 4250 2034 4250 
z
M 2034 4750 
Q 2819 4750 3233 4129 
Q 3647 3509 3647 2328 
Q 3647 1150 3233 529 
Q 2819 -91 2034 -91 
Q 1250 -91 836 529 
Q 422 1150 422 2328 
Q 422 3509 836 4129 
Q 1250 4750 2034 4750 
z
" transform="scale(0.015625)"/>
       </defs>
       <use xlink:href="#DejaVuSans-30"/>
      </g>
     </g>
    </g>
    <g id="ytick_2">
     <g id="line2d_15">
      <path d="M 46.965625 270.514429 
L 806.70987 270.514429 
" clip-path="url(#pc4a3d653ad)" style="fill: none; stroke: #b0b0b0; stroke-opacity: 0.22; stroke-width: 0.8; stroke-linecap: square"/>
     </g>
     <g id="line2d_16">
      <g>
       <use xlink:href="#md1301402a8" x="46.965625" y="270.514429" style="stroke: #000000; stroke-width: 0.8"/>
      </g>
     </g>
     <g id="text_2">
      <!-- 20 -->
      <g transform="translate(27.240625 274.313647) scale(0.1 -0.1)">
       <defs>
        <path id="DejaVuSans-32" d="M 1228 531 
L 3431 531 
L 3431 0 
L 469 0 
L 469 531 
Q 828 903 1448 1529 
Q 2069 2156 2228 2338 
Q 2531 2678 2651 2914 
Q 2772 3150 2772 3378 
Q 2772 3750 2511 3984 
Q 2250 4219 1831 4219 
Q 1534 4219 1204 4116 
Q 875 4013 500 3803 
L 500 4441 
Q 881 4594 1212 4672 
Q 1544 4750 1819 4750 
Q 2544 4750 2975 4387 
Q 3406 4025 3406 3419 
Q 3406 3131 3298 2873 
Q 3191 2616 2906 2266 
Q 2828 2175 2409 1742 
Q 1991 1309 1228 531 
z
" transform="scale(0.015625)"/>
       </defs>
       <use xlink:href="#DejaVuSans-32"/>
       <use xlink:href="#DejaVuSans-30" transform="translate(63.623047 0)"/>
      </g>
     </g>
    </g>
    <g id="ytick_3">
     <g id="line2d_17">
      <path d="M 46.965625 227.551587 
L 806.70987 227.551587 
" clip-path="url(#pc4a3d653ad)" style="fill: none; stroke: #b0b0b0; stroke-opacity: 0.22; stroke-width: 0.8; stroke-linecap: square"/>
     </g>
     <g id="line2d_18">
      <g>
       <use xlink:href="#md1301402a8" x="46.965625" y="227.551587" style="stroke: #000000; stroke-width: 0.8"/>
      </g>
     </g>
     <g id="text_3">
      <!-- 40 -->
      <g transform="translate(27.240625 231.350805) scale(0.1 -0.1)">
       <defs>
        <path id="DejaVuSans-34" d="M 2419 4116 
L 825 1625 
L 2419 1625 
L 2419 4116 
z
M 2253 4666 
L 3047 4666 
L 3047 1625 
L 3713 1625 
L 3713 1100 
L 3047 1100 
L 3047 0 
L 2419 0 
L 2419 1100 
L 313 1100 
L 313 1709 
L 2253 4666 
z
" transform="scale(0.015625)"/>
       </defs>
       <use xlink:href="#DejaVuSans-34"/>
       <use xlink:href="#DejaVuSans-30" transform="translate(63.623047 0)"/>
      </g>
     </g>
    </g>
    <g id="ytick_4">
     <g id="line2d_19">
      <path d="M 46.965625 184.588745 
L 806.70987 184.588745 
" clip-path="url(#pc4a3d653ad)" style="fill: none; stroke: #b0b0b0; stroke-opacity: 0.22; stroke-width: 0.8; stroke-linecap: square"/>
     </g>
     <g id="line2d_20">
      <g>
       <use xlink:href="#md1301402a8" x="46.965625" y="184.588745" style="stroke: #000000; stroke-width: 0.8"/>
      </g>
     </g>
     <g id="text_4">
      <!-- 60 -->
      <g transform="translate(27.240625 188.387963) scale(0.1 -0.1)">
       <defs>
        <path id="DejaVuSans-36" d="M 2113 2584 
Q 1688 2584 1439 2293 
Q 1191 2003 1191 1497 
Q 1191 994 1439 701 
Q 1688 409 2113 409 
Q 2538 409 2786 701 
Q 3034 994 3034 1497 
Q 3034 2003 2786 2293 
Q 2538 2584 2113 2584 
z
M 3366 4563 
L 3366 3988 
Q 3128 4100 2886 4159 
Q 2644 4219 2406 4219 
Q 1781 4219 1451 3797 
Q 1122 3375 1075 2522 
Q 1259 2794 1537 2939 
Q 1816 3084 2150 3084 
Q 2853 3084 3261 2657 
Q 3669 2231 3669 1497 
Q 3669 778 3244 343 
Q 2819 -91 2113 -91 
Q 1303 -91 875 529 
Q 447 1150 447 2328 
Q 447 3434 972 4092 
Q 1497 4750 2381 4750 
Q 2619 4750 2861 4703 
Q 3103 4656 3366 4563 
z
" transform="scale(0.015625)"/>
       </defs>
       <use xlink:href="#DejaVuSans-36"/>
       <use xlink:href="#DejaVuSans-30" transform="translate(63.623047 0)"/>
      </g>
     </g>
    </g>
    <g id="ytick_5">
     <g id="line2d_21">
      <path d="M 46.965625 141.625903 
L 806.70987 141.625903 
" clip-path="url(#pc4a3d653ad)" style="fill: none; stroke: #b0b0b0; stroke-opacity: 0.22; stroke-width: 0.8; stroke-linecap: square"/>
     </g>
     <g id="line2d_22">
      <g>
       <use xlink:href="#md1301402a8" x="46.965625" y="141.625903" style="stroke: #000000; stroke-width: 0.8"/>
      </g>
     </g>
     <g id="text_5">
      <!-- 80 -->
      <g transform="translate(27.240625 145.425121) scale(0.1 -0.1)">
       <defs>
        <path id="DejaVuSans-38" d="M 2034 2216 
Q 1584 2216 1326 1975 
Q 1069 1734 1069 1313 
Q 1069 891 1326 650 
Q 1584 409 2034 409 
Q 2484 409 2743 651 
Q 3003 894 3003 1313 
Q 3003 1734 2745 1975 
Q 2488 2216 2034 2216 
z
M 1403 2484 
Q 997 2584 770 2862 
Q 544 3141 544 3541 
Q 544 4100 942 4425 
Q 1341 4750 2034 4750 
Q 2731 4750 3128 4425 
Q 3525 4100 3525 3541 
Q 3525 3141 3298 2862 
Q 3072 2584 2669 2484 
Q 3125 2378 3379 2068 
Q 3634 1759 3634 1313 
Q 3634 634 3220 271 
Q 2806 -91 2034 -91 
Q 1263 -91 848 271 
Q 434 634 434 1313 
Q 434 1759 690 2068 
Q 947 2378 1403 2484 
z
M 1172 3481 
Q 1172 3119 1398 2916 
Q 1625 2713 2034 2713 
Q 2441 2713 2670 2916 
Q 2900 3119 2900 3481 
Q 2900 3844 2670 4047 
Q 2441 4250 2034 4250 
Q 1625 4250 1398 4047 
Q 1172 3844 1172 3481 
z
" transform="scale(0.015625)"/>
       </defs>
       <use xlink:href="#DejaVuSans-38"/>
       <use xlink:href="#DejaVuSans-30" transform="translate(63.623047 0)"/>
      </g>
     </g>
    </g>
    <g id="ytick_6">
     <g id="line2d_23">
      <path d="M 46.965625 98.663061 
L 806.70987 98.663061 
" clip-path="url(#pc4a3d653ad)" style="fill: none; stroke: #b0b0b0; stroke-opacity: 0.22; stroke-width: 0.8; stroke-linecap: square"/>
     </g>
     <g id="line2d_24">
      <g>
       <use xlink:href="#md1301402a8" x="46.965625" y="98.663061" style="stroke: #000000; stroke-width: 0.8"/>
      </g>
     </g>
     <g id="text_6">
      <!-- 100 -->
      <g transform="translate(20.878125 102.462279) scale(0.1 -0.1)">
       <defs>
        <path id="DejaVuSans-31" d="M 794 531 
L 1825 531 
L 1825 4091 
L 703 3866 
L 703 4441 
L 1819 4666 
L 2450 4666 
L 2450 531 
L 3481 531 
L 3481 0 
L 794 0 
L 794 531 
z
" transform="scale(0.015625)"/>
       </defs>
       <use xlink:href="#DejaVuSans-31"/>
       <use xlink:href="#DejaVuSans-30" transform="translate(63.623047 0)"/>
       <use xlink:href="#DejaVuSans-30" transform="translate(127.246094 0)"/>
      </g>
     </g>
    </g>
    <g id="text_7">
     <!-- Coverage Rate (%) -->
     <g transform="translate(14.798438 251.172024) rotate(-90) scale(0.1 -0.1)">
      <defs>
       <path id="DejaVuSans-43" d="M 4122 4306 
L 4122 3641 
Q 3803 3938 3442 4084 
Q 3081 4231 2675 4231 
Q 1875 4231 1450 3742 
Q 1025 3253 1025 2328 
Q 1025 1406 1450 917 
Q 1875 428 2675 428 
Q 3081 428 3442 575 
Q 3803 722 4122 1019 
L 4122 359 
Q 3791 134 3420 21 
Q 3050 -91 2638 -91 
Q 1578 -91 968 557 
Q 359 1206 359 2328 
Q 359 3453 968 4101 
Q 1578 4750 2638 4750 
Q 3056 4750 3426 4639 
Q 3797 4528 4122 4306 
z
" transform="scale(0.015625)"/>
       <path id="DejaVuSans-6f" d="M 1959 3097 
Q 1497 3097 1228 2736 
Q 959 2375 959 1747 
Q 959 1119 1226 758 
Q 1494 397 1959 397 
Q 2419 397 2687 759 
Q 2956 1122 2956 1747 
Q 2956 2369 2687 2733 
Q 2419 3097 1959 3097 
z
M 1959 3584 
Q 2709 3584 3137 3096 
Q 3566 2609 3566 1747 
Q 3566 888 3137 398 
Q 2709 -91 1959 -91 
Q 1206 -91 779 398 
Q 353 888 353 1747 
Q 353 2609 779 3096 
Q 1206 3584 1959 3584 
z
" transform="scale(0.015625)"/>
       <path id="DejaVuSans-76" d="M 191 3500 
L 800 3500 
L 1894 563 
L 2988 3500 
L 3597 3500 
L 2284 0 
L 1503 0 
L 191 3500 
z
" transform="scale(0.015625)"/>
       <path id="DejaVuSans-65" d="M 3597 1894 
L 3597 1613 
L 953 1613 
Q 991 1019 1311 708 
Q 1631 397 2203 397 
Q 2534 397 2845 478 
Q 3156 559 3463 722 
L 3463 178 
Q 3153 47 2828 -22 
Q 2503 -91 2169 -91 
Q 1331 -91 842 396 
Q 353 884 353 1716 
Q 353 2575 817 3079 
Q 1281 3584 2069 3584 
Q 2775 3584 3186 3129 
Q 3597 2675 3597 1894 
z
M 3022 2063 
Q 3016 2534 2758 2815 
Q 2500 3097 2075 3097 
Q 1594 3097 1305 2825 
Q 1016 2553 972 2059 
L 3022 2063 
z
" transform="scale(0.015625)"/>
       <path id="DejaVuSans-72" d="M 2631 2963 
Q 2534 3019 2420 3045 
Q 2306 3072 2169 3072 
Q 1681 3072 1420 2755 
Q 1159 2438 1159 1844 
L 1159 0 
L 581 0 
L 581 3500 
L 1159 3500 
L 1159 2956 
Q 1341 3275 1631 3429 
Q 1922 3584 2338 3584 
Q 2397 3584 2469 3576 
Q 2541 3569 2628 3553 
L 2631 2963 
z
" transform="scale(0.015625)"/>
       <path id="DejaVuSans-61" d="M 2194 1759 
Q 1497 1759 1228 1600 
Q 959 1441 959 1056 
Q 959 750 1161 570 
Q 1363 391 1709 391 
Q 2188 391 2477 730 
Q 2766 1069 2766 1631 
L 2766 1759 
L 2194 1759 
z
M 3341 1997 
L 3341 0 
L 2766 0 
L 2766 531 
Q 2569 213 2275 61 
Q 1981 -91 1556 -91 
Q 1019 -91 701 211 
Q 384 513 384 1019 
Q 384 1609 779 1909 
Q 1175 2209 1959 2209 
L 2766 2209 
L 2766 2266 
Q 2766 2663 2505 2880 
Q 2244 3097 1772 3097 
Q 1472 3097 1187 3025 
Q 903 2953 641 2809 
L 641 3341 
Q 956 3463 1253 3523 
Q 1550 3584 1831 3584 
Q 2591 3584 2966 3190 
Q 3341 2797 3341 1997 
z
" transform="scale(0.015625)"/>
       <path id="DejaVuSans-67" d="M 2906 1791 
Q 2906 2416 2648 2759 
Q 2391 3103 1925 3103 
Q 1463 3103 1205 2759 
Q 947 2416 947 1791 
Q 947 1169 1205 825 
Q 1463 481 1925 481 
Q 2391 481 2648 825 
Q 2906 1169 2906 1791 
z
M 3481 434 
Q 3481 -459 3084 -895 
Q 2688 -1331 1869 -1331 
Q 1566 -1331 1297 -1286 
Q 1028 -1241 775 -1147 
L 775 -588 
Q 1028 -725 1275 -790 
Q 1522 -856 1778 -856 
Q 2344 -856 2625 -561 
Q 2906 -266 2906 331 
L 2906 616 
Q 2728 306 2450 153 
Q 2172 0 1784 0 
Q 1141 0 747 490 
Q 353 981 353 1791 
Q 353 2603 747 3093 
Q 1141 3584 1784 3584 
Q 2172 3584 2450 3431 
Q 2728 3278 2906 2969 
L 2906 3500 
L 3481 3500 
L 3481 434 
z
" transform="scale(0.015625)"/>
       <path id="DejaVuSans-20" transform="scale(0.015625)"/>
       <path id="DejaVuSans-52" d="M 2841 2188 
Q 3044 2119 3236 1894 
Q 3428 1669 3622 1275 
L 4263 0 
L 3584 0 
L 2988 1197 
Q 2756 1666 2539 1819 
Q 2322 1972 1947 1972 
L 1259 1972 
L 1259 0 
L 628 0 
L 628 4666 
L 2053 4666 
Q 2853 4666 3247 4331 
Q 3641 3997 3641 3322 
Q 3641 2881 3436 2590 
Q 3231 2300 2841 2188 
z
M 1259 4147 
L 1259 2491 
L 2053 2491 
Q 2509 2491 2742 2702 
Q 2975 2913 2975 3322 
Q 2975 3731 2742 3939 
Q 2509 4147 2053 4147 
L 1259 4147 
z
" transform="scale(0.015625)"/>
       <path id="DejaVuSans-74" d="M 1172 4494 
L 1172 3500 
L 2356 3500 
L 2356 3053 
L 1172 3053 
L 1172 1153 
Q 1172 725 1289 603 
Q 1406 481 1766 481 
L 2356 481 
L 2356 0 
L 1766 0 
Q 1100 0 847 248 
Q 594 497 594 1153 
L 594 3053 
L 172 3053 
L 172 3500 
L 594 3500 
L 594 4494 
L 1172 4494 
z
" transform="scale(0.015625)"/>
       <path id="DejaVuSans-28" d="M 1984 4856 
Q 1566 4138 1362 3434 
Q 1159 2731 1159 2009 
Q 1159 1288 1364 580 
Q 1569 -128 1984 -844 
L 1484 -844 
Q 1016 -109 783 600 
Q 550 1309 550 2009 
Q 550 2706 781 3412 
Q 1013 4119 1484 4856 
L 1984 4856 
z
" transform="scale(0.015625)"/>
       <path id="DejaVuSans-25" d="M 4653 2053 
Q 4381 2053 4226 1822 
Q 4072 1591 4072 1178 
Q 4072 772 4226 539 
Q 4381 306 4653 306 
Q 4919 306 5073 539 
Q 5228 772 5228 1178 
Q 5228 1588 5073 1820 
Q 4919 2053 4653 2053 
z
M 4653 2450 
Q 5147 2450 5437 2106 
Q 5728 1763 5728 1178 
Q 5728 594 5436 251 
Q 5144 -91 4653 -91 
Q 4153 -91 3862 251 
Q 3572 594 3572 1178 
Q 3572 1766 3864 2108 
Q 4156 2450 4653 2450 
z
M 1428 4353 
Q 1159 4353 1004 4120 
Q 850 3888 850 3481 
Q 850 3069 1003 2837 
Q 1156 2606 1428 2606 
Q 1700 2606 1854 2837 
Q 2009 3069 2009 3481 
Q 2009 3884 1853 4118 
Q 1697 4353 1428 4353 
z
M 4250 4750 
L 4750 4750 
L 1831 -91 
L 1331 -91 
L 4250 4750 
z
M 1428 4750 
Q 1922 4750 2215 4408 
Q 2509 4066 2509 3481 
Q 2509 2891 2217 2550 
Q 1925 2209 1428 2209 
Q 931 2209 642 2551 
Q 353 2894 353 3481 
Q 353 4063 643 4406 
Q 934 4750 1428 4750 
z
" transform="scale(0.015625)"/>
       <path id="DejaVuSans-29" d="M 513 4856 
L 1013 4856 
Q 1481 4119 1714 3412 
Q 1947 2706 1947 2009 
Q 1947 1309 1714 600 
Q 1481 -109 1013 -844 
L 513 -844 
Q 928 -128 1133 580 
Q 1338 1288 1338 2009 
Q 1338 2731 1133 3434 
Q 928 4138 513 4856 
z
" transform="scale(0.015625)"/>
      </defs>
      <use xlink:href="#DejaVuSans-43"/>
      <use xlink:href="#DejaVuSans-6f" transform="translate(69.824219 0)"/>
      <use xlink:href="#DejaVuSans-76" transform="translate(131.005859 0)"/>
      <use xlink:href="#DejaVuSans-65" transform="translate(190.185547 0)"/>
      <use xlink:href="#DejaVuSans-72" transform="translate(251.708984 0)"/>
      <use xlink:href="#DejaVuSans-61" transform="translate(292.822266 0)"/>
      <use xlink:href="#DejaVuSans-67" transform="translate(354.101562 0)"/>
      <use xlink:href="#DejaVuSans-65" transform="translate(417.578125 0)"/>
      <use xlink:href="#DejaVuSans-20" transform="translate(479.101562 0)"/>
      <use xlink:href="#DejaVuSans-52" transform="translate(510.888672 0)"/>
      <use xlink:href="#DejaVuSans-61" transform="translate(578.121094 0)"/>
      <use xlink:href="#DejaVuSans-74" transform="translate(639.400391 0)"/>
      <use xlink:href="#DejaVuSans-65" transform="translate(678.609375 0)"/>
      <use xlink:href="#DejaVuSans-20" transform="translate(740.132812 0)"/>
      <use xlink:href="#DejaVuSans-28" transform="translate(771.919922 0)"/>
      <use xlink:href="#DejaVuSans-25" transform="translate(810.933594 0)"/>
      <use xlink:href="#DejaVuSans-29" transform="translate(905.953125 0)"/>
     </g>
    </g>
   </g>
   <g id="line2d_25">
    <path d="M 46.965625 312.91197 
L 51.52409 309.661492 
L 56.082556 304.969497 
L 60.641021 298.920781 
L 69.757952 286.371109 
L 86.472326 263.448172 
L 95.589257 251.831245 
L 100.147722 246.46089 
L 107.745165 237.529141 
L 113.823119 230.575945 
L 116.862096 227.381996 
L 119.901072 224.188048 
L 125.979026 218.337188 
L 132.05698 212.995097 
L 136.615446 208.614018 
L 144.212888 201.604291 
L 150.290842 195.753431 
L 153.329819 193.039988 
L 163.966239 184.277829 
L 168.524704 180.659906 
L 173.08317 177.183307 
L 174.602658 176.080971 
L 182.200101 171.304182 
L 191.317031 165.622911 
L 194.356008 163.870479 
L 200.433962 160.252556 
L 209.550893 154.54302 
L 217.148336 150.359796 
L 224.745778 147.081053 
L 227.784755 145.893922 
L 229.304244 145.130766 
L 232.343221 143.85884 
L 238.421175 141.145397 
L 241.460152 139.845206 
L 246.018617 138.46022 
L 250.577083 137.160028 
L 255.135548 135.690247 
L 256.655037 135.096681 
L 270.330433 131.139577 
L 276.408387 129.528471 
L 282.486341 128.200015 
L 285.525318 127.295534 
L 291.603272 126.249728 
L 296.161737 125.232187 
L 311.356622 122.207829 
L 318.954065 121.020698 
L 332.629461 119.042146 
L 335.668438 118.73123 
L 338.707415 118.33552 
L 347.824346 117.402774 
L 355.421788 116.526558 
L 356.941277 116.272173 
L 359.980254 115.961258 
L 361.499742 115.678607 
L 364.538719 115.367692 
L 367.577696 115.169837 
L 369.097185 115.000247 
L 373.65565 114.745861 
L 382.772581 114.152296 
L 387.331047 113.897911 
L 396.447978 113.134755 
L 413.162351 111.664973 
L 419.240305 111.297528 
L 429.876724 110.788758 
L 432.915701 110.675697 
L 435.954678 110.393047 
L 442.032632 110.082132 
L 451.149563 109.460301 
L 454.18854 109.318976 
L 458.747006 108.951531 
L 463.305471 108.697145 
L 470.902914 108.188375 
L 478.500356 107.566544 
L 518.007057 105.446667 
L 522.565522 105.192282 
L 531.682453 104.655247 
L 534.72143 104.372596 
L 539.279896 104.089946 
L 543.838361 103.835561 
L 548.396827 103.49638 
L 554.47478 103.241995 
L 568.150177 102.676695 
L 571.189154 102.535369 
L 574.228131 102.394044 
L 578.786596 101.970069 
L 583.345062 101.800479 
L 595.50097 101.489563 
L 613.734832 100.895998 
L 633.488182 100.443757 
L 638.046647 100.358962 
L 650.202555 100.274167 
L 663.877952 100.104577 
L 683.631302 100.019782 
L 691.228745 99.821927 
L 723.138003 99.313156 
L 802.151404 99.228361 
L 806.70987 99.200096 
L 806.70987 99.200096 
" clip-path="url(#pc4a3d653ad)" style="fill: none; stroke: #9a9a9a; stroke-width: 2.4; stroke-linecap: square"/>
   </g>
   <g id="line2d_26">
    <path d="M 46.965625 312.91197 
L 51.52409 309.661492 
L 53.043579 308.106915 
L 59.121533 299.712202 
L 91.030791 255.336109 
L 95.589257 249.287393 
L 112.30363 227.692912 
L 115.342607 224.046723 
L 124.459538 213.701723 
L 129.018003 208.755343 
L 132.05698 205.561395 
L 135.095957 202.310917 
L 139.654423 197.477597 
L 145.732377 190.552665 
L 157.888285 178.483499 
L 180.680612 157.680438 
L 185.239078 154.062515 
L 186.758566 152.705793 
L 189.797543 150.388061 
L 192.83652 147.985534 
L 200.433962 142.219468 
L 206.511916 138.007979 
L 208.031405 137.188293 
L 215.628847 132.496299 
L 217.148336 131.563553 
L 220.187313 130.122036 
L 221.706801 129.245821 
L 229.304244 125.882282 
L 253.61606 116.865738 
L 262.73299 114.434946 
L 265.771967 113.67179 
L 273.36941 112.343334 
L 276.408387 112.032419 
L 279.447364 111.664973 
L 284.005829 111.240998 
L 296.161737 110.053867 
L 297.681226 109.856012 
L 300.720203 109.629891 
L 312.876111 108.357965 
L 334.148949 107.086039 
L 340.226903 106.605533 
L 347.824346 106.238088 
L 350.863323 106.068498 
L 363.019231 105.531462 
L 390.370024 104.089946 
L 432.915701 102.5919 
L 452.669052 102.139659 
L 460.266494 101.941804 
L 521.046034 100.895998 
L 527.123988 100.811203 
L 542.318873 100.613348 
L 549.916315 100.528552 
L 559.033246 100.443757 
L 565.1112 100.358962 
L 586.384039 100.048047 
L 595.50097 99.963252 
L 609.176366 99.793662 
L 636.527159 99.708867 
L 654.761021 99.454481 
L 677.553348 99.369686 
L 683.631302 99.341421 
L 701.865164 99.256626 
L 707.943118 99.228361 
L 806.70987 99.228361 
L 806.70987 99.228361 
" clip-path="url(#pc4a3d653ad)" style="fill: none; stroke: #4c78a8; stroke-width: 2.4; stroke-linecap: square"/>
   </g>
   <g id="line2d_27">
    <path d="M 46.965625 312.91197 
L 51.52409 309.661492 
L 53.043579 308.106915 
L 57.602044 301.860344 
L 71.277441 283.177161 
L 83.433349 266.726915 
L 94.069768 252.453076 
L 104.706188 238.546682 
L 116.862096 223.792338 
L 122.940049 216.839141 
L 138.134934 199.682269 
L 141.173911 196.318731 
L 142.6934 194.594564 
L 145.732377 191.344086 
L 150.290842 186.454236 
L 159.407773 176.872392 
L 160.927262 175.091695 
L 165.485727 170.484496 
L 173.08317 164.011805 
L 177.641635 159.969906 
L 182.200101 156.097597 
L 186.758566 152.168758 
L 188.278055 150.727242 
L 189.797543 149.455315 
L 192.83652 146.572282 
L 195.875497 144.19802 
L 198.914474 142.049878 
L 201.953451 139.788676 
L 208.031405 135.859837 
L 211.070382 133.655165 
L 212.58987 132.694154 
L 221.706801 128.22828 
L 224.745778 126.815028 
L 232.343221 122.433949 
L 238.421175 119.833566 
L 239.940663 119.042146 
L 241.460152 118.476845 
L 242.97964 117.713689 
L 247.538106 115.876462 
L 250.577083 114.971982 
L 253.61606 113.926176 
L 258.174525 113.021695 
L 265.771967 111.636708 
L 268.810944 111.240998 
L 271.849921 110.590902 
L 276.408387 109.997337 
L 282.486341 109.262446 
L 285.525318 108.810206 
L 290.083783 108.55582 
L 299.200714 108.131845 
L 302.239691 108.075315 
L 308.317645 107.70787 
L 318.954065 107.227364 
L 352.382811 105.446667 
L 361.499742 105.022692 
L 366.058208 104.853102 
L 372.136162 104.711777 
L 379.733604 104.485656 
L 393.409001 104.061681 
L 397.967466 104.005151 
L 411.642862 103.581175 
L 416.201328 103.411585 
L 429.876724 102.98761 
L 437.474167 102.76149 
L 440.513144 102.620165 
L 448.110586 102.535369 
L 455.708029 102.337514 
L 478.500356 101.998334 
L 495.214729 101.913539 
L 507.370637 101.772214 
L 513.448591 101.687419 
L 590.942504 100.330697 
L 597.020458 100.245902 
L 613.734832 100.019782 
L 624.371251 99.934987 
L 631.968693 99.878457 
L 641.085624 99.793662 
L 662.358463 99.482746 
L 680.592325 99.397951 
L 701.865164 99.087036 
L 748.969307 99.002241 
L 768.722657 98.719591 
L 806.70987 98.663061 
L 806.70987 98.663061 
" clip-path="url(#pc4a3d653ad)" style="fill: none; stroke: #f58518; stroke-width: 2.4; stroke-linecap: square"/>
   </g>
   <g id="line2d_28">
    <path d="M 46.965625 120.144482 
L 806.70987 120.144482 
" clip-path="url(#pc4a3d653ad)" style="fill: none; stroke-dasharray: 2.96,1.28; stroke-dashoffset: 0; stroke: #666666; stroke-opacity: 0.45; stroke-width: 0.8"/>
   </g>
   <g id="line2d_29">
    <path d="M 46.965625 109.403771 
L 806.70987 109.403771 
" clip-path="url(#pc4a3d653ad)" style="fill: none; stroke-dasharray: 2.96,1.28; stroke-dashoffset: 0; stroke: #666666; stroke-opacity: 0.45; stroke-width: 0.8"/>
   </g>
   <g id="line2d_30">
    <path d="M 46.965625 98.663061 
L 806.70987 98.663061 
" clip-path="url(#pc4a3d653ad)" style="fill: none; stroke-dasharray: 2.96,1.28; stroke-dashoffset: 0; stroke: #666666; stroke-opacity: 0.45; stroke-width: 0.8"/>
   </g>
   <g id="patch_3">
    <path d="M 46.965625 313.477271 
L 46.965625 94.366776 
" style="fill: none; stroke: #000000; stroke-width: 0.8; stroke-linejoin: miter; stroke-linecap: square"/>
   </g>
   <g id="patch_4">
    <path d="M 46.965625 313.477271 
L 806.70987 313.477271 
" style="fill: none; stroke: #000000; stroke-width: 0.8; stroke-linejoin: miter; stroke-linecap: square"/>
   </g>
   <g id="text_8">
    <!-- 90% -->
    <g style="fill: #555555" transform="translate(812.787824 122.351982) scale(0.08 -0.08)">
     <defs>
      <path id="DejaVuSans-39" d="M 703 97 
L 703 672 
Q 941 559 1184 500 
Q 1428 441 1663 441 
Q 2288 441 2617 861 
Q 2947 1281 2994 2138 
Q 2813 1869 2534 1725 
Q 2256 1581 1919 1581 
Q 1219 1581 811 2004 
Q 403 2428 403 3163 
Q 403 3881 828 4315 
Q 1253 4750 1959 4750 
Q 2769 4750 3195 4129 
Q 3622 3509 3622 2328 
Q 3622 1225 3098 567 
Q 2575 -91 1691 -91 
Q 1453 -91 1209 -44 
Q 966 3 703 97 
z
M 1959 2075 
Q 2384 2075 2632 2365 
Q 2881 2656 2881 3163 
Q 2881 3666 2632 3958 
Q 2384 4250 1959 4250 
Q 1534 4250 1286 3958 
Q 1038 3666 1038 3163 
Q 1038 2656 1286 2365 
Q 1534 2075 1959 2075 
z
" transform="scale(0.015625)"/>
     </defs>
     <use xlink:href="#DejaVuSans-39"/>
     <use xlink:href="#DejaVuSans-30" transform="translate(63.623047 0)"/>
     <use xlink:href="#DejaVuSans-25" transform="translate(127.246094 0)"/>
    </g>
   </g>
   <g id="text_9">
    <!-- 95% -->
    <g style="fill: #555555" transform="translate(812.787824 111.611271) scale(0.08 -0.08)">
     <defs>
      <path id="DejaVuSans-35" d="M 691 4666 
L 3169 4666 
L 3169 4134 
L 1269 4134 
L 1269 2991 
Q 1406 3038 1543 3061 
Q 1681 3084 1819 3084 
Q 2600 3084 3056 2656 
Q 3513 2228 3513 1497 
Q 3513 744 3044 326 
Q 2575 -91 1722 -91 
Q 1428 -91 1123 -41 
Q 819 9 494 109 
L 494 744 
Q 775 591 1075 516 
Q 1375 441 1709 441 
Q 2250 441 2565 725 
Q 2881 1009 2881 1497 
Q 2881 1984 2565 2268 
Q 2250 2553 1709 2553 
Q 1456 2553 1204 2497 
Q 953 2441 691 2322 
L 691 4666 
z
" transform="scale(0.015625)"/>
     </defs>
     <use xlink:href="#DejaVuSans-39"/>
     <use xlink:href="#DejaVuSans-35" transform="translate(63.623047 0)"/>
     <use xlink:href="#DejaVuSans-25" transform="translate(127.246094 0)"/>
    </g>
   </g>
   <g id="text_10">
    <!-- 100% -->
    <g style="fill: #555555" transform="translate(812.787824 100.870561) scale(0.08 -0.08)">
     <use xlink:href="#DejaVuSans-31"/>
     <use xlink:href="#DejaVuSans-30" transform="translate(63.623047 0)"/>
     <use xlink:href="#DejaVuSans-30" transform="translate(127.246094 0)"/>
     <use xlink:href="#DejaVuSans-25" transform="translate(190.869141 0)"/>
    </g>
   </g>
   <g id="text_11">
    <!-- Coverage Rate vs Environment Steps -->
    <g transform="translate(314.933997 86.366776) scale(0.12 -0.12)">
     <defs>
      <path id="DejaVuSans-73" d="M 2834 3397 
L 2834 2853 
Q 2591 2978 2328 3040 
Q 2066 3103 1784 3103 
Q 1356 3103 1142 2972 
Q 928 2841 928 2578 
Q 928 2378 1081 2264 
Q 1234 2150 1697 2047 
L 1894 2003 
Q 2506 1872 2764 1633 
Q 3022 1394 3022 966 
Q 3022 478 2636 193 
Q 2250 -91 1575 -91 
Q 1294 -91 989 -36 
Q 684 19 347 128 
L 347 722 
Q 666 556 975 473 
Q 1284 391 1588 391 
Q 1994 391 2212 530 
Q 2431 669 2431 922 
Q 2431 1156 2273 1281 
Q 2116 1406 1581 1522 
L 1381 1569 
Q 847 1681 609 1914 
Q 372 2147 372 2553 
Q 372 3047 722 3315 
Q 1072 3584 1716 3584 
Q 2034 3584 2315 3537 
Q 2597 3491 2834 3397 
z
" transform="scale(0.015625)"/>
      <path id="DejaVuSans-45" d="M 628 4666 
L 3578 4666 
L 3578 4134 
L 1259 4134 
L 1259 2753 
L 3481 2753 
L 3481 2222 
L 1259 2222 
L 1259 531 
L 3634 531 
L 3634 0 
L 628 0 
L 628 4666 
z
" transform="scale(0.015625)"/>
      <path id="DejaVuSans-6e" d="M 3513 2113 
L 3513 0 
L 2938 0 
L 2938 2094 
Q 2938 2591 2744 2837 
Q 2550 3084 2163 3084 
Q 1697 3084 1428 2787 
Q 1159 2491 1159 1978 
L 1159 0 
L 581 0 
L 581 3500 
L 1159 3500 
L 1159 2956 
Q 1366 3272 1645 3428 
Q 1925 3584 2291 3584 
Q 2894 3584 3203 3211 
Q 3513 2838 3513 2113 
z
" transform="scale(0.015625)"/>
      <path id="DejaVuSans-69" d="M 603 3500 
L 1178 3500 
L 1178 0 
L 603 0 
L 603 3500 
z
M 603 4863 
L 1178 4863 
L 1178 4134 
L 603 4134 
L 603 4863 
z
" transform="scale(0.015625)"/>
      <path id="DejaVuSans-6d" d="M 3328 2828 
Q 3544 3216 3844 3400 
Q 4144 3584 4550 3584 
Q 5097 3584 5394 3201 
Q 5691 2819 5691 2113 
L 5691 0 
L 5113 0 
L 5113 2094 
Q 5113 2597 4934 2840 
Q 4756 3084 4391 3084 
Q 3944 3084 3684 2787 
Q 3425 2491 3425 1978 
L 3425 0 
L 2847 0 
L 2847 2094 
Q 2847 2600 2669 2842 
Q 2491 3084 2119 3084 
Q 1678 3084 1418 2786 
Q 1159 2488 1159 1978 
L 1159 0 
L 581 0 
L 581 3500 
L 1159 3500 
L 1159 2956 
Q 1356 3278 1631 3431 
Q 1906 3584 2284 3584 
Q 2666 3584 2933 3390 
Q 3200 3197 3328 2828 
z
" transform="scale(0.015625)"/>
      <path id="DejaVuSans-53" d="M 3425 4513 
L 3425 3897 
Q 3066 4069 2747 4153 
Q 2428 4238 2131 4238 
Q 1616 4238 1336 4038 
Q 1056 3838 1056 3469 
Q 1056 3159 1242 3001 
Q 1428 2844 1947 2747 
L 2328 2669 
Q 3034 2534 3370 2195 
Q 3706 1856 3706 1288 
Q 3706 609 3251 259 
Q 2797 -91 1919 -91 
Q 1588 -91 1214 -16 
Q 841 59 441 206 
L 441 856 
Q 825 641 1194 531 
Q 1563 422 1919 422 
Q 2459 422 2753 634 
Q 3047 847 3047 1241 
Q 3047 1584 2836 1778 
Q 2625 1972 2144 2069 
L 1759 2144 
Q 1053 2284 737 2584 
Q 422 2884 422 3419 
Q 422 4038 858 4394 
Q 1294 4750 2059 4750 
Q 2388 4750 2728 4690 
Q 3069 4631 3425 4513 
z
" transform="scale(0.015625)"/>
      <path id="DejaVuSans-70" d="M 1159 525 
L 1159 -1331 
L 581 -1331 
L 581 3500 
L 1159 3500 
L 1159 2969 
Q 1341 3281 1617 3432 
Q 1894 3584 2278 3584 
Q 2916 3584 3314 3078 
Q 3713 2572 3713 1747 
Q 3713 922 3314 415 
Q 2916 -91 2278 -91 
Q 1894 -91 1617 61 
Q 1341 213 1159 525 
z
M 3116 1747 
Q 3116 2381 2855 2742 
Q 2594 3103 2138 3103 
Q 1681 3103 1420 2742 
Q 1159 2381 1159 1747 
Q 1159 1113 1420 752 
Q 1681 391 2138 391 
Q 2594 391 2855 752 
Q 3116 1113 3116 1747 
z
" transform="scale(0.015625)"/>
     </defs>
     <use xlink:href="#DejaVuSans-43"/>
     <use xlink:href="#DejaVuSans-6f" transform="translate(69.824219 0)"/>
     <use xlink:href="#DejaVuSans-76" transform="translate(131.005859 0)"/>
     <use xlink:href="#DejaVuSans-65" transform="translate(190.185547 0)"/>
     <use xlink:href="#DejaVuSans-72" transform="translate(251.708984 0)"/>
     <use xlink:href="#DejaVuSans-61" transform="translate(292.822266 0)"/>
     <use xlink:href="#DejaVuSans-67" transform="translate(354.101562 0)"/>
     <use xlink:href="#DejaVuSans-65" transform="translate(417.578125 0)"/>
     <use xlink:href="#DejaVuSans-20" transform="translate(479.101562 0)"/>
     <use xlink:href="#DejaVuSans-52" transform="translate(510.888672 0)"/>
     <use xlink:href="#DejaVuSans-61" transform="translate(578.121094 0)"/>
     <use xlink:href="#DejaVuSans-74" transform="translate(639.400391 0)"/>
     <use xlink:href="#DejaVuSans-65" transform="translate(678.609375 0)"/>
     <use xlink:href="#DejaVuSans-20" transform="translate(740.132812 0)"/>
     <use xlink:href="#DejaVuSans-76" transform="translate(771.919922 0)"/>
     <use xlink:href="#DejaVuSans-73" transform="translate(831.099609 0)"/>
     <use xlink:href="#DejaVuSans-20" transform="translate(883.199219 0)"/>
     <use xlink:href="#DejaVuSans-45" transform="translate(914.986328 0)"/>
     <use xlink:href="#DejaVuSans-6e" transform="translate(978.169922 0)"/>
     <use xlink:href="#DejaVuSans-76" transform="translate(1041.548828 0)"/>
     <use xlink:href="#DejaVuSans-69" transform="translate(1100.728516 0)"/>
     <use xlink:href="#DejaVuSans-72" transform="translate(1128.511719 0)"/>
     <use xlink:href="#DejaVuSans-6f" transform="translate(1167.375 0)"/>
     <use xlink:href="#DejaVuSans-6e" transform="translate(1228.556641 0)"/>
     <use xlink:href="#DejaVuSans-6d" transform="translate(1291.935547 0)"/>
     <use xlink:href="#DejaVuSans-65" transform="translate(1389.347656 0)"/>
     <use xlink:href="#DejaVuSans-6e" transform="translate(1450.871094 0)"/>
     <use xlink:href="#DejaVuSans-74" transform="translate(1514.25 0)"/>
     <use xlink:href="#DejaVuSans-20" transform="translate(1553.458984 0)"/>
     <use xlink:href="#DejaVuSans-53" transform="translate(1585.246094 0)"/>
     <use xlink:href="#DejaVuSans-74" transform="translate(1648.722656 0)"/>
     <use xlink:href="#DejaVuSans-65" transform="translate(1687.931641 0)"/>
     <use xlink:href="#DejaVuSans-70" transform="translate(1749.455078 0)"/>
     <use xlink:href="#DejaVuSans-73" transform="translate(1812.931641 0)"/>
    </g>
   </g>
   <g id="legend_1">
    <g id="line2d_31">
     <path d="M 304.832279 75.404879 
L 314.832279 75.404879 
L 324.832279 75.404879 
" style="fill: none; stroke: #9a9a9a; stroke-width: 2.4; stroke-linecap: square"/>
    </g>
    <g id="text_12">
     <!-- GAT-OFF -->
     <g transform="translate(332.832279 78.904879) scale(0.1 -0.1)">
      <defs>
       <path id="DejaVuSans-47" d="M 3809 666 
L 3809 1919 
L 2778 1919 
L 2778 2438 
L 4434 2438 
L 4434 434 
Q 4069 175 3628 42 
Q 3188 -91 2688 -91 
Q 1594 -91 976 548 
Q 359 1188 359 2328 
Q 359 3472 976 4111 
Q 1594 4750 2688 4750 
Q 3144 4750 3555 4637 
Q 3966 4525 4313 4306 
L 4313 3634 
Q 3963 3931 3569 4081 
Q 3175 4231 2741 4231 
Q 1884 4231 1454 3753 
Q 1025 3275 1025 2328 
Q 1025 1384 1454 906 
Q 1884 428 2741 428 
Q 3075 428 3337 486 
Q 3600 544 3809 666 
z
" transform="scale(0.015625)"/>
       <path id="DejaVuSans-41" d="M 2188 4044 
L 1331 1722 
L 3047 1722 
L 2188 4044 
z
M 1831 4666 
L 2547 4666 
L 4325 0 
L 3669 0 
L 3244 1197 
L 1141 1197 
L 716 0 
L 50 0 
L 1831 4666 
z
" transform="scale(0.015625)"/>
       <path id="DejaVuSans-54" d="M -19 4666 
L 3928 4666 
L 3928 4134 
L 2272 4134 
L 2272 0 
L 1638 0 
L 1638 4134 
L -19 4134 
L -19 4666 
z
" transform="scale(0.015625)"/>
       <path id="DejaVuSans-2d" d="M 313 2009 
L 1997 2009 
L 1997 1497 
L 313 1497 
L 313 2009 
z
" transform="scale(0.015625)"/>
       <path id="DejaVuSans-4f" d="M 2522 4238 
Q 1834 4238 1429 3725 
Q 1025 3213 1025 2328 
Q 1025 1447 1429 934 
Q 1834 422 2522 422 
Q 3209 422 3611 934 
Q 4013 1447 4013 2328 
Q 4013 3213 3611 3725 
Q 3209 4238 2522 4238 
z
M 2522 4750 
Q 3503 4750 4090 4092 
Q 4678 3434 4678 2328 
Q 4678 1225 4090 567 
Q 3503 -91 2522 -91 
Q 1538 -91 948 565 
Q 359 1222 359 2328 
Q 359 3434 948 4092 
Q 1538 4750 2522 4750 
z
" transform="scale(0.015625)"/>
       <path id="DejaVuSans-46" d="M 628 4666 
L 3309 4666 
L 3309 4134 
L 1259 4134 
L 1259 2759 
L 3109 2759 
L 3109 2228 
L 1259 2228 
L 1259 0 
L 628 0 
L 628 4666 
z
" transform="scale(0.015625)"/>
      </defs>
      <use xlink:href="#DejaVuSans-47"/>
      <use xlink:href="#DejaVuSans-41" transform="translate(77.490234 0)"/>
      <use xlink:href="#DejaVuSans-54" transform="translate(138.148438 0)"/>
      <use xlink:href="#DejaVuSans-2d" transform="translate(190.107422 0)"/>
      <use xlink:href="#DejaVuSans-4f" transform="translate(228.941406 0)"/>
      <use xlink:href="#DejaVuSans-46" transform="translate(307.652344 0)"/>
      <use xlink:href="#DejaVuSans-46" transform="translate(365.171875 0)"/>
     </g>
    </g>
    <g id="line2d_32">
     <path d="M 395.099466 75.404879 
L 405.099466 75.404879 
L 415.099466 75.404879 
" style="fill: none; stroke: #4c78a8; stroke-width: 2.4; stroke-linecap: square"/>
    </g>
    <g id="text_13">
     <!-- GAT-ON -->
     <g transform="translate(423.099466 78.904879) scale(0.1 -0.1)">
      <defs>
       <path id="DejaVuSans-4e" d="M 628 4666 
L 1478 4666 
L 3547 763 
L 3547 4666 
L 4159 4666 
L 4159 0 
L 3309 0 
L 1241 3903 
L 1241 0 
L 628 0 
L 628 4666 
z
" transform="scale(0.015625)"/>
      </defs>
      <use xlink:href="#DejaVuSans-47"/>
      <use xlink:href="#DejaVuSans-41" transform="translate(77.490234 0)"/>
      <use xlink:href="#DejaVuSans-54" transform="translate(138.148438 0)"/>
      <use xlink:href="#DejaVuSans-2d" transform="translate(190.107422 0)"/>
      <use xlink:href="#DejaVuSans-4f" transform="translate(228.941406 0)"/>
      <use xlink:href="#DejaVuSans-4e" transform="translate(307.652344 0)"/>
     </g>
    </g>
    <g id="line2d_33">
     <path d="M 481.344779 75.404879 
L 491.344779 75.404879 
L 501.344779 75.404879 
" style="fill: none; stroke: #f58518; stroke-width: 2.4; stroke-linecap: square"/>
    </g>
    <g id="text_14">
     <!-- GAT-CIR -->
     <g transform="translate(509.344779 78.904879) scale(0.1 -0.1)">
      <defs>
       <path id="DejaVuSans-49" d="M 628 4666 
L 1259 4666 
L 1259 0 
L 628 0 
L 628 4666 
z
" transform="scale(0.015625)"/>
      </defs>
      <use xlink:href="#DejaVuSans-47"/>
      <use xlink:href="#DejaVuSans-41" transform="translate(77.490234 0)"/>
      <use xlink:href="#DejaVuSans-54" transform="translate(138.148438 0)"/>
      <use xlink:href="#DejaVuSans-2d" transform="translate(190.107422 0)"/>
      <use xlink:href="#DejaVuSans-43" transform="translate(226.191406 0)"/>
      <use xlink:href="#DejaVuSans-49" transform="translate(296.015625 0)"/>
      <use xlink:href="#DejaVuSans-52" transform="translate(325.507812 0)"/>
     </g>
    </g>
   </g>
  </g>
  <g id="axes_2">
   <g id="patch_5">
    <path d="M 46.965625 566.846588 
L 806.70987 566.846588 
L 806.70987 347.736094 
L 46.965625 347.736094 
z
" style="fill: #ffffff"/>
   </g>
   <g id="matplotlib.axis_3">
    <g id="xtick_7">
     <g id="line2d_34">
      <path d="M 46.965625 566.846588 
L 46.965625 347.736094 
" clip-path="url(#pa6501fac40)" style="fill: none; stroke: #b0b0b0; stroke-opacity: 0.22; stroke-width: 0.8; stroke-linecap: square"/>
     </g>
     <g id="line2d_35">
      <g>
       <use xlink:href="#ma846275262" x="46.965625" y="566.846588" style="stroke: #000000; stroke-width: 0.8"/>
      </g>
     </g>
     <g id="text_15">
      <!-- 0 -->
      <g transform="translate(43.784375 581.445026) scale(0.1 -0.1)">
       <use xlink:href="#DejaVuSans-30"/>
      </g>
     </g>
    </g>
    <g id="xtick_8">
     <g id="line2d_36">
      <path d="M 198.914474 566.846588 
L 198.914474 347.736094 
" clip-path="url(#pa6501fac40)" style="fill: none; stroke: #b0b0b0; stroke-opacity: 0.22; stroke-width: 0.8; stroke-linecap: square"/>
     </g>
     <g id="line2d_37">
      <g>
       <use xlink:href="#ma846275262" x="198.914474" y="566.846588" style="stroke: #000000; stroke-width: 0.8"/>
      </g>
     </g>
     <g id="text_16">
      <!-- 100 -->
      <g transform="translate(189.370724 581.445026) scale(0.1 -0.1)">
       <use xlink:href="#DejaVuSans-31"/>
       <use xlink:href="#DejaVuSans-30" transform="translate(63.623047 0)"/>
       <use xlink:href="#DejaVuSans-30" transform="translate(127.246094 0)"/>
      </g>
     </g>
    </g>
    <g id="xtick_9">
     <g id="line2d_38">
      <path d="M 350.863323 566.846588 
L 350.863323 347.736094 
" clip-path="url(#pa6501fac40)" style="fill: none; stroke: #b0b0b0; stroke-opacity: 0.22; stroke-width: 0.8; stroke-linecap: square"/>
     </g>
     <g id="line2d_39">
      <g>
       <use xlink:href="#ma846275262" x="350.863323" y="566.846588" style="stroke: #000000; stroke-width: 0.8"/>
      </g>
     </g>
     <g id="text_17">
      <!-- 200 -->
      <g transform="translate(341.319573 581.445026) scale(0.1 -0.1)">
       <use xlink:href="#DejaVuSans-32"/>
       <use xlink:href="#DejaVuSans-30" transform="translate(63.623047 0)"/>
       <use xlink:href="#DejaVuSans-30" transform="translate(127.246094 0)"/>
      </g>
     </g>
    </g>
    <g id="xtick_10">
     <g id="line2d_40">
      <path d="M 502.812172 566.846588 
L 502.812172 347.736094 
" clip-path="url(#pa6501fac40)" style="fill: none; stroke: #b0b0b0; stroke-opacity: 0.22; stroke-width: 0.8; stroke-linecap: square"/>
     </g>
     <g id="line2d_41">
      <g>
       <use xlink:href="#ma846275262" x="502.812172" y="566.846588" style="stroke: #000000; stroke-width: 0.8"/>
      </g>
     </g>
     <g id="text_18">
      <!-- 300 -->
      <g transform="translate(493.268422 581.445026) scale(0.1 -0.1)">
       <defs>
        <path id="DejaVuSans-33" d="M 2597 2516 
Q 3050 2419 3304 2112 
Q 3559 1806 3559 1356 
Q 3559 666 3084 287 
Q 2609 -91 1734 -91 
Q 1441 -91 1130 -33 
Q 819 25 488 141 
L 488 750 
Q 750 597 1062 519 
Q 1375 441 1716 441 
Q 2309 441 2620 675 
Q 2931 909 2931 1356 
Q 2931 1769 2642 2001 
Q 2353 2234 1838 2234 
L 1294 2234 
L 1294 2753 
L 1863 2753 
Q 2328 2753 2575 2939 
Q 2822 3125 2822 3475 
Q 2822 3834 2567 4026 
Q 2313 4219 1838 4219 
Q 1578 4219 1281 4162 
Q 984 4106 628 3988 
L 628 4550 
Q 988 4650 1302 4700 
Q 1616 4750 1894 4750 
Q 2613 4750 3031 4423 
Q 3450 4097 3450 3541 
Q 3450 3153 3228 2886 
Q 3006 2619 2597 2516 
z
" transform="scale(0.015625)"/>
       </defs>
       <use xlink:href="#DejaVuSans-33"/>
       <use xlink:href="#DejaVuSans-30" transform="translate(63.623047 0)"/>
       <use xlink:href="#DejaVuSans-30" transform="translate(127.246094 0)"/>
      </g>
     </g>
    </g>
    <g id="xtick_11">
     <g id="line2d_42">
      <path d="M 654.761021 566.846588 
L 654.761021 347.736094 
" clip-path="url(#pa6501fac40)" style="fill: none; stroke: #b0b0b0; stroke-opacity: 0.22; stroke-width: 0.8; stroke-linecap: square"/>
     </g>
     <g id="line2d_43">
      <g>
       <use xlink:href="#ma846275262" x="654.761021" y="566.846588" style="stroke: #000000; stroke-width: 0.8"/>
      </g>
     </g>
     <g id="text_19">
      <!-- 400 -->
      <g transform="translate(645.217271 581.445026) scale(0.1 -0.1)">
       <use xlink:href="#DejaVuSans-34"/>
       <use xlink:href="#DejaVuSans-30" transform="translate(63.623047 0)"/>
       <use xlink:href="#DejaVuSans-30" transform="translate(127.246094 0)"/>
      </g>
     </g>
    </g>
    <g id="xtick_12">
     <g id="line2d_44">
      <path d="M 806.70987 566.846588 
L 806.70987 347.736094 
" clip-path="url(#pa6501fac40)" style="fill: none; stroke: #b0b0b0; stroke-opacity: 0.22; stroke-width: 0.8; stroke-linecap: square"/>
     </g>
     <g id="line2d_45">
      <g>
       <use xlink:href="#ma846275262" x="806.70987" y="566.846588" style="stroke: #000000; stroke-width: 0.8"/>
      </g>
     </g>
     <g id="text_20">
      <!-- 500 -->
      <g transform="translate(797.16612 581.445026) scale(0.1 -0.1)">
       <use xlink:href="#DejaVuSans-35"/>
       <use xlink:href="#DejaVuSans-30" transform="translate(63.623047 0)"/>
       <use xlink:href="#DejaVuSans-30" transform="translate(127.246094 0)"/>
      </g>
     </g>
    </g>
    <g id="text_21">
     <!-- Environment Steps -->
     <g transform="translate(379.335404 595.123151) scale(0.1 -0.1)">
      <use xlink:href="#DejaVuSans-45"/>
      <use xlink:href="#DejaVuSans-6e" transform="translate(63.183594 0)"/>
      <use xlink:href="#DejaVuSans-76" transform="translate(126.5625 0)"/>
      <use xlink:href="#DejaVuSans-69" transform="translate(185.742188 0)"/>
      <use xlink:href="#DejaVuSans-72" transform="translate(213.525391 0)"/>
      <use xlink:href="#DejaVuSans-6f" transform="translate(252.388672 0)"/>
      <use xlink:href="#DejaVuSans-6e" transform="translate(313.570312 0)"/>
      <use xlink:href="#DejaVuSans-6d" transform="translate(376.949219 0)"/>
      <use xlink:href="#DejaVuSans-65" transform="translate(474.361328 0)"/>
      <use xlink:href="#DejaVuSans-6e" transform="translate(535.884766 0)"/>
      <use xlink:href="#DejaVuSans-74" transform="translate(599.263672 0)"/>
      <use xlink:href="#DejaVuSans-20" transform="translate(638.472656 0)"/>
      <use xlink:href="#DejaVuSans-53" transform="translate(670.259766 0)"/>
      <use xlink:href="#DejaVuSans-74" transform="translate(733.736328 0)"/>
      <use xlink:href="#DejaVuSans-65" transform="translate(772.945312 0)"/>
      <use xlink:href="#DejaVuSans-70" transform="translate(834.46875 0)"/>
      <use xlink:href="#DejaVuSans-73" transform="translate(897.945312 0)"/>
     </g>
    </g>
   </g>
   <g id="matplotlib.axis_4">
    <g id="ytick_7">
     <g id="line2d_46">
      <path d="M 46.965625 566.846588 
L 806.70987 566.846588 
" clip-path="url(#pa6501fac40)" style="fill: none; stroke: #b0b0b0; stroke-opacity: 0.22; stroke-width: 0.8; stroke-linecap: square"/>
     </g>
     <g id="line2d_47">
      <g>
       <use xlink:href="#md1301402a8" x="46.965625" y="566.846588" style="stroke: #000000; stroke-width: 0.8"/>
      </g>
     </g>
     <g id="text_22">
      <!-- 0 -->
      <g transform="translate(33.603125 570.645807) scale(0.1 -0.1)">
       <use xlink:href="#DejaVuSans-30"/>
      </g>
     </g>
    </g>
    <g id="ytick_8">
     <g id="line2d_48">
      <path d="M 46.965625 523.024489 
L 806.70987 523.024489 
" clip-path="url(#pa6501fac40)" style="fill: none; stroke: #b0b0b0; stroke-opacity: 0.22; stroke-width: 0.8; stroke-linecap: square"/>
     </g>
     <g id="line2d_49">
      <g>
       <use xlink:href="#md1301402a8" x="46.965625" y="523.024489" style="stroke: #000000; stroke-width: 0.8"/>
      </g>
     </g>
     <g id="text_23">
      <!-- 20 -->
      <g transform="translate(27.240625 526.823708) scale(0.1 -0.1)">
       <use xlink:href="#DejaVuSans-32"/>
       <use xlink:href="#DejaVuSans-30" transform="translate(63.623047 0)"/>
      </g>
     </g>
    </g>
    <g id="ytick_9">
     <g id="line2d_50">
      <path d="M 46.965625 479.202391 
L 806.70987 479.202391 
" clip-path="url(#pa6501fac40)" style="fill: none; stroke: #b0b0b0; stroke-opacity: 0.22; stroke-width: 0.8; stroke-linecap: square"/>
     </g>
     <g id="line2d_51">
      <g>
       <use xlink:href="#md1301402a8" x="46.965625" y="479.202391" style="stroke: #000000; stroke-width: 0.8"/>
      </g>
     </g>
     <g id="text_24">
      <!-- 40 -->
      <g transform="translate(27.240625 483.001609) scale(0.1 -0.1)">
       <use xlink:href="#DejaVuSans-34"/>
       <use xlink:href="#DejaVuSans-30" transform="translate(63.623047 0)"/>
      </g>
     </g>
    </g>
    <g id="ytick_10">
     <g id="line2d_52">
      <path d="M 46.965625 435.380292 
L 806.70987 435.380292 
" clip-path="url(#pa6501fac40)" style="fill: none; stroke: #b0b0b0; stroke-opacity: 0.22; stroke-width: 0.8; stroke-linecap: square"/>
     </g>
     <g id="line2d_53">
      <g>
       <use xlink:href="#md1301402a8" x="46.965625" y="435.380292" style="stroke: #000000; stroke-width: 0.8"/>
      </g>
     </g>
     <g id="text_25">
      <!-- 60 -->
      <g transform="translate(27.240625 439.179511) scale(0.1 -0.1)">
       <use xlink:href="#DejaVuSans-36"/>
       <use xlink:href="#DejaVuSans-30" transform="translate(63.623047 0)"/>
      </g>
     </g>
    </g>
    <g id="ytick_11">
     <g id="line2d_54">
      <path d="M 46.965625 391.558193 
L 806.70987 391.558193 
" clip-path="url(#pa6501fac40)" style="fill: none; stroke: #b0b0b0; stroke-opacity: 0.22; stroke-width: 0.8; stroke-linecap: square"/>
     </g>
     <g id="line2d_55">
      <g>
       <use xlink:href="#md1301402a8" x="46.965625" y="391.558193" style="stroke: #000000; stroke-width: 0.8"/>
      </g>
     </g>
     <g id="text_26">
      <!-- 80 -->
      <g transform="translate(27.240625 395.357412) scale(0.1 -0.1)">
       <use xlink:href="#DejaVuSans-38"/>
       <use xlink:href="#DejaVuSans-30" transform="translate(63.623047 0)"/>
      </g>
     </g>
    </g>
    <g id="ytick_12">
     <g id="line2d_56">
      <path d="M 46.965625 347.736094 
L 806.70987 347.736094 
" clip-path="url(#pa6501fac40)" style="fill: none; stroke: #b0b0b0; stroke-opacity: 0.22; stroke-width: 0.8; stroke-linecap: square"/>
     </g>
     <g id="line2d_57">
      <g>
       <use xlink:href="#md1301402a8" x="46.965625" y="347.736094" style="stroke: #000000; stroke-width: 0.8"/>
      </g>
     </g>
     <g id="text_27">
      <!-- 100 -->
      <g transform="translate(20.878125 351.535313) scale(0.1 -0.1)">
       <use xlink:href="#DejaVuSans-31"/>
       <use xlink:href="#DejaVuSans-30" transform="translate(63.623047 0)"/>
       <use xlink:href="#DejaVuSans-30" transform="translate(127.246094 0)"/>
      </g>
     </g>
    </g>
    <g id="text_28">
     <!-- Cumulative Repeat Ratio (%) -->
     <g transform="translate(14.798438 529.683529) rotate(-90) scale(0.1 -0.1)">
      <defs>
       <path id="DejaVuSans-75" d="M 544 1381 
L 544 3500 
L 1119 3500 
L 1119 1403 
Q 1119 906 1312 657 
Q 1506 409 1894 409 
Q 2359 409 2629 706 
Q 2900 1003 2900 1516 
L 2900 3500 
L 3475 3500 
L 3475 0 
L 2900 0 
L 2900 538 
Q 2691 219 2414 64 
Q 2138 -91 1772 -91 
Q 1169 -91 856 284 
Q 544 659 544 1381 
z
M 1991 3584 
L 1991 3584 
z
" transform="scale(0.015625)"/>
       <path id="DejaVuSans-6c" d="M 603 4863 
L 1178 4863 
L 1178 0 
L 603 0 
L 603 4863 
z
" transform="scale(0.015625)"/>
      </defs>
      <use xlink:href="#DejaVuSans-43"/>
      <use xlink:href="#DejaVuSans-75" transform="translate(69.824219 0)"/>
      <use xlink:href="#DejaVuSans-6d" transform="translate(133.203125 0)"/>
      <use xlink:href="#DejaVuSans-75" transform="translate(230.615234 0)"/>
      <use xlink:href="#DejaVuSans-6c" transform="translate(293.994141 0)"/>
      <use xlink:href="#DejaVuSans-61" transform="translate(321.777344 0)"/>
      <use xlink:href="#DejaVuSans-74" transform="translate(383.056641 0)"/>
      <use xlink:href="#DejaVuSans-69" transform="translate(422.265625 0)"/>
      <use xlink:href="#DejaVuSans-76" transform="translate(450.048828 0)"/>
      <use xlink:href="#DejaVuSans-65" transform="translate(509.228516 0)"/>
      <use xlink:href="#DejaVuSans-20" transform="translate(570.751953 0)"/>
      <use xlink:href="#DejaVuSans-52" transform="translate(602.539062 0)"/>
      <use xlink:href="#DejaVuSans-65" transform="translate(667.521484 0)"/>
      <use xlink:href="#DejaVuSans-70" transform="translate(729.044922 0)"/>
      <use xlink:href="#DejaVuSans-65" transform="translate(792.521484 0)"/>
      <use xlink:href="#DejaVuSans-61" transform="translate(854.044922 0)"/>
      <use xlink:href="#DejaVuSans-74" transform="translate(915.324219 0)"/>
      <use xlink:href="#DejaVuSans-20" transform="translate(954.533203 0)"/>
      <use xlink:href="#DejaVuSans-52" transform="translate(986.320312 0)"/>
      <use xlink:href="#DejaVuSans-61" transform="translate(1053.552734 0)"/>
      <use xlink:href="#DejaVuSans-74" transform="translate(1114.832031 0)"/>
      <use xlink:href="#DejaVuSans-69" transform="translate(1154.041016 0)"/>
      <use xlink:href="#DejaVuSans-6f" transform="translate(1181.824219 0)"/>
      <use xlink:href="#DejaVuSans-20" transform="translate(1243.005859 0)"/>
      <use xlink:href="#DejaVuSans-28" transform="translate(1274.792969 0)"/>
      <use xlink:href="#DejaVuSans-25" transform="translate(1313.806641 0)"/>
      <use xlink:href="#DejaVuSans-29" transform="translate(1408.826172 0)"/>
     </g>
    </g>
   </g>
   <g id="line2d_58">
    <path d="M 46.965625 402.513718 
L 48.485113 428.533089 
L 50.004602 436.293252 
L 51.52409 440.173334 
L 53.043579 451.265803 
L 56.082556 465.507985 
L 57.602044 474.751709 
L 59.121533 482.245592 
L 60.641021 488.788475 
L 62.16051 494.141742 
L 63.679998 498.602799 
L 65.199487 502.588222 
L 68.238464 509.147491 
L 69.757952 511.897785 
L 72.796929 516.329447 
L 74.316418 518.267485 
L 77.355395 521.589837 
L 80.394372 524.334389 
L 81.91386 525.19277 
L 83.433349 526.201592 
L 84.952837 526.922128 
L 89.511303 528.124475 
L 91.030791 528.593548 
L 92.55028 528.855656 
L 94.069768 528.673432 
L 95.589257 528.751241 
L 98.628234 528.580506 
L 100.147722 528.121852 
L 103.186699 527.565266 
L 106.225676 527.269755 
L 107.745165 527.233014 
L 112.30363 526.821575 
L 115.342607 525.644289 
L 118.381584 524.85041 
L 122.940049 523.131897 
L 124.459538 522.497781 
L 130.537492 519.160711 
L 132.05698 518.555789 
L 135.095957 517.593149 
L 139.654423 516.04476 
L 141.173911 515.45996 
L 142.6934 515.064616 
L 144.212888 514.512889 
L 148.771354 513.478683 
L 151.810331 512.655868 
L 174.602658 504.367875 
L 180.680612 501.390406 
L 183.719589 500.150317 
L 198.914474 493.818796 
L 203.472939 492.343753 
L 208.031405 490.900229 
L 221.706801 485.74265 
L 227.784755 483.059648 
L 229.304244 482.552427 
L 232.343221 481.362321 
L 241.460152 478.16204 
L 252.096571 473.684351 
L 291.603272 459.725902 
L 320.473553 450.89053 
L 323.51253 450.017591 
L 334.148949 446.970084 
L 346.304857 443.610768 
L 355.421788 441.287683 
L 364.538719 439.173227 
L 373.65565 437.050594 
L 390.370024 433.422381 
L 401.006443 431.432679 
L 420.759793 428.33975 
L 438.993655 425.619107 
L 446.591098 424.604324 
L 461.785983 422.70422 
L 502.812172 418.908375 
L 521.046034 417.652109 
L 536.240919 416.908434 
L 559.033246 415.893301 
L 575.747619 415.198051 
L 584.86455 414.834179 
L 654.761021 411.964222 
L 712.501583 410.15289 
L 806.70987 407.986144 
L 806.70987 407.986144 
" clip-path="url(#pa6501fac40)" style="fill: none; stroke: #9a9a9a; stroke-width: 2.4; stroke-linecap: square"/>
   </g>
   <g id="line2d_59">
    <path d="M 46.965625 402.513718 
L 48.485113 428.533089 
L 50.004602 436.293252 
L 51.52409 440.173334 
L 53.043579 451.813579 
L 54.563067 467.790386 
L 56.082556 479.593659 
L 57.602044 488.788475 
L 59.121533 495.939998 
L 60.641021 501.661216 
L 62.16051 506.342213 
L 63.679998 510.243044 
L 65.199487 513.543747 
L 68.238464 518.64228 
L 69.757952 520.799148 
L 72.796929 524.24177 
L 75.835906 527.132811 
L 78.874883 529.498209 
L 81.91386 531.469373 
L 84.952837 533.137281 
L 89.511303 535.0189 
L 91.030791 535.532047 
L 94.069768 536.290945 
L 95.589257 536.220917 
L 97.108745 536.316119 
L 98.628234 536.014612 
L 100.147722 536.262415 
L 101.667211 536.126705 
L 103.186699 536.502668 
L 106.225676 536.855839 
L 107.745165 536.986103 
L 109.264653 536.849318 
L 110.784142 536.973675 
L 112.30363 536.656648 
L 113.823119 536.475439 
L 116.862096 535.728236 
L 125.979026 533.204859 
L 127.498515 532.813454 
L 132.05698 531.193082 
L 133.576469 530.863356 
L 138.134934 529.310446 
L 142.6934 528.545047 
L 144.212888 528.460115 
L 145.732377 528.211764 
L 150.290842 526.835107 
L 151.810331 526.506781 
L 157.888285 524.504966 
L 163.966239 522.287098 
L 170.044193 520.519415 
L 171.563681 519.955623 
L 174.602658 519.093389 
L 176.122147 518.502151 
L 180.680612 517.362083 
L 185.239078 515.641418 
L 186.758566 515.249601 
L 189.797543 514.087088 
L 191.317031 513.638115 
L 197.394985 511.411633 
L 204.992428 508.756223 
L 206.511916 508.141512 
L 208.031405 507.38471 
L 211.070382 506.239419 
L 212.58987 505.669942 
L 215.628847 504.316953 
L 217.148336 503.731132 
L 220.187313 502.232809 
L 221.706801 501.632883 
L 239.940663 492.682821 
L 244.499129 490.596973 
L 247.538106 489.416564 
L 249.057594 488.788475 
L 252.096571 487.358618 
L 253.61606 486.799287 
L 264.252479 481.941272 
L 282.486341 474.434443 
L 288.564295 472.472017 
L 293.12276 471.245641 
L 299.200714 469.86038 
L 305.278668 468.815928 
L 323.51253 466.390444 
L 328.070996 466.09383 
L 338.707415 465.802378 
L 349.343834 465.665292 
L 370.616673 465.302838 
L 432.915701 465.069769 
L 461.785983 464.875084 
L 566.630688 464.789375 
L 595.50097 464.7532 
L 631.968693 464.659938 
L 688.189768 464.537704 
L 806.70987 464.194224 
L 806.70987 464.194224 
" clip-path="url(#pa6501fac40)" style="fill: none; stroke: #4c78a8; stroke-width: 2.4; stroke-linecap: square"/>
   </g>
   <g id="line2d_60">
    <path d="M 46.965625 402.513718 
L 48.485113 428.533089 
L 50.004602 436.293252 
L 51.52409 440.173334 
L 53.043579 451.813579 
L 54.563067 467.333905 
L 56.082556 479.202391 
L 57.602044 488.446115 
L 59.121533 495.331358 
L 60.641021 500.839552 
L 62.16051 505.595246 
L 63.679998 509.558324 
L 65.199487 512.911697 
L 66.718975 515.394749 
L 68.238464 517.364135 
L 69.757952 519.087348 
L 74.316418 523.024489 
L 77.355395 525.372102 
L 80.394372 527.311434 
L 83.433349 528.940473 
L 86.472326 530.328173 
L 89.511303 531.335577 
L 98.628234 533.432238 
L 101.667211 533.831966 
L 103.186699 533.980014 
L 112.30363 533.482036 
L 113.823119 533.067054 
L 116.862096 532.639711 
L 119.901072 532.079566 
L 121.420561 531.569799 
L 124.459538 531.03045 
L 125.979026 530.672686 
L 127.498515 530.480333 
L 132.05698 529.559364 
L 135.095957 529.152156 
L 141.173911 527.937086 
L 142.6934 527.731941 
L 144.212888 527.280289 
L 147.251865 526.785341 
L 148.771354 526.367536 
L 151.810331 525.763371 
L 153.329819 525.49334 
L 154.849308 525.00257 
L 157.888285 524.541978 
L 159.407773 524.229597 
L 160.927262 524.177703 
L 163.966239 523.586311 
L 165.485727 523.128498 
L 171.563681 520.615594 
L 177.641635 518.711539 
L 180.680612 517.669823 
L 186.758566 515.809157 
L 188.278055 515.507135 
L 189.797543 515.038489 
L 192.83652 514.469015 
L 195.875497 513.424573 
L 197.394985 512.753685 
L 203.472939 510.462506 
L 208.031405 508.58777 
L 211.070382 507.596296 
L 212.58987 506.989585 
L 217.148336 504.749123 
L 220.187313 503.280729 
L 223.22629 501.72208 
L 224.745778 501.020597 
L 229.304244 499.393151 
L 232.343221 498.240955 
L 236.901686 496.179106 
L 238.421175 495.484716 
L 239.940663 494.92956 
L 241.460152 494.213158 
L 244.499129 493.001334 
L 255.135548 488.432409 
L 258.174525 487.087531 
L 262.73299 485.257598 
L 268.810944 482.963039 
L 279.447364 480.309162 
L 284.005829 479.72262 
L 291.603272 479.027133 
L 325.032019 477.551702 
L 331.109973 477.502599 
L 364.538719 477.552548 
L 384.29207 477.387619 
L 402.525932 477.222883 
L 410.123374 477.174322 
L 542.318873 476.853473 
L 631.968693 476.798943 
L 665.39744 476.7707 
L 710.982095 476.690145 
L 779.359077 476.567028 
L 806.70987 476.567028 
L 806.70987 476.567028 
" clip-path="url(#pa6501fac40)" style="fill: none; stroke: #f58518; stroke-width: 2.4; stroke-linecap: square"/>
   </g>
   <g id="patch_6">
    <path d="M 46.965625 566.846588 
L 46.965625 347.736094 
" style="fill: none; stroke: #000000; stroke-width: 0.8; stroke-linejoin: miter; stroke-linecap: square"/>
   </g>
   <g id="patch_7">
    <path d="M 46.965625 566.846588 
L 806.70987 566.846588 
" style="fill: none; stroke: #000000; stroke-width: 0.8; stroke-linejoin: miter; stroke-linecap: square"/>
   </g>
   <g id="text_29">
    <!-- Cumulative Repeat Ratio vs Environment Steps -->
    <g transform="translate(284.763372 339.736094) scale(0.12 -0.12)">
     <use xlink:href="#DejaVuSans-43"/>
     <use xlink:href="#DejaVuSans-75" transform="translate(69.824219 0)"/>
     <use xlink:href="#DejaVuSans-6d" transform="translate(133.203125 0)"/>
     <use xlink:href="#DejaVuSans-75" transform="translate(230.615234 0)"/>
     <use xlink:href="#DejaVuSans-6c" transform="translate(293.994141 0)"/>
     <use xlink:href="#DejaVuSans-61" transform="translate(321.777344 0)"/>
     <use xlink:href="#DejaVuSans-74" transform="translate(383.056641 0)"/>
     <use xlink:href="#DejaVuSans-69" transform="translate(422.265625 0)"/>
     <use xlink:href="#DejaVuSans-76" transform="translate(450.048828 0)"/>
     <use xlink:href="#DejaVuSans-65" transform="translate(509.228516 0)"/>
     <use xlink:href="#DejaVuSans-20" transform="translate(570.751953 0)"/>
     <use xlink:href="#DejaVuSans-52" transform="translate(602.539062 0)"/>
     <use xlink:href="#DejaVuSans-65" transform="translate(667.521484 0)"/>
     <use xlink:href="#DejaVuSans-70" transform="translate(729.044922 0)"/>
     <use xlink:href="#DejaVuSans-65" transform="translate(792.521484 0)"/>
     <use xlink:href="#DejaVuSans-61" transform="translate(854.044922 0)"/>
     <use xlink:href="#DejaVuSans-74" transform="translate(915.324219 0)"/>
     <use xlink:href="#DejaVuSans-20" transform="translate(954.533203 0)"/>
     <use xlink:href="#DejaVuSans-52" transform="translate(986.320312 0)"/>
     <use xlink:href="#DejaVuSans-61" transform="translate(1053.552734 0)"/>
     <use xlink:href="#DejaVuSans-74" transform="translate(1114.832031 0)"/>
     <use xlink:href="#DejaVuSans-69" transform="translate(1154.041016 0)"/>
     <use xlink:href="#DejaVuSans-6f" transform="translate(1181.824219 0)"/>
     <use xlink:href="#DejaVuSans-20" transform="translate(1243.005859 0)"/>
     <use xlink:href="#DejaVuSans-76" transform="translate(1274.792969 0)"/>
     <use xlink:href="#DejaVuSans-73" transform="translate(1333.972656 0)"/>
     <use xlink:href="#DejaVuSans-20" transform="translate(1386.072266 0)"/>
     <use xlink:href="#DejaVuSans-45" transform="translate(1417.859375 0)"/>
     <use xlink:href="#DejaVuSans-6e" transform="translate(1481.042969 0)"/>
     <use xlink:href="#DejaVuSans-76" transform="translate(1544.421875 0)"/>
     <use xlink:href="#DejaVuSans-69" transform="translate(1603.601562 0)"/>
     <use xlink:href="#DejaVuSans-72" transform="translate(1631.384766 0)"/>
     <use xlink:href="#DejaVuSans-6f" transform="translate(1670.248047 0)"/>
     <use xlink:href="#DejaVuSans-6e" transform="translate(1731.429688 0)"/>
     <use xlink:href="#DejaVuSans-6d" transform="translate(1794.808594 0)"/>
     <use xlink:href="#DejaVuSans-65" transform="translate(1892.220703 0)"/>
     <use xlink:href="#DejaVuSans-6e" transform="translate(1953.744141 0)"/>
     <use xlink:href="#DejaVuSans-74" transform="translate(2017.123047 0)"/>
     <use xlink:href="#DejaVuSans-20" transform="translate(2056.332031 0)"/>
     <use xlink:href="#DejaVuSans-53" transform="translate(2088.119141 0)"/>
     <use xlink:href="#DejaVuSans-74" transform="translate(2151.595703 0)"/>
     <use xlink:href="#DejaVuSans-65" transform="translate(2190.804688 0)"/>
     <use xlink:href="#DejaVuSans-70" transform="translate(2252.328125 0)"/>
     <use xlink:href="#DejaVuSans-73" transform="translate(2315.804688 0)"/>
    </g>
   </g>
  </g>
  <g id="text_30">
   <!-- Coverage and Repeat Curves on Same Random Maps -->
   <g transform="translate(212.134881 17.837812) scale(0.14 -0.14)">
    <defs>
     <path id="DejaVuSans-Bold-43" d="M 4288 256 
Q 3956 84 3597 -3 
Q 3238 -91 2847 -91 
Q 1681 -91 1000 561 
Q 319 1213 319 2328 
Q 319 3447 1000 4098 
Q 1681 4750 2847 4750 
Q 3238 4750 3597 4662 
Q 3956 4575 4288 4403 
L 4288 3438 
Q 3953 3666 3628 3772 
Q 3303 3878 2944 3878 
Q 2300 3878 1931 3465 
Q 1563 3053 1563 2328 
Q 1563 1606 1931 1193 
Q 2300 781 2944 781 
Q 3303 781 3628 887 
Q 3953 994 4288 1222 
L 4288 256 
z
" transform="scale(0.015625)"/>
     <path id="DejaVuSans-Bold-6f" d="M 2203 2784 
Q 1831 2784 1636 2517 
Q 1441 2250 1441 1747 
Q 1441 1244 1636 976 
Q 1831 709 2203 709 
Q 2569 709 2762 976 
Q 2956 1244 2956 1747 
Q 2956 2250 2762 2517 
Q 2569 2784 2203 2784 
z
M 2203 3584 
Q 3106 3584 3614 3096 
Q 4122 2609 4122 1747 
Q 4122 884 3614 396 
Q 3106 -91 2203 -91 
Q 1297 -91 786 396 
Q 275 884 275 1747 
Q 275 2609 786 3096 
Q 1297 3584 2203 3584 
z
" transform="scale(0.015625)"/>
     <path id="DejaVuSans-Bold-76" d="M 97 3500 
L 1216 3500 
L 2088 1081 
L 2956 3500 
L 4078 3500 
L 2700 0 
L 1472 0 
L 97 3500 
z
" transform="scale(0.015625)"/>
     <path id="DejaVuSans-Bold-65" d="M 4031 1759 
L 4031 1441 
L 1416 1441 
Q 1456 1047 1700 850 
Q 1944 653 2381 653 
Q 2734 653 3104 758 
Q 3475 863 3866 1075 
L 3866 213 
Q 3469 63 3072 -14 
Q 2675 -91 2278 -91 
Q 1328 -91 801 392 
Q 275 875 275 1747 
Q 275 2603 792 3093 
Q 1309 3584 2216 3584 
Q 3041 3584 3536 3087 
Q 4031 2591 4031 1759 
z
M 2881 2131 
Q 2881 2450 2695 2645 
Q 2509 2841 2209 2841 
Q 1884 2841 1681 2658 
Q 1478 2475 1428 2131 
L 2881 2131 
z
" transform="scale(0.015625)"/>
     <path id="DejaVuSans-Bold-72" d="M 3138 2547 
Q 2991 2616 2845 2648 
Q 2700 2681 2553 2681 
Q 2122 2681 1889 2404 
Q 1656 2128 1656 1613 
L 1656 0 
L 538 0 
L 538 3500 
L 1656 3500 
L 1656 2925 
Q 1872 3269 2151 3426 
Q 2431 3584 2822 3584 
Q 2878 3584 2943 3579 
Q 3009 3575 3134 3559 
L 3138 2547 
z
" transform="scale(0.015625)"/>
     <path id="DejaVuSans-Bold-61" d="M 2106 1575 
Q 1756 1575 1579 1456 
Q 1403 1338 1403 1106 
Q 1403 894 1545 773 
Q 1688 653 1941 653 
Q 2256 653 2472 879 
Q 2688 1106 2688 1447 
L 2688 1575 
L 2106 1575 
z
M 3816 1997 
L 3816 0 
L 2688 0 
L 2688 519 
Q 2463 200 2181 54 
Q 1900 -91 1497 -91 
Q 953 -91 614 226 
Q 275 544 275 1050 
Q 275 1666 698 1953 
Q 1122 2241 2028 2241 
L 2688 2241 
L 2688 2328 
Q 2688 2594 2478 2717 
Q 2269 2841 1825 2841 
Q 1466 2841 1156 2769 
Q 847 2697 581 2553 
L 581 3406 
Q 941 3494 1303 3539 
Q 1666 3584 2028 3584 
Q 2975 3584 3395 3211 
Q 3816 2838 3816 1997 
z
" transform="scale(0.015625)"/>
     <path id="DejaVuSans-Bold-67" d="M 2919 594 
Q 2688 288 2409 144 
Q 2131 0 1766 0 
Q 1125 0 706 504 
Q 288 1009 288 1791 
Q 288 2575 706 3076 
Q 1125 3578 1766 3578 
Q 2131 3578 2409 3434 
Q 2688 3291 2919 2981 
L 2919 3500 
L 4044 3500 
L 4044 353 
Q 4044 -491 3511 -936 
Q 2978 -1381 1966 -1381 
Q 1638 -1381 1331 -1331 
Q 1025 -1281 716 -1178 
L 716 -306 
Q 1009 -475 1290 -558 
Q 1572 -641 1856 -641 
Q 2406 -641 2662 -400 
Q 2919 -159 2919 353 
L 2919 594 
z
M 2181 2772 
Q 1834 2772 1640 2515 
Q 1447 2259 1447 1791 
Q 1447 1309 1634 1061 
Q 1822 813 2181 813 
Q 2531 813 2725 1069 
Q 2919 1325 2919 1791 
Q 2919 2259 2725 2515 
Q 2531 2772 2181 2772 
z
" transform="scale(0.015625)"/>
     <path id="DejaVuSans-Bold-20" transform="scale(0.015625)"/>
     <path id="DejaVuSans-Bold-6e" d="M 4056 2131 
L 4056 0 
L 2931 0 
L 2931 347 
L 2931 1631 
Q 2931 2084 2911 2256 
Q 2891 2428 2841 2509 
Q 2775 2619 2662 2680 
Q 2550 2741 2406 2741 
Q 2056 2741 1856 2470 
Q 1656 2200 1656 1722 
L 1656 0 
L 538 0 
L 538 3500 
L 1656 3500 
L 1656 2988 
Q 1909 3294 2193 3439 
Q 2478 3584 2822 3584 
Q 3428 3584 3742 3212 
Q 4056 2841 4056 2131 
z
" transform="scale(0.015625)"/>
     <path id="DejaVuSans-Bold-64" d="M 2919 2988 
L 2919 4863 
L 4044 4863 
L 4044 0 
L 2919 0 
L 2919 506 
Q 2688 197 2409 53 
Q 2131 -91 1766 -91 
Q 1119 -91 703 423 
Q 288 938 288 1747 
Q 288 2556 703 3070 
Q 1119 3584 1766 3584 
Q 2128 3584 2408 3439 
Q 2688 3294 2919 2988 
z
M 2181 722 
Q 2541 722 2730 984 
Q 2919 1247 2919 1747 
Q 2919 2247 2730 2509 
Q 2541 2772 2181 2772 
Q 1825 2772 1636 2509 
Q 1447 2247 1447 1747 
Q 1447 1247 1636 984 
Q 1825 722 2181 722 
z
" transform="scale(0.015625)"/>
     <path id="DejaVuSans-Bold-52" d="M 2297 2597 
Q 2675 2597 2839 2737 
Q 3003 2878 3003 3200 
Q 3003 3519 2839 3656 
Q 2675 3794 2297 3794 
L 1791 3794 
L 1791 2597 
L 2297 2597 
z
M 1791 1766 
L 1791 0 
L 588 0 
L 588 4666 
L 2425 4666 
Q 3347 4666 3776 4356 
Q 4206 4047 4206 3378 
Q 4206 2916 3982 2619 
Q 3759 2322 3309 2181 
Q 3556 2125 3751 1926 
Q 3947 1728 4147 1325 
L 4800 0 
L 3519 0 
L 2950 1159 
Q 2778 1509 2601 1637 
Q 2425 1766 2131 1766 
L 1791 1766 
z
" transform="scale(0.015625)"/>
     <path id="DejaVuSans-Bold-70" d="M 1656 506 
L 1656 -1331 
L 538 -1331 
L 538 3500 
L 1656 3500 
L 1656 2988 
Q 1888 3294 2169 3439 
Q 2450 3584 2816 3584 
Q 3463 3584 3878 3070 
Q 4294 2556 4294 1747 
Q 4294 938 3878 423 
Q 3463 -91 2816 -91 
Q 2450 -91 2169 54 
Q 1888 200 1656 506 
z
M 2400 2772 
Q 2041 2772 1848 2508 
Q 1656 2244 1656 1747 
Q 1656 1250 1848 986 
Q 2041 722 2400 722 
Q 2759 722 2948 984 
Q 3138 1247 3138 1747 
Q 3138 2247 2948 2509 
Q 2759 2772 2400 2772 
z
" transform="scale(0.015625)"/>
     <path id="DejaVuSans-Bold-74" d="M 1759 4494 
L 1759 3500 
L 2913 3500 
L 2913 2700 
L 1759 2700 
L 1759 1216 
Q 1759 972 1856 886 
Q 1953 800 2241 800 
L 2816 800 
L 2816 0 
L 1856 0 
Q 1194 0 917 276 
Q 641 553 641 1216 
L 641 2700 
L 84 2700 
L 84 3500 
L 641 3500 
L 641 4494 
L 1759 4494 
z
" transform="scale(0.015625)"/>
     <path id="DejaVuSans-Bold-75" d="M 500 1363 
L 500 3500 
L 1625 3500 
L 1625 3150 
Q 1625 2866 1622 2436 
Q 1619 2006 1619 1863 
Q 1619 1441 1641 1255 
Q 1663 1069 1716 984 
Q 1784 875 1895 815 
Q 2006 756 2150 756 
Q 2500 756 2700 1025 
Q 2900 1294 2900 1772 
L 2900 3500 
L 4019 3500 
L 4019 0 
L 2900 0 
L 2900 506 
Q 2647 200 2364 54 
Q 2081 -91 1741 -91 
Q 1134 -91 817 281 
Q 500 653 500 1363 
z
" transform="scale(0.015625)"/>
     <path id="DejaVuSans-Bold-73" d="M 3272 3391 
L 3272 2541 
Q 2913 2691 2578 2766 
Q 2244 2841 1947 2841 
Q 1628 2841 1473 2761 
Q 1319 2681 1319 2516 
Q 1319 2381 1436 2309 
Q 1553 2238 1856 2203 
L 2053 2175 
Q 2913 2066 3209 1816 
Q 3506 1566 3506 1031 
Q 3506 472 3093 190 
Q 2681 -91 1863 -91 
Q 1516 -91 1145 -36 
Q 775 19 384 128 
L 384 978 
Q 719 816 1070 734 
Q 1422 653 1784 653 
Q 2113 653 2278 743 
Q 2444 834 2444 1013 
Q 2444 1163 2330 1236 
Q 2216 1309 1875 1350 
L 1678 1375 
Q 931 1469 631 1722 
Q 331 1975 331 2491 
Q 331 3047 712 3315 
Q 1094 3584 1881 3584 
Q 2191 3584 2531 3537 
Q 2872 3491 3272 3391 
z
" transform="scale(0.015625)"/>
     <path id="DejaVuSans-Bold-53" d="M 3834 4519 
L 3834 3531 
Q 3450 3703 3084 3790 
Q 2719 3878 2394 3878 
Q 1963 3878 1756 3759 
Q 1550 3641 1550 3391 
Q 1550 3203 1689 3098 
Q 1828 2994 2194 2919 
L 2706 2816 
Q 3484 2659 3812 2340 
Q 4141 2022 4141 1434 
Q 4141 663 3683 286 
Q 3225 -91 2284 -91 
Q 1841 -91 1394 -6 
Q 947 78 500 244 
L 500 1259 
Q 947 1022 1364 901 
Q 1781 781 2169 781 
Q 2563 781 2772 912 
Q 2981 1044 2981 1288 
Q 2981 1506 2839 1625 
Q 2697 1744 2272 1838 
L 1806 1941 
Q 1106 2091 782 2419 
Q 459 2747 459 3303 
Q 459 4000 909 4375 
Q 1359 4750 2203 4750 
Q 2588 4750 2994 4692 
Q 3400 4634 3834 4519 
z
" transform="scale(0.015625)"/>
     <path id="DejaVuSans-Bold-6d" d="M 3781 2919 
Q 3994 3244 4286 3414 
Q 4578 3584 4928 3584 
Q 5531 3584 5847 3212 
Q 6163 2841 6163 2131 
L 6163 0 
L 5038 0 
L 5038 1825 
Q 5041 1866 5042 1909 
Q 5044 1953 5044 2034 
Q 5044 2406 4934 2573 
Q 4825 2741 4581 2741 
Q 4263 2741 4089 2478 
Q 3916 2216 3909 1719 
L 3909 0 
L 2784 0 
L 2784 1825 
Q 2784 2406 2684 2573 
Q 2584 2741 2328 2741 
Q 2006 2741 1831 2477 
Q 1656 2213 1656 1722 
L 1656 0 
L 531 0 
L 531 3500 
L 1656 3500 
L 1656 2988 
Q 1863 3284 2130 3434 
Q 2397 3584 2719 3584 
Q 3081 3584 3359 3409 
Q 3638 3234 3781 2919 
z
" transform="scale(0.015625)"/>
     <path id="DejaVuSans-Bold-4d" d="M 588 4666 
L 2119 4666 
L 3181 2169 
L 4250 4666 
L 5778 4666 
L 5778 0 
L 4641 0 
L 4641 3413 
L 3566 897 
L 2803 897 
L 1728 3413 
L 1728 0 
L 588 0 
L 588 4666 
z
" transform="scale(0.015625)"/>
    </defs>
    <use xlink:href="#DejaVuSans-Bold-43"/>
    <use xlink:href="#DejaVuSans-Bold-6f" transform="translate(73.388672 0)"/>
    <use xlink:href="#DejaVuSans-Bold-76" transform="translate(142.089844 0)"/>
    <use xlink:href="#DejaVuSans-Bold-65" transform="translate(207.275391 0)"/>
    <use xlink:href="#DejaVuSans-Bold-72" transform="translate(275.097656 0)"/>
    <use xlink:href="#DejaVuSans-Bold-61" transform="translate(324.414062 0)"/>
    <use xlink:href="#DejaVuSans-Bold-67" transform="translate(391.894531 0)"/>
    <use xlink:href="#DejaVuSans-Bold-65" transform="translate(463.476562 0)"/>
    <use xlink:href="#DejaVuSans-Bold-20" transform="translate(531.298828 0)"/>
    <use xlink:href="#DejaVuSans-Bold-61" transform="translate(566.113281 0)"/>
    <use xlink:href="#DejaVuSans-Bold-6e" transform="translate(633.59375 0)"/>
    <use xlink:href="#DejaVuSans-Bold-64" transform="translate(704.785156 0)"/>
    <use xlink:href="#DejaVuSans-Bold-20" transform="translate(776.367188 0)"/>
    <use xlink:href="#DejaVuSans-Bold-52" transform="translate(811.181641 0)"/>
    <use xlink:href="#DejaVuSans-Bold-65" transform="translate(888.183594 0)"/>
    <use xlink:href="#DejaVuSans-Bold-70" transform="translate(956.005859 0)"/>
    <use xlink:href="#DejaVuSans-Bold-65" transform="translate(1027.587891 0)"/>
    <use xlink:href="#DejaVuSans-Bold-61" transform="translate(1095.410156 0)"/>
    <use xlink:href="#DejaVuSans-Bold-74" transform="translate(1162.890625 0)"/>
    <use xlink:href="#DejaVuSans-Bold-20" transform="translate(1210.693359 0)"/>
    <use xlink:href="#DejaVuSans-Bold-43" transform="translate(1245.507812 0)"/>
    <use xlink:href="#DejaVuSans-Bold-75" transform="translate(1318.896484 0)"/>
    <use xlink:href="#DejaVuSans-Bold-72" transform="translate(1390.087891 0)"/>
    <use xlink:href="#DejaVuSans-Bold-76" transform="translate(1439.404297 0)"/>
    <use xlink:href="#DejaVuSans-Bold-65" transform="translate(1504.589844 0)"/>
    <use xlink:href="#DejaVuSans-Bold-73" transform="translate(1572.412109 0)"/>
    <use xlink:href="#DejaVuSans-Bold-20" transform="translate(1631.933594 0)"/>
    <use xlink:href="#DejaVuSans-Bold-6f" transform="translate(1666.748047 0)"/>
    <use xlink:href="#DejaVuSans-Bold-6e" transform="translate(1735.449219 0)"/>
    <use xlink:href="#DejaVuSans-Bold-20" transform="translate(1806.640625 0)"/>
    <use xlink:href="#DejaVuSans-Bold-53" transform="translate(1841.455078 0)"/>
    <use xlink:href="#DejaVuSans-Bold-61" transform="translate(1913.476562 0)"/>
    <use xlink:href="#DejaVuSans-Bold-6d" transform="translate(1980.957031 0)"/>
    <use xlink:href="#DejaVuSans-Bold-65" transform="translate(2085.15625 0)"/>
    <use xlink:href="#DejaVuSans-Bold-20" transform="translate(2152.978516 0)"/>
    <use xlink:href="#DejaVuSans-Bold-52" transform="translate(2187.792969 0)"/>
    <use xlink:href="#DejaVuSans-Bold-61" transform="translate(2264.794922 0)"/>
    <use xlink:href="#DejaVuSans-Bold-6e" transform="translate(2332.275391 0)"/>
    <use xlink:href="#DejaVuSans-Bold-64" transform="translate(2403.466797 0)"/>
    <use xlink:href="#DejaVuSans-Bold-6f" transform="translate(2475.048828 0)"/>
    <use xlink:href="#DejaVuSans-Bold-6d" transform="translate(2543.75 0)"/>
    <use xlink:href="#DejaVuSans-Bold-20" transform="translate(2647.949219 0)"/>
    <use xlink:href="#DejaVuSans-Bold-4d" transform="translate(2682.763672 0)"/>
    <use xlink:href="#DejaVuSans-Bold-61" transform="translate(2782.275391 0)"/>
    <use xlink:href="#DejaVuSans-Bold-70" transform="translate(2849.755859 0)"/>
    <use xlink:href="#DejaVuSans-Bold-73" transform="translate(2921.337891 0)"/>
   </g>
  </g>
 </g>
 <defs>
  <clipPath id="pc4a3d653ad">
   <rect x="46.965625" y="94.366776" width="759.744245" height="219.110494"/>
  </clipPath>
  <clipPath id="pa6501fac40">
   <rect x="46.965625" y="347.736094" width="759.744245" height="219.110494"/>
  </clipPath>
 </defs>
</svg>
