<?xml version="1.0" encoding="utf-8" standalone="no"?>
<!DOCTYPE svg PUBLIC "-//W3C//DTD SVG 1.1//EN"
  "http://www.w3.org/Graphics/SVG/1.1/DTD/svg11.dtd">
<svg xmlns:xlink="http://www.w3.org/1999/xlink" width="770.559375pt" height="366.834219pt" viewBox="0 0 770.559375 366.834219" xmlns="http://www.w3.org/2000/svg" version="1.1">
 <metadata>
  <rdf:RDF xmlns:dc="http://purl.org/dc/elements/1.1/" xmlns:cc="http://creativecommons.org/ns#" xmlns:rdf="http://www.w3.org/1999/02/22-rdf-syntax-ns#">
   <cc:Work>
    <dc:type rdf:resource="http://purl.org/dc/dcmitype/StillImage"/>
    <dc:date>2026-06-08T16:29:54.991589</dc:date>
    <dc:format>image/svg+xml</dc:format>
    <dc:creator>
     <cc:Agent>
      <dc:title>Matplotlib v3.10.9, https://matplotlib.org/</dc:title>
     </cc:Agent>
    </dc:creator>
   </cc:Work>
  </rdf:RDF>
 </metadata>
 <defs>
  <style type="text/css">*{stroke-linejoin: round; stroke-linecap: butt}</style>
 </defs>
 <g id="figure_1">
  <g id="patch_1">
   <path d="M 0 366.834219 
L 770.559375 366.834219 
L 770.559375 0 
L 0 0 
z
" style="fill: #ffffff"/>
  </g>
  <g id="axes_1">
   <g id="patch_2">
    <path d="M 46.965625 329.277969 
L 753.815625 329.277969 
L 753.815625 27.077969 
L 46.965625 27.077969 
z
" style="fill: #ffffff"/>
   </g>
   <g id="matplotlib.axis_1">
    <g id="xtick_1">
     <g id="line2d_1">
      <path d="M 46.965625 329.277969 
L 46.965625 27.077969 
" clip-path="url(#pdac304013a)" style="fill: none; stroke: #b0b0b0; stroke-opacity: 0.22; stroke-width: 0.8; stroke-linecap: square"/>
     </g>
     <g id="line2d_2">
      <defs>
       <path id="m0b0f8700ad" d="M 0 0 
L 0 3.5 
" style="stroke: #000000; stroke-width: 0.8"/>
      </defs>
      <g>
       <use xlink:href="#m0b0f8700ad" x="46.965625" y="329.277969" style="stroke: #000000; stroke-width: 0.8"/>
      </g>
     </g>
     <g id="text_1">
      <!-- 0 -->
      <g transform="translate(43.784375 343.876406) scale(0.1 -0.1)">
       <defs>
        <path id="DejaVuSans-30" d="M 2034 4250 
Q 1547 4250 1301 3770 
Q 1056 3291 1056 2328 
Q 1056 1369 1301 889 
Q 1547 409 2034 409 
Q 2525 409 2770 889 
Q 3016 1369 3016 2328 
Q 3016 3291 2770 3770 
Q 2525 4250 2034 4250 
z
M 2034 4750 
Q 2819 4750 3233 4129 
Q 3647 3509 3647 2328 
Q 3647 1150 3233 529 
Q 2819 -91 2034 -91 
Q 1250 -91 836 529 
Q 422 1150 422 2328 
Q 422 3509 836 4129 
Q 1250 4750 2034 4750 
z
" transform="scale(0.015625)"/>
       </defs>
       <use xlink:href="#DejaVuSans-30"/>
      </g>
     </g>
    </g>
    <g id="xtick_2">
     <g id="line2d_3">
      <path d="M 188.335625 329.277969 
L 188.335625 27.077969 
" clip-path="url(#pdac304013a)" style="fill: none; stroke: #b0b0b0; stroke-opacity: 0.22; stroke-width: 0.8; stroke-linecap: square"/>
     </g>
     <g id="line2d_4">
      <g>
       <use xlink:href="#m0b0f8700ad" x="188.335625" y="329.277969" style="stroke: #000000; stroke-width: 0.8"/>
      </g>
     </g>
     <g id="text_2">
      <!-- 100 -->
      <g transform="translate(178.791875 343.876406) scale(0.1 -0.1)">
       <defs>
        <path id="DejaVuSans-31" d="M 794 531 
L 1825 531 
L 1825 4091 
L 703 3866 
L 703 4441 
L 1819 4666 
L 2450 4666 
L 2450 531 
L 3481 531 
L 3481 0 
L 794 0 
L 794 531 
z
" transform="scale(0.015625)"/>
       </defs>
       <use xlink:href="#DejaVuSans-31"/>
       <use xlink:href="#DejaVuSans-30" transform="translate(63.623047 0)"/>
       <use xlink:href="#DejaVuSans-30" transform="translate(127.246094 0)"/>
      </g>
     </g>
    </g>
    <g id="xtick_3">
     <g id="line2d_5">
      <path d="M 329.705625 329.277969 
L 329.705625 27.077969 
" clip-path="url(#pdac304013a)" style="fill: none; stroke: #b0b0b0; stroke-opacity: 0.22; stroke-width: 0.8; stroke-linecap: square"/>
     </g>
     <g id="line2d_6">
      <g>
       <use xlink:href="#m0b0f8700ad" x="329.705625" y="329.277969" style="stroke: #000000; stroke-width: 0.8"/>
      </g>
     </g>
     <g id="text_3">
      <!-- 200 -->
      <g transform="translate(320.161875 343.876406) scale(0.1 -0.1)">
       <defs>
        <path id="DejaVuSans-32" d="M 1228 531 
L 3431 531 
L 3431 0 
L 469 0 
L 469 531 
Q 828 903 1448 1529 
Q 2069 2156 2228 2338 
Q 2531 2678 2651 2914 
Q 2772 3150 2772 3378 
Q 2772 3750 2511 3984 
Q 2250 4219 1831 4219 
Q 1534 4219 1204 4116 
Q 875 4013 500 3803 
L 500 4441 
Q 881 4594 1212 4672 
Q 1544 4750 1819 4750 
Q 2544 4750 2975 4387 
Q 3406 4025 3406 3419 
Q 3406 3131 3298 2873 
Q 3191 2616 2906 2266 
Q 2828 2175 2409 1742 
Q 1991 1309 1228 531 
z
" transform="scale(0.015625)"/>
       </defs>
       <use xlink:href="#DejaVuSans-32"/>
       <use xlink:href="#DejaVuSans-30" transform="translate(63.623047 0)"/>
       <use xlink:href="#DejaVuSans-30" transform="translate(127.246094 0)"/>
      </g>
     </g>
    </g>
    <g id="xtick_4">
     <g id="line2d_7">
      <path d="M 471.075625 329.277969 
L 471.075625 27.077969 
" clip-path="url(#pdac304013a)" style="fill: none; stroke: #b0b0b0; stroke-opacity: 0.22; stroke-width: 0.8; stroke-linecap: square"/>
     </g>
     <g id="line2d_8">
      <g>
       <use xlink:href="#m0b0f8700ad" x="471.075625" y="329.277969" style="stroke: #000000; stroke-width: 0.8"/>
      </g>
     </g>
     <g id="text_4">
      <!-- 300 -->
      <g transform="translate(461.531875 343.876406) scale(0.1 -0.1)">
       <defs>
        <path id="DejaVuSans-33" d="M 2597 2516 
Q 3050 2419 3304 2112 
Q 3559 1806 3559 1356 
Q 3559 666 3084 287 
Q 2609 -91 1734 -91 
Q 1441 -91 1130 -33 
Q 819 25 488 141 
L 488 750 
Q 750 597 1062 519 
Q 1375 441 1716 441 
Q 2309 441 2620 675 
Q 2931 909 2931 1356 
Q 2931 1769 2642 2001 
Q 2353 2234 1838 2234 
L 1294 2234 
L 1294 2753 
L 1863 2753 
Q 2328 2753 2575 2939 
Q 2822 3125 2822 3475 
Q 2822 3834 2567 4026 
Q 2313 4219 1838 4219 
Q 1578 4219 1281 4162 
Q 984 4106 628 3988 
L 628 4550 
Q 988 4650 1302 4700 
Q 1616 4750 1894 4750 
Q 2613 4750 3031 4423 
Q 3450 4097 3450 3541 
Q 3450 3153 3228 2886 
Q 3006 2619 2597 2516 
z
" transform="scale(0.015625)"/>
       </defs>
       <use xlink:href="#DejaVuSans-33"/>
       <use xlink:href="#DejaVuSans-30" transform="translate(63.623047 0)"/>
       <use xlink:href="#DejaVuSans-30" transform="translate(127.246094 0)"/>
      </g>
     </g>
    </g>
    <g id="xtick_5">
     <g id="line2d_9">
      <path d="M 612.445625 329.277969 
L 612.445625 27.077969 
" clip-path="url(#pdac304013a)" style="fill: none; stroke: #b0b0b0; stroke-opacity: 0.22; stroke-width: 0.8; stroke-linecap: square"/>
     </g>
     <g id="line2d_10">
      <g>
       <use xlink:href="#m0b0f8700ad" x="612.445625" y="329.277969" style="stroke: #000000; stroke-width: 0.8"/>
      </g>
     </g>
     <g id="text_5">
      <!-- 400 -->
      <g transform="translate(602.901875 343.876406) scale(0.1 -0.1)">
       <defs>
        <path id="DejaVuSans-34" d="M 2419 4116 
L 825 1625 
L 2419 1625 
L 2419 4116 
z
M 2253 4666 
L 3047 4666 
L 3047 1625 
L 3713 1625 
L 3713 1100 
L 3047 1100 
L 3047 0 
L 2419 0 
L 2419 1100 
L 313 1100 
L 313 1709 
L 2253 4666 
z
" transform="scale(0.015625)"/>
       </defs>
       <use xlink:href="#DejaVuSans-34"/>
       <use xlink:href="#DejaVuSans-30" transform="translate(63.623047 0)"/>
       <use xlink:href="#DejaVuSans-30" transform="translate(127.246094 0)"/>
      </g>
     </g>
    </g>
    <g id="xtick_6">
     <g id="line2d_11">
      <path d="M 753.815625 329.277969 
L 753.815625 27.077969 
" clip-path="url(#pdac304013a)" style="fill: none; stroke: #b0b0b0; stroke-opacity: 0.22; stroke-width: 0.8; stroke-linecap: square"/>
     </g>
     <g id="line2d_12">
      <g>
       <use xlink:href="#m0b0f8700ad" x="753.815625" y="329.277969" style="stroke: #000000; stroke-width: 0.8"/>
      </g>
     </g>
     <g id="text_6">
      <!-- 500 -->
      <g transform="translate(744.271875 343.876406) scale(0.1 -0.1)">
       <defs>
        <path id="DejaVuSans-35" d="M 691 4666 
L 3169 4666 
L 3169 4134 
L 1269 4134 
L 1269 2991 
Q 1406 3038 1543 3061 
Q 1681 3084 1819 3084 
Q 2600 3084 3056 2656 
Q 3513 2228 3513 1497 
Q 3513 744 3044 326 
Q 2575 -91 1722 -91 
Q 1428 -91 1123 -41 
Q 819 9 494 109 
L 494 744 
Q 775 591 1075 516 
Q 1375 441 1709 441 
Q 2250 441 2565 725 
Q 2881 1009 2881 1497 
Q 2881 1984 2565 2268 
Q 2250 2553 1709 2553 
Q 1456 2553 1204 2497 
Q 953 2441 691 2322 
L 691 4666 
z
" transform="scale(0.015625)"/>
       </defs>
       <use xlink:href="#DejaVuSans-35"/>
       <use xlink:href="#DejaVuSans-30" transform="translate(63.623047 0)"/>
       <use xlink:href="#DejaVuSans-30" transform="translate(127.246094 0)"/>
      </g>
     </g>
    </g>
    <g id="text_7">
     <!-- Environment Steps -->
     <g transform="translate(352.888281 357.554531) scale(0.1 -0.1)">
      <defs>
       <path id="DejaVuSans-45" d="M 628 4666 
L 3578 4666 
L 3578 4134 
L 1259 4134 
L 1259 2753 
L 3481 2753 
L 3481 2222 
L 1259 2222 
L 1259 531 
L 3634 531 
L 3634 0 
L 628 0 
L 628 4666 
z
" transform="scale(0.015625)"/>
       <path id="DejaVuSans-6e" d="M 3513 2113 
L 3513 0 
L 2938 0 
L 2938 2094 
Q 2938 2591 2744 2837 
Q 2550 3084 2163 3084 
Q 1697 3084 1428 2787 
Q 1159 2491 1159 1978 
L 1159 0 
L 581 0 
L 581 3500 
L 1159 3500 
L 1159 2956 
Q 1366 3272 1645 3428 
Q 1925 3584 2291 3584 
Q 2894 3584 3203 3211 
Q 3513 2838 3513 2113 
z
" transform="scale(0.015625)"/>
       <path id="DejaVuSans-76" d="M 191 3500 
L 800 3500 
L 1894 563 
L 2988 3500 
L 3597 3500 
L 2284 0 
L 1503 0 
L 191 3500 
z
" transform="scale(0.015625)"/>
       <path id="DejaVuSans-69" d="M 603 3500 
L 1178 3500 
L 1178 0 
L 603 0 
L 603 3500 
z
M 603 4863 
L 1178 4863 
L 1178 4134 
L 603 4134 
L 603 4863 
z
" transform="scale(0.015625)"/>
       <path id="DejaVuSans-72" d="M 2631 2963 
Q 2534 3019 2420 3045 
Q 2306 3072 2169 3072 
Q 1681 3072 1420 2755 
Q 1159 2438 1159 1844 
L 1159 0 
L 581 0 
L 581 3500 
L 1159 3500 
L 1159 2956 
Q 1341 3275 1631 3429 
Q 1922 3584 2338 3584 
Q 2397 3584 2469 3576 
Q 2541 3569 2628 3553 
L 2631 2963 
z
" transform="scale(0.015625)"/>
       <path id="DejaVuSans-6f" d="M 1959 3097 
Q 1497 3097 1228 2736 
Q 959 2375 959 1747 
Q 959 1119 1226 758 
Q 1494 397 1959 397 
Q 2419 397 2687 759 
Q 2956 1122 2956 1747 
Q 2956 2369 2687 2733 
Q 2419 3097 1959 3097 
z
M 1959 3584 
Q 2709 3584 3137 3096 
Q 3566 2609 3566 1747 
Q 3566 888 3137 398 
Q 2709 -91 1959 -91 
Q 1206 -91 779 398 
Q 353 888 353 1747 
Q 353 2609 779 3096 
Q 1206 3584 1959 3584 
z
" transform="scale(0.015625)"/>
       <path id="DejaVuSans-6d" d="M 3328 2828 
Q 3544 3216 3844 3400 
Q 4144 3584 4550 3584 
Q 5097 3584 5394 3201 
Q 5691 2819 5691 2113 
L 5691 0 
L 5113 0 
L 5113 2094 
Q 5113 2597 4934 2840 
Q 4756 3084 4391 3084 
Q 3944 3084 3684 2787 
Q 3425 2491 3425 1978 
L 3425 0 
L 2847 0 
L 2847 2094 
Q 2847 2600 2669 2842 
Q 2491 3084 2119 3084 
Q 1678 3084 1418 2786 
Q 1159 2488 1159 1978 
L 1159 0 
L 581 0 
L 581 3500 
L 1159 3500 
L 1159 2956 
Q 1356 3278 1631 3431 
Q 1906 3584 2284 3584 
Q 2666 3584 2933 3390 
Q 3200 3197 3328 2828 
z
" transform="scale(0.015625)"/>
       <path id="DejaVuSans-65" d="M 3597 1894 
L 3597 1613 
L 953 1613 
Q 991 1019 1311 708 
Q 1631 397 2203 397 
Q 2534 397 2845 478 
Q 3156 559 3463 722 
L 3463 178 
Q 3153 47 2828 -22 
Q 2503 -91 2169 -91 
Q 1331 -91 842 396 
Q 353 884 353 1716 
Q 353 2575 817 3079 
Q 1281 3584 2069 3584 
Q 2775 3584 3186 3129 
Q 3597 2675 3597 1894 
z
M 3022 2063 
Q 3016 2534 2758 2815 
Q 2500 3097 2075 3097 
Q 1594 3097 1305 2825 
Q 1016 2553 972 2059 
L 3022 2063 
z
" transform="scale(0.015625)"/>
       <path id="DejaVuSans-74" d="M 1172 4494 
L 1172 3500 
L 2356 3500 
L 2356 3053 
L 1172 3053 
L 1172 1153 
Q 1172 725 1289 603 
Q 1406 481 1766 481 
L 2356 481 
L 2356 0 
L 1766 0 
Q 1100 0 847 248 
Q 594 497 594 1153 
L 594 3053 
L 172 3053 
L 172 3500 
L 594 3500 
L 594 4494 
L 1172 4494 
z
" transform="scale(0.015625)"/>
       <path id="DejaVuSans-20" transform="scale(0.015625)"/>
       <path id="DejaVuSans-53" d="M 3425 4513 
L 3425 3897 
Q 3066 4069 2747 4153 
Q 2428 4238 2131 4238 
Q 1616 4238 1336 4038 
Q 1056 3838 1056 3469 
Q 1056 3159 1242 3001 
Q 1428 2844 1947 2747 
L 2328 2669 
Q 3034 2534 3370 2195 
Q 3706 1856 3706 1288 
Q 3706 609 3251 259 
Q 2797 -91 1919 -91 
Q 1588 -91 1214 -16 
Q 841 59 441 206 
L 441 856 
Q 825 641 1194 531 
Q 1563 422 1919 422 
Q 2459 422 2753 634 
Q 3047 847 3047 1241 
Q 3047 1584 2836 1778 
Q 2625 1972 2144 2069 
L 1759 2144 
Q 1053 2284 737 2584 
Q 422 2884 422 3419 
Q 422 4038 858 4394 
Q 1294 4750 2059 4750 
Q 2388 4750 2728 4690 
Q 3069 4631 3425 4513 
z
" transform="scale(0.015625)"/>
       <path id="DejaVuSans-70" d="M 1159 525 
L 1159 -1331 
L 581 -1331 
L 581 3500 
L 1159 3500 
L 1159 2969 
Q 1341 3281 1617 3432 
Q 1894 3584 2278 3584 
Q 2916 3584 3314 3078 
Q 3713 2572 3713 1747 
Q 3713 922 3314 415 
Q 2916 -91 2278 -91 
Q 1894 -91 1617 61 
Q 1341 213 1159 525 
z
M 3116 1747 
Q 3116 2381 2855 2742 
Q 2594 3103 2138 3103 
Q 1681 3103 1420 2742 
Q 1159 2381 1159 1747 
Q 1159 1113 1420 752 
Q 1681 391 2138 391 
Q 2594 391 2855 752 
Q 3116 1113 3116 1747 
z
" transform="scale(0.015625)"/>
       <path id="DejaVuSans-73" d="M 2834 3397 
L 2834 2853 
Q 2591 2978 2328 3040 
Q 2066 3103 1784 3103 
Q 1356 3103 1142 2972 
Q 928 2841 928 2578 
Q 928 2378 1081 2264 
Q 1234 2150 1697 2047 
L 1894 2003 
Q 2506 1872 2764 1633 
Q 3022 1394 3022 966 
Q 3022 478 2636 193 
Q 2250 -91 1575 -91 
Q 1294 -91 989 -36 
Q 684 19 347 128 
L 347 722 
Q 666 556 975 473 
Q 1284 391 1588 391 
Q 1994 391 2212 530 
Q 2431 669 2431 922 
Q 2431 1156 2273 1281 
Q 2116 1406 1581 1522 
L 1381 1569 
Q 847 1681 609 1914 
Q 372 2147 372 2553 
Q 372 3047 722 3315 
Q 1072 3584 1716 3584 
Q 2034 3584 2315 3537 
Q 2597 3491 2834 3397 
z
" transform="scale(0.015625)"/>
      </defs>
      <use xlink:href="#DejaVuSans-45"/>
      <use xlink:href="#DejaVuSans-6e" transform="translate(63.183594 0)"/>
      <use xlink:href="#DejaVuSans-76" transform="translate(126.5625 0)"/>
      <use xlink:href="#DejaVuSans-69" transform="translate(185.742188 0)"/>
      <use xlink:href="#DejaVuSans-72" transform="translate(213.525391 0)"/>
      <use xlink:href="#DejaVuSans-6f" transform="translate(252.388672 0)"/>
      <use xlink:href="#DejaVuSans-6e" transform="translate(313.570312 0)"/>
      <use xlink:href="#DejaVuSans-6d" transform="translate(376.949219 0)"/>
      <use xlink:href="#DejaVuSans-65" transform="translate(474.361328 0)"/>
      <use xlink:href="#DejaVuSans-6e" transform="translate(535.884766 0)"/>
      <use xlink:href="#DejaVuSans-74" transform="translate(599.263672 0)"/>
      <use xlink:href="#DejaVuSans-20" transform="translate(638.472656 0)"/>
      <use xlink:href="#DejaVuSans-53" transform="translate(670.259766 0)"/>
      <use xlink:href="#DejaVuSans-74" transform="translate(733.736328 0)"/>
      <use xlink:href="#DejaVuSans-65" transform="translate(772.945312 0)"/>
      <use xlink:href="#DejaVuSans-70" transform="translate(834.46875 0)"/>
      <use xlink:href="#DejaVuSans-73" transform="translate(897.945312 0)"/>
     </g>
    </g>
   </g>
   <g id="matplotlib.axis_2">
    <g id="ytick_1">
     <g id="line2d_13">
      <path d="M 46.965625 329.277969 
L 753.815625 329.277969 
" clip-path="url(#pdac304013a)" style="fill: none; stroke: #b0b0b0; stroke-opacity: 0.22; stroke-width: 0.8; stroke-linecap: square"/>
     </g>
     <g id="line2d_14">
      <defs>
       <path id="mde32f5e622" d="M 0 0 
L -3.5 0 
" style="stroke: #000000; stroke-width: 0.8"/>
      </defs>
      <g>
       <use xlink:href="#mde32f5e622" x="46.965625" y="329.277969" style="stroke: #000000; stroke-width: 0.8"/>
      </g>
     </g>
     <g id="text_8">
      <!-- 0 -->
      <g transform="translate(33.603125 333.077188) scale(0.1 -0.1)">
       <use xlink:href="#DejaVuSans-30"/>
      </g>
     </g>
    </g>
    <g id="ytick_2">
     <g id="line2d_15">
      <path d="M 46.965625 268.837969 
L 753.815625 268.837969 
" clip-path="url(#pdac304013a)" style="fill: none; stroke: #b0b0b0; stroke-opacity: 0.22; stroke-width: 0.8; stroke-linecap: square"/>
     </g>
     <g id="line2d_16">
      <g>
       <use xlink:href="#mde32f5e622" x="46.965625" y="268.837969" style="stroke: #000000; stroke-width: 0.8"/>
      </g>
     </g>
     <g id="text_9">
      <!-- 20 -->
      <g transform="translate(27.240625 272.637188) scale(0.1 -0.1)">
       <use xlink:href="#DejaVuSans-32"/>
       <use xlink:href="#DejaVuSans-30" transform="translate(63.623047 0)"/>
      </g>
     </g>
    </g>
    <g id="ytick_3">
     <g id="line2d_17">
      <path d="M 46.965625 208.397969 
L 753.815625 208.397969 
" clip-path="url(#pdac304013a)" style="fill: none; stroke: #b0b0b0; stroke-opacity: 0.22; stroke-width: 0.8; stroke-linecap: square"/>
     </g>
     <g id="line2d_18">
      <g>
       <use xlink:href="#mde32f5e622" x="46.965625" y="208.397969" style="stroke: #000000; stroke-width: 0.8"/>
      </g>
     </g>
     <g id="text_10">
      <!-- 40 -->
      <g transform="translate(27.240625 212.197188) scale(0.1 -0.1)">
       <use xlink:href="#DejaVuSans-34"/>
       <use xlink:href="#DejaVuSans-30" transform="translate(63.623047 0)"/>
      </g>
     </g>
    </g>
    <g id="ytick_4">
     <g id="line2d_19">
      <path d="M 46.965625 147.957969 
L 753.815625 147.957969 
" clip-path="url(#pdac304013a)" style="fill: none; stroke: #b0b0b0; stroke-opacity: 0.22; stroke-width: 0.8; stroke-linecap: square"/>
     </g>
     <g id="line2d_20">
      <g>
       <use xlink:href="#mde32f5e622" x="46.965625" y="147.957969" style="stroke: #000000; stroke-width: 0.8"/>
      </g>
     </g>
     <g id="text_11">
      <!-- 60 -->
      <g transform="translate(27.240625 151.757187) scale(0.1 -0.1)">
       <defs>
        <path id="DejaVuSans-36" d="M 2113 2584 
Q 1688 2584 1439 2293 
Q 1191 2003 1191 1497 
Q 1191 994 1439 701 
Q 1688 409 2113 409 
Q 2538 409 2786 701 
Q 3034 994 3034 1497 
Q 3034 2003 2786 2293 
Q 2538 2584 2113 2584 
z
M 3366 4563 
L 3366 3988 
Q 3128 4100 2886 4159 
Q 2644 4219 2406 4219 
Q 1781 4219 1451 3797 
Q 1122 3375 1075 2522 
Q 1259 2794 1537 2939 
Q 1816 3084 2150 3084 
Q 2853 3084 3261 2657 
Q 3669 2231 3669 1497 
Q 3669 778 3244 343 
Q 2819 -91 2113 -91 
Q 1303 -91 875 529 
Q 447 1150 447 2328 
Q 447 3434 972 4092 
Q 1497 4750 2381 4750 
Q 2619 4750 2861 4703 
Q 3103 4656 3366 4563 
z
" transform="scale(0.015625)"/>
       </defs>
       <use xlink:href="#DejaVuSans-36"/>
       <use xlink:href="#DejaVuSans-30" transform="translate(63.623047 0)"/>
      </g>
     </g>
    </g>
    <g id="ytick_5">
     <g id="line2d_21">
      <path d="M 46.965625 87.517969 
L 753.815625 87.517969 
" clip-path="url(#pdac304013a)" style="fill: none; stroke: #b0b0b0; stroke-opacity: 0.22; stroke-width: 0.8; stroke-linecap: square"/>
     </g>
     <g id="line2d_22">
      <g>
       <use xlink:href="#mde32f5e622" x="46.965625" y="87.517969" style="stroke: #000000; stroke-width: 0.8"/>
      </g>
     </g>
     <g id="text_12">
      <!-- 80 -->
      <g transform="translate(27.240625 91.317187) scale(0.1 -0.1)">
       <defs>
        <path id="DejaVuSans-38" d="M 2034 2216 
Q 1584 2216 1326 1975 
Q 1069 1734 1069 1313 
Q 1069 891 1326 650 
Q 1584 409 2034 409 
Q 2484 409 2743 651 
Q 3003 894 3003 1313 
Q 3003 1734 2745 1975 
Q 2488 2216 2034 2216 
z
M 1403 2484 
Q 997 2584 770 2862 
Q 544 3141 544 3541 
Q 544 4100 942 4425 
Q 1341 4750 2034 4750 
Q 2731 4750 3128 4425 
Q 3525 4100 3525 3541 
Q 3525 3141 3298 2862 
Q 3072 2584 2669 2484 
Q 3125 2378 3379 2068 
Q 3634 1759 3634 1313 
Q 3634 634 3220 271 
Q 2806 -91 2034 -91 
Q 1263 -91 848 271 
Q 434 634 434 1313 
Q 434 1759 690 2068 
Q 947 2378 1403 2484 
z
M 1172 3481 
Q 1172 3119 1398 2916 
Q 1625 2713 2034 2713 
Q 2441 2713 2670 2916 
Q 2900 3119 2900 3481 
Q 2900 3844 2670 4047 
Q 2441 4250 2034 4250 
Q 1625 4250 1398 4047 
Q 1172 3844 1172 3481 
z
" transform="scale(0.015625)"/>
       </defs>
       <use xlink:href="#DejaVuSans-38"/>
       <use xlink:href="#DejaVuSans-30" transform="translate(63.623047 0)"/>
      </g>
     </g>
    </g>
    <g id="ytick_6">
     <g id="line2d_23">
      <path d="M 46.965625 27.077969 
L 753.815625 27.077969 
" clip-path="url(#pdac304013a)" style="fill: none; stroke: #b0b0b0; stroke-opacity: 0.22; stroke-width: 0.8; stroke-linecap: square"/>
     </g>
     <g id="line2d_24">
      <g>
       <use xlink:href="#mde32f5e622" x="46.965625" y="27.077969" style="stroke: #000000; stroke-width: 0.8"/>
      </g>
     </g>
     <g id="text_13">
      <!-- 100 -->
      <g transform="translate(20.878125 30.877188) scale(0.1 -0.1)">
       <use xlink:href="#DejaVuSans-31"/>
       <use xlink:href="#DejaVuSans-30" transform="translate(63.623047 0)"/>
       <use xlink:href="#DejaVuSans-30" transform="translate(127.246094 0)"/>
      </g>
     </g>
    </g>
    <g id="text_14">
     <!-- Cumulative Repeat Ratio (%) -->
     <g transform="translate(14.798438 250.570156) rotate(-90) scale(0.1 -0.1)">
      <defs>
       <path id="DejaVuSans-43" d="M 4122 4306 
L 4122 3641 
Q 3803 3938 3442 4084 
Q 3081 4231 2675 4231 
Q 1875 4231 1450 3742 
Q 1025 3253 1025 2328 
Q 1025 1406 1450 917 
Q 1875 428 2675 428 
Q 3081 428 3442 575 
Q 3803 722 4122 1019 
L 4122 359 
Q 3791 134 3420 21 
Q 3050 -91 2638 -91 
Q 1578 -91 968 557 
Q 359 1206 359 2328 
Q 359 3453 968 4101 
Q 1578 4750 2638 4750 
Q 3056 4750 3426 4639 
Q 3797 4528 4122 4306 
z
" transform="scale(0.015625)"/>
       <path id="DejaVuSans-75" d="M 544 1381 
L 544 3500 
L 1119 3500 
L 1119 1403 
Q 1119 906 1312 657 
Q 1506 409 1894 409 
Q 2359 409 2629 706 
Q 2900 1003 2900 1516 
L 2900 3500 
L 3475 3500 
L 3475 0 
L 2900 0 
L 2900 538 
Q 2691 219 2414 64 
Q 2138 -91 1772 -91 
Q 1169 -91 856 284 
Q 544 659 544 1381 
z
M 1991 3584 
L 1991 3584 
z
" transform="scale(0.015625)"/>
       <path id="DejaVuSans-6c" d="M 603 4863 
L 1178 4863 
L 1178 0 
L 603 0 
L 603 4863 
z
" transform="scale(0.015625)"/>
       <path id="DejaVuSans-61" d="M 2194 1759 
Q 1497 1759 1228 1600 
Q 959 1441 959 1056 
Q 959 750 1161 570 
Q 1363 391 1709 391 
Q 2188 391 2477 730 
Q 2766 1069 2766 1631 
L 2766 1759 
L 2194 1759 
z
M 3341 1997 
L 3341 0 
L 2766 0 
L 2766 531 
Q 2569 213 2275 61 
Q 1981 -91 1556 -91 
Q 1019 -91 701 211 
Q 384 513 384 1019 
Q 384 1609 779 1909 
Q 1175 2209 1959 2209 
L 2766 2209 
L 2766 2266 
Q 2766 2663 2505 2880 
Q 2244 3097 1772 3097 
Q 1472 3097 1187 3025 
Q 903 2953 641 2809 
L 641 3341 
Q 956 3463 1253 3523 
Q 1550 3584 1831 3584 
Q 2591 3584 2966 3190 
Q 3341 2797 3341 1997 
z
" transform="scale(0.015625)"/>
       <path id="DejaVuSans-52" d="M 2841 2188 
Q 3044 2119 3236 1894 
Q 3428 1669 3622 1275 
L 4263 0 
L 3584 0 
L 2988 1197 
Q 2756 1666 2539 1819 
Q 2322 1972 1947 1972 
L 1259 1972 
L 1259 0 
L 628 0 
L 628 4666 
L 2053 4666 
Q 2853 4666 3247 4331 
Q 3641 3997 3641 3322 
Q 3641 2881 3436 2590 
Q 3231 2300 2841 2188 
z
M 1259 4147 
L 1259 2491 
L 2053 2491 
Q 2509 2491 2742 2702 
Q 2975 2913 2975 3322 
Q 2975 3731 2742 3939 
Q 2509 4147 2053 4147 
L 1259 4147 
z
" transform="scale(0.015625)"/>
       <path id="DejaVuSans-28" d="M 1984 4856 
Q 1566 4138 1362 3434 
Q 1159 2731 1159 2009 
Q 1159 1288 1364 580 
Q 1569 -128 1984 -844 
L 1484 -844 
Q 1016 -109 783 600 
Q 550 1309 550 2009 
Q 550 2706 781 3412 
Q 1013 4119 1484 4856 
L 1984 4856 
z
" transform="scale(0.015625)"/>
       <path id="DejaVuSans-25" d="M 4653 2053 
Q 4381 2053 4226 1822 
Q 4072 1591 4072 1178 
Q 4072 772 4226 539 
Q 4381 306 4653 306 
Q 4919 306 5073 539 
Q 5228 772 5228 1178 
Q 5228 1588 5073 1820 
Q 4919 2053 4653 2053 
z
M 4653 2450 
Q 5147 2450 5437 2106 
Q 5728 1763 5728 1178 
Q 5728 594 5436 251 
Q 5144 -91 4653 -91 
Q 4153 -91 3862 251 
Q 3572 594 3572 1178 
Q 3572 1766 3864 2108 
Q 4156 2450 4653 2450 
z
M 1428 4353 
Q 1159 4353 1004 4120 
Q 850 3888 850 3481 
Q 850 3069 1003 2837 
Q 1156 2606 1428 2606 
Q 1700 2606 1854 2837 
Q 2009 3069 2009 3481 
Q 2009 3884 1853 4118 
Q 1697 4353 1428 4353 
z
M 4250 4750 
L 4750 4750 
L 1831 -91 
L 1331 -91 
L 4250 4750 
z
M 1428 4750 
Q 1922 4750 2215 4408 
Q 2509 4066 2509 3481 
Q 2509 2891 2217 2550 
Q 1925 2209 1428 2209 
Q 931 2209 642 2551 
Q 353 2894 353 3481 
Q 353 4063 643 4406 
Q 934 4750 1428 4750 
z
" transform="scale(0.015625)"/>
       <path id="DejaVuSans-29" d="M 513 4856 
L 1013 4856 
Q 1481 4119 1714 3412 
Q 1947 2706 1947 2009 
Q 1947 1309 1714 600 
Q 1481 -109 1013 -844 
L 513 -844 
Q 928 -128 1133 580 
Q 1338 1288 1338 2009 
Q 1338 2731 1133 3434 
Q 928 4138 513 4856 
z
" transform="scale(0.015625)"/>
      </defs>
      <use xlink:href="#DejaVuSans-43"/>
      <use xlink:href="#DejaVuSans-75" transform="translate(69.824219 0)"/>
      <use xlink:href="#DejaVuSans-6d" transform="translate(133.203125 0)"/>
      <use xlink:href="#DejaVuSans-75" transform="translate(230.615234 0)"/>
      <use xlink:href="#DejaVuSans-6c" transform="translate(293.994141 0)"/>
      <use xlink:href="#DejaVuSans-61" transform="translate(321.777344 0)"/>
      <use xlink:href="#DejaVuSans-74" transform="translate(383.056641 0)"/>
      <use xlink:href="#DejaVuSans-69" transform="translate(422.265625 0)"/>
      <use xlink:href="#DejaVuSans-76" transform="translate(450.048828 0)"/>
      <use xlink:href="#DejaVuSans-65" transform="translate(509.228516 0)"/>
      <use xlink:href="#DejaVuSans-20" transform="translate(570.751953 0)"/>
      <use xlink:href="#DejaVuSans-52" transform="translate(602.539062 0)"/>
      <use xlink:href="#DejaVuSans-65" transform="translate(667.521484 0)"/>
      <use xlink:href="#DejaVuSans-70" transform="translate(729.044922 0)"/>
      <use xlink:href="#DejaVuSans-65" transform="translate(792.521484 0)"/>
      <use xlink:href="#DejaVuSans-61" transform="translate(854.044922 0)"/>
      <use xlink:href="#DejaVuSans-74" transform="translate(915.324219 0)"/>
      <use xlink:href="#DejaVuSans-20" transform="translate(954.533203 0)"/>
      <use xlink:href="#DejaVuSans-52" transform="translate(986.320312 0)"/>
      <use xlink:href="#DejaVuSans-61" transform="translate(1053.552734 0)"/>
      <use xlink:href="#DejaVuSans-74" transform="translate(1114.832031 0)"/>
      <use xlink:href="#DejaVuSans-69" transform="translate(1154.041016 0)"/>
      <use xlink:href="#DejaVuSans-6f" transform="translate(1181.824219 0)"/>
      <use xlink:href="#DejaVuSans-20" transform="translate(1243.005859 0)"/>
      <use xlink:href="#DejaVuSans-28" transform="translate(1274.792969 0)"/>
      <use xlink:href="#DejaVuSans-25" transform="translate(1313.806641 0)"/>
      <use xlink:href="#DejaVuSans-29" transform="translate(1408.826172 0)"/>
     </g>
    </g>
   </g>
   <g id="line2d_25">
    <path d="M 46.965625 102.627969 
L 48.379325 138.514219 
L 49.793025 149.217135 
L 51.206725 154.568594 
L 52.620425 169.867469 
L 55.447825 189.510469 
L 56.861525 202.259531 
L 58.275225 212.595191 
L 59.688925 221.619219 
L 61.102625 229.002514 
L 62.516325 235.15526 
L 63.930025 240.652007 
L 66.757425 249.698635 
L 68.171125 253.491875 
L 70.998525 259.60408 
L 72.412225 262.277048 
L 73.825925 264.682719 
L 76.653325 268.837969 
L 78.067025 270.644599 
L 79.480725 271.82849 
L 80.894425 273.219869 
L 82.308125 274.213642 
L 85.135525 275.178772 
L 87.962925 276.518885 
L 89.376625 276.880388 
L 90.790325 276.629063 
L 92.204025 276.736378 
L 95.031425 276.500897 
L 96.445125 275.868316 
L 99.272525 275.100666 
L 102.099925 274.693094 
L 103.513625 274.64242 
L 106.341025 274.284597 
L 107.754725 274.074957 
L 110.582125 272.45123 
L 113.409525 271.356302 
L 116.236925 269.744569 
L 119.064325 268.111526 
L 124.719125 263.508996 
L 126.132825 262.674679 
L 128.960225 261.346994 
L 133.201325 259.211436 
L 134.615025 258.404874 
L 136.028725 257.859609 
L 137.442425 257.098661 
L 141.683525 255.67227 
L 144.510925 254.537433 
L 165.716425 243.106528 
L 169.957525 240.034531 
L 171.371225 238.999963 
L 174.198625 237.289617 
L 177.026025 235.53098 
L 179.853425 233.886153 
L 182.680825 231.919721 
L 191.163025 227.13877 
L 195.404125 225.254172 
L 201.058925 222.306037 
L 209.541125 217.418378 
L 215.195925 213.717948 
L 216.609625 213.018382 
L 219.437025 211.376973 
L 227.919225 206.963104 
L 237.815125 200.787417 
L 251.952125 193.262095 
L 254.779525 191.731026 
L 263.261725 187.27831 
L 266.089125 185.805613 
L 268.916525 184.561466 
L 274.571325 181.535747 
L 301.431625 169.349889 
L 304.259025 168.14592 
L 309.913825 165.734439 
L 319.809725 161.607595 
L 324.050825 159.865723 
L 332.533025 156.610863 
L 343.842625 152.677809 
L 355.152225 148.875294 
L 365.048125 145.683263 
L 372.116625 143.640826 
L 377.771425 142.174158 
L 384.839925 140.553316 
L 393.322125 138.575503 
L 407.459125 135.381879 
L 427.250925 131.417363 
L 438.560525 129.605923 
L 458.352325 126.802795 
L 472.489325 125.083067 
L 486.626325 123.62594 
L 499.349625 122.649667 
L 520.555125 121.278705 
L 537.519525 120.171507 
L 544.588025 119.821567 
L 561.552425 118.71035 
L 630.823725 114.693628 
L 646.374425 113.97776 
L 678.889525 112.668298 
L 717.059425 111.246143 
L 753.815625 110.175609 
L 753.815625 110.175609 
" clip-path="url(#pdac304013a)" style="fill: none; stroke: #9a9a9a; stroke-width: 2.4; stroke-linecap: square"/>
   </g>
   <g id="line2d_26">
    <path d="M 46.965625 102.627969 
L 48.379325 138.514219 
L 49.793025 149.217135 
L 51.206725 154.568594 
L 52.620425 170.622969 
L 54.034125 192.658385 
L 55.447825 208.937612 
L 56.861525 221.619219 
L 58.275225 231.482691 
L 59.688925 239.373469 
L 61.102625 245.82956 
L 62.516325 251.209635 
L 63.930025 255.762007 
L 66.757425 262.793969 
L 68.171125 265.76875 
L 70.998525 270.516858 
L 72.412225 272.615469 
L 75.239625 276.213088 
L 78.067025 279.185034 
L 80.894425 281.681469 
L 82.308125 282.785661 
L 86.549225 285.380814 
L 87.962925 286.088552 
L 90.790325 287.135234 
L 92.204025 287.038651 
L 93.617725 287.169954 
L 95.031425 286.754112 
L 96.445125 287.095885 
L 97.858825 286.908712 
L 99.272525 287.427245 
L 102.099925 287.914344 
L 103.513625 288.094005 
L 104.927325 287.90535 
L 106.341025 288.076864 
L 107.754725 287.639616 
L 109.168425 287.389691 
L 111.995825 286.359139 
L 113.409525 285.758021 
L 114.823225 285.027254 
L 116.236925 284.627919 
L 120.478025 282.878865 
L 121.891725 282.339034 
L 124.719125 280.710112 
L 126.132825 280.104197 
L 127.546525 279.649434 
L 130.373925 278.21876 
L 131.787625 277.507641 
L 133.201325 277.124098 
L 134.615025 276.872651 
L 136.028725 276.451992 
L 137.442425 276.334853 
L 138.856125 275.992325 
L 140.269825 275.321737 
L 141.683525 274.504219 
L 144.510925 273.64079 
L 148.752025 271.68403 
L 152.993125 269.285304 
L 154.406825 268.690793 
L 155.820525 267.82095 
L 161.475325 265.382938 
L 162.889025 264.605348 
L 164.302725 264.071124 
L 165.716425 263.416145 
L 167.130125 262.600701 
L 171.371225 261.028306 
L 174.198625 259.414974 
L 175.612325 258.655143 
L 177.026025 258.114743 
L 179.853425 256.51139 
L 181.267125 255.892161 
L 185.508225 253.575342 
L 188.335625 252.119726 
L 189.749325 251.468876 
L 192.576725 249.877825 
L 193.990425 249.158993 
L 195.404125 248.311176 
L 196.817825 247.267385 
L 199.645225 245.687785 
L 201.058925 244.902355 
L 202.472625 243.892856 
L 205.300025 242.228323 
L 208.127425 240.161817 
L 209.541125 239.334391 
L 210.954825 238.295106 
L 212.368525 237.401486 
L 220.850725 231.123896 
L 226.505525 226.990352 
L 230.746625 224.113522 
L 232.160325 223.364882 
L 234.987725 221.619219 
L 237.815125 219.647142 
L 239.228825 218.875706 
L 243.469925 216.006933 
L 246.297325 214.090821 
L 249.124725 212.175469 
L 266.089125 201.821954 
L 270.330225 199.779235 
L 273.157625 198.515439 
L 281.639825 195.513348 
L 285.880925 194.362734 
L 302.845325 190.932061 
L 307.086425 190.390928 
L 318.396025 189.9165 
L 324.050825 189.787639 
L 362.220725 189.150502 
L 374.944025 189.126183 
L 415.941325 188.790054 
L 434.319425 188.638015 
L 516.314025 188.557453 
L 537.519525 188.501125 
L 577.103125 188.420059 
L 615.273025 188.283596 
L 637.892225 188.193664 
L 739.678625 187.753796 
L 753.815625 187.698513 
L 753.815625 187.698513 
" clip-path="url(#pdac304013a)" style="fill: none; stroke: #4c78a8; stroke-width: 2.4; stroke-linecap: square"/>
   </g>
   <g id="line2d_27">
    <path d="M 46.965625 102.627969 
L 48.379325 138.514219 
L 49.793025 149.217135 
L 51.206725 154.568594 
L 52.620425 170.622969 
L 54.034125 192.028802 
L 55.447825 208.397969 
L 56.861525 221.147031 
L 58.275225 230.643247 
L 59.688925 238.240219 
L 61.102625 244.799332 
L 62.516325 250.26526 
L 63.930025 254.890276 
L 65.343725 258.314933 
L 66.757425 261.031135 
L 68.171125 263.407812 
L 70.998525 267.15908 
L 75.239625 272.075826 
L 78.067025 274.750577 
L 80.894425 276.997369 
L 83.721825 278.911302 
L 86.549225 280.300727 
L 89.376625 281.389017 
L 90.790325 281.941172 
L 96.445125 283.528247 
L 99.272525 283.947969 
L 103.513625 283.579432 
L 104.927325 283.408326 
L 106.341025 283.596573 
L 107.754725 283.261151 
L 109.168425 282.688802 
L 110.582125 282.469817 
L 114.823225 281.326846 
L 116.236925 280.623769 
L 117.650625 280.318606 
L 120.478025 279.386459 
L 121.891725 279.121163 
L 126.132825 277.850951 
L 127.546525 277.630426 
L 128.960225 277.289325 
L 133.201325 275.905549 
L 136.028725 275.330547 
L 137.442425 274.707623 
L 140.269825 274.024984 
L 141.683525 273.448741 
L 143.097225 273.108186 
L 144.510925 272.615469 
L 145.924625 272.243039 
L 147.338325 271.566163 
L 148.752025 271.321804 
L 151.579425 270.500069 
L 152.993125 270.428495 
L 155.820525 269.612841 
L 157.234225 268.981418 
L 162.889025 265.515589 
L 168.543825 262.889492 
L 169.957525 262.098565 
L 177.026025 258.88649 
L 178.439725 258.469937 
L 179.853425 257.823574 
L 182.680825 257.038149 
L 185.508225 255.59764 
L 186.921925 254.672344 
L 191.163025 252.444352 
L 195.404125 249.701011 
L 198.231525 248.27158 
L 201.058925 246.722423 
L 205.300025 243.632349 
L 206.713725 242.693692 
L 210.954825 239.457413 
L 212.368525 238.489918 
L 215.195925 236.918094 
L 218.023325 235.490694 
L 219.437025 234.6562 
L 220.850725 233.652384 
L 223.678125 231.812473 
L 225.091825 230.85476 
L 226.505525 230.089082 
L 227.919225 229.101011 
L 229.332925 228.331546 
L 246.297325 217.596563 
L 251.952125 214.328516 
L 253.365825 213.584703 
L 261.848025 210.347691 
L 264.675425 209.604138 
L 268.916525 208.899693 
L 274.571325 208.156251 
L 281.639825 207.608769 
L 284.467225 207.336261 
L 291.535725 206.899496 
L 301.431625 206.265955 
L 308.500125 206.035446 
L 339.601525 206.125079 
L 346.670025 206.056613 
L 359.393325 205.903711 
L 370.702925 205.75412 
L 376.357725 205.675089 
L 414.527625 205.382285 
L 423.009825 205.279672 
L 459.766025 205.201641 
L 480.971525 205.133369 
L 577.103125 205.120583 
L 606.790825 205.0393 
L 656.270325 204.976768 
L 709.990925 204.799094 
L 753.815625 204.763243 
L 753.815625 204.763243 
" clip-path="url(#pdac304013a)" style="fill: none; stroke: #f58518; stroke-width: 2.4; stroke-linecap: square"/>
   </g>
   <g id="patch_3">
    <path d="M 46.965625 329.277969 
L 46.965625 27.077969 
" style="fill: none; stroke: #000000; stroke-width: 0.8; stroke-linejoin: miter; stroke-linecap: square"/>
   </g>
   <g id="patch_4">
    <path d="M 46.965625 329.277969 
L 753.815625 329.277969 
" style="fill: none; stroke: #000000; stroke-width: 0.8; stroke-linejoin: miter; stroke-linecap: square"/>
   </g>
   <g id="text_15">
    <!-- Cumulative Repeat Ratio vs Environment Steps -->
    <g transform="translate(226.951328 17.077969) scale(0.13 -0.13)">
     <defs>
      <path id="DejaVuSans-Bold-43" d="M 4288 256 
Q 3956 84 3597 -3 
Q 3238 -91 2847 -91 
Q 1681 -91 1000 561 
Q 319 1213 319 2328 
Q 319 3447 1000 4098 
Q 1681 4750 2847 4750 
Q 3238 4750 3597 4662 
Q 3956 4575 4288 4403 
L 4288 3438 
Q 3953 3666 3628 3772 
Q 3303 3878 2944 3878 
Q 2300 3878 1931 3465 
Q 1563 3053 1563 2328 
Q 1563 1606 1931 1193 
Q 2300 781 2944 781 
Q 3303 781 3628 887 
Q 3953 994 4288 1222 
L 4288 256 
z
" transform="scale(0.015625)"/>
      <path id="DejaVuSans-Bold-75" d="M 500 1363 
L 500 3500 
L 1625 3500 
L 1625 3150 
Q 1625 2866 1622 2436 
Q 1619 2006 1619 1863 
Q 1619 1441 1641 1255 
Q 1663 1069 1716 984 
Q 1784 875 1895 815 
Q 2006 756 2150 756 
Q 2500 756 2700 1025 
Q 2900 1294 2900 1772 
L 2900 3500 
L 4019 3500 
L 4019 0 
L 2900 0 
L 2900 506 
Q 2647 200 2364 54 
Q 2081 -91 1741 -91 
Q 1134 -91 817 281 
Q 500 653 500 1363 
z
" transform="scale(0.015625)"/>
      <path id="DejaVuSans-Bold-6d" d="M 3781 2919 
Q 3994 3244 4286 3414 
Q 4578 3584 4928 3584 
Q 5531 3584 5847 3212 
Q 6163 2841 6163 2131 
L 6163 0 
L 5038 0 
L 5038 1825 
Q 5041 1866 5042 1909 
Q 5044 1953 5044 2034 
Q 5044 2406 4934 2573 
Q 4825 2741 4581 2741 
Q 4263 2741 4089 2478 
Q 3916 2216 3909 1719 
L 3909 0 
L 2784 0 
L 2784 1825 
Q 2784 2406 2684 2573 
Q 2584 2741 2328 2741 
Q 2006 2741 1831 2477 
Q 1656 2213 1656 1722 
L 1656 0 
L 531 0 
L 531 3500 
L 1656 3500 
L 1656 2988 
Q 1863 3284 2130 3434 
Q 2397 3584 2719 3584 
Q 3081 3584 3359 3409 
Q 3638 3234 3781 2919 
z
" transform="scale(0.015625)"/>
      <path id="DejaVuSans-Bold-6c" d="M 538 4863 
L 1656 4863 
L 1656 0 
L 538 0 
L 538 4863 
z
" transform="scale(0.015625)"/>
      <path id="DejaVuSans-Bold-61" d="M 2106 1575 
Q 1756 1575 1579 1456 
Q 1403 1338 1403 1106 
Q 1403 894 1545 773 
Q 1688 653 1941 653 
Q 2256 653 2472 879 
Q 2688 1106 2688 1447 
L 2688 1575 
L 2106 1575 
z
M 3816 1997 
L 3816 0 
L 2688 0 
L 2688 519 
Q 2463 200 2181 54 
Q 1900 -91 1497 -91 
Q 953 -91 614 226 
Q 275 544 275 1050 
Q 275 1666 698 1953 
Q 1122 2241 2028 2241 
L 2688 2241 
L 2688 2328 
Q 2688 2594 2478 2717 
Q 2269 2841 1825 2841 
Q 1466 2841 1156 2769 
Q 847 2697 581 2553 
L 581 3406 
Q 941 3494 1303 3539 
Q 1666 3584 2028 3584 
Q 2975 3584 3395 3211 
Q 3816 2838 3816 1997 
z
" transform="scale(0.015625)"/>
      <path id="DejaVuSans-Bold-74" d="M 1759 4494 
L 1759 3500 
L 2913 3500 
L 2913 2700 
L 1759 2700 
L 1759 1216 
Q 1759 972 1856 886 
Q 1953 800 2241 800 
L 2816 800 
L 2816 0 
L 1856 0 
Q 1194 0 917 276 
Q 641 553 641 1216 
L 641 2700 
L 84 2700 
L 84 3500 
L 641 3500 
L 641 4494 
L 1759 4494 
z
" transform="scale(0.015625)"/>
      <path id="DejaVuSans-Bold-69" d="M 538 3500 
L 1656 3500 
L 1656 0 
L 538 0 
L 538 3500 
z
M 538 4863 
L 1656 4863 
L 1656 3950 
L 538 3950 
L 538 4863 
z
" transform="scale(0.015625)"/>
      <path id="DejaVuSans-Bold-76" d="M 97 3500 
L 1216 3500 
L 2088 1081 
L 2956 3500 
L 4078 3500 
L 2700 0 
L 1472 0 
L 97 3500 
z
" transform="scale(0.015625)"/>
      <path id="DejaVuSans-Bold-65" d="M 4031 1759 
L 4031 1441 
L 1416 1441 
Q 1456 1047 1700 850 
Q 1944 653 2381 653 
Q 2734 653 3104 758 
Q 3475 863 3866 1075 
L 3866 213 
Q 3469 63 3072 -14 
Q 2675 -91 2278 -91 
Q 1328 -91 801 392 
Q 275 875 275 1747 
Q 275 2603 792 3093 
Q 1309 3584 2216 3584 
Q 3041 3584 3536 3087 
Q 4031 2591 4031 1759 
z
M 2881 2131 
Q 2881 2450 2695 2645 
Q 2509 2841 2209 2841 
Q 1884 2841 1681 2658 
Q 1478 2475 1428 2131 
L 2881 2131 
z
" transform="scale(0.015625)"/>
      <path id="DejaVuSans-Bold-20" transform="scale(0.015625)"/>
      <path id="DejaVuSans-Bold-52" d="M 2297 2597 
Q 2675 2597 2839 2737 
Q 3003 2878 3003 3200 
Q 3003 3519 2839 3656 
Q 2675 3794 2297 3794 
L 1791 3794 
L 1791 2597 
L 2297 2597 
z
M 1791 1766 
L 1791 0 
L 588 0 
L 588 4666 
L 2425 4666 
Q 3347 4666 3776 4356 
Q 4206 4047 4206 3378 
Q 4206 2916 3982 2619 
Q 3759 2322 3309 2181 
Q 3556 2125 3751 1926 
Q 3947 1728 4147 1325 
L 4800 0 
L 3519 0 
L 2950 1159 
Q 2778 1509 2601 1637 
Q 2425 1766 2131 1766 
L 1791 1766 
z
" transform="scale(0.015625)"/>
      <path id="DejaVuSans-Bold-70" d="M 1656 506 
L 1656 -1331 
L 538 -1331 
L 538 3500 
L 1656 3500 
L 1656 2988 
Q 1888 3294 2169 3439 
Q 2450 3584 2816 3584 
Q 3463 3584 3878 3070 
Q 4294 2556 4294 1747 
Q 4294 938 3878 423 
Q 3463 -91 2816 -91 
Q 2450 -91 2169 54 
Q 1888 200 1656 506 
z
M 2400 2772 
Q 2041 2772 1848 2508 
Q 1656 2244 1656 1747 
Q 1656 1250 1848 986 
Q 2041 722 2400 722 
Q 2759 722 2948 984 
Q 3138 1247 3138 1747 
Q 3138 2247 2948 2509 
Q 2759 2772 2400 2772 
z
" transform="scale(0.015625)"/>
      <path id="DejaVuSans-Bold-6f" d="M 2203 2784 
Q 1831 2784 1636 2517 
Q 1441 2250 1441 1747 
Q 1441 1244 1636 976 
Q 1831 709 2203 709 
Q 2569 709 2762 976 
Q 2956 1244 2956 1747 
Q 2956 2250 2762 2517 
Q 2569 2784 2203 2784 
z
M 2203 3584 
Q 3106 3584 3614 3096 
Q 4122 2609 4122 1747 
Q 4122 884 3614 396 
Q 3106 -91 2203 -91 
Q 1297 -91 786 396 
Q 275 884 275 1747 
Q 275 2609 786 3096 
Q 1297 3584 2203 3584 
z
" transform="scale(0.015625)"/>
      <path id="DejaVuSans-Bold-73" d="M 3272 3391 
L 3272 2541 
Q 2913 2691 2578 2766 
Q 2244 2841 1947 2841 
Q 1628 2841 1473 2761 
Q 1319 2681 1319 2516 
Q 1319 2381 1436 2309 
Q 1553 2238 1856 2203 
L 2053 2175 
Q 2913 2066 3209 1816 
Q 3506 1566 3506 1031 
Q 3506 472 3093 190 
Q 2681 -91 1863 -91 
Q 1516 -91 1145 -36 
Q 775 19 384 128 
L 384 978 
Q 719 816 1070 734 
Q 1422 653 1784 653 
Q 2113 653 2278 743 
Q 2444 834 2444 1013 
Q 2444 1163 2330 1236 
Q 2216 1309 1875 1350 
L 1678 1375 
Q 931 1469 631 1722 
Q 331 1975 331 2491 
Q 331 3047 712 3315 
Q 1094 3584 1881 3584 
Q 2191 3584 2531 3537 
Q 2872 3491 3272 3391 
z
" transform="scale(0.015625)"/>
      <path id="DejaVuSans-Bold-45" d="M 588 4666 
L 3834 4666 
L 3834 3756 
L 1791 3756 
L 1791 2888 
L 3713 2888 
L 3713 1978 
L 1791 1978 
L 1791 909 
L 3903 909 
L 3903 0 
L 588 0 
L 588 4666 
z
" transform="scale(0.015625)"/>
      <path id="DejaVuSans-Bold-6e" d="M 4056 2131 
L 4056 0 
L 2931 0 
L 2931 347 
L 2931 1631 
Q 2931 2084 2911 2256 
Q 2891 2428 2841 2509 
Q 2775 2619 2662 2680 
Q 2550 2741 2406 2741 
Q 2056 2741 1856 2470 
Q 1656 2200 1656 1722 
L 1656 0 
L 538 0 
L 538 3500 
L 1656 3500 
L 1656 2988 
Q 1909 3294 2193 3439 
Q 2478 3584 2822 3584 
Q 3428 3584 3742 3212 
Q 4056 2841 4056 2131 
z
" transform="scale(0.015625)"/>
      <path id="DejaVuSans-Bold-72" d="M 3138 2547 
Q 2991 2616 2845 2648 
Q 2700 2681 2553 2681 
Q 2122 2681 1889 2404 
Q 1656 2128 1656 1613 
L 1656 0 
L 538 0 
L 538 3500 
L 1656 3500 
L 1656 2925 
Q 1872 3269 2151 3426 
Q 2431 3584 2822 3584 
Q 2878 3584 2943 3579 
Q 3009 3575 3134 3559 
L 3138 2547 
z
" transform="scale(0.015625)"/>
      <path id="DejaVuSans-Bold-53" d="M 3834 4519 
L 3834 3531 
Q 3450 3703 3084 3790 
Q 2719 3878 2394 3878 
Q 1963 3878 1756 3759 
Q 1550 3641 1550 3391 
Q 1550 3203 1689 3098 
Q 1828 2994 2194 2919 
L 2706 2816 
Q 3484 2659 3812 2340 
Q 4141 2022 4141 1434 
Q 4141 663 3683 286 
Q 3225 -91 2284 -91 
Q 1841 -91 1394 -6 
Q 947 78 500 244 
L 500 1259 
Q 947 1022 1364 901 
Q 1781 781 2169 781 
Q 2563 781 2772 912 
Q 2981 1044 2981 1288 
Q 2981 1506 2839 1625 
Q 2697 1744 2272 1838 
L 1806 1941 
Q 1106 2091 782 2419 
Q 459 2747 459 3303 
Q 459 4000 909 4375 
Q 1359 4750 2203 4750 
Q 2588 4750 2994 4692 
Q 3400 4634 3834 4519 
z
" transform="scale(0.015625)"/>
     </defs>
     <use xlink:href="#DejaVuSans-Bold-43"/>
     <use xlink:href="#DejaVuSans-Bold-75" transform="translate(73.388672 0)"/>
     <use xlink:href="#DejaVuSans-Bold-6d" transform="translate(144.580078 0)"/>
     <use xlink:href="#DejaVuSans-Bold-75" transform="translate(248.779297 0)"/>
     <use xlink:href="#DejaVuSans-Bold-6c" transform="translate(319.970703 0)"/>
     <use xlink:href="#DejaVuSans-Bold-61" transform="translate(354.248047 0)"/>
     <use xlink:href="#DejaVuSans-Bold-74" transform="translate(421.728516 0)"/>
     <use xlink:href="#DejaVuSans-Bold-69" transform="translate(469.53125 0)"/>
     <use xlink:href="#DejaVuSans-Bold-76" transform="translate(503.808594 0)"/>
     <use xlink:href="#DejaVuSans-Bold-65" transform="translate(568.994141 0)"/>
     <use xlink:href="#DejaVuSans-Bold-20" transform="translate(636.816406 0)"/>
     <use xlink:href="#DejaVuSans-Bold-52" transform="translate(671.630859 0)"/>
     <use xlink:href="#DejaVuSans-Bold-65" transform="translate(748.632812 0)"/>
     <use xlink:href="#DejaVuSans-Bold-70" transform="translate(816.455078 0)"/>
     <use xlink:href="#DejaVuSans-Bold-65" transform="translate(888.037109 0)"/>
     <use xlink:href="#DejaVuSans-Bold-61" transform="translate(955.859375 0)"/>
     <use xlink:href="#DejaVuSans-Bold-74" transform="translate(1023.339844 0)"/>
     <use xlink:href="#DejaVuSans-Bold-20" transform="translate(1071.142578 0)"/>
     <use xlink:href="#DejaVuSans-Bold-52" transform="translate(1105.957031 0)"/>
     <use xlink:href="#DejaVuSans-Bold-61" transform="translate(1182.958984 0)"/>
     <use xlink:href="#DejaVuSans-Bold-74" transform="translate(1250.439453 0)"/>
     <use xlink:href="#DejaVuSans-Bold-69" transform="translate(1298.242188 0)"/>
     <use xlink:href="#DejaVuSans-Bold-6f" transform="translate(1332.519531 0)"/>
     <use xlink:href="#DejaVuSans-Bold-20" transform="translate(1401.220703 0)"/>
     <use xlink:href="#DejaVuSans-Bold-76" transform="translate(1436.035156 0)"/>
     <use xlink:href="#DejaVuSans-Bold-73" transform="translate(1501.220703 0)"/>
     <use xlink:href="#DejaVuSans-Bold-20" transform="translate(1560.742188 0)"/>
     <use xlink:href="#DejaVuSans-Bold-45" transform="translate(1595.556641 0)"/>
     <use xlink:href="#DejaVuSans-Bold-6e" transform="translate(1663.867188 0)"/>
     <use xlink:href="#DejaVuSans-Bold-76" transform="translate(1735.058594 0)"/>
     <use xlink:href="#DejaVuSans-Bold-69" transform="translate(1800.244141 0)"/>
     <use xlink:href="#DejaVuSans-Bold-72" transform="translate(1834.521484 0)"/>
     <use xlink:href="#DejaVuSans-Bold-6f" transform="translate(1883.837891 0)"/>
     <use xlink:href="#DejaVuSans-Bold-6e" transform="translate(1952.539062 0)"/>
     <use xlink:href="#DejaVuSans-Bold-6d" transform="translate(2023.730469 0)"/>
     <use xlink:href="#DejaVuSans-Bold-65" transform="translate(2127.929688 0)"/>
     <use xlink:href="#DejaVuSans-Bold-6e" transform="translate(2195.751953 0)"/>
     <use xlink:href="#DejaVuSans-Bold-74" transform="translate(2266.943359 0)"/>
     <use xlink:href="#DejaVuSans-Bold-20" transform="translate(2314.746094 0)"/>
     <use xlink:href="#DejaVuSans-Bold-53" transform="translate(2349.560547 0)"/>
     <use xlink:href="#DejaVuSans-Bold-74" transform="translate(2421.582031 0)"/>
     <use xlink:href="#DejaVuSans-Bold-65" transform="translate(2469.384766 0)"/>
     <use xlink:href="#DejaVuSans-Bold-70" transform="translate(2537.207031 0)"/>
     <use xlink:href="#DejaVuSans-Bold-73" transform="translate(2608.789062 0)"/>
    </g>
   </g>
   <g id="legend_1">
    <g id="line2d_28">
     <path d="M 500.804688 314.698281 
L 510.804688 314.698281 
L 520.804688 314.698281 
" style="fill: none; stroke: #9a9a9a; stroke-width: 2.4; stroke-linecap: square"/>
    </g>
    <g id="text_16">
     <!-- GAT-OFF -->
     <g transform="translate(528.804688 318.198281) scale(0.1 -0.1)">
      <defs>
       <path id="DejaVuSans-47" d="M 3809 666 
L 3809 1919 
L 2778 1919 
L 2778 2438 
L 4434 2438 
L 4434 434 
Q 4069 175 3628 42 
Q 3188 -91 2688 -91 
Q 1594 -91 976 548 
Q 359 1188 359 2328 
Q 359 3472 976 4111 
Q 1594 4750 2688 4750 
Q 3144 4750 3555 4637 
Q 3966 4525 4313 4306 
L 4313 3634 
Q 3963 3931 3569 4081 
Q 3175 4231 2741 4231 
Q 1884 4231 1454 3753 
Q 1025 3275 1025 2328 
Q 1025 1384 1454 906 
Q 1884 428 2741 428 
Q 3075 428 3337 486 
Q 3600 544 3809 666 
z
" transform="scale(0.015625)"/>
       <path id="DejaVuSans-41" d="M 2188 4044 
L 1331 1722 
L 3047 1722 
L 2188 4044 
z
M 1831 4666 
L 2547 4666 
L 4325 0 
L 3669 0 
L 3244 1197 
L 1141 1197 
L 716 0 
L 50 0 
L 1831 4666 
z
" transform="scale(0.015625)"/>
       <path id="DejaVuSans-54" d="M -19 4666 
L 3928 4666 
L 3928 4134 
L 2272 4134 
L 2272 0 
L 1638 0 
L 1638 4134 
L -19 4134 
L -19 4666 
z
" transform="scale(0.015625)"/>
       <path id="DejaVuSans-2d" d="M 313 2009 
L 1997 2009 
L 1997 1497 
L 313 1497 
L 313 2009 
z
" transform="scale(0.015625)"/>
       <path id="DejaVuSans-4f" d="M 2522 4238 
Q 1834 4238 1429 3725 
Q 1025 3213 1025 2328 
Q 1025 1447 1429 934 
Q 1834 422 2522 422 
Q 3209 422 3611 934 
Q 4013 1447 4013 2328 
Q 4013 3213 3611 3725 
Q 3209 4238 2522 4238 
z
M 2522 4750 
Q 3503 4750 4090 4092 
Q 4678 3434 4678 2328 
Q 4678 1225 4090 567 
Q 3503 -91 2522 -91 
Q 1538 -91 948 565 
Q 359 1222 359 2328 
Q 359 3434 948 4092 
Q 1538 4750 2522 4750 
z
" transform="scale(0.015625)"/>
       <path id="DejaVuSans-46" d="M 628 4666 
L 3309 4666 
L 3309 4134 
L 1259 4134 
L 1259 2759 
L 3109 2759 
L 3109 2228 
L 1259 2228 
L 1259 0 
L 628 0 
L 628 4666 
z
" transform="scale(0.015625)"/>
      </defs>
      <use xlink:href="#DejaVuSans-47"/>
      <use xlink:href="#DejaVuSans-41" transform="translate(77.490234 0)"/>
      <use xlink:href="#DejaVuSans-54" transform="translate(138.148438 0)"/>
      <use xlink:href="#DejaVuSans-2d" transform="translate(190.107422 0)"/>
      <use xlink:href="#DejaVuSans-4f" transform="translate(228.941406 0)"/>
      <use xlink:href="#DejaVuSans-46" transform="translate(307.652344 0)"/>
      <use xlink:href="#DejaVuSans-46" transform="translate(365.171875 0)"/>
     </g>
    </g>
    <g id="line2d_29">
     <path d="M 591.071875 314.698281 
L 601.071875 314.698281 
L 611.071875 314.698281 
" style="fill: none; stroke: #4c78a8; stroke-width: 2.4; stroke-linecap: square"/>
    </g>
    <g id="text_17">
     <!-- GAT-ON -->
     <g transform="translate(619.071875 318.198281) scale(0.1 -0.1)">
      <defs>
       <path id="DejaVuSans-4e" d="M 628 4666 
L 1478 4666 
L 3547 763 
L 3547 4666 
L 4159 4666 
L 4159 0 
L 3309 0 
L 1241 3903 
L 1241 0 
L 628 0 
L 628 4666 
z
" transform="scale(0.015625)"/>
      </defs>
      <use xlink:href="#DejaVuSans-47"/>
      <use xlink:href="#DejaVuSans-41" transform="translate(77.490234 0)"/>
      <use xlink:href="#DejaVuSans-54" transform="translate(138.148438 0)"/>
      <use xlink:href="#DejaVuSans-2d" transform="translate(190.107422 0)"/>
      <use xlink:href="#DejaVuSans-4f" transform="translate(228.941406 0)"/>
      <use xlink:href="#DejaVuSans-4e" transform="translate(307.652344 0)"/>
     </g>
    </g>
    <g id="line2d_30">
     <path d="M 677.317188 314.698281 
L 687.317188 314.698281 
L 697.317188 314.698281 
" style="fill: none; stroke: #f58518; stroke-width: 2.4; stroke-linecap: square"/>
    </g>
    <g id="text_18">
     <!-- GAT-CIR -->
     <g transform="translate(705.317188 318.198281) scale(0.1 -0.1)">
      <defs>
       <path id="DejaVuSans-49" d="M 628 4666 
L 1259 4666 
L 1259 0 
L 628 0 
L 628 4666 
z
" transform="scale(0.015625)"/>
      </defs>
      <use xlink:href="#DejaVuSans-47"/>
      <use xlink:href="#DejaVuSans-41" transform="translate(77.490234 0)"/>
      <use xlink:href="#DejaVuSans-54" transform="translate(138.148438 0)"/>
      <use xlink:href="#DejaVuSans-2d" transform="translate(190.107422 0)"/>
      <use xlink:href="#DejaVuSans-43" transform="translate(226.191406 0)"/>
      <use xlink:href="#DejaVuSans-49" transform="translate(296.015625 0)"/>
      <use xlink:href="#DejaVuSans-52" transform="translate(325.507812 0)"/>
     </g>
    </g>
   </g>
  </g>
 </g>
 <defs>
  <clipPath id="pdac304013a">
   <rect x="46.965625" y="27.077969" width="706.85" height="302.2"/>
  </clipPath>
 </defs>
</svg>
