<?xml version="1.0" encoding="utf-8" standalone="no"?>
<!DOCTYPE svg PUBLIC "-//W3C//DTD SVG 1.1//EN"
  "http://www.w3.org/Graphics/SVG/1.1/DTD/svg11.dtd">
<svg xmlns:xlink="http://www.w3.org/1999/xlink" width="871.315625pt" height="356.26825pt" viewBox="0 0 871.315625 356.26825" xmlns="http://www.w3.org/2000/svg" version="1.1">
 <metadata>
  <rdf:RDF xmlns:dc="http://purl.org/dc/elements/1.1/" xmlns:cc="http://creativecommons.org/ns#" xmlns:rdf="http://www.w3.org/1999/02/22-rdf-syntax-ns#">
   <cc:Work>
    <dc:type rdf:resource="http://purl.org/dc/dcmitype/StillImage"/>
    <dc:date>2026-06-08T16:33:30.542591</dc:date>
    <dc:format>image/svg+xml</dc:format>
    <dc:creator>
     <cc:Agent>
      <dc:title>Matplotlib v3.10.9, https://matplotlib.org/</dc:title>
     </cc:Agent>
    </dc:creator>
   </cc:Work>
  </rdf:RDF>
 </metadata>
 <defs>
  <style type="text/css">*{stroke-linejoin: round; stroke-linecap: butt}</style>
 </defs>
 <g id="figure_1">
  <g id="patch_1">
   <path d="M -0 356.26825 
L 871.315625 356.26825 
L 871.315625 0 
L -0 0 
z
" style="fill: #ffffff"/>
  </g>
  <g id="axes_1">
   <g id="patch_2">
    <path d="M 46.965625 318.712 
L 422.993443 318.712 
L 422.993443 67.512 
L 46.965625 67.512 
z
" style="fill: #ffffff"/>
   </g>
   <g id="matplotlib.axis_1">
    <g id="xtick_1">
     <g id="line2d_1">
      <path d="M 72.034146 318.712 
L 72.034146 67.512 
" clip-path="url(#p92191dd6fa)" style="fill: none; stroke: #b0b0b0; stroke-opacity: 0.22; stroke-width: 0.8; stroke-linecap: square"/>
     </g>
     <g id="line2d_2">
      <defs>
       <path id="mf1b0bc4f9b" d="M 0 0 
L 0 3.5 
" style="stroke: #000000; stroke-width: 0.8"/>
      </defs>
      <g>
       <use xlink:href="#mf1b0bc4f9b" x="72.034146" y="318.712" style="stroke: #000000; stroke-width: 0.8"/>
      </g>
     </g>
     <g id="text_1">
      <!-- 80 -->
      <g transform="translate(65.671646 333.310437) scale(0.1 -0.1)">
       <defs>
        <path id="DejaVuSans-38" d="M 2034 2216 
Q 1584 2216 1326 1975 
Q 1069 1734 1069 1313 
Q 1069 891 1326 650 
Q 1584 409 2034 409 
Q 2484 409 2743 651 
Q 3003 894 3003 1313 
Q 3003 1734 2745 1975 
Q 2488 2216 2034 2216 
z
M 1403 2484 
Q 997 2584 770 2862 
Q 544 3141 544 3541 
Q 544 4100 942 4425 
Q 1341 4750 2034 4750 
Q 2731 4750 3128 4425 
Q 3525 4100 3525 3541 
Q 3525 3141 3298 2862 
Q 3072 2584 2669 2484 
Q 3125 2378 3379 2068 
Q 3634 1759 3634 1313 
Q 3634 634 3220 271 
Q 2806 -91 2034 -91 
Q 1263 -91 848 271 
Q 434 634 434 1313 
Q 434 1759 690 2068 
Q 947 2378 1403 2484 
z
M 1172 3481 
Q 1172 3119 1398 2916 
Q 1625 2713 2034 2713 
Q 2441 2713 2670 2916 
Q 2900 3119 2900 3481 
Q 2900 3844 2670 4047 
Q 2441 4250 2034 4250 
Q 1625 4250 1398 4047 
Q 1172 3844 1172 3481 
z
" transform="scale(0.015625)"/>
        <path id="DejaVuSans-30" d="M 2034 4250 
Q 1547 4250 1301 3770 
Q 1056 3291 1056 2328 
Q 1056 1369 1301 889 
Q 1547 409 2034 409 
Q 2525 409 2770 889 
Q 3016 1369 3016 2328 
Q 3016 3291 2770 3770 
Q 2525 4250 2034 4250 
z
M 2034 4750 
Q 2819 4750 3233 4129 
Q 3647 3509 3647 2328 
Q 3647 1150 3233 529 
Q 2819 -91 2034 -91 
Q 1250 -91 836 529 
Q 422 1150 422 2328 
Q 422 3509 836 4129 
Q 1250 4750 2034 4750 
z
" transform="scale(0.015625)"/>
       </defs>
       <use xlink:href="#DejaVuSans-38"/>
       <use xlink:href="#DejaVuSans-30" transform="translate(63.623047 0)"/>
      </g>
     </g>
    </g>
    <g id="xtick_2">
     <g id="line2d_3">
      <path d="M 122.171189 318.712 
L 122.171189 67.512 
" clip-path="url(#p92191dd6fa)" style="fill: none; stroke: #b0b0b0; stroke-opacity: 0.22; stroke-width: 0.8; stroke-linecap: square"/>
     </g>
     <g id="line2d_4">
      <g>
       <use xlink:href="#mf1b0bc4f9b" x="122.171189" y="318.712" style="stroke: #000000; stroke-width: 0.8"/>
      </g>
     </g>
     <g id="text_2">
      <!-- 100 -->
      <g transform="translate(112.627439 333.310437) scale(0.1 -0.1)">
       <defs>
        <path id="DejaVuSans-31" d="M 794 531 
L 1825 531 
L 1825 4091 
L 703 3866 
L 703 4441 
L 1819 4666 
L 2450 4666 
L 2450 531 
L 3481 531 
L 3481 0 
L 794 0 
L 794 531 
z
" transform="scale(0.015625)"/>
       </defs>
       <use xlink:href="#DejaVuSans-31"/>
       <use xlink:href="#DejaVuSans-30" transform="translate(63.623047 0)"/>
       <use xlink:href="#DejaVuSans-30" transform="translate(127.246094 0)"/>
      </g>
     </g>
    </g>
    <g id="xtick_3">
     <g id="line2d_5">
      <path d="M 172.308231 318.712 
L 172.308231 67.512 
" clip-path="url(#p92191dd6fa)" style="fill: none; stroke: #b0b0b0; stroke-opacity: 0.22; stroke-width: 0.8; stroke-linecap: square"/>
     </g>
     <g id="line2d_6">
      <g>
       <use xlink:href="#mf1b0bc4f9b" x="172.308231" y="318.712" style="stroke: #000000; stroke-width: 0.8"/>
      </g>
     </g>
     <g id="text_3">
      <!-- 120 -->
      <g transform="translate(162.764481 333.310437) scale(0.1 -0.1)">
       <defs>
        <path id="DejaVuSans-32" d="M 1228 531 
L 3431 531 
L 3431 0 
L 469 0 
L 469 531 
Q 828 903 1448 1529 
Q 2069 2156 2228 2338 
Q 2531 2678 2651 2914 
Q 2772 3150 2772 3378 
Q 2772 3750 2511 3984 
Q 2250 4219 1831 4219 
Q 1534 4219 1204 4116 
Q 875 4013 500 3803 
L 500 4441 
Q 881 4594 1212 4672 
Q 1544 4750 1819 4750 
Q 2544 4750 2975 4387 
Q 3406 4025 3406 3419 
Q 3406 3131 3298 2873 
Q 3191 2616 2906 2266 
Q 2828 2175 2409 1742 
Q 1991 1309 1228 531 
z
" transform="scale(0.015625)"/>
       </defs>
       <use xlink:href="#DejaVuSans-31"/>
       <use xlink:href="#DejaVuSans-32" transform="translate(63.623047 0)"/>
       <use xlink:href="#DejaVuSans-30" transform="translate(127.246094 0)"/>
      </g>
     </g>
    </g>
    <g id="xtick_4">
     <g id="line2d_7">
      <path d="M 222.445273 318.712 
L 222.445273 67.512 
" clip-path="url(#p92191dd6fa)" style="fill: none; stroke: #b0b0b0; stroke-opacity: 0.22; stroke-width: 0.8; stroke-linecap: square"/>
     </g>
     <g id="line2d_8">
      <g>
       <use xlink:href="#mf1b0bc4f9b" x="222.445273" y="318.712" style="stroke: #000000; stroke-width: 0.8"/>
      </g>
     </g>
     <g id="text_4">
      <!-- 140 -->
      <g transform="translate(212.901523 333.310437) scale(0.1 -0.1)">
       <defs>
        <path id="DejaVuSans-34" d="M 2419 4116 
L 825 1625 
L 2419 1625 
L 2419 4116 
z
M 2253 4666 
L 3047 4666 
L 3047 1625 
L 3713 1625 
L 3713 1100 
L 3047 1100 
L 3047 0 
L 2419 0 
L 2419 1100 
L 313 1100 
L 313 1709 
L 2253 4666 
z
" transform="scale(0.015625)"/>
       </defs>
       <use xlink:href="#DejaVuSans-31"/>
       <use xlink:href="#DejaVuSans-34" transform="translate(63.623047 0)"/>
       <use xlink:href="#DejaVuSans-30" transform="translate(127.246094 0)"/>
      </g>
     </g>
    </g>
    <g id="xtick_5">
     <g id="line2d_9">
      <path d="M 272.582316 318.712 
L 272.582316 67.512 
" clip-path="url(#p92191dd6fa)" style="fill: none; stroke: #b0b0b0; stroke-opacity: 0.22; stroke-width: 0.8; stroke-linecap: square"/>
     </g>
     <g id="line2d_10">
      <g>
       <use xlink:href="#mf1b0bc4f9b" x="272.582316" y="318.712" style="stroke: #000000; stroke-width: 0.8"/>
      </g>
     </g>
     <g id="text_5">
      <!-- 160 -->
      <g transform="translate(263.038566 333.310437) scale(0.1 -0.1)">
       <defs>
        <path id="DejaVuSans-36" d="M 2113 2584 
Q 1688 2584 1439 2293 
Q 1191 2003 1191 1497 
Q 1191 994 1439 701 
Q 1688 409 2113 409 
Q 2538 409 2786 701 
Q 3034 994 3034 1497 
Q 3034 2003 2786 2293 
Q 2538 2584 2113 2584 
z
M 3366 4563 
L 3366 3988 
Q 3128 4100 2886 4159 
Q 2644 4219 2406 4219 
Q 1781 4219 1451 3797 
Q 1122 3375 1075 2522 
Q 1259 2794 1537 2939 
Q 1816 3084 2150 3084 
Q 2853 3084 3261 2657 
Q 3669 2231 3669 1497 
Q 3669 778 3244 343 
Q 2819 -91 2113 -91 
Q 1303 -91 875 529 
Q 447 1150 447 2328 
Q 447 3434 972 4092 
Q 1497 4750 2381 4750 
Q 2619 4750 2861 4703 
Q 3103 4656 3366 4563 
z
" transform="scale(0.015625)"/>
       </defs>
       <use xlink:href="#DejaVuSans-31"/>
       <use xlink:href="#DejaVuSans-36" transform="translate(63.623047 0)"/>
       <use xlink:href="#DejaVuSans-30" transform="translate(127.246094 0)"/>
      </g>
     </g>
    </g>
    <g id="xtick_6">
     <g id="line2d_11">
      <path d="M 322.719358 318.712 
L 322.719358 67.512 
" clip-path="url(#p92191dd6fa)" style="fill: none; stroke: #b0b0b0; stroke-opacity: 0.22; stroke-width: 0.8; stroke-linecap: square"/>
     </g>
     <g id="line2d_12">
      <g>
       <use xlink:href="#mf1b0bc4f9b" x="322.719358" y="318.712" style="stroke: #000000; stroke-width: 0.8"/>
      </g>
     </g>
     <g id="text_6">
      <!-- 180 -->
      <g transform="translate(313.175608 333.310437) scale(0.1 -0.1)">
       <use xlink:href="#DejaVuSans-31"/>
       <use xlink:href="#DejaVuSans-38" transform="translate(63.623047 0)"/>
       <use xlink:href="#DejaVuSans-30" transform="translate(127.246094 0)"/>
      </g>
     </g>
    </g>
    <g id="xtick_7">
     <g id="line2d_13">
      <path d="M 372.856401 318.712 
L 372.856401 67.512 
" clip-path="url(#p92191dd6fa)" style="fill: none; stroke: #b0b0b0; stroke-opacity: 0.22; stroke-width: 0.8; stroke-linecap: square"/>
     </g>
     <g id="line2d_14">
      <g>
       <use xlink:href="#mf1b0bc4f9b" x="372.856401" y="318.712" style="stroke: #000000; stroke-width: 0.8"/>
      </g>
     </g>
     <g id="text_7">
      <!-- 200 -->
      <g transform="translate(363.312651 333.310437) scale(0.1 -0.1)">
       <use xlink:href="#DejaVuSans-32"/>
       <use xlink:href="#DejaVuSans-30" transform="translate(63.623047 0)"/>
       <use xlink:href="#DejaVuSans-30" transform="translate(127.246094 0)"/>
      </g>
     </g>
    </g>
    <g id="xtick_8">
     <g id="line2d_15">
      <path d="M 422.993443 318.712 
L 422.993443 67.512 
" clip-path="url(#p92191dd6fa)" style="fill: none; stroke: #b0b0b0; stroke-opacity: 0.22; stroke-width: 0.8; stroke-linecap: square"/>
     </g>
     <g id="line2d_16">
      <g>
       <use xlink:href="#mf1b0bc4f9b" x="422.993443" y="318.712" style="stroke: #000000; stroke-width: 0.8"/>
      </g>
     </g>
     <g id="text_8">
      <!-- 220 -->
      <g transform="translate(413.449693 333.310437) scale(0.1 -0.1)">
       <use xlink:href="#DejaVuSans-32"/>
       <use xlink:href="#DejaVuSans-32" transform="translate(63.623047 0)"/>
       <use xlink:href="#DejaVuSans-30" transform="translate(127.246094 0)"/>
      </g>
     </g>
    </g>
    <g id="text_9">
     <!-- Environment Steps -->
     <g transform="translate(187.47719 346.988562) scale(0.1 -0.1)">
      <defs>
       <path id="DejaVuSans-45" d="M 628 4666 
L 3578 4666 
L 3578 4134 
L 1259 4134 
L 1259 2753 
L 3481 2753 
L 3481 2222 
L 1259 2222 
L 1259 531 
L 3634 531 
L 3634 0 
L 628 0 
L 628 4666 
z
" transform="scale(0.015625)"/>
       <path id="DejaVuSans-6e" d="M 3513 2113 
L 3513 0 
L 2938 0 
L 2938 2094 
Q 2938 2591 2744 2837 
Q 2550 3084 2163 3084 
Q 1697 3084 1428 2787 
Q 1159 2491 1159 1978 
L 1159 0 
L 581 0 
L 581 3500 
L 1159 3500 
L 1159 2956 
Q 1366 3272 1645 3428 
Q 1925 3584 2291 3584 
Q 2894 3584 3203 3211 
Q 3513 2838 3513 2113 
z
" transform="scale(0.015625)"/>
       <path id="DejaVuSans-76" d="M 191 3500 
L 800 3500 
L 1894 563 
L 2988 3500 
L 3597 3500 
L 2284 0 
L 1503 0 
L 191 3500 
z
" transform="scale(0.015625)"/>
       <path id="DejaVuSans-69" d="M 603 3500 
L 1178 3500 
L 1178 0 
L 603 0 
L 603 3500 
z
M 603 4863 
L 1178 4863 
L 1178 4134 
L 603 4134 
L 603 4863 
z
" transform="scale(0.015625)"/>
       <path id="DejaVuSans-72" d="M 2631 2963 
Q 2534 3019 2420 3045 
Q 2306 3072 2169 3072 
Q 1681 3072 1420 2755 
Q 1159 2438 1159 1844 
L 1159 0 
L 581 0 
L 581 3500 
L 1159 3500 
L 1159 2956 
Q 1341 3275 1631 3429 
Q 1922 3584 2338 3584 
Q 2397 3584 2469 3576 
Q 2541 3569 2628 3553 
L 2631 2963 
z
" transform="scale(0.015625)"/>
       <path id="DejaVuSans-6f" d="M 1959 3097 
Q 1497 3097 1228 2736 
Q 959 2375 959 1747 
Q 959 1119 1226 758 
Q 1494 397 1959 397 
Q 2419 397 2687 759 
Q 2956 1122 2956 1747 
Q 2956 2369 2687 2733 
Q 2419 3097 1959 3097 
z
M 1959 3584 
Q 2709 3584 3137 3096 
Q 3566 2609 3566 1747 
Q 3566 888 3137 398 
Q 2709 -91 1959 -91 
Q 1206 -91 779 398 
Q 353 888 353 1747 
Q 353 2609 779 3096 
Q 1206 3584 1959 3584 
z
" transform="scale(0.015625)"/>
       <path id="DejaVuSans-6d" d="M 3328 2828 
Q 3544 3216 3844 3400 
Q 4144 3584 4550 3584 
Q 5097 3584 5394 3201 
Q 5691 2819 5691 2113 
L 5691 0 
L 5113 0 
L 5113 2094 
Q 5113 2597 4934 2840 
Q 4756 3084 4391 3084 
Q 3944 3084 3684 2787 
Q 3425 2491 3425 1978 
L 3425 0 
L 2847 0 
L 2847 2094 
Q 2847 2600 2669 2842 
Q 2491 3084 2119 3084 
Q 1678 3084 1418 2786 
Q 1159 2488 1159 1978 
L 1159 0 
L 581 0 
L 581 3500 
L 1159 3500 
L 1159 2956 
Q 1356 3278 1631 3431 
Q 1906 3584 2284 3584 
Q 2666 3584 2933 3390 
Q 3200 3197 3328 2828 
z
" transform="scale(0.015625)"/>
       <path id="DejaVuSans-65" d="M 3597 1894 
L 3597 1613 
L 953 1613 
Q 991 1019 1311 708 
Q 1631 397 2203 397 
Q 2534 397 2845 478 
Q 3156 559 3463 722 
L 3463 178 
Q 3153 47 2828 -22 
Q 2503 -91 2169 -91 
Q 1331 -91 842 396 
Q 353 884 353 1716 
Q 353 2575 817 3079 
Q 1281 3584 2069 3584 
Q 2775 3584 3186 3129 
Q 3597 2675 3597 1894 
z
M 3022 2063 
Q 3016 2534 2758 2815 
Q 2500 3097 2075 3097 
Q 1594 3097 1305 2825 
Q 1016 2553 972 2059 
L 3022 2063 
z
" transform="scale(0.015625)"/>
       <path id="DejaVuSans-74" d="M 1172 4494 
L 1172 3500 
L 2356 3500 
L 2356 3053 
L 1172 3053 
L 1172 1153 
Q 1172 725 1289 603 
Q 1406 481 1766 481 
L 2356 481 
L 2356 0 
L 1766 0 
Q 1100 0 847 248 
Q 594 497 594 1153 
L 594 3053 
L 172 3053 
L 172 3500 
L 594 3500 
L 594 4494 
L 1172 4494 
z
" transform="scale(0.015625)"/>
       <path id="DejaVuSans-20" transform="scale(0.015625)"/>
       <path id="DejaVuSans-53" d="M 3425 4513 
L 3425 3897 
Q 3066 4069 2747 4153 
Q 2428 4238 2131 4238 
Q 1616 4238 1336 4038 
Q 1056 3838 1056 3469 
Q 1056 3159 1242 3001 
Q 1428 2844 1947 2747 
L 2328 2669 
Q 3034 2534 3370 2195 
Q 3706 1856 3706 1288 
Q 3706 609 3251 259 
Q 2797 -91 1919 -91 
Q 1588 -91 1214 -16 
Q 841 59 441 206 
L 441 856 
Q 825 641 1194 531 
Q 1563 422 1919 422 
Q 2459 422 2753 634 
Q 3047 847 3047 1241 
Q 3047 1584 2836 1778 
Q 2625 1972 2144 2069 
L 1759 2144 
Q 1053 2284 737 2584 
Q 422 2884 422 3419 
Q 422 4038 858 4394 
Q 1294 4750 2059 4750 
Q 2388 4750 2728 4690 
Q 3069 4631 3425 4513 
z
" transform="scale(0.015625)"/>
       <path id="DejaVuSans-70" d="M 1159 525 
L 1159 -1331 
L 581 -1331 
L 581 3500 
L 1159 3500 
L 1159 2969 
Q 1341 3281 1617 3432 
Q 1894 3584 2278 3584 
Q 2916 3584 3314 3078 
Q 3713 2572 3713 1747 
Q 3713 922 3314 415 
Q 2916 -91 2278 -91 
Q 1894 -91 1617 61 
Q 1341 213 1159 525 
z
M 3116 1747 
Q 3116 2381 2855 2742 
Q 2594 3103 2138 3103 
Q 1681 3103 1420 2742 
Q 1159 2381 1159 1747 
Q 1159 1113 1420 752 
Q 1681 391 2138 391 
Q 2594 391 2855 752 
Q 3116 1113 3116 1747 
z
" transform="scale(0.015625)"/>
       <path id="DejaVuSans-73" d="M 2834 3397 
L 2834 2853 
Q 2591 2978 2328 3040 
Q 2066 3103 1784 3103 
Q 1356 3103 1142 2972 
Q 928 2841 928 2578 
Q 928 2378 1081 2264 
Q 1234 2150 1697 2047 
L 1894 2003 
Q 2506 1872 2764 1633 
Q 3022 1394 3022 966 
Q 3022 478 2636 193 
Q 2250 -91 1575 -91 
Q 1294 -91 989 -36 
Q 684 19 347 128 
L 347 722 
Q 666 556 975 473 
Q 1284 391 1588 391 
Q 1994 391 2212 530 
Q 2431 669 2431 922 
Q 2431 1156 2273 1281 
Q 2116 1406 1581 1522 
L 1381 1569 
Q 847 1681 609 1914 
Q 372 2147 372 2553 
Q 372 3047 722 3315 
Q 1072 3584 1716 3584 
Q 2034 3584 2315 3537 
Q 2597 3491 2834 3397 
z
" transform="scale(0.015625)"/>
      </defs>
      <use xlink:href="#DejaVuSans-45"/>
      <use xlink:href="#DejaVuSans-6e" transform="translate(63.183594 0)"/>
      <use xlink:href="#DejaVuSans-76" transform="translate(126.5625 0)"/>
      <use xlink:href="#DejaVuSans-69" transform="translate(185.742188 0)"/>
      <use xlink:href="#DejaVuSans-72" transform="translate(213.525391 0)"/>
      <use xlink:href="#DejaVuSans-6f" transform="translate(252.388672 0)"/>
      <use xlink:href="#DejaVuSans-6e" transform="translate(313.570312 0)"/>
      <use xlink:href="#DejaVuSans-6d" transform="translate(376.949219 0)"/>
      <use xlink:href="#DejaVuSans-65" transform="translate(474.361328 0)"/>
      <use xlink:href="#DejaVuSans-6e" transform="translate(535.884766 0)"/>
      <use xlink:href="#DejaVuSans-74" transform="translate(599.263672 0)"/>
      <use xlink:href="#DejaVuSans-20" transform="translate(638.472656 0)"/>
      <use xlink:href="#DejaVuSans-53" transform="translate(670.259766 0)"/>
      <use xlink:href="#DejaVuSans-74" transform="translate(733.736328 0)"/>
      <use xlink:href="#DejaVuSans-65" transform="translate(772.945312 0)"/>
      <use xlink:href="#DejaVuSans-70" transform="translate(834.46875 0)"/>
      <use xlink:href="#DejaVuSans-73" transform="translate(897.945312 0)"/>
     </g>
    </g>
   </g>
   <g id="matplotlib.axis_2">
    <g id="ytick_1">
     <g id="line2d_17">
      <path d="M 46.965625 306.890824 
L 422.993443 306.890824 
" clip-path="url(#p92191dd6fa)" style="fill: none; stroke: #b0b0b0; stroke-opacity: 0.22; stroke-width: 0.8; stroke-linecap: square"/>
     </g>
     <g id="line2d_18">
      <defs>
       <path id="m94377f22e1" d="M 0 0 
L -3.5 0 
" style="stroke: #000000; stroke-width: 0.8"/>
      </defs>
      <g>
       <use xlink:href="#m94377f22e1" x="46.965625" y="306.890824" style="stroke: #000000; stroke-width: 0.8"/>
      </g>
     </g>
     <g id="text_10">
      <!-- 60 -->
      <g transform="translate(27.240625 310.690042) scale(0.1 -0.1)">
       <use xlink:href="#DejaVuSans-36"/>
       <use xlink:href="#DejaVuSans-30" transform="translate(63.623047 0)"/>
      </g>
     </g>
    </g>
    <g id="ytick_2">
     <g id="line2d_19">
      <path d="M 46.965625 277.337882 
L 422.993443 277.337882 
" clip-path="url(#p92191dd6fa)" style="fill: none; stroke: #b0b0b0; stroke-opacity: 0.22; stroke-width: 0.8; stroke-linecap: square"/>
     </g>
     <g id="line2d_20">
      <g>
       <use xlink:href="#m94377f22e1" x="46.965625" y="277.337882" style="stroke: #000000; stroke-width: 0.8"/>
      </g>
     </g>
     <g id="text_11">
      <!-- 65 -->
      <g transform="translate(27.240625 281.137101) scale(0.1 -0.1)">
       <defs>
        <path id="DejaVuSans-35" d="M 691 4666 
L 3169 4666 
L 3169 4134 
L 1269 4134 
L 1269 2991 
Q 1406 3038 1543 3061 
Q 1681 3084 1819 3084 
Q 2600 3084 3056 2656 
Q 3513 2228 3513 1497 
Q 3513 744 3044 326 
Q 2575 -91 1722 -91 
Q 1428 -91 1123 -41 
Q 819 9 494 109 
L 494 744 
Q 775 591 1075 516 
Q 1375 441 1709 441 
Q 2250 441 2565 725 
Q 2881 1009 2881 1497 
Q 2881 1984 2565 2268 
Q 2250 2553 1709 2553 
Q 1456 2553 1204 2497 
Q 953 2441 691 2322 
L 691 4666 
z
" transform="scale(0.015625)"/>
       </defs>
       <use xlink:href="#DejaVuSans-36"/>
       <use xlink:href="#DejaVuSans-35" transform="translate(63.623047 0)"/>
      </g>
     </g>
    </g>
    <g id="ytick_3">
     <g id="line2d_21">
      <path d="M 46.965625 247.784941 
L 422.993443 247.784941 
" clip-path="url(#p92191dd6fa)" style="fill: none; stroke: #b0b0b0; stroke-opacity: 0.22; stroke-width: 0.8; stroke-linecap: square"/>
     </g>
     <g id="line2d_22">
      <g>
       <use xlink:href="#m94377f22e1" x="46.965625" y="247.784941" style="stroke: #000000; stroke-width: 0.8"/>
      </g>
     </g>
     <g id="text_12">
      <!-- 70 -->
      <g transform="translate(27.240625 251.58416) scale(0.1 -0.1)">
       <defs>
        <path id="DejaVuSans-37" d="M 525 4666 
L 3525 4666 
L 3525 4397 
L 1831 0 
L 1172 0 
L 2766 4134 
L 525 4134 
L 525 4666 
z
" transform="scale(0.015625)"/>
       </defs>
       <use xlink:href="#DejaVuSans-37"/>
       <use xlink:href="#DejaVuSans-30" transform="translate(63.623047 0)"/>
      </g>
     </g>
    </g>
    <g id="ytick_4">
     <g id="line2d_23">
      <path d="M 46.965625 218.232 
L 422.993443 218.232 
" clip-path="url(#p92191dd6fa)" style="fill: none; stroke: #b0b0b0; stroke-opacity: 0.22; stroke-width: 0.8; stroke-linecap: square"/>
     </g>
     <g id="line2d_24">
      <g>
       <use xlink:href="#m94377f22e1" x="46.965625" y="218.232" style="stroke: #000000; stroke-width: 0.8"/>
      </g>
     </g>
     <g id="text_13">
      <!-- 75 -->
      <g transform="translate(27.240625 222.031219) scale(0.1 -0.1)">
       <use xlink:href="#DejaVuSans-37"/>
       <use xlink:href="#DejaVuSans-35" transform="translate(63.623047 0)"/>
      </g>
     </g>
    </g>
    <g id="ytick_5">
     <g id="line2d_25">
      <path d="M 46.965625 188.679059 
L 422.993443 188.679059 
" clip-path="url(#p92191dd6fa)" style="fill: none; stroke: #b0b0b0; stroke-opacity: 0.22; stroke-width: 0.8; stroke-linecap: square"/>
     </g>
     <g id="line2d_26">
      <g>
       <use xlink:href="#m94377f22e1" x="46.965625" y="188.679059" style="stroke: #000000; stroke-width: 0.8"/>
      </g>
     </g>
     <g id="text_14">
      <!-- 80 -->
      <g transform="translate(27.240625 192.478278) scale(0.1 -0.1)">
       <use xlink:href="#DejaVuSans-38"/>
       <use xlink:href="#DejaVuSans-30" transform="translate(63.623047 0)"/>
      </g>
     </g>
    </g>
    <g id="ytick_6">
     <g id="line2d_27">
      <path d="M 46.965625 159.126118 
L 422.993443 159.126118 
" clip-path="url(#p92191dd6fa)" style="fill: none; stroke: #b0b0b0; stroke-opacity: 0.22; stroke-width: 0.8; stroke-linecap: square"/>
     </g>
     <g id="line2d_28">
      <g>
       <use xlink:href="#m94377f22e1" x="46.965625" y="159.126118" style="stroke: #000000; stroke-width: 0.8"/>
      </g>
     </g>
     <g id="text_15">
      <!-- 85 -->
      <g transform="translate(27.240625 162.925336) scale(0.1 -0.1)">
       <use xlink:href="#DejaVuSans-38"/>
       <use xlink:href="#DejaVuSans-35" transform="translate(63.623047 0)"/>
      </g>
     </g>
    </g>
    <g id="ytick_7">
     <g id="line2d_29">
      <path d="M 46.965625 129.573176 
L 422.993443 129.573176 
" clip-path="url(#p92191dd6fa)" style="fill: none; stroke: #b0b0b0; stroke-opacity: 0.22; stroke-width: 0.8; stroke-linecap: square"/>
     </g>
     <g id="line2d_30">
      <g>
       <use xlink:href="#m94377f22e1" x="46.965625" y="129.573176" style="stroke: #000000; stroke-width: 0.8"/>
      </g>
     </g>
     <g id="text_16">
      <!-- 90 -->
      <g transform="translate(27.240625 133.372395) scale(0.1 -0.1)">
       <defs>
        <path id="DejaVuSans-39" d="M 703 97 
L 703 672 
Q 941 559 1184 500 
Q 1428 441 1663 441 
Q 2288 441 2617 861 
Q 2947 1281 2994 2138 
Q 2813 1869 2534 1725 
Q 2256 1581 1919 1581 
Q 1219 1581 811 2004 
Q 403 2428 403 3163 
Q 403 3881 828 4315 
Q 1253 4750 1959 4750 
Q 2769 4750 3195 4129 
Q 3622 3509 3622 2328 
Q 3622 1225 3098 567 
Q 2575 -91 1691 -91 
Q 1453 -91 1209 -44 
Q 966 3 703 97 
z
M 1959 2075 
Q 2384 2075 2632 2365 
Q 2881 2656 2881 3163 
Q 2881 3666 2632 3958 
Q 2384 4250 1959 4250 
Q 1534 4250 1286 3958 
Q 1038 3666 1038 3163 
Q 1038 2656 1286 2365 
Q 1534 2075 1959 2075 
z
" transform="scale(0.015625)"/>
       </defs>
       <use xlink:href="#DejaVuSans-39"/>
       <use xlink:href="#DejaVuSans-30" transform="translate(63.623047 0)"/>
      </g>
     </g>
    </g>
    <g id="ytick_8">
     <g id="line2d_31">
      <path d="M 46.965625 100.020235 
L 422.993443 100.020235 
" clip-path="url(#p92191dd6fa)" style="fill: none; stroke: #b0b0b0; stroke-opacity: 0.22; stroke-width: 0.8; stroke-linecap: square"/>
     </g>
     <g id="line2d_32">
      <g>
       <use xlink:href="#m94377f22e1" x="46.965625" y="100.020235" style="stroke: #000000; stroke-width: 0.8"/>
      </g>
     </g>
     <g id="text_17">
      <!-- 95 -->
      <g transform="translate(27.240625 103.819454) scale(0.1 -0.1)">
       <use xlink:href="#DejaVuSans-39"/>
       <use xlink:href="#DejaVuSans-35" transform="translate(63.623047 0)"/>
      </g>
     </g>
    </g>
    <g id="ytick_9">
     <g id="line2d_33">
      <path d="M 46.965625 70.467294 
L 422.993443 70.467294 
" clip-path="url(#p92191dd6fa)" style="fill: none; stroke: #b0b0b0; stroke-opacity: 0.22; stroke-width: 0.8; stroke-linecap: square"/>
     </g>
     <g id="line2d_34">
      <g>
       <use xlink:href="#m94377f22e1" x="46.965625" y="70.467294" style="stroke: #000000; stroke-width: 0.8"/>
      </g>
     </g>
     <g id="text_18">
      <!-- 100 -->
      <g transform="translate(20.878125 74.266513) scale(0.1 -0.1)">
       <use xlink:href="#DejaVuSans-31"/>
       <use xlink:href="#DejaVuSans-30" transform="translate(63.623047 0)"/>
       <use xlink:href="#DejaVuSans-30" transform="translate(127.246094 0)"/>
      </g>
     </g>
    </g>
    <g id="text_19">
     <!-- Coverage Rate (%) -->
     <g transform="translate(14.798438 240.362) rotate(-90) scale(0.1 -0.1)">
      <defs>
       <path id="DejaVuSans-43" d="M 4122 4306 
L 4122 3641 
Q 3803 3938 3442 4084 
Q 3081 4231 2675 4231 
Q 1875 4231 1450 3742 
Q 1025 3253 1025 2328 
Q 1025 1406 1450 917 
Q 1875 428 2675 428 
Q 3081 428 3442 575 
Q 3803 722 4122 1019 
L 4122 359 
Q 3791 134 3420 21 
Q 3050 -91 2638 -91 
Q 1578 -91 968 557 
Q 359 1206 359 2328 
Q 359 3453 968 4101 
Q 1578 4750 2638 4750 
Q 3056 4750 3426 4639 
Q 3797 4528 4122 4306 
z
" transform="scale(0.015625)"/>
       <path id="DejaVuSans-61" d="M 2194 1759 
Q 1497 1759 1228 1600 
Q 959 1441 959 1056 
Q 959 750 1161 570 
Q 1363 391 1709 391 
Q 2188 391 2477 730 
Q 2766 1069 2766 1631 
L 2766 1759 
L 2194 1759 
z
M 3341 1997 
L 3341 0 
L 2766 0 
L 2766 531 
Q 2569 213 2275 61 
Q 1981 -91 1556 -91 
Q 1019 -91 701 211 
Q 384 513 384 1019 
Q 384 1609 779 1909 
Q 1175 2209 1959 2209 
L 2766 2209 
L 2766 2266 
Q 2766 2663 2505 2880 
Q 2244 3097 1772 3097 
Q 1472 3097 1187 3025 
Q 903 2953 641 2809 
L 641 3341 
Q 956 3463 1253 3523 
Q 1550 3584 1831 3584 
Q 2591 3584 2966 3190 
Q 3341 2797 3341 1997 
z
" transform="scale(0.015625)"/>
       <path id="DejaVuSans-67" d="M 2906 1791 
Q 2906 2416 2648 2759 
Q 2391 3103 1925 3103 
Q 1463 3103 1205 2759 
Q 947 2416 947 1791 
Q 947 1169 1205 825 
Q 1463 481 1925 481 
Q 2391 481 2648 825 
Q 2906 1169 2906 1791 
z
M 3481 434 
Q 3481 -459 3084 -895 
Q 2688 -1331 1869 -1331 
Q 1566 -1331 1297 -1286 
Q 1028 -1241 775 -1147 
L 775 -588 
Q 1028 -725 1275 -790 
Q 1522 -856 1778 -856 
Q 2344 -856 2625 -561 
Q 2906 -266 2906 331 
L 2906 616 
Q 2728 306 2450 153 
Q 2172 0 1784 0 
Q 1141 0 747 490 
Q 353 981 353 1791 
Q 353 2603 747 3093 
Q 1141 3584 1784 3584 
Q 2172 3584 2450 3431 
Q 2728 3278 2906 2969 
L 2906 3500 
L 3481 3500 
L 3481 434 
z
" transform="scale(0.015625)"/>
       <path id="DejaVuSans-52" d="M 2841 2188 
Q 3044 2119 3236 1894 
Q 3428 1669 3622 1275 
L 4263 0 
L 3584 0 
L 2988 1197 
Q 2756 1666 2539 1819 
Q 2322 1972 1947 1972 
L 1259 1972 
L 1259 0 
L 628 0 
L 628 4666 
L 2053 4666 
Q 2853 4666 3247 4331 
Q 3641 3997 3641 3322 
Q 3641 2881 3436 2590 
Q 3231 2300 2841 2188 
z
M 1259 4147 
L 1259 2491 
L 2053 2491 
Q 2509 2491 2742 2702 
Q 2975 2913 2975 3322 
Q 2975 3731 2742 3939 
Q 2509 4147 2053 4147 
L 1259 4147 
z
" transform="scale(0.015625)"/>
       <path id="DejaVuSans-28" d="M 1984 4856 
Q 1566 4138 1362 3434 
Q 1159 2731 1159 2009 
Q 1159 1288 1364 580 
Q 1569 -128 1984 -844 
L 1484 -844 
Q 1016 -109 783 600 
Q 550 1309 550 2009 
Q 550 2706 781 3412 
Q 1013 4119 1484 4856 
L 1984 4856 
z
" transform="scale(0.015625)"/>
       <path id="DejaVuSans-25" d="M 4653 2053 
Q 4381 2053 4226 1822 
Q 4072 1591 4072 1178 
Q 4072 772 4226 539 
Q 4381 306 4653 306 
Q 4919 306 5073 539 
Q 5228 772 5228 1178 
Q 5228 1588 5073 1820 
Q 4919 2053 4653 2053 
z
M 4653 2450 
Q 5147 2450 5437 2106 
Q 5728 1763 5728 1178 
Q 5728 594 5436 251 
Q 5144 -91 4653 -91 
Q 4153 -91 3862 251 
Q 3572 594 3572 1178 
Q 3572 1766 3864 2108 
Q 4156 2450 4653 2450 
z
M 1428 4353 
Q 1159 4353 1004 4120 
Q 850 3888 850 3481 
Q 850 3069 1003 2837 
Q 1156 2606 1428 2606 
Q 1700 2606 1854 2837 
Q 2009 3069 2009 3481 
Q 2009 3884 1853 4118 
Q 1697 4353 1428 4353 
z
M 4250 4750 
L 4750 4750 
L 1831 -91 
L 1331 -91 
L 4250 4750 
z
M 1428 4750 
Q 1922 4750 2215 4408 
Q 2509 4066 2509 3481 
Q 2509 2891 2217 2550 
Q 1925 2209 1428 2209 
Q 931 2209 642 2551 
Q 353 2894 353 3481 
Q 353 4063 643 4406 
Q 934 4750 1428 4750 
z
" transform="scale(0.015625)"/>
       <path id="DejaVuSans-29" d="M 513 4856 
L 1013 4856 
Q 1481 4119 1714 3412 
Q 1947 2706 1947 2009 
Q 1947 1309 1714 600 
Q 1481 -109 1013 -844 
L 513 -844 
Q 928 -128 1133 580 
Q 1338 1288 1338 2009 
Q 1338 2731 1133 3434 
Q 928 4138 513 4856 
z
" transform="scale(0.015625)"/>
      </defs>
      <use xlink:href="#DejaVuSans-43"/>
      <use xlink:href="#DejaVuSans-6f" transform="translate(69.824219 0)"/>
      <use xlink:href="#DejaVuSans-76" transform="translate(131.005859 0)"/>
      <use xlink:href="#DejaVuSans-65" transform="translate(190.185547 0)"/>
      <use xlink:href="#DejaVuSans-72" transform="translate(251.708984 0)"/>
      <use xlink:href="#DejaVuSans-61" transform="translate(292.822266 0)"/>
      <use xlink:href="#DejaVuSans-67" transform="translate(354.101562 0)"/>
      <use xlink:href="#DejaVuSans-65" transform="translate(417.578125 0)"/>
      <use xlink:href="#DejaVuSans-20" transform="translate(479.101562 0)"/>
      <use xlink:href="#DejaVuSans-52" transform="translate(510.888672 0)"/>
      <use xlink:href="#DejaVuSans-61" transform="translate(578.121094 0)"/>
      <use xlink:href="#DejaVuSans-74" transform="translate(639.400391 0)"/>
      <use xlink:href="#DejaVuSans-65" transform="translate(678.609375 0)"/>
      <use xlink:href="#DejaVuSans-20" transform="translate(740.132812 0)"/>
      <use xlink:href="#DejaVuSans-28" transform="translate(771.919922 0)"/>
      <use xlink:href="#DejaVuSans-25" transform="translate(810.933594 0)"/>
      <use xlink:href="#DejaVuSans-29" transform="translate(905.953125 0)"/>
     </g>
    </g>
   </g>
   <g id="line2d_35">
    <path d="M 29.534277 357.26825 
L 31.924512 353.708904 
L 39.445069 341.498873 
L 44.458773 333.721783 
L 49.472477 326.644632 
L 56.993033 316.223331 
L 59.499886 312.723641 
L 64.51359 306.035344 
L 69.527294 299.269276 
L 82.061555 283.481783 
L 92.088963 273.216025 
L 94.595815 270.338502 
L 107.130076 257.039678 
L 112.14378 252.451195 
L 119.664337 244.907418 
L 122.171189 242.574291 
L 129.691745 234.486118 
L 134.705449 229.042155 
L 139.719153 224.220359 
L 142.226006 221.887232 
L 144.732858 219.398563 
L 147.23971 217.220978 
L 149.746562 214.887851 
L 152.253414 212.710266 
L 154.760266 210.843765 
L 157.267118 208.821721 
L 159.77397 206.95522 
L 169.801379 200.422464 
L 172.308231 198.32265 
L 174.815083 196.689461 
L 179.828787 192.878687 
L 182.33564 190.934415 
L 184.842492 188.834601 
L 187.349344 187.356954 
L 192.363048 183.779492 
L 194.8699 182.457387 
L 197.376752 180.97974 
L 202.390457 178.879926 
L 204.897309 177.55782 
L 209.911013 175.146923 
L 212.417865 173.669276 
L 214.924717 172.34717 
L 217.431569 170.713981 
L 219.938421 169.469647 
L 222.445273 167.992 
L 224.952126 166.669895 
L 227.458978 165.658873 
L 232.472682 163.325746 
L 234.979534 162.003641 
L 237.486386 160.992619 
L 245.006943 157.5707 
L 250.020647 155.393115 
L 257.541203 152.748904 
L 260.048055 151.737882 
L 262.554907 150.415777 
L 265.06176 149.249214 
L 267.568612 148.549276 
L 270.075464 147.693796 
L 275.089168 146.37169 
L 277.59602 145.360669 
L 285.116577 142.716458 
L 292.637133 139.994477 
L 295.143985 139.138997 
L 297.650837 138.127975 
L 300.157689 137.505808 
L 307.678246 135.250452 
L 317.705654 132.4507 
L 320.212506 131.984074 
L 322.719358 131.361907 
L 325.22621 130.506427 
L 332.746767 129.02878 
L 337.760471 127.706675 
L 342.774175 126.540111 
L 347.78788 125.684632 
L 350.294732 125.062464 
L 355.308436 124.206985 
L 357.815288 123.895901 
L 360.32214 123.351505 
L 365.335844 122.496025 
L 380.376957 119.618502 
L 382.883809 118.918563 
L 385.390661 118.60748 
L 387.897513 118.063084 
L 390.404366 117.285375 
L 395.41807 116.429895 
L 400.431774 115.885498 
L 402.938626 115.418873 
L 407.95233 115.030019 
L 422.993443 113.241288 
L 430.514 112.696892 
L 443.04826 111.063703 
L 473.130486 106.47522 
L 498.199007 104.219864 
L 508.226415 103.519926 
L 510.733267 103.0533 
L 513.24012 102.742217 
L 515.746972 102.586675 
L 518.253824 102.275591 
L 523.267528 101.886737 
L 528.281232 101.186799 
L 533.294937 100.486861 
L 535.801789 100.253548 
L 540.815493 100.020235 
L 543.322345 99.786923 
L 548.336049 99.086985 
L 550.842901 98.775901 
L 555.856606 98.464817 
L 558.363458 98.075963 
L 568.390866 97.064941 
L 580.925127 95.19844 
L 595.96624 93.876334 
L 598.473092 93.798563 
L 621.034761 91.620978 
L 626.048465 91.076582 
L 646.103282 89.287851 
L 651.116986 88.976768 
L 656.13069 88.432372 
L 661.144395 88.043517 
L 666.158099 87.654663 
L 671.171803 86.954724 
L 673.678655 86.488099 
L 681.199212 85.554848 
L 688.719768 85.088223 
L 693.733472 84.310514 
L 706.267733 83.221721 
L 721.308846 82.366241 
L 726.32255 82.132929 
L 733.843106 81.199678 
L 738.85681 80.966365 
L 741.363663 80.733053 
L 746.377367 79.877573 
L 751.391071 79.333176 
L 756.404775 79.099864 
L 771.445888 78.555467 
L 801.528113 76.766737 
L 831.610339 75.755715 
L 841.637747 75.211319 
L 846.651452 75.133548 
L 854.172008 75.055777 
L 861.692564 74.900235 
L 869.213121 74.822464 
L 872.315625 74.648443 
L 872.315625 74.648443 
" clip-path="url(#p92191dd6fa)" style="fill: none; stroke: #9a9a9a; stroke-width: 2.5; stroke-linecap: square"/>
   </g>
   <g id="line2d_36">
    <path d="M 15.936855 357.26825 
L 21.897104 347.020607 
L 29.41766 332.944074 
L 31.924512 327.966737 
L 34.431364 323.300483 
L 36.938217 319.100854 
L 39.445069 315.134539 
L 44.458773 306.190885 
L 51.979329 293.903084 
L 69.527294 267.149895 
L 72.034146 263.028037 
L 74.540998 259.217263 
L 77.04785 255.639802 
L 79.554703 251.673486 
L 82.061555 247.940483 
L 84.568407 244.518563 
L 92.088963 232.852929 
L 99.60952 222.898254 
L 102.116372 219.165251 
L 107.130076 212.788037 
L 109.636928 209.288347 
L 122.171189 193.578625 
L 124.678041 190.312248 
L 129.691745 184.47943 
L 132.198597 181.446365 
L 134.705449 178.724384 
L 137.212301 176.469028 
L 139.719153 173.824817 
L 144.732858 168.225313 
L 147.23971 166.047728 
L 152.253414 160.992619 
L 157.267118 157.026303 
L 159.77397 154.615406 
L 162.280823 152.748904 
L 164.787675 150.571319 
L 174.815083 143.805251 
L 177.321935 142.327604 
L 179.828787 140.616644 
L 182.33564 139.138997 
L 184.842492 137.505808 
L 187.349344 136.028161 
L 189.856196 134.706056 
L 197.376752 130.117573 
L 199.883604 128.095529 
L 204.897309 124.829152 
L 207.404161 123.740359 
L 209.911013 122.340483 
L 212.417865 120.551752 
L 219.938421 116.974291 
L 222.445273 115.729957 
L 227.458978 113.863455 
L 232.472682 111.763641 
L 239.993238 109.352743 
L 242.50009 108.886118 
L 245.006943 108.108409 
L 250.020647 107.252929 
L 252.527499 106.630762 
L 272.582316 103.442155 
L 275.089168 102.975529 
L 277.59602 102.742217 
L 285.116577 101.26457 
L 287.623429 101.031257 
L 297.650837 99.398068 
L 300.157689 98.853672 
L 305.171393 97.998192 
L 310.185098 97.142712 
L 320.212506 96.287232 
L 325.22621 95.898378 
L 330.239915 95.19844 
L 332.746767 94.965127 
L 335.253619 94.576272 
L 345.281027 93.643022 
L 347.78788 93.254167 
L 350.294732 93.020854 
L 355.308436 92.320916 
L 362.828992 91.77652 
L 375.363253 90.687728 
L 380.376957 90.376644 
L 382.883809 90.06556 
L 387.897513 89.832248 
L 400.431774 88.743455 
L 405.445478 88.432372 
L 415.472887 87.265808 
L 428.007147 86.177015 
L 433.020852 85.788161 
L 438.034556 85.399307 
L 460.596225 83.921659 
L 468.116781 83.299492 
L 478.14419 82.910638 
L 493.185303 82.055158 
L 498.199007 81.821845 
L 508.226415 81.277449 
L 515.746972 80.966365 
L 520.760676 80.733053 
L 540.815493 80.033115 
L 545.829197 79.799802 
L 651.116986 76.611195 
L 658.637543 76.533424 
L 668.664951 76.300111 
L 673.678655 76.222341 
L 688.719768 75.833486 
L 696.240324 75.755715 
L 711.281437 75.366861 
L 721.308846 75.28909 
L 731.336254 75.055777 
L 736.349958 74.978006 
L 761.41848 74.278068 
L 766.432184 74.200297 
L 773.95274 74.044755 
L 778.966444 73.966985 
L 788.993853 73.733672 
L 796.514409 73.655901 
L 806.541818 73.422588 
L 844.1446 73.344817 
L 869.213121 72.644879 
L 872.315625 72.644879 
L 872.315625 72.644879 
" clip-path="url(#p92191dd6fa)" style="fill: none; stroke: #4c78a8; stroke-width: 2.5; stroke-linecap: square"/>
   </g>
   <g id="line2d_37">
    <path d="M 17.063253 357.26825 
L 26.910808 339.165746 
L 29.41766 334.421721 
L 31.924512 330.144322 
L 36.938217 320.889585 
L 39.445069 316.612186 
L 41.951921 312.023703 
L 51.979329 294.44748 
L 56.993033 285.659368 
L 59.499886 280.759802 
L 64.51359 272.049461 
L 67.020442 268.083146 
L 77.04785 254.084384 
L 84.568407 242.729833 
L 97.102667 224.920297 
L 99.60952 221.498378 
L 112.14378 202.288966 
L 117.157484 195.756211 
L 119.664337 192.956458 
L 127.184893 183.62395 
L 134.705449 175.691319 
L 137.212301 172.813796 
L 142.226006 166.747666 
L 144.732858 164.103455 
L 152.253414 157.726241 
L 154.760266 155.470885 
L 164.787675 147.927108 
L 169.801379 143.105313 
L 172.308231 140.461102 
L 174.815083 138.050204 
L 177.321935 135.872619 
L 179.828787 134.161659 
L 182.33564 132.139616 
L 187.349344 128.717697 
L 189.856196 126.540111 
L 192.363048 124.984693 
L 194.8699 122.884879 
L 202.390457 117.829771 
L 204.897309 116.663207 
L 209.911013 113.941226 
L 212.417865 112.463579 
L 214.924717 111.530328 
L 217.431569 110.83039 
L 227.458978 107.486241 
L 232.472682 106.164136 
L 237.486386 105.075344 
L 242.50009 103.286613 
L 247.513795 102.12005 
L 255.034351 100.797944 
L 257.541203 100.098006 
L 260.048055 99.631381 
L 265.06176 98.387046 
L 270.075464 97.84265 
L 275.089168 97.453796 
L 285.116577 96.598316 
L 292.637133 96.365003 
L 297.650837 95.820607 
L 305.171393 95.19844 
L 312.69195 94.654043 
L 330.239915 93.098625 
L 335.253619 92.709771 
L 370.349549 89.521164 
L 382.883809 88.665684 
L 395.41807 87.576892 
L 410.459183 87.032495 
L 435.527704 85.554848 
L 445.555112 85.321536 
L 448.061964 85.321536 
L 458.089373 84.777139 
L 460.596225 84.777139 
L 485.664746 83.299492 
L 488.171598 83.221721 
L 495.692155 82.599554 
L 505.719563 82.288471 
L 508.226415 82.055158 
L 515.746972 81.744074 
L 520.760676 81.35522 
L 528.281232 81.277449 
L 535.801789 80.966365 
L 540.815493 80.733053 
L 560.87031 80.188656 
L 565.884014 80.110885 
L 583.431979 79.64426 
L 598.473092 79.566489 
L 605.993648 79.410947 
L 616.021057 79.333176 
L 628.555317 79.022093 
L 636.075873 78.944322 
L 716.295141 76.533424 
L 721.308846 76.455653 
L 768.939036 75.055777 
L 773.95274 74.978006 
L 801.528113 74.200297 
L 819.076078 74.122526 
L 831.610339 73.811443 
L 846.651452 73.733672 
L 859.185712 73.422588 
L 866.706269 73.344817 
L 872.315625 73.170796 
L 872.315625 73.170796 
" clip-path="url(#p92191dd6fa)" style="fill: none; stroke: #f58518; stroke-width: 2.5; stroke-linecap: square"/>
   </g>
   <g id="line2d_38">
    <path d="M 46.965625 129.573176 
L 422.993443 129.573176 
" clip-path="url(#p92191dd6fa)" style="fill: none; stroke-dasharray: 2.96,1.28; stroke-dashoffset: 0; stroke: #555555; stroke-opacity: 0.55; stroke-width: 0.8"/>
   </g>
   <g id="line2d_39">
    <path d="M 46.965625 100.020235 
L 422.993443 100.020235 
" clip-path="url(#p92191dd6fa)" style="fill: none; stroke-dasharray: 2.96,1.28; stroke-dashoffset: 0; stroke: #555555; stroke-opacity: 0.55; stroke-width: 0.8"/>
   </g>
   <g id="patch_3">
    <path d="M 46.965625 318.712 
L 46.965625 67.512 
" style="fill: none; stroke: #000000; stroke-width: 0.8; stroke-linejoin: miter; stroke-linecap: square"/>
   </g>
   <g id="patch_4">
    <path d="M 46.965625 318.712 
L 422.993443 318.712 
" style="fill: none; stroke: #000000; stroke-width: 0.8; stroke-linejoin: miter; stroke-linecap: square"/>
   </g>
   <g id="text_20">
    <!-- 90% -->
    <g style="fill: #555555" transform="translate(426.753721 131.780676) scale(0.08 -0.08)">
     <use xlink:href="#DejaVuSans-39"/>
     <use xlink:href="#DejaVuSans-30" transform="translate(63.623047 0)"/>
     <use xlink:href="#DejaVuSans-25" transform="translate(127.246094 0)"/>
    </g>
   </g>
   <g id="text_21">
    <!-- 95% -->
    <g style="fill: #555555" transform="translate(426.753721 102.227735) scale(0.08 -0.08)">
     <use xlink:href="#DejaVuSans-39"/>
     <use xlink:href="#DejaVuSans-35" transform="translate(63.623047 0)"/>
     <use xlink:href="#DejaVuSans-25" transform="translate(127.246094 0)"/>
    </g>
   </g>
   <g id="text_22">
    <!-- Coverage Curve Zoom (70-220 steps) -->
    <g transform="translate(109.062034 58.512) scale(0.12 -0.12)">
     <defs>
      <path id="DejaVuSans-Bold-43" d="M 4288 256 
Q 3956 84 3597 -3 
Q 3238 -91 2847 -91 
Q 1681 -91 1000 561 
Q 319 1213 319 2328 
Q 319 3447 1000 4098 
Q 1681 4750 2847 4750 
Q 3238 4750 3597 4662 
Q 3956 4575 4288 4403 
L 4288 3438 
Q 3953 3666 3628 3772 
Q 3303 3878 2944 3878 
Q 2300 3878 1931 3465 
Q 1563 3053 1563 2328 
Q 1563 1606 1931 1193 
Q 2300 781 2944 781 
Q 3303 781 3628 887 
Q 3953 994 4288 1222 
L 4288 256 
z
" transform="scale(0.015625)"/>
      <path id="DejaVuSans-Bold-6f" d="M 2203 2784 
Q 1831 2784 1636 2517 
Q 1441 2250 1441 1747 
Q 1441 1244 1636 976 
Q 1831 709 2203 709 
Q 2569 709 2762 976 
Q 2956 1244 2956 1747 
Q 2956 2250 2762 2517 
Q 2569 2784 2203 2784 
z
M 2203 3584 
Q 3106 3584 3614 3096 
Q 4122 2609 4122 1747 
Q 4122 884 3614 396 
Q 3106 -91 2203 -91 
Q 1297 -91 786 396 
Q 275 884 275 1747 
Q 275 2609 786 3096 
Q 1297 3584 2203 3584 
z
" transform="scale(0.015625)"/>
      <path id="DejaVuSans-Bold-76" d="M 97 3500 
L 1216 3500 
L 2088 1081 
L 2956 3500 
L 4078 3500 
L 2700 0 
L 1472 0 
L 97 3500 
z
" transform="scale(0.015625)"/>
      <path id="DejaVuSans-Bold-65" d="M 4031 1759 
L 4031 1441 
L 1416 1441 
Q 1456 1047 1700 850 
Q 1944 653 2381 653 
Q 2734 653 3104 758 
Q 3475 863 3866 1075 
L 3866 213 
Q 3469 63 3072 -14 
Q 2675 -91 2278 -91 
Q 1328 -91 801 392 
Q 275 875 275 1747 
Q 275 2603 792 3093 
Q 1309 3584 2216 3584 
Q 3041 3584 3536 3087 
Q 4031 2591 4031 1759 
z
M 2881 2131 
Q 2881 2450 2695 2645 
Q 2509 2841 2209 2841 
Q 1884 2841 1681 2658 
Q 1478 2475 1428 2131 
L 2881 2131 
z
" transform="scale(0.015625)"/>
      <path id="DejaVuSans-Bold-72" d="M 3138 2547 
Q 2991 2616 2845 2648 
Q 2700 2681 2553 2681 
Q 2122 2681 1889 2404 
Q 1656 2128 1656 1613 
L 1656 0 
L 538 0 
L 538 3500 
L 1656 3500 
L 1656 2925 
Q 1872 3269 2151 3426 
Q 2431 3584 2822 3584 
Q 2878 3584 2943 3579 
Q 3009 3575 3134 3559 
L 3138 2547 
z
" transform="scale(0.015625)"/>
      <path id="DejaVuSans-Bold-61" d="M 2106 1575 
Q 1756 1575 1579 1456 
Q 1403 1338 1403 1106 
Q 1403 894 1545 773 
Q 1688 653 1941 653 
Q 2256 653 2472 879 
Q 2688 1106 2688 1447 
L 2688 1575 
L 2106 1575 
z
M 3816 1997 
L 3816 0 
L 2688 0 
L 2688 519 
Q 2463 200 2181 54 
Q 1900 -91 1497 -91 
Q 953 -91 614 226 
Q 275 544 275 1050 
Q 275 1666 698 1953 
Q 1122 2241 2028 2241 
L 2688 2241 
L 2688 2328 
Q 2688 2594 2478 2717 
Q 2269 2841 1825 2841 
Q 1466 2841 1156 2769 
Q 847 2697 581 2553 
L 581 3406 
Q 941 3494 1303 3539 
Q 1666 3584 2028 3584 
Q 2975 3584 3395 3211 
Q 3816 2838 3816 1997 
z
" transform="scale(0.015625)"/>
      <path id="DejaVuSans-Bold-67" d="M 2919 594 
Q 2688 288 2409 144 
Q 2131 0 1766 0 
Q 1125 0 706 504 
Q 288 1009 288 1791 
Q 288 2575 706 3076 
Q 1125 3578 1766 3578 
Q 2131 3578 2409 3434 
Q 2688 3291 2919 2981 
L 2919 3500 
L 4044 3500 
L 4044 353 
Q 4044 -491 3511 -936 
Q 2978 -1381 1966 -1381 
Q 1638 -1381 1331 -1331 
Q 1025 -1281 716 -1178 
L 716 -306 
Q 1009 -475 1290 -558 
Q 1572 -641 1856 -641 
Q 2406 -641 2662 -400 
Q 2919 -159 2919 353 
L 2919 594 
z
M 2181 2772 
Q 1834 2772 1640 2515 
Q 1447 2259 1447 1791 
Q 1447 1309 1634 1061 
Q 1822 813 2181 813 
Q 2531 813 2725 1069 
Q 2919 1325 2919 1791 
Q 2919 2259 2725 2515 
Q 2531 2772 2181 2772 
z
" transform="scale(0.015625)"/>
      <path id="DejaVuSans-Bold-20" transform="scale(0.015625)"/>
      <path id="DejaVuSans-Bold-75" d="M 500 1363 
L 500 3500 
L 1625 3500 
L 1625 3150 
Q 1625 2866 1622 2436 
Q 1619 2006 1619 1863 
Q 1619 1441 1641 1255 
Q 1663 1069 1716 984 
Q 1784 875 1895 815 
Q 2006 756 2150 756 
Q 2500 756 2700 1025 
Q 2900 1294 2900 1772 
L 2900 3500 
L 4019 3500 
L 4019 0 
L 2900 0 
L 2900 506 
Q 2647 200 2364 54 
Q 2081 -91 1741 -91 
Q 1134 -91 817 281 
Q 500 653 500 1363 
z
" transform="scale(0.015625)"/>
      <path id="DejaVuSans-Bold-5a" d="M 359 4666 
L 4281 4666 
L 4281 3938 
L 1778 909 
L 4353 909 
L 4353 0 
L 288 0 
L 288 728 
L 2791 3756 
L 359 3756 
L 359 4666 
z
" transform="scale(0.015625)"/>
      <path id="DejaVuSans-Bold-6d" d="M 3781 2919 
Q 3994 3244 4286 3414 
Q 4578 3584 4928 3584 
Q 5531 3584 5847 3212 
Q 6163 2841 6163 2131 
L 6163 0 
L 5038 0 
L 5038 1825 
Q 5041 1866 5042 1909 
Q 5044 1953 5044 2034 
Q 5044 2406 4934 2573 
Q 4825 2741 4581 2741 
Q 4263 2741 4089 2478 
Q 3916 2216 3909 1719 
L 3909 0 
L 2784 0 
L 2784 1825 
Q 2784 2406 2684 2573 
Q 2584 2741 2328 2741 
Q 2006 2741 1831 2477 
Q 1656 2213 1656 1722 
L 1656 0 
L 531 0 
L 531 3500 
L 1656 3500 
L 1656 2988 
Q 1863 3284 2130 3434 
Q 2397 3584 2719 3584 
Q 3081 3584 3359 3409 
Q 3638 3234 3781 2919 
z
" transform="scale(0.015625)"/>
      <path id="DejaVuSans-Bold-28" d="M 2413 -844 
L 1484 -844 
Q 1006 -72 778 623 
Q 550 1319 550 2003 
Q 550 2688 779 3389 
Q 1009 4091 1484 4856 
L 2413 4856 
Q 2013 4116 1813 3408 
Q 1613 2700 1613 2009 
Q 1613 1319 1811 609 
Q 2009 -100 2413 -844 
z
" transform="scale(0.015625)"/>
      <path id="DejaVuSans-Bold-37" d="M 428 4666 
L 3944 4666 
L 3944 3988 
L 2125 0 
L 953 0 
L 2675 3781 
L 428 3781 
L 428 4666 
z
" transform="scale(0.015625)"/>
      <path id="DejaVuSans-Bold-30" d="M 2944 2338 
Q 2944 3213 2780 3570 
Q 2616 3928 2228 3928 
Q 1841 3928 1675 3570 
Q 1509 3213 1509 2338 
Q 1509 1453 1675 1090 
Q 1841 728 2228 728 
Q 2613 728 2778 1090 
Q 2944 1453 2944 2338 
z
M 4147 2328 
Q 4147 1169 3647 539 
Q 3147 -91 2228 -91 
Q 1306 -91 806 539 
Q 306 1169 306 2328 
Q 306 3491 806 4120 
Q 1306 4750 2228 4750 
Q 3147 4750 3647 4120 
Q 4147 3491 4147 2328 
z
" transform="scale(0.015625)"/>
      <path id="DejaVuSans-Bold-2d" d="M 347 2297 
L 2309 2297 
L 2309 1388 
L 347 1388 
L 347 2297 
z
" transform="scale(0.015625)"/>
      <path id="DejaVuSans-Bold-32" d="M 1844 884 
L 3897 884 
L 3897 0 
L 506 0 
L 506 884 
L 2209 2388 
Q 2438 2594 2547 2791 
Q 2656 2988 2656 3200 
Q 2656 3528 2436 3728 
Q 2216 3928 1850 3928 
Q 1569 3928 1234 3808 
Q 900 3688 519 3450 
L 519 4475 
Q 925 4609 1322 4679 
Q 1719 4750 2100 4750 
Q 2938 4750 3402 4381 
Q 3866 4013 3866 3353 
Q 3866 2972 3669 2642 
Q 3472 2313 2841 1759 
L 1844 884 
z
" transform="scale(0.015625)"/>
      <path id="DejaVuSans-Bold-73" d="M 3272 3391 
L 3272 2541 
Q 2913 2691 2578 2766 
Q 2244 2841 1947 2841 
Q 1628 2841 1473 2761 
Q 1319 2681 1319 2516 
Q 1319 2381 1436 2309 
Q 1553 2238 1856 2203 
L 2053 2175 
Q 2913 2066 3209 1816 
Q 3506 1566 3506 1031 
Q 3506 472 3093 190 
Q 2681 -91 1863 -91 
Q 1516 -91 1145 -36 
Q 775 19 384 128 
L 384 978 
Q 719 816 1070 734 
Q 1422 653 1784 653 
Q 2113 653 2278 743 
Q 2444 834 2444 1013 
Q 2444 1163 2330 1236 
Q 2216 1309 1875 1350 
L 1678 1375 
Q 931 1469 631 1722 
Q 331 1975 331 2491 
Q 331 3047 712 3315 
Q 1094 3584 1881 3584 
Q 2191 3584 2531 3537 
Q 2872 3491 3272 3391 
z
" transform="scale(0.015625)"/>
      <path id="DejaVuSans-Bold-74" d="M 1759 4494 
L 1759 3500 
L 2913 3500 
L 2913 2700 
L 1759 2700 
L 1759 1216 
Q 1759 972 1856 886 
Q 1953 800 2241 800 
L 2816 800 
L 2816 0 
L 1856 0 
Q 1194 0 917 276 
Q 641 553 641 1216 
L 641 2700 
L 84 2700 
L 84 3500 
L 641 3500 
L 641 4494 
L 1759 4494 
z
" transform="scale(0.015625)"/>
      <path id="DejaVuSans-Bold-70" d="M 1656 506 
L 1656 -1331 
L 538 -1331 
L 538 3500 
L 1656 3500 
L 1656 2988 
Q 1888 3294 2169 3439 
Q 2450 3584 2816 3584 
Q 3463 3584 3878 3070 
Q 4294 2556 4294 1747 
Q 4294 938 3878 423 
Q 3463 -91 2816 -91 
Q 2450 -91 2169 54 
Q 1888 200 1656 506 
z
M 2400 2772 
Q 2041 2772 1848 2508 
Q 1656 2244 1656 1747 
Q 1656 1250 1848 986 
Q 2041 722 2400 722 
Q 2759 722 2948 984 
Q 3138 1247 3138 1747 
Q 3138 2247 2948 2509 
Q 2759 2772 2400 2772 
z
" transform="scale(0.015625)"/>
      <path id="DejaVuSans-Bold-29" d="M 513 -844 
Q 913 -100 1113 609 
Q 1313 1319 1313 2009 
Q 1313 2700 1113 3408 
Q 913 4116 513 4856 
L 1441 4856 
Q 1916 4091 2145 3389 
Q 2375 2688 2375 2003 
Q 2375 1319 2147 623 
Q 1919 -72 1441 -844 
L 513 -844 
z
" transform="scale(0.015625)"/>
     </defs>
     <use xlink:href="#DejaVuSans-Bold-43"/>
     <use xlink:href="#DejaVuSans-Bold-6f" transform="translate(73.388672 0)"/>
     <use xlink:href="#DejaVuSans-Bold-76" transform="translate(142.089844 0)"/>
     <use xlink:href="#DejaVuSans-Bold-65" transform="translate(207.275391 0)"/>
     <use xlink:href="#DejaVuSans-Bold-72" transform="translate(275.097656 0)"/>
     <use xlink:href="#DejaVuSans-Bold-61" transform="translate(324.414062 0)"/>
     <use xlink:href="#DejaVuSans-Bold-67" transform="translate(391.894531 0)"/>
     <use xlink:href="#DejaVuSans-Bold-65" transform="translate(463.476562 0)"/>
     <use xlink:href="#DejaVuSans-Bold-20" transform="translate(531.298828 0)"/>
     <use xlink:href="#DejaVuSans-Bold-43" transform="translate(566.113281 0)"/>
     <use xlink:href="#DejaVuSans-Bold-75" transform="translate(639.501953 0)"/>
     <use xlink:href="#DejaVuSans-Bold-72" transform="translate(710.693359 0)"/>
     <use xlink:href="#DejaVuSans-Bold-76" transform="translate(760.009766 0)"/>
     <use xlink:href="#DejaVuSans-Bold-65" transform="translate(825.195312 0)"/>
     <use xlink:href="#DejaVuSans-Bold-20" transform="translate(893.017578 0)"/>
     <use xlink:href="#DejaVuSans-Bold-5a" transform="translate(927.832031 0)"/>
     <use xlink:href="#DejaVuSans-Bold-6f" transform="translate(1000.341797 0)"/>
     <use xlink:href="#DejaVuSans-Bold-6f" transform="translate(1069.042969 0)"/>
     <use xlink:href="#DejaVuSans-Bold-6d" transform="translate(1137.744141 0)"/>
     <use xlink:href="#DejaVuSans-Bold-20" transform="translate(1241.943359 0)"/>
     <use xlink:href="#DejaVuSans-Bold-28" transform="translate(1276.757812 0)"/>
     <use xlink:href="#DejaVuSans-Bold-37" transform="translate(1322.460938 0)"/>
     <use xlink:href="#DejaVuSans-Bold-30" transform="translate(1392.041016 0)"/>
     <use xlink:href="#DejaVuSans-Bold-2d" transform="translate(1461.621094 0)"/>
     <use xlink:href="#DejaVuSans-Bold-32" transform="translate(1503.125 0)"/>
     <use xlink:href="#DejaVuSans-Bold-32" transform="translate(1572.705078 0)"/>
     <use xlink:href="#DejaVuSans-Bold-30" transform="translate(1642.285156 0)"/>
     <use xlink:href="#DejaVuSans-Bold-20" transform="translate(1711.865234 0)"/>
     <use xlink:href="#DejaVuSans-Bold-73" transform="translate(1746.679688 0)"/>
     <use xlink:href="#DejaVuSans-Bold-74" transform="translate(1806.201172 0)"/>
     <use xlink:href="#DejaVuSans-Bold-65" transform="translate(1854.003906 0)"/>
     <use xlink:href="#DejaVuSans-Bold-70" transform="translate(1921.826172 0)"/>
     <use xlink:href="#DejaVuSans-Bold-73" transform="translate(1993.408203 0)"/>
     <use xlink:href="#DejaVuSans-Bold-29" transform="translate(2052.929688 0)"/>
    </g>
   </g>
  </g>
  <g id="axes_2">
   <g id="patch_5">
    <path d="M 488.087807 318.712 
L 864.115625 318.712 
L 864.115625 67.512 
L 488.087807 67.512 
z
" style="fill: #ffffff"/>
   </g>
   <g id="matplotlib.axis_3">
    <g id="xtick_9">
     <g id="line2d_40">
      <path d="M 497.983276 318.712 
L 497.983276 67.512 
" clip-path="url(#p5528fae30b)" style="fill: none; stroke: #b0b0b0; stroke-opacity: 0.22; stroke-width: 0.8; stroke-linecap: square"/>
     </g>
     <g id="line2d_41">
      <g>
       <use xlink:href="#mf1b0bc4f9b" x="497.983276" y="318.712" style="stroke: #000000; stroke-width: 0.8"/>
      </g>
     </g>
     <g id="text_23">
      <!-- 75 -->
      <g transform="translate(491.620776 333.310437) scale(0.1 -0.1)">
       <use xlink:href="#DejaVuSans-37"/>
       <use xlink:href="#DejaVuSans-35" transform="translate(63.623047 0)"/>
      </g>
     </g>
    </g>
    <g id="xtick_10">
     <g id="line2d_42">
      <path d="M 547.46062 318.712 
L 547.46062 67.512 
" clip-path="url(#p5528fae30b)" style="fill: none; stroke: #b0b0b0; stroke-opacity: 0.22; stroke-width: 0.8; stroke-linecap: square"/>
     </g>
     <g id="line2d_43">
      <g>
       <use xlink:href="#mf1b0bc4f9b" x="547.46062" y="318.712" style="stroke: #000000; stroke-width: 0.8"/>
      </g>
     </g>
     <g id="text_24">
      <!-- 100 -->
      <g transform="translate(537.91687 333.310437) scale(0.1 -0.1)">
       <use xlink:href="#DejaVuSans-31"/>
       <use xlink:href="#DejaVuSans-30" transform="translate(63.623047 0)"/>
       <use xlink:href="#DejaVuSans-30" transform="translate(127.246094 0)"/>
      </g>
     </g>
    </g>
    <g id="xtick_11">
     <g id="line2d_44">
      <path d="M 596.937965 318.712 
L 596.937965 67.512 
" clip-path="url(#p5528fae30b)" style="fill: none; stroke: #b0b0b0; stroke-opacity: 0.22; stroke-width: 0.8; stroke-linecap: square"/>
     </g>
     <g id="line2d_45">
      <g>
       <use xlink:href="#mf1b0bc4f9b" x="596.937965" y="318.712" style="stroke: #000000; stroke-width: 0.8"/>
      </g>
     </g>
     <g id="text_25">
      <!-- 125 -->
      <g transform="translate(587.394215 333.310437) scale(0.1 -0.1)">
       <use xlink:href="#DejaVuSans-31"/>
       <use xlink:href="#DejaVuSans-32" transform="translate(63.623047 0)"/>
       <use xlink:href="#DejaVuSans-35" transform="translate(127.246094 0)"/>
      </g>
     </g>
    </g>
    <g id="xtick_12">
     <g id="line2d_46">
      <path d="M 646.415309 318.712 
L 646.415309 67.512 
" clip-path="url(#p5528fae30b)" style="fill: none; stroke: #b0b0b0; stroke-opacity: 0.22; stroke-width: 0.8; stroke-linecap: square"/>
     </g>
     <g id="line2d_47">
      <g>
       <use xlink:href="#mf1b0bc4f9b" x="646.415309" y="318.712" style="stroke: #000000; stroke-width: 0.8"/>
      </g>
     </g>
     <g id="text_26">
      <!-- 150 -->
      <g transform="translate(636.871559 333.310437) scale(0.1 -0.1)">
       <use xlink:href="#DejaVuSans-31"/>
       <use xlink:href="#DejaVuSans-35" transform="translate(63.623047 0)"/>
       <use xlink:href="#DejaVuSans-30" transform="translate(127.246094 0)"/>
      </g>
     </g>
    </g>
    <g id="xtick_13">
     <g id="line2d_48">
      <path d="M 695.892654 318.712 
L 695.892654 67.512 
" clip-path="url(#p5528fae30b)" style="fill: none; stroke: #b0b0b0; stroke-opacity: 0.22; stroke-width: 0.8; stroke-linecap: square"/>
     </g>
     <g id="line2d_49">
      <g>
       <use xlink:href="#mf1b0bc4f9b" x="695.892654" y="318.712" style="stroke: #000000; stroke-width: 0.8"/>
      </g>
     </g>
     <g id="text_27">
      <!-- 175 -->
      <g transform="translate(686.348904 333.310437) scale(0.1 -0.1)">
       <use xlink:href="#DejaVuSans-31"/>
       <use xlink:href="#DejaVuSans-37" transform="translate(63.623047 0)"/>
       <use xlink:href="#DejaVuSans-35" transform="translate(127.246094 0)"/>
      </g>
     </g>
    </g>
    <g id="xtick_14">
     <g id="line2d_50">
      <path d="M 745.369998 318.712 
L 745.369998 67.512 
" clip-path="url(#p5528fae30b)" style="fill: none; stroke: #b0b0b0; stroke-opacity: 0.22; stroke-width: 0.8; stroke-linecap: square"/>
     </g>
     <g id="line2d_51">
      <g>
       <use xlink:href="#mf1b0bc4f9b" x="745.369998" y="318.712" style="stroke: #000000; stroke-width: 0.8"/>
      </g>
     </g>
     <g id="text_28">
      <!-- 200 -->
      <g transform="translate(735.826248 333.310437) scale(0.1 -0.1)">
       <use xlink:href="#DejaVuSans-32"/>
       <use xlink:href="#DejaVuSans-30" transform="translate(63.623047 0)"/>
       <use xlink:href="#DejaVuSans-30" transform="translate(127.246094 0)"/>
      </g>
     </g>
    </g>
    <g id="xtick_15">
     <g id="line2d_52">
      <path d="M 794.847343 318.712 
L 794.847343 67.512 
" clip-path="url(#p5528fae30b)" style="fill: none; stroke: #b0b0b0; stroke-opacity: 0.22; stroke-width: 0.8; stroke-linecap: square"/>
     </g>
     <g id="line2d_53">
      <g>
       <use xlink:href="#mf1b0bc4f9b" x="794.847343" y="318.712" style="stroke: #000000; stroke-width: 0.8"/>
      </g>
     </g>
     <g id="text_29">
      <!-- 225 -->
      <g transform="translate(785.303593 333.310437) scale(0.1 -0.1)">
       <use xlink:href="#DejaVuSans-32"/>
       <use xlink:href="#DejaVuSans-32" transform="translate(63.623047 0)"/>
       <use xlink:href="#DejaVuSans-35" transform="translate(127.246094 0)"/>
      </g>
     </g>
    </g>
    <g id="xtick_16">
     <g id="line2d_54">
      <path d="M 844.324687 318.712 
L 844.324687 67.512 
" clip-path="url(#p5528fae30b)" style="fill: none; stroke: #b0b0b0; stroke-opacity: 0.22; stroke-width: 0.8; stroke-linecap: square"/>
     </g>
     <g id="line2d_55">
      <g>
       <use xlink:href="#mf1b0bc4f9b" x="844.324687" y="318.712" style="stroke: #000000; stroke-width: 0.8"/>
      </g>
     </g>
     <g id="text_30">
      <!-- 250 -->
      <g transform="translate(834.780937 333.310437) scale(0.1 -0.1)">
       <use xlink:href="#DejaVuSans-32"/>
       <use xlink:href="#DejaVuSans-35" transform="translate(63.623047 0)"/>
       <use xlink:href="#DejaVuSans-30" transform="translate(127.246094 0)"/>
      </g>
     </g>
    </g>
    <g id="text_31">
     <!-- Environment Steps -->
     <g transform="translate(628.599372 346.988562) scale(0.1 -0.1)">
      <use xlink:href="#DejaVuSans-45"/>
      <use xlink:href="#DejaVuSans-6e" transform="translate(63.183594 0)"/>
      <use xlink:href="#DejaVuSans-76" transform="translate(126.5625 0)"/>
      <use xlink:href="#DejaVuSans-69" transform="translate(185.742188 0)"/>
      <use xlink:href="#DejaVuSans-72" transform="translate(213.525391 0)"/>
      <use xlink:href="#DejaVuSans-6f" transform="translate(252.388672 0)"/>
      <use xlink:href="#DejaVuSans-6e" transform="translate(313.570312 0)"/>
      <use xlink:href="#DejaVuSans-6d" transform="translate(376.949219 0)"/>
      <use xlink:href="#DejaVuSans-65" transform="translate(474.361328 0)"/>
      <use xlink:href="#DejaVuSans-6e" transform="translate(535.884766 0)"/>
      <use xlink:href="#DejaVuSans-74" transform="translate(599.263672 0)"/>
      <use xlink:href="#DejaVuSans-20" transform="translate(638.472656 0)"/>
      <use xlink:href="#DejaVuSans-53" transform="translate(670.259766 0)"/>
      <use xlink:href="#DejaVuSans-74" transform="translate(733.736328 0)"/>
      <use xlink:href="#DejaVuSans-65" transform="translate(772.945312 0)"/>
      <use xlink:href="#DejaVuSans-70" transform="translate(834.46875 0)"/>
      <use xlink:href="#DejaVuSans-73" transform="translate(897.945312 0)"/>
     </g>
    </g>
   </g>
   <g id="matplotlib.axis_4">
    <g id="ytick_10">
     <g id="line2d_56">
      <path d="M 488.087807 293.592 
L 864.115625 293.592 
" clip-path="url(#p5528fae30b)" style="fill: none; stroke: #b0b0b0; stroke-opacity: 0.22; stroke-width: 0.8; stroke-linecap: square"/>
     </g>
     <g id="line2d_57">
      <g>
       <use xlink:href="#m94377f22e1" x="488.087807" y="293.592" style="stroke: #000000; stroke-width: 0.8"/>
      </g>
     </g>
     <g id="text_32">
      <!-- 20 -->
      <g transform="translate(468.362807 297.391219) scale(0.1 -0.1)">
       <use xlink:href="#DejaVuSans-32"/>
       <use xlink:href="#DejaVuSans-30" transform="translate(63.623047 0)"/>
      </g>
     </g>
    </g>
    <g id="ytick_11">
     <g id="line2d_58">
      <path d="M 488.087807 243.352 
L 864.115625 243.352 
" clip-path="url(#p5528fae30b)" style="fill: none; stroke: #b0b0b0; stroke-opacity: 0.22; stroke-width: 0.8; stroke-linecap: square"/>
     </g>
     <g id="line2d_59">
      <g>
       <use xlink:href="#m94377f22e1" x="488.087807" y="243.352" style="stroke: #000000; stroke-width: 0.8"/>
      </g>
     </g>
     <g id="text_33">
      <!-- 30 -->
      <g transform="translate(468.362807 247.151219) scale(0.1 -0.1)">
       <defs>
        <path id="DejaVuSans-33" d="M 2597 2516 
Q 3050 2419 3304 2112 
Q 3559 1806 3559 1356 
Q 3559 666 3084 287 
Q 2609 -91 1734 -91 
Q 1441 -91 1130 -33 
Q 819 25 488 141 
L 488 750 
Q 750 597 1062 519 
Q 1375 441 1716 441 
Q 2309 441 2620 675 
Q 2931 909 2931 1356 
Q 2931 1769 2642 2001 
Q 2353 2234 1838 2234 
L 1294 2234 
L 1294 2753 
L 1863 2753 
Q 2328 2753 2575 2939 
Q 2822 3125 2822 3475 
Q 2822 3834 2567 4026 
Q 2313 4219 1838 4219 
Q 1578 4219 1281 4162 
Q 984 4106 628 3988 
L 628 4550 
Q 988 4650 1302 4700 
Q 1616 4750 1894 4750 
Q 2613 4750 3031 4423 
Q 3450 4097 3450 3541 
Q 3450 3153 3228 2886 
Q 3006 2619 2597 2516 
z
" transform="scale(0.015625)"/>
       </defs>
       <use xlink:href="#DejaVuSans-33"/>
       <use xlink:href="#DejaVuSans-30" transform="translate(63.623047 0)"/>
      </g>
     </g>
    </g>
    <g id="ytick_12">
     <g id="line2d_60">
      <path d="M 488.087807 193.112 
L 864.115625 193.112 
" clip-path="url(#p5528fae30b)" style="fill: none; stroke: #b0b0b0; stroke-opacity: 0.22; stroke-width: 0.8; stroke-linecap: square"/>
     </g>
     <g id="line2d_61">
      <g>
       <use xlink:href="#m94377f22e1" x="488.087807" y="193.112" style="stroke: #000000; stroke-width: 0.8"/>
      </g>
     </g>
     <g id="text_34">
      <!-- 40 -->
      <g transform="translate(468.362807 196.911219) scale(0.1 -0.1)">
       <use xlink:href="#DejaVuSans-34"/>
       <use xlink:href="#DejaVuSans-30" transform="translate(63.623047 0)"/>
      </g>
     </g>
    </g>
    <g id="ytick_13">
     <g id="line2d_62">
      <path d="M 488.087807 142.872 
L 864.115625 142.872 
" clip-path="url(#p5528fae30b)" style="fill: none; stroke: #b0b0b0; stroke-opacity: 0.22; stroke-width: 0.8; stroke-linecap: square"/>
     </g>
     <g id="line2d_63">
      <g>
       <use xlink:href="#m94377f22e1" x="488.087807" y="142.872" style="stroke: #000000; stroke-width: 0.8"/>
      </g>
     </g>
     <g id="text_35">
      <!-- 50 -->
      <g transform="translate(468.362807 146.671219) scale(0.1 -0.1)">
       <use xlink:href="#DejaVuSans-35"/>
       <use xlink:href="#DejaVuSans-30" transform="translate(63.623047 0)"/>
      </g>
     </g>
    </g>
    <g id="ytick_14">
     <g id="line2d_64">
      <path d="M 488.087807 92.632 
L 864.115625 92.632 
" clip-path="url(#p5528fae30b)" style="fill: none; stroke: #b0b0b0; stroke-opacity: 0.22; stroke-width: 0.8; stroke-linecap: square"/>
     </g>
     <g id="line2d_65">
      <g>
       <use xlink:href="#m94377f22e1" x="488.087807" y="92.632" style="stroke: #000000; stroke-width: 0.8"/>
      </g>
     </g>
     <g id="text_36">
      <!-- 60 -->
      <g transform="translate(468.362807 96.431219) scale(0.1 -0.1)">
       <use xlink:href="#DejaVuSans-36"/>
       <use xlink:href="#DejaVuSans-30" transform="translate(63.623047 0)"/>
      </g>
     </g>
    </g>
    <g id="text_37">
     <!-- Cumulative Repeat Ratio (%) -->
     <g transform="translate(462.283119 265.504187) rotate(-90) scale(0.1 -0.1)">
      <defs>
       <path id="DejaVuSans-75" d="M 544 1381 
L 544 3500 
L 1119 3500 
L 1119 1403 
Q 1119 906 1312 657 
Q 1506 409 1894 409 
Q 2359 409 2629 706 
Q 2900 1003 2900 1516 
L 2900 3500 
L 3475 3500 
L 3475 0 
L 2900 0 
L 2900 538 
Q 2691 219 2414 64 
Q 2138 -91 1772 -91 
Q 1169 -91 856 284 
Q 544 659 544 1381 
z
M 1991 3584 
L 1991 3584 
z
" transform="scale(0.015625)"/>
       <path id="DejaVuSans-6c" d="M 603 4863 
L 1178 4863 
L 1178 0 
L 603 0 
L 603 4863 
z
" transform="scale(0.015625)"/>
      </defs>
      <use xlink:href="#DejaVuSans-43"/>
      <use xlink:href="#DejaVuSans-75" transform="translate(69.824219 0)"/>
      <use xlink:href="#DejaVuSans-6d" transform="translate(133.203125 0)"/>
      <use xlink:href="#DejaVuSans-75" transform="translate(230.615234 0)"/>
      <use xlink:href="#DejaVuSans-6c" transform="translate(293.994141 0)"/>
      <use xlink:href="#DejaVuSans-61" transform="translate(321.777344 0)"/>
      <use xlink:href="#DejaVuSans-74" transform="translate(383.056641 0)"/>
      <use xlink:href="#DejaVuSans-69" transform="translate(422.265625 0)"/>
      <use xlink:href="#DejaVuSans-76" transform="translate(450.048828 0)"/>
      <use xlink:href="#DejaVuSans-65" transform="translate(509.228516 0)"/>
      <use xlink:href="#DejaVuSans-20" transform="translate(570.751953 0)"/>
      <use xlink:href="#DejaVuSans-52" transform="translate(602.539062 0)"/>
      <use xlink:href="#DejaVuSans-65" transform="translate(667.521484 0)"/>
      <use xlink:href="#DejaVuSans-70" transform="translate(729.044922 0)"/>
      <use xlink:href="#DejaVuSans-65" transform="translate(792.521484 0)"/>
      <use xlink:href="#DejaVuSans-61" transform="translate(854.044922 0)"/>
      <use xlink:href="#DejaVuSans-74" transform="translate(915.324219 0)"/>
      <use xlink:href="#DejaVuSans-20" transform="translate(954.533203 0)"/>
      <use xlink:href="#DejaVuSans-52" transform="translate(986.320312 0)"/>
      <use xlink:href="#DejaVuSans-61" transform="translate(1053.552734 0)"/>
      <use xlink:href="#DejaVuSans-74" transform="translate(1114.832031 0)"/>
      <use xlink:href="#DejaVuSans-69" transform="translate(1154.041016 0)"/>
      <use xlink:href="#DejaVuSans-6f" transform="translate(1181.824219 0)"/>
      <use xlink:href="#DejaVuSans-20" transform="translate(1243.005859 0)"/>
      <use xlink:href="#DejaVuSans-28" transform="translate(1274.792969 0)"/>
      <use xlink:href="#DejaVuSans-25" transform="translate(1313.806641 0)"/>
      <use xlink:href="#DejaVuSans-29" transform="translate(1408.826172 0)"/>
     </g>
    </g>
   </g>
   <g id="line2d_66">
    <path d="M 349.551242 17.272 
L 351.530336 76.932 
L 353.50943 94.725333 
L 355.488524 103.622 
L 357.467617 129.056 
L 359.446711 146.012 
L 361.425805 161.712 
L 363.404899 182.907 
L 365.383992 200.089778 
L 367.363086 215.092 
L 369.34218 227.366545 
L 371.321274 237.595333 
L 373.300368 246.733538 
L 375.279461 254.566286 
L 377.258555 261.773333 
L 379.237649 268.0795 
L 383.195836 278.240889 
L 385.17493 282.684632 
L 387.154024 286.684 
L 389.133118 290.302476 
L 391.112212 293.592 
L 393.091305 296.595478 
L 395.070399 298.563667 
L 397.049493 300.8768 
L 399.028587 302.528923 
L 402.986774 304.133429 
L 406.944962 306.361333 
L 408.924056 306.962323 
L 410.903149 306.5445 
L 412.882243 306.722909 
L 416.840431 306.331429 
L 418.819525 305.279778 
L 422.777712 304.003579 
L 424.756806 303.57559 
L 426.7359 303.326 
L 428.714993 303.241756 
L 430.694087 302.862476 
L 432.673181 302.646884 
L 434.652275 302.298364 
L 438.610462 299.598957 
L 442.56865 297.778667 
L 444.547744 296.539755 
L 446.526837 295.0992 
L 448.505931 293.838275 
L 450.485025 292.384308 
L 456.422306 286.741091 
L 458.4014 284.732714 
L 460.380494 283.345684 
L 462.359588 282.33131 
L 472.255057 276.247238 
L 474.23415 275.34075 
L 476.213244 274.075692 
L 478.192338 273.324727 
L 480.171432 272.408716 
L 482.150525 271.704353 
L 486.108713 269.817714 
L 490.066901 267.250889 
L 492.045994 265.891178 
L 494.025088 264.737946 
L 501.941463 259.696103 
L 505.899651 257.325 
L 511.836932 253.33947 
L 513.816026 252.173905 
L 515.79512 250.814118 
L 519.753307 247.322115 
L 523.711495 243.987056 
L 525.690589 242.654222 
L 531.62787 238.219957 
L 533.606964 236.938383 
L 535.586058 235.485474 
L 539.544245 232.21633 
L 545.481526 228.0916 
L 547.46062 226.626059 
L 551.418808 224.268117 
L 557.356089 221.135019 
L 561.314277 218.639037 
L 563.29337 217.36778 
L 565.272464 216.233818 
L 567.251558 214.893982 
L 571.209746 212.396602 
L 575.167933 209.549217 
L 579.126121 206.530803 
L 585.063402 201.956333 
L 587.042496 200.793322 
L 589.02159 199.340525 
L 592.979777 196.859742 
L 596.937965 194.607238 
L 598.917058 193.161449 
L 602.875246 190.726574 
L 616.728903 180.459647 
L 630.582559 171.680951 
L 634.540747 169.118069 
L 636.51984 167.948986 
L 640.478028 165.403622 
L 650.373497 159.249255 
L 656.310778 155.552769 
L 660.268966 153.484405 
L 666.206247 149.698087 
L 668.185341 148.454222 
L 699.850841 131.335146 
L 701.829935 130.347084 
L 705.788123 128.195536 
L 707.767216 127.275516 
L 713.704498 124.099892 
L 721.620873 120.244063 
L 725.57906 118.212314 
L 729.537248 116.32029 
L 737.453623 112.428345 
L 747.349092 107.896752 
L 751.30728 106.177098 
L 753.286373 105.406439 
L 757.244561 103.675092 
L 761.202748 102.12712 
L 788.910061 91.039599 
L 794.847343 88.850359 
L 802.763718 86.111225 
L 810.680093 83.580491 
L 820.575562 80.846596 
L 830.471031 78.137676 
L 850.261969 72.693645 
L 854.220156 71.724564 
L 872.315625 67.406222 
L 872.315625 67.406222 
" clip-path="url(#p5528fae30b)" style="fill: none; stroke: #9a9a9a; stroke-width: 2.5; stroke-linecap: square"/>
   </g>
   <g id="line2d_67">
    <path d="M 349.551242 17.272 
L 351.530336 76.932 
L 353.50943 94.725333 
L 355.488524 103.622 
L 357.467617 130.312 
L 359.446711 166.945333 
L 361.425805 194.009143 
L 363.404899 215.092 
L 365.383992 231.489778 
L 367.363086 244.608 
L 369.34218 255.341091 
L 371.321274 264.285333 
L 373.300368 271.853538 
L 375.279461 277.892 
L 377.258555 283.544 
L 379.237649 288.4895 
L 383.195836 296.383111 
L 385.17493 299.872 
L 387.154024 303.012 
L 389.133118 305.852952 
L 391.112212 308.435636 
L 393.091305 310.793739 
L 395.070399 312.955333 
L 399.028587 316.779692 
L 404.965868 321.094069 
L 406.944962 322.270667 
L 410.903149 324.01075 
L 412.882243 323.850182 
L 414.861337 324.068471 
L 416.840431 323.377143 
L 418.819525 323.945333 
L 420.798618 323.634162 
L 422.777712 324.496211 
L 424.756806 324.992 
L 428.714993 325.604683 
L 430.694087 325.291048 
L 432.673181 325.576186 
L 434.652275 324.849273 
L 436.631369 324.433778 
L 440.589556 322.720511 
L 442.56865 321.721167 
L 444.547744 320.506286 
L 446.526837 319.8424 
L 448.505931 318.835137 
L 450.485025 317.987385 
L 452.464119 316.934642 
L 454.443213 316.037185 
L 458.4014 313.329143 
L 460.380494 312.321825 
L 462.359588 311.565793 
L 464.338681 310.303186 
L 468.296869 308.005115 
L 470.275963 307.367484 
L 472.255057 306.94946 
L 474.23415 306.250125 
L 476.213244 306.055385 
L 478.192338 305.485939 
L 480.171432 304.371104 
L 482.150525 303.012 
L 486.108713 301.576571 
L 492.045994 298.323507 
L 497.983276 294.335684 
L 499.962369 293.347325 
L 501.941463 291.901231 
L 503.920557 290.889215 
L 505.899651 289.7455 
L 507.878745 288.940148 
L 509.857838 287.848098 
L 511.836932 286.555373 
L 513.816026 285.667238 
L 515.79512 284.578353 
L 517.774214 283.222698 
L 519.753307 282.33131 
L 521.732401 281.317455 
L 523.711495 280.608629 
L 527.669682 277.926505 
L 529.648776 276.663304 
L 531.62787 275.764903 
L 533.606964 274.351149 
L 535.586058 273.099368 
L 537.565151 272.069917 
L 541.523339 269.497306 
L 545.481526 266.9648 
L 551.418808 263.350447 
L 557.356089 259.466717 
L 559.335183 257.731439 
L 561.314277 256.319037 
L 565.272464 253.799636 
L 567.251558 252.121369 
L 571.209746 249.354124 
L 575.167933 245.918609 
L 577.147027 244.543034 
L 579.126121 242.815248 
L 581.105214 241.329627 
L 591.000683 232.527935 
L 596.937965 227.502476 
L 604.85434 220.792308 
L 606.833434 219.238718 
L 608.812527 217.994121 
L 612.770715 215.092 
L 614.749809 213.347556 
L 616.728903 211.813471 
L 618.707996 210.530978 
L 624.645278 205.761714 
L 626.624371 204.246752 
L 630.582559 200.929063 
L 634.540747 197.947119 
L 656.310778 182.179539 
L 660.268966 179.861483 
L 666.206247 176.682539 
L 676.101716 172.436031 
L 680.059903 171.030868 
L 685.997185 169.296808 
L 691.934466 167.935356 
L 695.892654 167.07038 
L 707.767216 164.075362 
L 711.725404 163.435871 
L 713.704498 163.175742 
L 727.558154 162.432775 
L 753.286373 161.769414 
L 759.223655 161.558215 
L 784.951874 161.127773 
L 796.826436 161.127397 
L 864.115625 160.548124 
L 872.315625 160.409772 
L 872.315625 160.409772 
" clip-path="url(#p5528fae30b)" style="fill: none; stroke: #4c78a8; stroke-width: 2.5; stroke-linecap: square"/>
   </g>
   <g id="line2d_68">
    <path d="M 349.551242 17.272 
L 351.530336 76.932 
L 353.50943 94.725333 
L 355.488524 103.622 
L 357.467617 130.312 
L 359.446711 165.898667 
L 361.425805 193.112 
L 363.404899 214.307 
L 365.383992 230.094222 
L 367.363086 242.724 
L 369.34218 253.628364 
L 371.321274 262.715333 
L 373.300368 270.404308 
L 375.279461 276.097714 
L 377.258555 280.613333 
L 379.237649 284.5645 
L 383.195836 290.800889 
L 387.154024 296.418 
L 389.133118 298.974857 
L 391.112212 301.299273 
L 393.091305 303.421565 
L 397.049493 307.1568 
L 401.007681 310.338667 
L 404.965868 312.648552 
L 406.944962 313.478667 
L 410.903149 315.37575 
L 412.882243 316.047758 
L 414.861337 316.864941 
L 418.819525 318.014222 
L 422.777712 318.712 
L 424.756806 318.550974 
L 426.7359 318.241 
L 428.714993 318.099317 
L 430.694087 317.814857 
L 432.673181 318.127814 
L 434.652275 317.570182 
L 436.631369 316.618667 
L 438.610462 316.254609 
L 444.547744 314.354449 
L 446.526837 313.1856 
L 448.505931 312.678275 
L 452.464119 311.128604 
L 454.443213 310.687556 
L 458.4014 309.179857 
L 460.380494 308.57586 
L 462.359588 308.209241 
L 464.338681 307.642169 
L 470.275963 305.341677 
L 474.23415 304.38575 
L 476.213244 303.350154 
L 480.171432 302.215284 
L 482.150525 301.257294 
L 484.129619 300.69113 
L 486.108713 299.872 
L 488.087807 299.252845 
L 490.066901 298.127556 
L 492.045994 297.721315 
L 496.004182 296.3552 
L 497.983276 296.236211 
L 501.941463 294.880205 
L 503.920557 293.830481 
L 509.857838 289.45639 
L 511.836932 288.068627 
L 517.774214 284.902233 
L 525.690589 280.194667 
L 529.648776 277.892 
L 531.62787 277.047914 
L 533.606964 276.355404 
L 535.586058 275.280842 
L 537.565151 274.686583 
L 539.544245 273.975093 
L 543.502433 271.580283 
L 545.481526 270.042 
L 551.418808 266.338019 
L 557.356089 261.777283 
L 559.335183 260.489944 
L 563.29337 258.216587 
L 565.272464 256.825455 
L 569.230652 253.388786 
L 581.105214 243.139119 
L 585.063402 240.526 
L 587.042496 239.407537 
L 589.02159 238.152984 
L 591.000683 236.765659 
L 592.979777 235.096839 
L 594.958871 233.65568 
L 598.917058 230.445858 
L 600.896152 229.172937 
L 602.875246 227.530295 
L 604.85434 226.251077 
L 620.68709 214.275574 
L 622.666184 212.615706 
L 630.582559 206.996027 
L 638.498934 201.734818 
L 650.373497 196.353365 
L 652.352591 195.649723 
L 656.310778 194.668172 
L 664.227153 193.266434 
L 668.185341 192.71015 
L 678.08081 191.799974 
L 682.038997 191.346937 
L 689.955372 190.798991 
L 699.850841 189.998747 
L 709.74631 189.416834 
L 715.683592 189.184364 
L 747.349092 189.34683 
L 759.223655 189.333378 
L 765.160936 189.282294 
L 773.077311 189.128772 
L 782.97278 188.994675 
L 800.784624 188.784511 
L 806.721905 188.636873 
L 834.429218 188.369924 
L 840.3665 188.363465 
L 854.220156 188.193618 
L 872.315625 187.94323 
L 872.315625 187.94323 
" clip-path="url(#p5528fae30b)" style="fill: none; stroke: #f58518; stroke-width: 2.5; stroke-linecap: square"/>
   </g>
   <g id="patch_6">
    <path d="M 488.087807 318.712 
L 488.087807 67.512 
" style="fill: none; stroke: #000000; stroke-width: 0.8; stroke-linejoin: miter; stroke-linecap: square"/>
   </g>
   <g id="patch_7">
    <path d="M 488.087807 318.712 
L 864.115625 318.712 
" style="fill: none; stroke: #000000; stroke-width: 0.8; stroke-linejoin: miter; stroke-linecap: square"/>
   </g>
   <g id="text_38">
    <!-- Repeat Curve Zoom (70-260 steps) -->
    <g transform="translate(558.092028 58.512) scale(0.12 -0.12)">
     <defs>
      <path id="DejaVuSans-Bold-52" d="M 2297 2597 
Q 2675 2597 2839 2737 
Q 3003 2878 3003 3200 
Q 3003 3519 2839 3656 
Q 2675 3794 2297 3794 
L 1791 3794 
L 1791 2597 
L 2297 2597 
z
M 1791 1766 
L 1791 0 
L 588 0 
L 588 4666 
L 2425 4666 
Q 3347 4666 3776 4356 
Q 4206 4047 4206 3378 
Q 4206 2916 3982 2619 
Q 3759 2322 3309 2181 
Q 3556 2125 3751 1926 
Q 3947 1728 4147 1325 
L 4800 0 
L 3519 0 
L 2950 1159 
Q 2778 1509 2601 1637 
Q 2425 1766 2131 1766 
L 1791 1766 
z
" transform="scale(0.015625)"/>
      <path id="DejaVuSans-Bold-36" d="M 2316 2303 
Q 2000 2303 1842 2098 
Q 1684 1894 1684 1484 
Q 1684 1075 1842 870 
Q 2000 666 2316 666 
Q 2634 666 2792 870 
Q 2950 1075 2950 1484 
Q 2950 1894 2792 2098 
Q 2634 2303 2316 2303 
z
M 3803 4544 
L 3803 3681 
Q 3506 3822 3243 3889 
Q 2981 3956 2731 3956 
Q 2194 3956 1894 3657 
Q 1594 3359 1544 2772 
Q 1750 2925 1990 3001 
Q 2231 3078 2516 3078 
Q 3231 3078 3670 2659 
Q 4109 2241 4109 1563 
Q 4109 813 3618 361 
Q 3128 -91 2303 -91 
Q 1394 -91 895 523 
Q 397 1138 397 2266 
Q 397 3422 980 4083 
Q 1563 4744 2578 4744 
Q 2900 4744 3203 4694 
Q 3506 4644 3803 4544 
z
" transform="scale(0.015625)"/>
     </defs>
     <use xlink:href="#DejaVuSans-Bold-52"/>
     <use xlink:href="#DejaVuSans-Bold-65" transform="translate(77.001953 0)"/>
     <use xlink:href="#DejaVuSans-Bold-70" transform="translate(144.824219 0)"/>
     <use xlink:href="#DejaVuSans-Bold-65" transform="translate(216.40625 0)"/>
     <use xlink:href="#DejaVuSans-Bold-61" transform="translate(284.228516 0)"/>
     <use xlink:href="#DejaVuSans-Bold-74" transform="translate(351.708984 0)"/>
     <use xlink:href="#DejaVuSans-Bold-20" transform="translate(399.511719 0)"/>
     <use xlink:href="#DejaVuSans-Bold-43" transform="translate(434.326172 0)"/>
     <use xlink:href="#DejaVuSans-Bold-75" transform="translate(507.714844 0)"/>
     <use xlink:href="#DejaVuSans-Bold-72" transform="translate(578.90625 0)"/>
     <use xlink:href="#DejaVuSans-Bold-76" transform="translate(628.222656 0)"/>
     <use xlink:href="#DejaVuSans-Bold-65" transform="translate(693.408203 0)"/>
     <use xlink:href="#DejaVuSans-Bold-20" transform="translate(761.230469 0)"/>
     <use xlink:href="#DejaVuSans-Bold-5a" transform="translate(796.044922 0)"/>
     <use xlink:href="#DejaVuSans-Bold-6f" transform="translate(868.554688 0)"/>
     <use xlink:href="#DejaVuSans-Bold-6f" transform="translate(937.255859 0)"/>
     <use xlink:href="#DejaVuSans-Bold-6d" transform="translate(1005.957031 0)"/>
     <use xlink:href="#DejaVuSans-Bold-20" transform="translate(1110.15625 0)"/>
     <use xlink:href="#DejaVuSans-Bold-28" transform="translate(1144.970703 0)"/>
     <use xlink:href="#DejaVuSans-Bold-37" transform="translate(1190.673828 0)"/>
     <use xlink:href="#DejaVuSans-Bold-30" transform="translate(1260.253906 0)"/>
     <use xlink:href="#DejaVuSans-Bold-2d" transform="translate(1329.833984 0)"/>
     <use xlink:href="#DejaVuSans-Bold-32" transform="translate(1371.337891 0)"/>
     <use xlink:href="#DejaVuSans-Bold-36" transform="translate(1440.917969 0)"/>
     <use xlink:href="#DejaVuSans-Bold-30" transform="translate(1510.498047 0)"/>
     <use xlink:href="#DejaVuSans-Bold-20" transform="translate(1580.078125 0)"/>
     <use xlink:href="#DejaVuSans-Bold-73" transform="translate(1614.892578 0)"/>
     <use xlink:href="#DejaVuSans-Bold-74" transform="translate(1674.414062 0)"/>
     <use xlink:href="#DejaVuSans-Bold-65" transform="translate(1722.216797 0)"/>
     <use xlink:href="#DejaVuSans-Bold-70" transform="translate(1790.039062 0)"/>
     <use xlink:href="#DejaVuSans-Bold-73" transform="translate(1861.621094 0)"/>
     <use xlink:href="#DejaVuSans-Bold-29" transform="translate(1921.142578 0)"/>
    </g>
   </g>
   <g id="legend_1">
    <g id="line2d_69">
     <path d="M 611.104688 80.610437 
L 621.104688 80.610437 
L 631.104688 80.610437 
" style="fill: none; stroke: #9a9a9a; stroke-width: 2.5; stroke-linecap: square"/>
    </g>
    <g id="text_39">
     <!-- GAT-OFF -->
     <g transform="translate(639.104688 84.110437) scale(0.1 -0.1)">
      <defs>
       <path id="DejaVuSans-47" d="M 3809 666 
L 3809 1919 
L 2778 1919 
L 2778 2438 
L 4434 2438 
L 4434 434 
Q 4069 175 3628 42 
Q 3188 -91 2688 -91 
Q 1594 -91 976 548 
Q 359 1188 359 2328 
Q 359 3472 976 4111 
Q 1594 4750 2688 4750 
Q 3144 4750 3555 4637 
Q 3966 4525 4313 4306 
L 4313 3634 
Q 3963 3931 3569 4081 
Q 3175 4231 2741 4231 
Q 1884 4231 1454 3753 
Q 1025 3275 1025 2328 
Q 1025 1384 1454 906 
Q 1884 428 2741 428 
Q 3075 428 3337 486 
Q 3600 544 3809 666 
z
" transform="scale(0.015625)"/>
       <path id="DejaVuSans-41" d="M 2188 4044 
L 1331 1722 
L 3047 1722 
L 2188 4044 
z
M 1831 4666 
L 2547 4666 
L 4325 0 
L 3669 0 
L 3244 1197 
L 1141 1197 
L 716 0 
L 50 0 
L 1831 4666 
z
" transform="scale(0.015625)"/>
       <path id="DejaVuSans-54" d="M -19 4666 
L 3928 4666 
L 3928 4134 
L 2272 4134 
L 2272 0 
L 1638 0 
L 1638 4134 
L -19 4134 
L -19 4666 
z
" transform="scale(0.015625)"/>
       <path id="DejaVuSans-2d" d="M 313 2009 
L 1997 2009 
L 1997 1497 
L 313 1497 
L 313 2009 
z
" transform="scale(0.015625)"/>
       <path id="DejaVuSans-4f" d="M 2522 4238 
Q 1834 4238 1429 3725 
Q 1025 3213 1025 2328 
Q 1025 1447 1429 934 
Q 1834 422 2522 422 
Q 3209 422 3611 934 
Q 4013 1447 4013 2328 
Q 4013 3213 3611 3725 
Q 3209 4238 2522 4238 
z
M 2522 4750 
Q 3503 4750 4090 4092 
Q 4678 3434 4678 2328 
Q 4678 1225 4090 567 
Q 3503 -91 2522 -91 
Q 1538 -91 948 565 
Q 359 1222 359 2328 
Q 359 3434 948 4092 
Q 1538 4750 2522 4750 
z
" transform="scale(0.015625)"/>
       <path id="DejaVuSans-46" d="M 628 4666 
L 3309 4666 
L 3309 4134 
L 1259 4134 
L 1259 2759 
L 3109 2759 
L 3109 2228 
L 1259 2228 
L 1259 0 
L 628 0 
L 628 4666 
z
" transform="scale(0.015625)"/>
      </defs>
      <use xlink:href="#DejaVuSans-47"/>
      <use xlink:href="#DejaVuSans-41" transform="translate(77.490234 0)"/>
      <use xlink:href="#DejaVuSans-54" transform="translate(138.148438 0)"/>
      <use xlink:href="#DejaVuSans-2d" transform="translate(190.107422 0)"/>
      <use xlink:href="#DejaVuSans-4f" transform="translate(228.941406 0)"/>
      <use xlink:href="#DejaVuSans-46" transform="translate(307.652344 0)"/>
      <use xlink:href="#DejaVuSans-46" transform="translate(365.171875 0)"/>
     </g>
    </g>
    <g id="line2d_70">
     <path d="M 701.371875 80.610437 
L 711.371875 80.610437 
L 721.371875 80.610437 
" style="fill: none; stroke: #4c78a8; stroke-width: 2.5; stroke-linecap: square"/>
    </g>
    <g id="text_40">
     <!-- GAT-ON -->
     <g transform="translate(729.371875 84.110437) scale(0.1 -0.1)">
      <defs>
       <path id="DejaVuSans-4e" d="M 628 4666 
L 1478 4666 
L 3547 763 
L 3547 4666 
L 4159 4666 
L 4159 0 
L 3309 0 
L 1241 3903 
L 1241 0 
L 628 0 
L 628 4666 
z
" transform="scale(0.015625)"/>
      </defs>
      <use xlink:href="#DejaVuSans-47"/>
      <use xlink:href="#DejaVuSans-41" transform="translate(77.490234 0)"/>
      <use xlink:href="#DejaVuSans-54" transform="translate(138.148438 0)"/>
      <use xlink:href="#DejaVuSans-2d" transform="translate(190.107422 0)"/>
      <use xlink:href="#DejaVuSans-4f" transform="translate(228.941406 0)"/>
      <use xlink:href="#DejaVuSans-4e" transform="translate(307.652344 0)"/>
     </g>
    </g>
    <g id="line2d_71">
     <path d="M 787.617188 80.610437 
L 797.617188 80.610437 
L 807.617188 80.610437 
" style="fill: none; stroke: #f58518; stroke-width: 2.5; stroke-linecap: square"/>
    </g>
    <g id="text_41">
     <!-- GAT-CIR -->
     <g transform="translate(815.617188 84.110437) scale(0.1 -0.1)">
      <defs>
       <path id="DejaVuSans-49" d="M 628 4666 
L 1259 4666 
L 1259 0 
L 628 0 
L 628 4666 
z
" transform="scale(0.015625)"/>
      </defs>
      <use xlink:href="#DejaVuSans-47"/>
      <use xlink:href="#DejaVuSans-41" transform="translate(77.490234 0)"/>
      <use xlink:href="#DejaVuSans-54" transform="translate(138.148438 0)"/>
      <use xlink:href="#DejaVuSans-2d" transform="translate(190.107422 0)"/>
      <use xlink:href="#DejaVuSans-43" transform="translate(226.191406 0)"/>
      <use xlink:href="#DejaVuSans-49" transform="translate(296.015625 0)"/>
      <use xlink:href="#DejaVuSans-52" transform="translate(325.507812 0)"/>
     </g>
    </g>
   </g>
  </g>
  <g id="text_42">
   <!-- Zoomed Curves Highlighting Model Differences -->
   <g transform="translate(249.159062 17.837812) scale(0.14 -0.14)">
    <defs>
     <path id="DejaVuSans-Bold-64" d="M 2919 2988 
L 2919 4863 
L 4044 4863 
L 4044 0 
L 2919 0 
L 2919 506 
Q 2688 197 2409 53 
Q 2131 -91 1766 -91 
Q 1119 -91 703 423 
Q 288 938 288 1747 
Q 288 2556 703 3070 
Q 1119 3584 1766 3584 
Q 2128 3584 2408 3439 
Q 2688 3294 2919 2988 
z
M 2181 722 
Q 2541 722 2730 984 
Q 2919 1247 2919 1747 
Q 2919 2247 2730 2509 
Q 2541 2772 2181 2772 
Q 1825 2772 1636 2509 
Q 1447 2247 1447 1747 
Q 1447 1247 1636 984 
Q 1825 722 2181 722 
z
" transform="scale(0.015625)"/>
     <path id="DejaVuSans-Bold-48" d="M 588 4666 
L 1791 4666 
L 1791 2888 
L 3566 2888 
L 3566 4666 
L 4769 4666 
L 4769 0 
L 3566 0 
L 3566 1978 
L 1791 1978 
L 1791 0 
L 588 0 
L 588 4666 
z
" transform="scale(0.015625)"/>
     <path id="DejaVuSans-Bold-69" d="M 538 3500 
L 1656 3500 
L 1656 0 
L 538 0 
L 538 3500 
z
M 538 4863 
L 1656 4863 
L 1656 3950 
L 538 3950 
L 538 4863 
z
" transform="scale(0.015625)"/>
     <path id="DejaVuSans-Bold-68" d="M 4056 2131 
L 4056 0 
L 2931 0 
L 2931 347 
L 2931 1625 
Q 2931 2084 2911 2256 
Q 2891 2428 2841 2509 
Q 2775 2619 2662 2680 
Q 2550 2741 2406 2741 
Q 2056 2741 1856 2470 
Q 1656 2200 1656 1722 
L 1656 0 
L 538 0 
L 538 4863 
L 1656 4863 
L 1656 2988 
Q 1909 3294 2193 3439 
Q 2478 3584 2822 3584 
Q 3428 3584 3742 3212 
Q 4056 2841 4056 2131 
z
" transform="scale(0.015625)"/>
     <path id="DejaVuSans-Bold-6c" d="M 538 4863 
L 1656 4863 
L 1656 0 
L 538 0 
L 538 4863 
z
" transform="scale(0.015625)"/>
     <path id="DejaVuSans-Bold-6e" d="M 4056 2131 
L 4056 0 
L 2931 0 
L 2931 347 
L 2931 1631 
Q 2931 2084 2911 2256 
Q 2891 2428 2841 2509 
Q 2775 2619 2662 2680 
Q 2550 2741 2406 2741 
Q 2056 2741 1856 2470 
Q 1656 2200 1656 1722 
L 1656 0 
L 538 0 
L 538 3500 
L 1656 3500 
L 1656 2988 
Q 1909 3294 2193 3439 
Q 2478 3584 2822 3584 
Q 3428 3584 3742 3212 
Q 4056 2841 4056 2131 
z
" transform="scale(0.015625)"/>
     <path id="DejaVuSans-Bold-4d" d="M 588 4666 
L 2119 4666 
L 3181 2169 
L 4250 4666 
L 5778 4666 
L 5778 0 
L 4641 0 
L 4641 3413 
L 3566 897 
L 2803 897 
L 1728 3413 
L 1728 0 
L 588 0 
L 588 4666 
z
" transform="scale(0.015625)"/>
     <path id="DejaVuSans-Bold-44" d="M 1791 3756 
L 1791 909 
L 2222 909 
Q 2959 909 3348 1275 
Q 3738 1641 3738 2338 
Q 3738 3031 3350 3393 
Q 2963 3756 2222 3756 
L 1791 3756 
z
M 588 4666 
L 1856 4666 
Q 2919 4666 3439 4514 
Q 3959 4363 4331 4000 
Q 4659 3684 4818 3271 
Q 4978 2859 4978 2338 
Q 4978 1809 4818 1395 
Q 4659 981 4331 666 
Q 3956 303 3431 151 
Q 2906 0 1856 0 
L 588 0 
L 588 4666 
z
" transform="scale(0.015625)"/>
     <path id="DejaVuSans-Bold-66" d="M 2841 4863 
L 2841 4128 
L 2222 4128 
Q 1984 4128 1890 4042 
Q 1797 3956 1797 3744 
L 1797 3500 
L 2753 3500 
L 2753 2700 
L 1797 2700 
L 1797 0 
L 678 0 
L 678 2700 
L 122 2700 
L 122 3500 
L 678 3500 
L 678 3744 
Q 678 4316 997 4589 
Q 1316 4863 1984 4863 
L 2841 4863 
z
" transform="scale(0.015625)"/>
     <path id="DejaVuSans-Bold-63" d="M 3366 3391 
L 3366 2478 
Q 3138 2634 2908 2709 
Q 2678 2784 2431 2784 
Q 1963 2784 1702 2511 
Q 1441 2238 1441 1747 
Q 1441 1256 1702 982 
Q 1963 709 2431 709 
Q 2694 709 2930 787 
Q 3166 866 3366 1019 
L 3366 103 
Q 3103 6 2833 -42 
Q 2563 -91 2291 -91 
Q 1344 -91 809 395 
Q 275 881 275 1747 
Q 275 2613 809 3098 
Q 1344 3584 2291 3584 
Q 2566 3584 2833 3536 
Q 3100 3488 3366 3391 
z
" transform="scale(0.015625)"/>
    </defs>
    <use xlink:href="#DejaVuSans-Bold-5a"/>
    <use xlink:href="#DejaVuSans-Bold-6f" transform="translate(72.509766 0)"/>
    <use xlink:href="#DejaVuSans-Bold-6f" transform="translate(141.210938 0)"/>
    <use xlink:href="#DejaVuSans-Bold-6d" transform="translate(209.912109 0)"/>
    <use xlink:href="#DejaVuSans-Bold-65" transform="translate(314.111328 0)"/>
    <use xlink:href="#DejaVuSans-Bold-64" transform="translate(381.933594 0)"/>
    <use xlink:href="#DejaVuSans-Bold-20" transform="translate(453.515625 0)"/>
    <use xlink:href="#DejaVuSans-Bold-43" transform="translate(488.330078 0)"/>
    <use xlink:href="#DejaVuSans-Bold-75" transform="translate(561.71875 0)"/>
    <use xlink:href="#DejaVuSans-Bold-72" transform="translate(632.910156 0)"/>
    <use xlink:href="#DejaVuSans-Bold-76" transform="translate(682.226562 0)"/>
    <use xlink:href="#DejaVuSans-Bold-65" transform="translate(747.412109 0)"/>
    <use xlink:href="#DejaVuSans-Bold-73" transform="translate(815.234375 0)"/>
    <use xlink:href="#DejaVuSans-Bold-20" transform="translate(874.755859 0)"/>
    <use xlink:href="#DejaVuSans-Bold-48" transform="translate(909.570312 0)"/>
    <use xlink:href="#DejaVuSans-Bold-69" transform="translate(993.261719 0)"/>
    <use xlink:href="#DejaVuSans-Bold-67" transform="translate(1027.539062 0)"/>
    <use xlink:href="#DejaVuSans-Bold-68" transform="translate(1099.121094 0)"/>
    <use xlink:href="#DejaVuSans-Bold-6c" transform="translate(1170.3125 0)"/>
    <use xlink:href="#DejaVuSans-Bold-69" transform="translate(1204.589844 0)"/>
    <use xlink:href="#DejaVuSans-Bold-67" transform="translate(1238.867188 0)"/>
    <use xlink:href="#DejaVuSans-Bold-68" transform="translate(1310.449219 0)"/>
    <use xlink:href="#DejaVuSans-Bold-74" transform="translate(1381.640625 0)"/>
    <use xlink:href="#DejaVuSans-Bold-69" transform="translate(1429.443359 0)"/>
    <use xlink:href="#DejaVuSans-Bold-6e" transform="translate(1463.720703 0)"/>
    <use xlink:href="#DejaVuSans-Bold-67" transform="translate(1534.912109 0)"/>
    <use xlink:href="#DejaVuSans-Bold-20" transform="translate(1606.494141 0)"/>
    <use xlink:href="#DejaVuSans-Bold-4d" transform="translate(1641.308594 0)"/>
    <use xlink:href="#DejaVuSans-Bold-6f" transform="translate(1740.820312 0)"/>
    <use xlink:href="#DejaVuSans-Bold-64" transform="translate(1809.521484 0)"/>
    <use xlink:href="#DejaVuSans-Bold-65" transform="translate(1881.103516 0)"/>
    <use xlink:href="#DejaVuSans-Bold-6c" transform="translate(1948.925781 0)"/>
    <use xlink:href="#DejaVuSans-Bold-20" transform="translate(1983.203125 0)"/>
    <use xlink:href="#DejaVuSans-Bold-44" transform="translate(2018.017578 0)"/>
    <use xlink:href="#DejaVuSans-Bold-69" transform="translate(2101.025391 0)"/>
    <use xlink:href="#DejaVuSans-Bold-66" transform="translate(2135.302734 0)"/>
    <use xlink:href="#DejaVuSans-Bold-66" transform="translate(2178.808594 0)"/>
    <use xlink:href="#DejaVuSans-Bold-65" transform="translate(2222.314453 0)"/>
    <use xlink:href="#DejaVuSans-Bold-72" transform="translate(2290.136719 0)"/>
    <use xlink:href="#DejaVuSans-Bold-65" transform="translate(2339.453125 0)"/>
    <use xlink:href="#DejaVuSans-Bold-6e" transform="translate(2407.275391 0)"/>
    <use xlink:href="#DejaVuSans-Bold-63" transform="translate(2478.466797 0)"/>
    <use xlink:href="#DejaVuSans-Bold-65" transform="translate(2537.744141 0)"/>
    <use xlink:href="#DejaVuSans-Bold-73" transform="translate(2605.566406 0)"/>
   </g>
  </g>
 </g>
 <defs>
  <clipPath id="p92191dd6fa">
   <rect x="46.965625" y="67.512" width="376.027818" height="251.2"/>
  </clipPath>
  <clipPath id="p5528fae30b">
   <rect x="488.087807" y="67.512" width="376.027818" height="251.2"/>
  </clipPath>
 </defs>
</svg>
